<svg width="143" height="143" viewBox="0 0 143 143" fill="none" xmlns="http://www.w3.org/2000/svg">
<g filter="url(#filter0_d_340_10699)">
<rect x="4" width="135" height="135" rx="10" fill="white"/>
</g>
<path d="M44.1152 85.0801C44.1152 86.0762 43.7441 86.8444 43.002 87.3848C42.2598 87.9251 41.2181 88.1953 39.877 88.1953C38.4577 88.1953 37.3509 87.9707 36.5566 87.5215V86.0176C37.071 86.278 37.6211 86.4831 38.207 86.6328C38.7995 86.7826 39.3691 86.8574 39.916 86.8574C40.7624 86.8574 41.4134 86.724 41.8691 86.457C42.3249 86.1836 42.5527 85.7702 42.5527 85.2168C42.5527 84.8001 42.3704 84.4453 42.0059 84.1523C41.6478 83.8529 40.9447 83.5013 39.8965 83.0977C38.9004 82.7266 38.1908 82.4043 37.7676 82.1309C37.3509 81.8509 37.0384 81.5352 36.8301 81.1836C36.6283 80.832 36.5273 80.4121 36.5273 79.9238C36.5273 79.0514 36.8822 78.3646 37.5918 77.8633C38.3014 77.3555 39.2747 77.1016 40.5117 77.1016C41.6641 77.1016 42.7904 77.3359 43.8906 77.8047L43.3145 79.123C42.2402 78.6803 41.2669 78.459 40.3945 78.459C39.6263 78.459 39.0469 78.5794 38.6562 78.8203C38.2656 79.0612 38.0703 79.3932 38.0703 79.8164C38.0703 80.1029 38.1419 80.347 38.2852 80.5488C38.4349 80.7507 38.6725 80.9427 38.998 81.125C39.3236 81.3073 39.9486 81.571 40.873 81.916C42.1426 82.3783 42.9987 82.8438 43.4414 83.3125C43.8906 83.7812 44.1152 84.3704 44.1152 85.0801ZM50.2188 86.8574C50.5052 86.8574 50.7819 86.8379 51.0488 86.7988C51.3158 86.7533 51.5273 86.7077 51.6836 86.6621V87.9023C51.5078 87.987 51.2474 88.0553 50.9023 88.1074C50.5638 88.166 50.2578 88.1953 49.9844 88.1953C47.9141 88.1953 46.8789 87.1048 46.8789 84.9238V78.5566H45.3457V77.7754L46.8789 77.1016L47.5625 74.8164H48.5V77.2969H51.6055V78.5566H48.5V84.8555C48.5 85.5 48.653 85.9948 48.959 86.3398C49.265 86.6849 49.6849 86.8574 50.2188 86.8574ZM60.4141 88L60.0918 86.4766H60.0137C59.4798 87.1471 58.946 87.6029 58.4121 87.8438C57.8848 88.0781 57.224 88.1953 56.4297 88.1953C55.3685 88.1953 54.5352 87.9219 53.9297 87.375C53.3307 86.8281 53.0312 86.0501 53.0312 85.041C53.0312 82.8796 54.7598 81.7467 58.2168 81.6426L60.0332 81.584V80.9199C60.0332 80.0801 59.8509 79.4616 59.4863 79.0645C59.1283 78.6608 58.5521 78.459 57.7578 78.459C56.8659 78.459 55.8568 78.7324 54.7305 79.2793L54.2324 78.0391C54.7598 77.7526 55.3359 77.528 55.9609 77.3652C56.5924 77.2025 57.224 77.1211 57.8555 77.1211C59.1315 77.1211 60.0755 77.4043 60.6875 77.9707C61.306 78.5371 61.6152 79.4453 61.6152 80.6953V88H60.4141ZM56.752 86.8574C57.7611 86.8574 58.5521 86.5807 59.125 86.0273C59.7044 85.474 59.9941 84.6992 59.9941 83.7031V82.7363L58.373 82.8047C57.084 82.8503 56.153 83.0521 55.5801 83.4102C55.0137 83.7617 54.7305 84.3118 54.7305 85.0605C54.7305 85.6465 54.9062 86.0924 55.2578 86.3984C55.6159 86.7044 56.1139 86.8574 56.752 86.8574ZM69.8477 77.1016C70.3229 77.1016 70.7493 77.1406 71.127 77.2188L70.9023 78.7227C70.4596 78.625 70.069 78.5762 69.7305 78.5762C68.8646 78.5762 68.1224 78.9277 67.5039 79.6309C66.8919 80.334 66.5859 81.2096 66.5859 82.2578V88H64.9648V77.2969H66.3027L66.4883 79.2793H66.5664C66.9635 78.5827 67.4421 78.0456 68.002 77.668C68.5618 77.2904 69.1771 77.1016 69.8477 77.1016ZM74.7305 82.5215C75.0104 82.1243 75.4368 81.6035 76.0098 80.959L79.4668 77.2969H81.3906L77.0547 81.8574L81.6934 88H79.7305L75.9512 82.9414L74.7305 83.9961V88H73.1289V72.8047H74.7305V80.8613C74.7305 81.2194 74.7044 81.7728 74.6523 82.5215H74.7305ZM88.1582 88.1953C86.5762 88.1953 85.3262 87.7135 84.4082 86.75C83.4967 85.7865 83.041 84.4486 83.041 82.7363C83.041 81.0111 83.4642 79.6406 84.3105 78.625C85.1634 77.6094 86.306 77.1016 87.7383 77.1016C89.0794 77.1016 90.1406 77.5443 90.9219 78.4297C91.7031 79.3086 92.0938 80.4707 92.0938 81.916V82.9414H84.7207C84.7533 84.1979 85.069 85.1517 85.668 85.8027C86.2734 86.4538 87.123 86.7793 88.2168 86.7793C89.3691 86.7793 90.5085 86.5384 91.6348 86.0566V87.502C91.0618 87.7493 90.5182 87.9251 90.0039 88.0293C89.4961 88.14 88.8809 88.1953 88.1582 88.1953ZM87.7188 78.459C86.8594 78.459 86.1725 78.7389 85.6582 79.2988C85.1504 79.8587 84.8509 80.6335 84.7598 81.623H90.3555C90.3555 80.6009 90.1276 79.8197 89.6719 79.2793C89.2161 78.7324 88.5651 78.459 87.7188 78.459ZM99.75 77.1016C100.225 77.1016 100.652 77.1406 101.029 77.2188L100.805 78.7227C100.362 78.625 99.9714 78.5762 99.6328 78.5762C98.7669 78.5762 98.0247 78.9277 97.4062 79.6309C96.7943 80.334 96.4883 81.2096 96.4883 82.2578V88H94.8672V77.2969H96.2051L96.3906 79.2793H96.4688C96.8659 78.5827 97.3444 78.0456 97.9043 77.668C98.4642 77.2904 99.0794 77.1016 99.75 77.1016ZM61.3613 113H59.7207L56.8398 103.439C56.7031 103.016 56.5501 102.482 56.3809 101.838C56.2116 101.193 56.1237 100.806 56.1172 100.676C55.974 101.535 55.7461 102.476 55.4336 103.498L52.6406 113H51L47.2012 98.7227H48.959L51.2148 107.541C51.5273 108.778 51.7552 109.898 51.8984 110.9C52.0742 109.709 52.3346 108.544 52.6797 107.404L55.2383 98.7227H56.9961L59.6816 107.482C59.9941 108.492 60.2578 109.631 60.4727 110.9C60.5964 109.976 60.8307 108.85 61.1758 107.521L63.4219 98.7227H65.1797L61.3613 113ZM68.793 113H67.1719V102.297H68.793V113ZM67.0352 99.3965C67.0352 99.0254 67.1263 98.7552 67.3086 98.5859C67.4909 98.4102 67.7188 98.3223 67.9922 98.3223C68.2526 98.3223 68.4772 98.4102 68.666 98.5859C68.8548 98.7617 68.9492 99.0319 68.9492 99.3965C68.9492 99.7611 68.8548 100.035 68.666 100.217C68.4772 100.393 68.2526 100.48 67.9922 100.48C67.7188 100.48 67.4909 100.393 67.3086 100.217C67.1263 100.035 67.0352 99.7611 67.0352 99.3965ZM79.5547 113V106.076C79.5547 105.204 79.3561 104.553 78.959 104.123C78.5618 103.693 77.9401 103.479 77.0938 103.479C75.974 103.479 75.1536 103.781 74.6328 104.387C74.112 104.992 73.8516 105.992 73.8516 107.385V113H72.2305V102.297H73.5488L73.8125 103.762H73.8906C74.2227 103.234 74.6882 102.827 75.2871 102.541C75.8861 102.248 76.5534 102.102 77.2891 102.102C78.5781 102.102 79.5482 102.414 80.1992 103.039C80.8503 103.658 81.1758 104.65 81.1758 106.018V113H79.5547ZM91.8008 111.564H91.7129C90.9642 112.652 89.8444 113.195 88.3535 113.195C86.9538 113.195 85.8633 112.717 85.082 111.76C84.3073 110.803 83.9199 109.442 83.9199 107.678C83.9199 105.913 84.3105 104.543 85.0918 103.566C85.873 102.59 86.9603 102.102 88.3535 102.102C89.8053 102.102 90.9186 102.629 91.6934 103.684H91.8203L91.752 102.912L91.7129 102.16V97.8047H93.334V113H92.0156L91.8008 111.564ZM88.5586 111.838C89.6654 111.838 90.4661 111.538 90.9609 110.939C91.4622 110.334 91.7129 109.361 91.7129 108.02V107.678C91.7129 106.161 91.459 105.08 90.9512 104.436C90.4499 103.785 89.6458 103.459 88.5391 103.459C87.5885 103.459 86.8594 103.83 86.3516 104.572C85.8503 105.308 85.5996 106.35 85.5996 107.697C85.5996 109.064 85.8503 110.096 86.3516 110.793C86.8529 111.49 87.5885 111.838 88.5586 111.838Z" fill="#636363"/>
<g clip-path="url(#clip0_340_10699)">
<path d="M69.9423 38.6568C63.7053 38.6568 57.4683 38.6917 51.2256 38.6102C50.4971 38.6102 49.4979 38.1448 49.1149 37.5629C48.3576 36.4139 49.4403 35.1775 51.1306 35.1688C56.7917 35.1455 62.4527 35.1455 68.1196 35.1368C74.7424 35.1368 81.3652 35.1368 87.9881 35.1077C90.4155 35.1077 92.7594 34.6364 94.8614 33.3099C98.8524 30.7877 100.076 25.4553 97.5537 21.6153C95.5697 18.584 91.7314 17.5979 89.0218 19.4277C86.7729 20.9462 86.0645 23.5993 87.2941 25.9179C88.2443 27.7186 89.805 28.2829 91.6421 27.4888C91.8609 27.3899 92.0743 27.2792 92.2814 27.1571C93.9399 26.2146 94.7923 26.2349 95.4027 27.2328C96.0516 28.2917 95.5793 29.2827 93.986 30.2059C91.1065 31.8844 88.1752 31.7302 85.958 29.7811C83.5133 27.6313 82.5861 23.8379 83.7494 20.7455C85.5693 15.9019 91.0576 13.6502 95.898 15.8408C99.6125 17.5222 101.752 20.4953 102.216 24.568C102.745 29.2226 101.095 33.048 97.3205 35.8291C94.4986 37.9062 91.2303 38.5957 87.8182 38.6102C81.8691 38.6364 75.9201 38.6102 69.9653 38.6102L69.9423 38.6568Z" fill="#C0BEBE"/>
<path d="M67.6591 42.6887C76.5855 42.6887 85.512 42.6887 94.4384 42.6887C97.266 42.6887 99.9987 43.1396 102.501 44.5098C106.564 46.7352 109.011 50.1447 109.009 54.8894C109.006 59.6342 106.509 62.9069 102.466 65.0712C99.7741 66.5025 96.8456 66.9622 93.8279 67.0029C92.7452 67.0029 91.9044 66.5898 91.8411 65.3796C91.772 64.0938 92.5754 63.5469 93.7387 63.5149C96.6585 63.4363 99.4775 62.9767 101.965 61.3011C105.962 58.6101 106.754 53.6414 103.722 49.9265C101.476 47.1745 98.3689 46.2756 94.9941 46.2203C90.7699 46.1505 86.5486 46.1941 82.3244 46.1912L40.7186 46.1592C40.3817 46.1592 40.0477 46.1592 39.7108 46.1592C38.1847 46.1243 37.4072 45.5192 37.4072 44.3847C37.4072 43.2502 38.1732 42.6683 39.7367 42.6683C49.0452 42.6683 58.3555 42.6683 67.6678 42.6683L67.6591 42.6887Z" fill="#C0BEBE"/>
<path d="M56.3574 29.6822C50.0226 29.6822 43.6877 29.7113 37.3528 29.6444C36.6473 29.6444 35.7 29.2662 35.294 28.7309C34.4992 27.6924 35.3861 26.2902 36.8172 26.2087C38.1562 26.1331 39.5009 26.1884 40.8485 26.1913L74.6739 26.2494C75.1058 26.2494 75.5377 26.232 75.9668 26.2669C77.0783 26.3571 77.8039 26.9098 77.752 28.1025C77.706 29.2196 76.9861 29.7229 75.9293 29.7316C73.5797 29.7491 71.2271 29.7316 68.8774 29.7316H56.3546L56.3574 29.6822Z" fill="#C0BEBE"/>
</g>
<defs>
<filter id="filter0_d_340_10699" x="0" y="0" width="143" height="143" filterUnits="userSpaceOnUse" color-interpolation-filters="sRGB">
<feFlood flood-opacity="0" result="BackgroundImageFix"/>
<feColorMatrix in="SourceAlpha" type="matrix" values="0 0 0 0 0 0 0 0 0 0 0 0 0 0 0 0 0 0 127 0" result="hardAlpha"/>
<feOffset dy="4"/>
<feGaussianBlur stdDeviation="2"/>
<feComposite in2="hardAlpha" operator="out"/>
<feColorMatrix type="matrix" values="0 0 0 0 0 0 0 0 0 0 0 0 0 0 0 0 0 0 0.25 0"/>
<feBlend mode="normal" in2="BackgroundImageFix" result="effect1_dropShadow_340_10699"/>
<feBlend mode="normal" in="SourceGraphic" in2="effect1_dropShadow_340_10699" result="shape"/>
</filter>
<clipPath id="clip0_340_10699">
<rect width="74" height="52" fill="white" transform="translate(35 15)"/>
</clipPath>
</defs>
</svg>
