<svg width="143" height="143" viewBox="0 0 143 143" fill="none" xmlns="http://www.w3.org/2000/svg">
<g filter="url(#filter0_d_340_10070)">
<rect x="4" width="135" height="135" rx="10" fill="#636363"/>
</g>
<path d="M51.4609 73.7227L47.7305 88H45.1719L42.7891 79.4453C42.7305 79.237 42.6654 78.9896 42.5938 78.7031C42.5221 78.4167 42.4505 78.1237 42.3789 77.8242C42.3138 77.5247 42.2552 77.2513 42.2031 77.0039C42.1576 76.75 42.125 76.5547 42.1055 76.418C42.0924 76.5547 42.0632 76.7467 42.0176 76.9941C41.972 77.2415 41.9167 77.515 41.8516 77.8145C41.793 78.1074 41.7279 78.4004 41.6562 78.6934C41.5846 78.9798 41.5195 79.2337 41.4609 79.4551L39.1172 88H36.5684L32.8477 73.7227H35.2012L37.2617 82.0918C37.3268 82.3587 37.3919 82.6484 37.457 82.9609C37.5286 83.2669 37.5938 83.5762 37.6523 83.8887C37.7174 84.2012 37.776 84.5072 37.8281 84.8066C37.8802 85.0996 37.9225 85.3665 37.9551 85.6074C37.9876 85.36 38.0299 85.0866 38.082 84.7871C38.1341 84.4811 38.1895 84.1719 38.248 83.8594C38.3132 83.5404 38.3783 83.2344 38.4434 82.9414C38.515 82.6484 38.5866 82.3848 38.6582 82.1504L40.9824 73.7227H43.2676L45.6406 82.1797C45.7122 82.4206 45.7806 82.6908 45.8457 82.9902C45.9173 83.2897 45.9857 83.5957 46.0508 83.9082C46.1159 84.2207 46.1745 84.5234 46.2266 84.8164C46.2786 85.1094 46.321 85.373 46.3535 85.6074C46.3991 85.2884 46.4577 84.9238 46.5293 84.5137C46.6009 84.1035 46.6823 83.6868 46.7734 83.2637C46.8646 82.8405 46.9557 82.4499 47.0469 82.0918L49.0977 73.7227H51.4609ZM62.8184 82.5703C62.8184 83.4688 62.7012 84.2663 62.4668 84.9629C62.2324 85.6595 61.8906 86.2487 61.4414 86.7305C60.9922 87.2057 60.4518 87.5703 59.8203 87.8242C59.1888 88.0716 58.4759 88.1953 57.6816 88.1953C56.9395 88.1953 56.2591 88.0716 55.6406 87.8242C55.0221 87.5703 54.485 87.2057 54.0293 86.7305C53.5801 86.2487 53.2318 85.6595 52.9844 84.9629C52.737 84.2663 52.6133 83.4688 52.6133 82.5703C52.6133 81.3789 52.8184 80.3698 53.2285 79.543C53.6452 78.7096 54.2376 78.0749 55.0059 77.6387C55.7741 77.2025 56.6888 76.9844 57.75 76.9844C58.7461 76.9844 59.625 77.2025 60.3867 77.6387C61.1484 78.0749 61.7441 78.7096 62.1738 79.543C62.6035 80.3763 62.8184 81.3854 62.8184 82.5703ZM54.9766 82.5703C54.9766 83.3581 55.071 84.0319 55.2598 84.5918C55.4551 85.1517 55.7546 85.5814 56.1582 85.8809C56.5618 86.1738 57.0827 86.3203 57.7207 86.3203C58.3587 86.3203 58.8796 86.1738 59.2832 85.8809C59.6868 85.5814 59.9831 85.1517 60.1719 84.5918C60.3607 84.0319 60.4551 83.3581 60.4551 82.5703C60.4551 81.7826 60.3607 81.1152 60.1719 80.5684C59.9831 80.015 59.6868 79.5951 59.2832 79.3086C58.8796 79.0156 58.3555 78.8691 57.7109 78.8691C56.7604 78.8691 56.0671 79.1882 55.6309 79.8262C55.1947 80.4642 54.9766 81.3789 54.9766 82.5703ZM67.7598 88H65.4551V72.8047H67.7598V88ZM73.3359 72.8047V80.1484C73.3359 80.4805 73.3229 80.8451 73.2969 81.2422C73.2708 81.6328 73.2448 82.0007 73.2188 82.3457H73.2676C73.4368 82.1178 73.6387 81.8509 73.873 81.5449C74.1139 81.2389 74.3418 80.972 74.5566 80.7441L77.8574 77.1895H80.4941L76.168 81.8379L80.7773 88H78.082L74.625 83.2539L73.3359 84.3574V88H71.041V72.8047H73.3359ZM86.8125 76.9844C87.776 76.9844 88.6029 77.1829 89.293 77.5801C89.9831 77.9772 90.5137 78.5404 90.8848 79.2695C91.2559 79.9987 91.4414 80.8711 91.4414 81.8867V83.1172H84.2246C84.2507 84.1654 84.5306 84.9727 85.0645 85.5391C85.6048 86.1055 86.36 86.3887 87.3301 86.3887C88.0202 86.3887 88.6387 86.3236 89.1855 86.1934C89.7389 86.0566 90.3086 85.8581 90.8945 85.5977V87.4629C90.3542 87.7168 89.804 87.9023 89.2441 88.0195C88.6842 88.1367 88.0137 88.1953 87.2324 88.1953C86.1712 88.1953 85.237 87.9902 84.4297 87.5801C83.6289 87.1634 83.0007 86.5449 82.5449 85.7246C82.0957 84.9043 81.8711 83.8854 81.8711 82.668C81.8711 81.457 82.0762 80.4284 82.4863 79.582C82.8965 78.7357 83.4727 78.0911 84.2148 77.6484C84.957 77.2057 85.8229 76.9844 86.8125 76.9844ZM86.8125 78.7129C86.0898 78.7129 85.5039 78.9473 85.0547 79.416C84.612 79.8848 84.3516 80.5716 84.2734 81.4766H89.1953C89.1888 80.9362 89.0977 80.4577 88.9219 80.041C88.7526 79.6243 88.4922 79.2988 88.1406 79.0645C87.7956 78.8301 87.3529 78.7129 86.8125 78.7129ZM99.6641 76.9844C100.882 76.9844 101.829 77.3001 102.506 77.9316C103.189 78.5566 103.531 79.5625 103.531 80.9492V88H101.236V81.3789C101.236 80.5391 101.064 79.9108 100.719 79.4941C100.374 79.071 99.8398 78.8594 99.1172 78.8594C98.069 78.8594 97.3398 79.1816 96.9297 79.8262C96.526 80.4707 96.3242 81.4049 96.3242 82.6289V88H94.0293V77.1895H95.8164L96.1387 78.6543H96.2656C96.5 78.2767 96.7897 77.9674 97.1348 77.7266C97.4863 77.4792 97.877 77.2936 98.3066 77.1699C98.7428 77.0462 99.1953 76.9844 99.6641 76.9844ZM30.1816 113H21.9688V111.584L27.4277 103.957H22.3008V102.189H30.0254V103.752L24.6738 111.232H30.1816V113ZM34.8105 102.189V113H32.5156V102.189H34.8105ZM33.6777 98.0488C34.0293 98.0488 34.332 98.1432 34.5859 98.332C34.8464 98.5208 34.9766 98.8464 34.9766 99.3086C34.9766 99.7643 34.8464 100.09 34.5859 100.285C34.332 100.474 34.0293 100.568 33.6777 100.568C33.3132 100.568 33.0039 100.474 32.75 100.285C32.5026 100.09 32.3789 99.7643 32.3789 99.3086C32.3789 98.8464 32.5026 98.5208 32.75 98.332C33.0039 98.1432 33.3132 98.0488 33.6777 98.0488ZM42.4082 101.984C43.3717 101.984 44.1986 102.183 44.8887 102.58C45.5788 102.977 46.1094 103.54 46.4805 104.27C46.8516 104.999 47.0371 105.871 47.0371 106.887V108.117H39.8203C39.8464 109.165 40.1263 109.973 40.6602 110.539C41.2005 111.105 41.9557 111.389 42.9258 111.389C43.6159 111.389 44.2344 111.324 44.7812 111.193C45.3346 111.057 45.9043 110.858 46.4902 110.598V112.463C45.9499 112.717 45.3997 112.902 44.8398 113.02C44.2799 113.137 43.6094 113.195 42.8281 113.195C41.7669 113.195 40.8327 112.99 40.0254 112.58C39.2246 112.163 38.5964 111.545 38.1406 110.725C37.6914 109.904 37.4668 108.885 37.4668 107.668C37.4668 106.457 37.6719 105.428 38.082 104.582C38.4922 103.736 39.0684 103.091 39.8105 102.648C40.5527 102.206 41.4186 101.984 42.4082 101.984ZM42.4082 103.713C41.6855 103.713 41.0996 103.947 40.6504 104.416C40.2077 104.885 39.9473 105.572 39.8691 106.477H44.791C44.7845 105.936 44.6934 105.458 44.5176 105.041C44.3483 104.624 44.0879 104.299 43.7363 104.064C43.3913 103.83 42.9486 103.713 42.4082 103.713ZM51.9199 97.8047V101.623C51.9199 102.02 51.9069 102.408 51.8809 102.785C51.8613 103.163 51.8385 103.456 51.8125 103.664H51.9395C52.1673 103.286 52.4473 102.977 52.7793 102.736C53.1113 102.489 53.4824 102.303 53.8926 102.18C54.3092 102.056 54.752 101.994 55.2207 101.994C56.0475 101.994 56.7507 102.134 57.3301 102.414C57.9095 102.688 58.3522 103.114 58.6582 103.693C58.9707 104.273 59.127 105.025 59.127 105.949V113H56.832V106.379C56.832 105.539 56.6595 104.911 56.3145 104.494C55.9694 104.071 55.4355 103.859 54.7129 103.859C54.0163 103.859 53.4629 104.006 53.0527 104.299C52.6491 104.585 52.3594 105.012 52.1836 105.578C52.0078 106.138 51.9199 106.822 51.9199 107.629V113H49.625V97.8047H51.9199ZM66.6465 101.984C67.61 101.984 68.4368 102.183 69.127 102.58C69.8171 102.977 70.3477 103.54 70.7188 104.27C71.0898 104.999 71.2754 105.871 71.2754 106.887V108.117H64.0586C64.0846 109.165 64.3646 109.973 64.8984 110.539C65.4388 111.105 66.194 111.389 67.1641 111.389C67.8542 111.389 68.4727 111.324 69.0195 111.193C69.5729 111.057 70.1426 110.858 70.7285 110.598V112.463C70.1882 112.717 69.638 112.902 69.0781 113.02C68.5182 113.137 67.8477 113.195 67.0664 113.195C66.0052 113.195 65.071 112.99 64.2637 112.58C63.4629 112.163 62.8346 111.545 62.3789 110.725C61.9297 109.904 61.7051 108.885 61.7051 107.668C61.7051 106.457 61.9102 105.428 62.3203 104.582C62.7305 103.736 63.3066 103.091 64.0488 102.648C64.791 102.206 65.6569 101.984 66.6465 101.984ZM66.6465 103.713C65.9238 103.713 65.3379 103.947 64.8887 104.416C64.446 104.885 64.1855 105.572 64.1074 106.477H69.0293C69.0228 105.936 68.9316 105.458 68.7559 105.041C68.5866 104.624 68.3262 104.299 67.9746 104.064C67.6296 103.83 67.1868 103.713 66.6465 103.713ZM79.498 101.984C80.7155 101.984 81.6628 102.3 82.3398 102.932C83.0234 103.557 83.3652 104.562 83.3652 105.949V113H81.0703V106.379C81.0703 105.539 80.8978 104.911 80.5527 104.494C80.2077 104.071 79.6738 103.859 78.9512 103.859C77.903 103.859 77.1738 104.182 76.7637 104.826C76.36 105.471 76.1582 106.405 76.1582 107.629V113H73.8633V102.189H75.6504L75.9727 103.654H76.0996C76.334 103.277 76.6237 102.967 76.9688 102.727C77.3203 102.479 77.7109 102.294 78.1406 102.17C78.5768 102.046 79.0293 101.984 79.498 101.984ZM96.0117 101.984C97.3789 101.984 98.4108 102.287 99.1074 102.893C99.8105 103.498 100.162 104.442 100.162 105.725V113H98.5312L98.0918 111.467H98.0137C97.7077 111.857 97.3919 112.18 97.0664 112.434C96.7409 112.688 96.3633 112.876 95.9336 113C95.5104 113.13 94.9928 113.195 94.3809 113.195C93.7363 113.195 93.1602 113.078 92.6523 112.844C92.1445 112.603 91.7441 112.238 91.4512 111.75C91.1582 111.262 91.0117 110.643 91.0117 109.895C91.0117 108.781 91.4251 107.945 92.252 107.385C93.0853 106.825 94.3418 106.516 96.0215 106.457L97.8965 106.389V105.822C97.8965 105.074 97.7207 104.54 97.3691 104.221C97.0241 103.902 96.5358 103.742 95.9043 103.742C95.3639 103.742 94.8398 103.82 94.332 103.977C93.8242 104.133 93.3294 104.325 92.8477 104.553L92.1055 102.932C92.6328 102.652 93.2318 102.424 93.9023 102.248C94.5794 102.072 95.2826 101.984 96.0117 101.984ZM97.8867 107.834L96.4902 107.883C95.3444 107.922 94.5404 108.117 94.0781 108.469C93.6159 108.82 93.3848 109.302 93.3848 109.914C93.3848 110.448 93.5443 110.839 93.8633 111.086C94.1823 111.327 94.6022 111.447 95.123 111.447C95.9173 111.447 96.5749 111.223 97.0957 110.773C97.623 110.318 97.8867 109.65 97.8867 108.771V107.834ZM112.799 102.189V113H110.992L110.68 111.545H110.553C110.325 111.916 110.035 112.225 109.684 112.473C109.332 112.714 108.941 112.893 108.512 113.01C108.082 113.133 107.63 113.195 107.154 113.195C106.34 113.195 105.644 113.059 105.064 112.785C104.492 112.505 104.052 112.076 103.746 111.496C103.44 110.917 103.287 110.168 103.287 109.25V102.189H105.592V108.82C105.592 109.66 105.761 110.288 106.1 110.705C106.445 111.122 106.979 111.33 107.701 111.33C108.398 111.33 108.951 111.187 109.361 110.9C109.771 110.614 110.061 110.191 110.23 109.631C110.406 109.071 110.494 108.384 110.494 107.57V102.189H112.799ZM121.49 103.938H118.863V113H116.568V103.938H114.801V102.834L116.568 102.16V101.408C116.568 100.49 116.712 99.7611 116.998 99.2207C117.291 98.6803 117.708 98.293 118.248 98.0586C118.795 97.8177 119.446 97.6973 120.201 97.6973C120.696 97.6973 121.148 97.7396 121.559 97.8242C121.969 97.9023 122.314 97.9935 122.594 98.0977L121.998 99.8359C121.777 99.7643 121.529 99.6992 121.256 99.6406C120.982 99.5755 120.689 99.543 120.377 99.543C119.856 99.543 119.472 99.7057 119.225 100.031C118.984 100.357 118.863 100.832 118.863 101.457V102.189H121.49V103.938Z" fill="white"/>
<g clip-path="url(#clip0_340_10070)">
<path d="M76.9999 29.9577C76.9622 30.0377 76.9162 30.1149 76.8868 30.1977C76.5318 31.1798 75.7445 31.772 74.7015 31.7877C73.4782 31.8061 72.254 31.8097 71.0308 31.7877C69.7118 31.7628 68.7314 30.7504 68.7378 29.4749C68.7498 28.2224 69.733 27.2329 71.0308 27.2081C72.2089 27.186 73.3862 27.197 74.5644 27.2081C75.7426 27.2191 76.5124 27.7672 76.9107 28.8918C76.9363 28.9453 76.9671 28.9961 77.0027 29.0436L76.9999 29.9577Z" fill="#F5D46B"/>
<path d="M53.0396 53.0001C52.9595 52.9624 52.8823 52.9164 52.7995 52.887C51.8172 52.532 51.224 51.7448 51.2083 50.702C51.189 49.4789 51.1863 48.254 51.2083 47.031C51.2323 45.7141 52.2477 44.7273 53.5215 44.7384C54.7742 44.7494 55.7648 45.7325 55.7887 47.031C55.8108 48.208 55.8006 49.387 55.7933 50.5641C55.7859 51.7412 55.2332 52.5127 54.1092 52.9109C54.0558 52.9365 54.0049 52.9673 53.9575 53.0029L53.0396 53.0001Z" fill="#F5D46B"/>
<path d="M53.5058 41.2623C47.0262 41.2706 41.7588 36.0151 41.7331 29.519C41.7073 23.0229 47.0253 17.7177 53.5113 17.7361C59.9974 17.7545 65.2648 23.0248 65.2584 29.5071C65.2542 32.6227 64.0148 35.6096 61.8118 37.8131C59.6088 40.0166 56.6219 41.257 53.5058 41.2623Z" fill="#F5D46B"/>
<path d="M38.549 46.892C37.5575 46.7495 36.8493 46.3228 36.4465 45.4786C36.0528 44.651 36.0868 43.7948 36.7049 43.1143C37.6579 42.0598 38.6633 41.0537 39.7171 40.0998C40.578 39.3246 41.9006 39.4561 42.72 40.2709C43.5395 41.0857 43.6738 42.4145 42.904 43.2734C41.9497 44.3271 40.9421 45.3314 39.8854 46.2823C39.5396 46.5959 38.9997 46.6943 38.549 46.892Z" fill="#F5D46B"/>
<path d="M36.2164 14.4852C36.2504 13.5463 36.6836 12.8428 37.5289 12.4437C38.3566 12.0529 39.212 12.0943 39.8917 12.7122C40.9319 13.6576 41.9354 14.6489 42.8772 15.6908C43.6719 16.57 43.5505 17.9034 42.7172 18.7255C41.8839 19.5476 40.5631 19.6635 39.682 18.8653C38.652 17.93 37.6697 16.9436 36.7388 15.9097C36.416 15.5529 36.3093 15.0011 36.1042 14.5376L36.2164 14.4852Z" fill="#F5D46B"/>
<path d="M70.7741 14.6426C70.7824 15.1842 70.5074 15.7314 70.0475 16.1939C69.2289 17.0216 68.4159 17.8492 67.5817 18.6585C66.5791 19.6314 65.1673 19.6424 64.2559 18.7081C63.3444 17.7738 63.3766 16.4091 64.3368 15.4141C65.156 14.5687 65.989 13.7364 66.8358 12.9174C67.5771 12.2001 68.4545 12.0171 69.411 12.4144C70.2664 12.7693 70.7796 13.5961 70.7741 14.6426Z" fill="#F5D46B"/>
<path d="M68.4987 46.7771C67.8282 46.79 67.2772 46.5196 66.8137 46.0626C65.9758 45.2349 65.1342 44.4073 64.3175 43.5622C63.3665 42.5736 63.3619 41.1786 64.2752 40.27C65.1885 39.3614 66.581 39.3725 67.5679 40.327C68.4263 41.1559 69.2691 42.0001 70.0963 42.8596C70.799 43.5889 70.9847 44.4606 70.5847 45.3959C70.2011 46.2934 69.4754 46.7422 68.4987 46.7771Z" fill="#F5D46B"/>
<path d="M51.2029 10.1152C51.2029 9.51842 51.1919 8.91975 51.2029 8.32569C51.2333 7.00514 52.2238 6.00461 53.4894 6.00002C54.755 5.99542 55.764 6.99502 55.7888 8.31189C55.809 9.52025 55.8072 10.7286 55.7888 11.937C55.7686 13.2612 54.7771 14.2553 53.5032 14.259C52.2294 14.2627 51.236 13.2713 51.2038 11.9498C51.191 11.3374 51.2029 10.7268 51.2029 10.1152Z" fill="#F5D46B"/>
<path d="M34.1149 31.7923C33.518 31.7923 32.9192 31.8042 32.326 31.7923C31.0034 31.7619 30.0036 30.7733 29.9999 29.5071C29.9963 28.2408 30.9951 27.232 32.3122 27.208C33.5207 27.1878 34.729 27.1878 35.9369 27.208C37.2632 27.2292 38.2556 28.2196 38.2584 29.4933C38.2611 30.7669 37.2733 31.7582 35.9498 31.7923C35.3428 31.8051 34.7265 31.7923 34.1149 31.7923Z" fill="#F5D46B"/>
</g>
<g clip-path="url(#clip1_340_10070)">
<path d="M110.868 56.0003C112.489 53.1221 113.216 49.8355 112.959 46.5511C112.701 43.2668 111.47 40.1303 109.419 37.5338C107.369 34.9372 104.59 32.9957 101.43 31.9518C98.2701 30.908 94.8689 30.8081 91.6517 31.6646C90.0484 27.384 87.0731 23.7394 83.1795 21.2867C79.2859 18.8339 74.6878 17.7076 70.0864 18.0796C65.4851 18.4515 61.1331 20.3013 57.6941 23.3468C54.2552 26.3923 51.9181 30.4663 51.0393 34.9475C48.5417 34.3321 45.9352 34.2874 43.4176 34.8169C40.9 35.3463 38.5375 36.436 36.5095 38.0031C34.4814 39.5702 32.8412 41.5736 31.7133 43.8612C30.5854 46.1487 29.9995 48.6603 30 51.2052C29.9974 52.8264 30.2351 54.4393 30.7053 55.9924L110.868 56.0003Z" fill="#BDEDED"/>
</g>
<defs>
<filter id="filter0_d_340_10070" x="0" y="0" width="143" height="143" filterUnits="userSpaceOnUse" color-interpolation-filters="sRGB">
<feFlood flood-opacity="0" result="BackgroundImageFix"/>
<feColorMatrix in="SourceAlpha" type="matrix" values="0 0 0 0 0 0 0 0 0 0 0 0 0 0 0 0 0 0 127 0" result="hardAlpha"/>
<feOffset dy="4"/>
<feGaussianBlur stdDeviation="2"/>
<feComposite in2="hardAlpha" operator="out"/>
<feColorMatrix type="matrix" values="0 0 0 0 0 0 0 0 0 0 0 0 0 0 0 0 0 0 0.25 0"/>
<feBlend mode="normal" in2="BackgroundImageFix" result="effect1_dropShadow_340_10070"/>
<feBlend mode="normal" in="SourceGraphic" in2="effect1_dropShadow_340_10070" result="shape"/>
</filter>
<clipPath id="clip0_340_10070">
<rect width="47" height="47" fill="white" transform="translate(30 6)"/>
</clipPath>
<clipPath id="clip1_340_10070">
<rect width="83" height="38" fill="white" transform="translate(30 18)"/>
</clipPath>
</defs>
</svg>
