<svg width="271" height="49" viewBox="0 0 271 49" fill="none" xmlns="http://www.w3.org/2000/svg">
<rect width="271" height="49" rx="24.5" fill="black"/>
<path d="M86.918 24.2363L90.3066 17.7227H92.8359L88.0898 26.4531V32H85.7559V26.541L81 17.7227H83.5488L86.918 24.2363ZM104.047 26.5703C104.047 27.4688 103.93 28.2663 103.695 28.9629C103.461 29.6595 103.119 30.2487 102.67 30.7305C102.221 31.2057 101.68 31.5703 101.049 31.8242C100.417 32.0716 99.7044 32.1953 98.9102 32.1953C98.168 32.1953 97.4876 32.0716 96.8691 31.8242C96.2507 31.5703 95.7135 31.2057 95.2578 30.7305C94.8086 30.2487 94.4603 29.6595 94.2129 28.9629C93.9655 28.2663 93.8418 27.4688 93.8418 26.5703C93.8418 25.3789 94.0469 24.3698 94.457 23.543C94.8737 22.7096 95.4661 22.0749 96.2344 21.6387C97.0026 21.2025 97.9173 20.9844 98.9785 20.9844C99.9746 20.9844 100.854 21.2025 101.615 21.6387C102.377 22.0749 102.973 22.7096 103.402 23.543C103.832 24.3763 104.047 25.3854 104.047 26.5703ZM96.2051 26.5703C96.2051 27.3581 96.2995 28.0319 96.4883 28.5918C96.6836 29.1517 96.9831 29.5814 97.3867 29.8809C97.7904 30.1738 98.3112 30.3203 98.9492 30.3203C99.5872 30.3203 100.108 30.1738 100.512 29.8809C100.915 29.5814 101.212 29.1517 101.4 28.5918C101.589 28.0319 101.684 27.3581 101.684 26.5703C101.684 25.7826 101.589 25.1152 101.4 24.5684C101.212 24.015 100.915 23.5951 100.512 23.3086C100.108 23.0156 99.584 22.8691 98.9395 22.8691C97.9889 22.8691 97.2956 23.1882 96.8594 23.8262C96.4232 24.4642 96.2051 25.3789 96.2051 26.5703ZM116.107 21.1895V32H114.301L113.988 30.5449H113.861C113.633 30.916 113.344 31.2253 112.992 31.4727C112.641 31.7135 112.25 31.8926 111.82 32.0098C111.391 32.1335 110.938 32.1953 110.463 32.1953C109.649 32.1953 108.952 32.0586 108.373 31.7852C107.8 31.5052 107.361 31.0755 107.055 30.4961C106.749 29.9167 106.596 29.168 106.596 28.25V21.1895H108.9V27.8203C108.9 28.6602 109.07 29.2884 109.408 29.7051C109.753 30.1217 110.287 30.3301 111.01 30.3301C111.706 30.3301 112.26 30.1868 112.67 29.9004C113.08 29.6139 113.37 29.1908 113.539 28.6309C113.715 28.071 113.803 27.3841 113.803 26.5703V21.1895H116.107ZM127.064 32L122.953 21.1895H125.385L127.611 27.5371C127.755 27.9408 127.885 28.377 128.002 28.8457C128.119 29.3145 128.201 29.7083 128.246 30.0273H128.324C128.37 29.6953 128.458 29.2982 128.588 28.8359C128.718 28.3672 128.852 27.9342 128.988 27.5371L131.215 21.1895H133.637L129.525 32H127.064ZM142.543 28.9141C142.543 29.6237 142.37 30.2227 142.025 30.7109C141.68 31.1992 141.176 31.5703 140.512 31.8242C139.854 32.0716 139.047 32.1953 138.09 32.1953C137.335 32.1953 136.684 32.14 136.137 32.0293C135.596 31.9251 135.085 31.7624 134.604 31.541V29.5586C135.118 29.7995 135.694 30.0078 136.332 30.1836C136.977 30.3594 137.585 30.4473 138.158 30.4473C138.913 30.4473 139.457 30.3301 139.789 30.0957C140.121 29.8548 140.287 29.5358 140.287 29.1387C140.287 28.9043 140.219 28.696 140.082 28.5137C139.952 28.3249 139.704 28.1328 139.34 27.9375C138.982 27.7357 138.454 27.4948 137.758 27.2148C137.074 26.9414 136.498 26.668 136.029 26.3945C135.561 26.1211 135.206 25.7923 134.965 25.4082C134.724 25.0176 134.604 24.5195 134.604 23.9141C134.604 22.957 134.981 22.2311 135.736 21.7363C136.498 21.235 137.504 20.9844 138.754 20.9844C139.418 20.9844 140.043 21.0527 140.629 21.1895C141.221 21.3197 141.801 21.5117 142.367 21.7656L141.645 23.4941C141.156 23.2793 140.665 23.1035 140.17 22.9668C139.682 22.8236 139.184 22.752 138.676 22.752C138.083 22.752 137.631 22.8431 137.318 23.0254C137.012 23.2077 136.859 23.4681 136.859 23.8066C136.859 24.0605 136.934 24.2754 137.084 24.4512C137.234 24.627 137.491 24.8027 137.855 24.9785C138.227 25.1543 138.741 25.3724 139.398 25.6328C140.043 25.8802 140.6 26.1406 141.068 26.4141C141.544 26.681 141.908 27.0098 142.162 27.4004C142.416 27.791 142.543 28.2956 142.543 28.9141ZM144.691 30.7891C144.691 30.2552 144.828 29.8809 145.102 29.666C145.382 29.4447 145.72 29.334 146.117 29.334C146.514 29.334 146.853 29.4447 147.133 29.666C147.419 29.8809 147.562 30.2552 147.562 30.7891C147.562 31.3099 147.419 31.6875 147.133 31.9219C146.853 32.1497 146.514 32.2637 146.117 32.2637C145.72 32.2637 145.382 32.1497 145.102 31.9219C144.828 31.6875 144.691 31.3099 144.691 30.7891ZM155.941 17.7227H160.189C162.032 17.7227 163.422 17.9896 164.359 18.5234C165.297 19.0573 165.766 19.9785 165.766 21.2871C165.766 21.834 165.668 22.3288 165.473 22.7715C165.284 23.2077 165.007 23.569 164.643 23.8555C164.278 24.1354 163.829 24.3242 163.295 24.4219V24.5195C163.848 24.6172 164.34 24.7897 164.77 25.0371C165.206 25.2845 165.548 25.6393 165.795 26.1016C166.049 26.5638 166.176 27.1628 166.176 27.8984C166.176 28.7708 165.967 29.513 165.551 30.125C165.141 30.737 164.551 31.2025 163.783 31.5215C163.021 31.8405 162.117 32 161.068 32H155.941V17.7227ZM158.285 23.6113H160.531C161.592 23.6113 162.328 23.4388 162.738 23.0938C163.148 22.7487 163.354 22.2441 163.354 21.5801C163.354 20.903 163.109 20.4147 162.621 20.1152C162.139 19.8158 161.371 19.666 160.316 19.666H158.285V23.6113ZM158.285 25.5059V30.0371H160.756C161.85 30.0371 162.618 29.8255 163.061 29.4023C163.503 28.9792 163.725 28.4062 163.725 27.6836C163.725 27.2409 163.624 26.8568 163.422 26.5312C163.227 26.2057 162.904 25.9551 162.455 25.7793C162.006 25.597 161.4 25.5059 160.639 25.5059H158.285ZM171.195 32H168.891V16.8047H171.195V32ZM178.715 20.9844C180.082 20.9844 181.114 21.2871 181.811 21.8926C182.514 22.498 182.865 23.4421 182.865 24.7246V32H181.234L180.795 30.4668H180.717C180.411 30.8574 180.095 31.1797 179.77 31.4336C179.444 31.6875 179.066 31.8763 178.637 32C178.214 32.1302 177.696 32.1953 177.084 32.1953C176.439 32.1953 175.863 32.0781 175.355 31.8438C174.848 31.6029 174.447 31.2383 174.154 30.75C173.861 30.2617 173.715 29.6432 173.715 28.8945C173.715 27.7812 174.128 26.9447 174.955 26.3848C175.788 25.8249 177.045 25.5156 178.725 25.457L180.6 25.3887V24.8223C180.6 24.0736 180.424 23.5397 180.072 23.2207C179.727 22.9017 179.239 22.7422 178.607 22.7422C178.067 22.7422 177.543 22.8203 177.035 22.9766C176.527 23.1328 176.033 23.3249 175.551 23.5527L174.809 21.9316C175.336 21.6517 175.935 21.4238 176.605 21.248C177.283 21.0723 177.986 20.9844 178.715 20.9844ZM180.59 26.834L179.193 26.8828C178.048 26.9219 177.243 27.1172 176.781 27.4688C176.319 27.8203 176.088 28.3021 176.088 28.9141C176.088 29.4479 176.247 29.8385 176.566 30.0859C176.885 30.3268 177.305 30.4473 177.826 30.4473C178.62 30.4473 179.278 30.2227 179.799 29.7734C180.326 29.3177 180.59 28.6504 180.59 27.7715V26.834ZM190.434 32.1953C189.411 32.1953 188.526 31.9967 187.777 31.5996C187.029 31.2025 186.452 30.5938 186.049 29.7734C185.645 28.9531 185.443 27.9115 185.443 26.6484C185.443 25.3333 185.665 24.2591 186.107 23.4258C186.55 22.5924 187.162 21.9772 187.943 21.5801C188.731 21.1829 189.633 20.9844 190.648 20.9844C191.293 20.9844 191.876 21.0495 192.396 21.1797C192.924 21.3034 193.37 21.4564 193.734 21.6387L193.051 23.4746C192.654 23.3118 192.247 23.1751 191.83 23.0645C191.413 22.9538 191.013 22.8984 190.629 22.8984C189.997 22.8984 189.47 23.0384 189.047 23.3184C188.63 23.5983 188.318 24.015 188.109 24.5684C187.908 25.1217 187.807 25.8086 187.807 26.6289C187.807 27.4232 187.911 28.0938 188.119 28.6406C188.327 29.181 188.637 29.5911 189.047 29.8711C189.457 30.1445 189.962 30.2812 190.561 30.2812C191.153 30.2812 191.684 30.2096 192.152 30.0664C192.621 29.9232 193.064 29.7376 193.48 29.5098V31.502C193.07 31.7363 192.631 31.9089 192.162 32.0195C191.693 32.1367 191.117 32.1953 190.434 32.1953ZM198.314 16.8047V24.1484C198.314 24.4805 198.301 24.8451 198.275 25.2422C198.249 25.6328 198.223 26.0007 198.197 26.3457H198.246C198.415 26.1178 198.617 25.8509 198.852 25.5449C199.092 25.2389 199.32 24.972 199.535 24.7441L202.836 21.1895H205.473L201.146 25.8379L205.756 32H203.061L199.604 27.2539L198.314 28.3574V32H196.02V16.8047H198.314ZM220.395 24.8418C220.395 25.9421 220.255 26.9447 219.975 27.8496C219.701 28.748 219.288 29.5228 218.734 30.1738C218.181 30.8184 217.488 31.3164 216.654 31.668C215.821 32.0195 214.844 32.1953 213.725 32.1953C212.585 32.1953 211.596 32.0195 210.756 31.668C209.923 31.3164 209.229 30.8151 208.676 30.1641C208.129 29.513 207.719 28.735 207.445 27.8301C207.172 26.9251 207.035 25.9225 207.035 24.8223C207.035 23.3509 207.276 22.0684 207.758 20.9746C208.246 19.8743 208.985 19.0215 209.975 18.416C210.971 17.804 212.227 17.498 213.744 17.498C215.229 17.498 216.462 17.8008 217.445 18.4062C218.428 19.0117 219.164 19.8646 219.652 20.9648C220.147 22.0586 220.395 23.3509 220.395 24.8418ZM209.496 24.8418C209.496 25.9421 209.646 26.8958 209.945 27.7031C210.245 28.5039 210.704 29.1224 211.322 29.5586C211.947 29.9883 212.748 30.2031 213.725 30.2031C214.708 30.2031 215.508 29.9883 216.127 29.5586C216.745 29.1224 217.201 28.5039 217.494 27.7031C217.787 26.8958 217.934 25.9421 217.934 24.8418C217.934 23.1686 217.598 21.86 216.928 20.916C216.264 19.9655 215.202 19.4902 213.744 19.4902C212.768 19.4902 211.964 19.7051 211.332 20.1348C210.707 20.5645 210.245 21.1797 209.945 21.9805C209.646 22.7747 209.496 23.7285 209.496 24.8418ZM232.65 21.1895V32H230.844L230.531 30.5449H230.404C230.176 30.916 229.887 31.2253 229.535 31.4727C229.184 31.7135 228.793 31.8926 228.363 32.0098C227.934 32.1335 227.481 32.1953 227.006 32.1953C226.192 32.1953 225.495 32.0586 224.916 31.7852C224.343 31.5052 223.904 31.0755 223.598 30.4961C223.292 29.9167 223.139 29.168 223.139 28.25V21.1895H225.443V27.8203C225.443 28.6602 225.613 29.2884 225.951 29.7051C226.296 30.1217 226.83 30.3301 227.553 30.3301C228.249 30.3301 228.803 30.1868 229.213 29.9004C229.623 29.6139 229.913 29.1908 230.082 28.6309C230.258 28.071 230.346 27.3841 230.346 26.5703V21.1895H232.65ZM239.965 30.3398C240.264 30.3398 240.561 30.3138 240.854 30.2617C241.146 30.2031 241.413 30.1348 241.654 30.0566V31.7949C241.4 31.9056 241.072 32 240.668 32.0781C240.264 32.1562 239.844 32.1953 239.408 32.1953C238.796 32.1953 238.246 32.0944 237.758 31.8926C237.27 31.6842 236.882 31.3294 236.596 30.8281C236.309 30.3268 236.166 29.6335 236.166 28.748V22.9375H234.691V21.9121L236.273 21.1016L237.025 18.7871H238.471V21.1895H241.566V22.9375H238.471V28.7188C238.471 29.2656 238.607 29.6725 238.881 29.9395C239.154 30.2064 239.516 30.3398 239.965 30.3398Z" fill="white"/>
<path d="M68.2606 32.5096L66.126 17.5088C65.5777 13.6509 62.2681 10.7917 58.371 10.7917H40.6285C36.7314 10.7917 33.4219 13.6509 32.8735 17.5088L30.7389 32.5096C30.3081 35.5254 32.6385 38.2084 35.6739 38.2084C37.0056 38.2084 38.2589 37.6796 39.1989 36.7396L43.6248 32.3334H55.3748L59.781 36.7396C60.721 37.6796 61.9939 38.2084 63.306 38.2084C66.361 38.2084 68.6914 35.5254 68.2606 32.5096ZM47.5414 22.5417H43.6248V26.4584H41.6664V22.5417H37.7498V20.5834H41.6664V16.6667H43.6248V20.5834H47.5414V22.5417ZM55.3748 20.5834C54.2977 20.5834 53.4164 19.7021 53.4164 18.625C53.4164 17.5479 54.2977 16.6667 55.3748 16.6667C56.4519 16.6667 57.3331 17.5479 57.3331 18.625C57.3331 19.7021 56.4519 20.5834 55.3748 20.5834ZM59.2914 26.4584C58.2144 26.4584 57.3331 25.5771 57.3331 24.5C57.3331 23.4229 58.2144 22.5417 59.2914 22.5417C60.3685 22.5417 61.2498 23.4229 61.2498 24.5C61.2498 25.5771 60.3685 26.4584 59.2914 26.4584Z" fill="#7CBE82"/>
</svg>
