<svg width="143" height="143" viewBox="0 0 143 143" fill="none" xmlns="http://www.w3.org/2000/svg">
<g filter="url(#filter0_d_340_10722)">
<rect x="4" width="135" height="135" rx="10" fill="white"/>
</g>
<path d="M44.9843 75.4309L20.3689 90.6924V96.6001L44.9843 81.2155L69.5997 96.6001V90.6924L44.9843 75.4309Z" fill="#5DB77A"/>
<path d="M99.015 60.1692L123.507 44.9077V39L99.015 54.3846L74.3997 39V44.9077L99.015 60.1692Z" fill="#5DB77A"/>
<path d="M42.6462 52.5384C42.6462 56.9692 41.4154 60.4154 38.8308 62.8769C36.2462 65.2154 32.5538 66.4461 27.7538 66.4461H20V39.123H28.6154C33.0462 39.123 36.4923 40.3538 38.9538 42.6923C41.4154 45.0307 42.6462 48.3538 42.6462 52.5384ZM36.7385 52.6615C36.7385 46.7538 34.1538 43.923 28.9846 43.923H25.9077V61.6461H28.3692C33.9077 61.6461 36.7385 58.6923 36.7385 52.6615Z" fill="#646363"/>
<path d="M64.3079 66.4462L62.3387 59.9231H52.3694L50.4002 66.4462H44.1233L53.7233 39H60.7387L70.4618 66.4462H64.3079ZM60.9848 55.1231C59.1387 49.2154 58.1541 45.8923 57.9079 45.1538C57.6618 44.4154 57.5387 43.8 57.4156 43.3077C57.0464 44.9077 55.8156 48.8462 53.8464 55.1231H60.9848Z" fill="#646363"/>
<path d="M83.6308 86.1384V96.5999H77.8462V69.2769H85.8462C89.5385 69.2769 92.2462 69.8922 94.0924 71.2461C95.8154 72.5999 96.8 74.6922 96.8 77.3999C96.8 78.9999 96.3077 80.4769 95.4462 81.7076C94.5847 82.9384 93.3539 83.923 91.7539 84.6615C95.8154 90.8153 98.5231 94.7538 99.7539 96.5999H93.3539L86.8308 86.1384H83.6308ZM83.6308 81.9538H85.477C87.3231 81.9538 88.677 81.7076 89.5385 81.0922C90.4 80.4769 90.8924 79.4922 90.8924 78.2615C90.8924 76.9076 90.4 76.0461 89.5385 75.5538C88.677 75.0615 87.3231 74.6922 85.3539 74.6922H83.6308V81.9538Z" fill="#646363"/>
<path d="M120.923 96.5999H104.431V69.2769H120.923V74.0769H110.216V80.1076H120.185V84.9076H110.216V91.923H120.923V96.5999Z" fill="#646363"/>
<defs>
<filter id="filter0_d_340_10722" x="0" y="0" width="143" height="143" filterUnits="userSpaceOnUse" color-interpolation-filters="sRGB">
<feFlood flood-opacity="0" result="BackgroundImageFix"/>
<feColorMatrix in="SourceAlpha" type="matrix" values="0 0 0 0 0 0 0 0 0 0 0 0 0 0 0 0 0 0 127 0" result="hardAlpha"/>
<feOffset dy="4"/>
<feGaussianBlur stdDeviation="2"/>
<feComposite in2="hardAlpha" operator="out"/>
<feColorMatrix type="matrix" values="0 0 0 0 0 0 0 0 0 0 0 0 0 0 0 0 0 0 0.25 0"/>
<feBlend mode="normal" in2="BackgroundImageFix" result="effect1_dropShadow_340_10722"/>
<feBlend mode="normal" in="SourceGraphic" in2="effect1_dropShadow_340_10722" result="shape"/>
</filter>
</defs>
</svg>
