<?xml version="1.0" encoding="utf-8"?>
<!-- Generator: Adobe Illustrator 25.4.1, SVG Export Plug-In . SVG Version: 6.00 Build 0) -->
<svg version="1.1" id="Ebene_1" xmlns="http://www.w3.org/2000/svg" xmlns:xlink="http://www.w3.org/1999/xlink" x="0px" y="0px" viewBox="0 0 288 96.5" style="enable-background:new 0 0 288 96.5;" xml:space="preserve">
	<style type="text/css">
		.st0{fill:none;stroke:url(#SVGID_1_);stroke-width:3;stroke-linecap:round;}
		.st1{fill:#000000;}
	</style>
	<linearGradient id="SVGID_1_" gradientUnits="userSpaceOnUse" x1="285.728" y1="39.6847" x2="12.3442" y2="39.6847" gradientTransform="matrix(1 0 0 -1 0 78)">
		<stop offset="0" style="stop-color:#4DFFDF" />
		<stop offset="1" style="stop-color:#68F1F1" />
	</linearGradient>
	<path class="st0" d="M2,74.6c36.5,0,28-20.3,64.5-20.3C103,54.4,87.5,23,124,23c36.5,0,49.5-21,86-21s39.3,67.8,75.7,67.8" />
	<g>
		<path class="st1" d="M5.4,95.4H3.7v-6.4c0-0.2,0-0.4,0-0.6c0-0.2,0-0.4,0-0.6s0-0.4,0-0.6c-0.1,0.1-0.2,0.2-0.4,0.3
		S3.2,87.7,3,87.8l-1.1,0.9l-0.8-1l3-2.3h1.3V95.4z" />
		<path class="st1" d="M15.4,95.4H8.6v-1.2l2.6-2.6c0.5-0.5,0.9-1,1.2-1.3c0.3-0.4,0.6-0.7,0.7-1.1c0.2-0.3,0.2-0.7,0.2-1.1
		c0-0.5-0.1-0.8-0.4-1.1c-0.3-0.2-0.6-0.4-1.1-0.4c-0.4,0-0.8,0.1-1.2,0.3s-0.7,0.4-1.1,0.7l-0.9-1.1c0.3-0.2,0.6-0.5,0.9-0.6
		c0.3-0.2,0.7-0.4,1.1-0.5s0.8-0.2,1.3-0.2c0.6,0,1.2,0.1,1.6,0.3s0.8,0.5,1.1,0.9c0.2,0.4,0.4,0.9,0.4,1.4c0,0.5-0.1,1-0.3,1.5
		c-0.2,0.5-0.5,0.9-0.9,1.4s-0.9,0.9-1.4,1.4l-1.7,1.7v0.1h4.7V95.4z" />
		<path class="st1" d="M16.9,94.5c0-0.4,0.1-0.6,0.3-0.8c0.2-0.2,0.4-0.2,0.7-0.2s0.5,0.1,0.7,0.2c0.2,0.2,0.3,0.4,0.3,0.8
		c0,0.4-0.1,0.6-0.3,0.8c-0.2,0.2-0.4,0.2-0.7,0.2s-0.5-0.1-0.7-0.2C17,95.1,16.9,94.9,16.9,94.5z" />
		<path class="st1" d="M27.2,90.3c0,0.8-0.1,1.5-0.2,2.2s-0.3,1.2-0.6,1.6c-0.3,0.4-0.6,0.8-1.1,1s-1,0.3-1.6,0.3
		c-0.8,0-1.4-0.2-1.9-0.6c-0.5-0.4-0.9-1-1.1-1.8c-0.2-0.8-0.4-1.7-0.4-2.8c0-1.1,0.1-2,0.3-2.8c0.2-0.8,0.6-1.4,1.1-1.8
		s1.2-0.6,2-0.6c0.8,0,1.4,0.2,1.9,0.6c0.5,0.4,0.9,1,1.1,1.8C27.1,88.3,27.2,89.3,27.2,90.3z M22.1,90.3c0,0.8,0.1,1.5,0.2,2.1
		c0.1,0.6,0.3,1,0.6,1.3s0.6,0.4,1,0.4s0.8-0.1,1-0.4c0.3-0.3,0.4-0.7,0.6-1.3c0.1-0.6,0.2-1.3,0.2-2.1c0-0.8-0.1-1.5-0.2-2.1
		c-0.1-0.6-0.3-1-0.6-1.3c-0.3-0.3-0.6-0.4-1-0.4s-0.8,0.1-1,0.4c-0.3,0.3-0.4,0.7-0.6,1.3C22.1,88.8,22.1,89.5,22.1,90.3z" />
		<path class="st1" d="M35.2,90.3c0,0.8-0.1,1.5-0.2,2.2s-0.3,1.2-0.6,1.6c-0.3,0.4-0.6,0.8-1.1,1s-1,0.3-1.6,0.3
		c-0.8,0-1.4-0.2-1.9-0.6c-0.5-0.4-0.9-1-1.1-1.8c-0.2-0.8-0.4-1.7-0.4-2.8c0-1.1,0.1-2,0.3-2.8c0.2-0.8,0.6-1.4,1.1-1.8
		s1.2-0.6,2-0.6c0.8,0,1.4,0.2,1.9,0.6c0.5,0.4,0.9,1,1.1,1.8C35.1,88.3,35.2,89.3,35.2,90.3z M30.1,90.3c0,0.8,0.1,1.5,0.2,2.1
		c0.1,0.6,0.3,1,0.6,1.3s0.6,0.4,1,0.4s0.8-0.1,1-0.4c0.3-0.3,0.4-0.7,0.6-1.3c0.1-0.6,0.2-1.3,0.2-2.1c0-0.8-0.1-1.5-0.2-2.1
		c-0.1-0.6-0.3-1-0.6-1.3c-0.3-0.3-0.6-0.4-1-0.4s-0.8,0.1-1,0.4c-0.3,0.3-0.4,0.7-0.6,1.3C30.1,88.8,30.1,89.5,30.1,90.3z" />
		<path class="st1" d="M42.2,84.7v2.7c0,0.3,0,0.5,0,0.8c0,0.3,0,0.5-0.1,0.6h0.1c0.2-0.3,0.4-0.5,0.6-0.7s0.5-0.3,0.8-0.4
		c0.3-0.1,0.6-0.1,0.9-0.1c0.6,0,1.1,0.1,1.5,0.3c0.4,0.2,0.7,0.5,0.9,0.9c0.2,0.4,0.3,0.9,0.3,1.6v4.9h-1.6v-4.6
		c0-0.6-0.1-1-0.4-1.3S44.7,89,44.2,89c-0.5,0-0.9,0.1-1.2,0.3c-0.3,0.2-0.5,0.5-0.6,0.9c-0.1,0.4-0.2,0.9-0.2,1.4v3.8h-1.6V84.7
		H42.2z" />
	</g>
	<g>
		<path class="st1" d="M246.1,95.4h-1.6v-6.4c0-0.2,0-0.4,0-0.6c0-0.2,0-0.4,0-0.6s0-0.4,0-0.6c-0.1,0.1-0.2,0.2-0.4,0.3
		c-0.1,0.1-0.3,0.3-0.4,0.4l-1.1,0.9l-0.8-1l3-2.3h1.3V95.4z" />
		<path class="st1" d="M252.8,85.2c0.6,0,1.1,0.1,1.6,0.3c0.5,0.2,0.8,0.4,1.1,0.8s0.4,0.8,0.4,1.3c0,0.4-0.1,0.8-0.2,1.1
		c-0.2,0.3-0.4,0.6-0.7,0.8c-0.3,0.2-0.6,0.4-1,0.6c0.4,0.2,0.8,0.4,1.1,0.7c0.3,0.2,0.6,0.5,0.8,0.9c0.2,0.3,0.3,0.7,0.3,1.2
		c0,0.6-0.1,1-0.4,1.5c-0.3,0.4-0.7,0.7-1.2,0.9c-0.5,0.2-1.1,0.3-1.8,0.3c-0.7,0-1.3-0.1-1.9-0.3c-0.5-0.2-0.9-0.5-1.2-0.9
		c-0.3-0.4-0.4-0.9-0.4-1.4c0-0.5,0.1-0.9,0.3-1.2c0.2-0.3,0.4-0.6,0.7-0.9s0.6-0.5,1-0.6c-0.3-0.2-0.6-0.4-0.9-0.6
		c-0.3-0.2-0.5-0.5-0.6-0.8c-0.2-0.3-0.2-0.7-0.2-1.1c0-0.5,0.1-1,0.4-1.3c0.3-0.4,0.7-0.6,1.1-0.8
		C251.7,85.3,252.2,85.2,252.8,85.2z M250.9,92.8c0,0.4,0.2,0.8,0.5,1.1c0.3,0.3,0.8,0.4,1.4,0.4c0.6,0,1.1-0.1,1.4-0.4
		c0.3-0.3,0.5-0.6,0.5-1.1c0-0.3-0.1-0.5-0.2-0.8c-0.2-0.2-0.4-0.4-0.6-0.6c-0.3-0.2-0.6-0.3-0.9-0.5l-0.2-0.1
		c-0.4,0.2-0.7,0.3-0.9,0.5c-0.3,0.2-0.5,0.4-0.6,0.6C251,92.2,250.9,92.5,250.9,92.8z M252.7,86.5c-0.4,0-0.8,0.1-1.1,0.3
		c-0.3,0.2-0.4,0.5-0.4,0.9c0,0.3,0.1,0.5,0.2,0.7c0.1,0.2,0.3,0.4,0.6,0.5c0.2,0.1,0.5,0.3,0.8,0.4c0.3-0.1,0.5-0.3,0.8-0.4
		c0.2-0.1,0.4-0.3,0.5-0.5c0.1-0.2,0.2-0.5,0.2-0.7c0-0.4-0.1-0.7-0.4-0.9C253.6,86.6,253.2,86.5,252.7,86.5z" />
		<path class="st1" d="M257.7,94.5c0-0.4,0.1-0.6,0.3-0.8c0.2-0.2,0.4-0.2,0.7-0.2c0.3,0,0.5,0.1,0.7,0.2c0.2,0.2,0.3,0.4,0.3,0.8
		c0,0.4-0.1,0.6-0.3,0.8c-0.2,0.2-0.4,0.2-0.7,0.2c-0.3,0-0.5-0.1-0.7-0.2C257.8,95.1,257.7,94.9,257.7,94.5z" />
		<path class="st1" d="M268,90.3c0,0.8-0.1,1.5-0.2,2.2c-0.1,0.6-0.3,1.2-0.6,1.6c-0.3,0.4-0.6,0.8-1.1,1c-0.4,0.2-1,0.3-1.6,0.3
		c-0.8,0-1.4-0.2-1.9-0.6c-0.5-0.4-0.9-1-1.1-1.8c-0.2-0.8-0.4-1.7-0.4-2.8c0-1.1,0.1-2,0.3-2.8c0.2-0.8,0.6-1.4,1.1-1.8
		c0.5-0.4,1.2-0.6,2-0.6c0.8,0,1.4,0.2,1.9,0.6c0.5,0.4,0.9,1,1.1,1.8C267.9,88.3,268,89.3,268,90.3z M262.8,90.3
		c0,0.8,0.1,1.5,0.2,2.1c0.1,0.6,0.3,1,0.6,1.3s0.6,0.4,1,0.4c0.4,0,0.8-0.1,1-0.4c0.3-0.3,0.4-0.7,0.6-1.3c0.1-0.6,0.2-1.3,0.2-2.1
		c0-0.8-0.1-1.5-0.2-2.1c-0.1-0.6-0.3-1-0.6-1.3c-0.3-0.3-0.6-0.4-1-0.4s-0.8,0.1-1,0.4c-0.3,0.3-0.4,0.7-0.6,1.3
		C262.9,88.8,262.8,89.5,262.8,90.3z" />
		<path class="st1" d="M276,90.3c0,0.8-0.1,1.5-0.2,2.2c-0.1,0.6-0.3,1.2-0.6,1.6c-0.3,0.4-0.6,0.8-1.1,1c-0.4,0.2-1,0.3-1.6,0.3
		c-0.8,0-1.4-0.2-1.9-0.6c-0.5-0.4-0.9-1-1.1-1.8c-0.2-0.8-0.4-1.7-0.4-2.8c0-1.1,0.1-2,0.3-2.8c0.2-0.8,0.6-1.4,1.1-1.8
		c0.5-0.4,1.2-0.6,2-0.6c0.8,0,1.4,0.2,1.9,0.6c0.5,0.4,0.9,1,1.1,1.8C275.9,88.3,276,89.3,276,90.3z M270.8,90.3
		c0,0.8,0.1,1.5,0.2,2.1c0.1,0.6,0.3,1,0.6,1.3s0.6,0.4,1,0.4c0.4,0,0.8-0.1,1-0.4c0.3-0.3,0.4-0.7,0.6-1.3c0.1-0.6,0.2-1.3,0.2-2.1
		c0-0.8-0.1-1.5-0.2-2.1c-0.1-0.6-0.3-1-0.6-1.3c-0.3-0.3-0.6-0.4-1-0.4s-0.8,0.1-1,0.4c-0.3,0.3-0.4,0.7-0.6,1.3
		C270.9,88.8,270.8,89.5,270.8,90.3z" />
		<path class="st1" d="M283,84.7v2.7c0,0.3,0,0.5,0,0.8c0,0.3,0,0.5-0.1,0.6h0.1c0.2-0.3,0.4-0.5,0.6-0.7s0.5-0.3,0.8-0.4
		c0.3-0.1,0.6-0.1,0.9-0.1c0.6,0,1.1,0.1,1.5,0.3c0.4,0.2,0.7,0.5,0.9,0.9c0.2,0.4,0.3,0.9,0.3,1.6v4.9h-1.6v-4.6
		c0-0.6-0.1-1-0.4-1.3c-0.2-0.3-0.6-0.4-1.1-0.4c-0.5,0-0.9,0.1-1.2,0.3c-0.3,0.2-0.5,0.5-0.6,0.9c-0.1,0.4-0.2,0.9-0.2,1.4v3.8
		h-1.6V84.7H283z" />
	</g>
</svg>
