<svg enable-background="new 0 0 288 96.5" viewBox="0 0 288 96.5" xmlns="http://www.w3.org/2000/svg" xmlns:xlink="http://www.w3.org/1999/xlink">
	<linearGradient id="a" gradientTransform="matrix(1 0 0 -1 0 74)" gradientUnits="userSpaceOnUse" x1="285.864" x2="12.4802" y1="37.687" y2="37.687">
		<stop offset="0" stop-color="#4dffdf" />
		<stop offset="1" stop-color="#68f1f1" />
	</linearGradient>
	<g fill="#000">
		<path d="m5.4 95.4h-1.7v-6.4c0-.2 0-.4 0-.6s0-.4 0-.6 0-.4 0-.6c-.1.1-.2.2-.4.3s-.1.2-.3.3l-1.1.9-.8-1 3-2.3h1.3z" />
		<path d="m15.4 95.4h-6.8v-1.2l2.6-2.6c.5-.5.9-1 1.2-1.3.3-.4.6-.7.7-1.1.2-.3.2-.7.2-1.1 0-.5-.1-.8-.4-1.1-.3-.2-.6-.4-1.1-.4-.4 0-.8.1-1.2.3s-.7.4-1.1.7l-.9-1.1c.3-.2.6-.5.9-.6.3-.2.7-.4 1.1-.5s.8-.2 1.3-.2c.6 0 1.2.1 1.6.3s.8.5 1.1.9c.2.4.4.9.4 1.4s-.1 1-.3 1.5-.5.9-.9 1.4-.9.9-1.4 1.4l-1.7 1.7v.1h4.7z" />
		<path d="m16.9 94.5c0-.4.1-.6.3-.8s.4-.2.7-.2.5.1.7.2c.2.2.3.4.3.8s-.1.6-.3.8-.4.2-.7.2-.5-.1-.7-.2c-.2-.2-.3-.4-.3-.8z" />
		<path d="m27.2 90.3c0 .8-.1 1.5-.2 2.2s-.3 1.2-.6 1.6-.6.8-1.1 1-1 .3-1.6.3c-.8 0-1.4-.2-1.9-.6s-.9-1-1.1-1.8-.4-1.7-.4-2.8.1-2 .3-2.8.6-1.4 1.1-1.8 1.2-.6 2-.6 1.4.2 1.9.6.9 1 1.1 1.8c.4.9.5 1.9.5 2.9zm-5.1 0c0 .8.1 1.5.2 2.1s.3 1 .6 1.3.6.4 1 .4.8-.1 1-.4c.3-.3.4-.7.6-1.3.1-.6.2-1.3.2-2.1s-.1-1.5-.2-2.1-.3-1-.6-1.3-.6-.4-1-.4-.8.1-1 .4c-.3.3-.4.7-.6 1.3s-.2 1.3-.2 2.1z" />
		<path d="m35.2 90.3c0 .8-.1 1.5-.2 2.2s-.3 1.2-.6 1.6-.6.8-1.1 1-1 .3-1.6.3c-.8 0-1.4-.2-1.9-.6s-.9-1-1.1-1.8-.4-1.7-.4-2.8.1-2 .3-2.8.6-1.4 1.1-1.8 1.2-.6 2-.6 1.4.2 1.9.6.9 1 1.1 1.8c.4.9.5 1.9.5 2.9zm-5.1 0c0 .8.1 1.5.2 2.1s.3 1 .6 1.3.6.4 1 .4.8-.1 1-.4c.3-.3.4-.7.6-1.3.1-.6.2-1.3.2-2.1s-.1-1.5-.2-2.1-.3-1-.6-1.3-.6-.4-1-.4-.8.1-1 .4c-.3.3-.4.7-.6 1.3s-.2 1.3-.2 2.1z" />
		<path d="m42.2 84.7v2.7.8c0 .3 0 .5-.1.6h.1c.2-.3.4-.5.6-.7s.5-.3.8-.4.6-.1.9-.1c.6 0 1.1.1 1.5.3s.7.5.9.9.3.9.3 1.6v4.9h-1.6v-4.6c0-.6-.1-1-.4-1.3s-.5-.4-1-.4-.9.1-1.2.3-.5.5-.6.9-.2.9-.2 1.4v3.8h-1.6v-10.7z" />
		<path d="m246.1 95.4h-1.6v-6.4c0-.2 0-.4 0-.6s0-.4 0-.6 0-.4 0-.6c-.1.1-.2.2-.4.3-.1.1-.3.3-.4.4l-1.1.9-.8-1 3-2.3h1.3z" />
		<path d="m252.8 85.2c.6 0 1.1.1 1.6.3s.8.4 1.1.8.4.8.4 1.3c0 .4-.1.8-.2 1.1-.2.3-.4.6-.7.8s-.6.4-1 .6c.4.2.8.4 1.1.7.3.2.6.5.8.9.2.3.3.7.3 1.2 0 .6-.1 1-.4 1.5-.3.4-.7.7-1.2.9s-1.1.3-1.8.3-1.3-.1-1.9-.3c-.5-.2-.9-.5-1.2-.9s-.4-.9-.4-1.4.1-.9.3-1.2.4-.6.7-.9.6-.5 1-.6c-.3-.2-.6-.4-.9-.6s-.5-.5-.6-.8c-.2-.3-.2-.7-.2-1.1 0-.5.1-1 .4-1.3.3-.4.7-.6 1.1-.8.6-.4 1.1-.5 1.7-.5zm-1.9 7.6c0 .4.2.8.5 1.1s.8.4 1.4.4 1.1-.1 1.4-.4.5-.6.5-1.1c0-.3-.1-.5-.2-.8-.2-.2-.4-.4-.6-.6-.3-.2-.6-.3-.9-.5l-.2-.1c-.4.2-.7.3-.9.5-.3.2-.5.4-.6.6-.3.3-.4.6-.4.9zm1.8-6.3c-.4 0-.8.1-1.1.3s-.4.5-.4.9c0 .3.1.5.2.7s.3.4.6.5c.2.1.5.3.8.4.3-.1.5-.3.8-.4.2-.1.4-.3.5-.5s.2-.5.2-.7c0-.4-.1-.7-.4-.9s-.7-.3-1.2-.3z" />
		<path d="m257.7 94.5c0-.4.1-.6.3-.8s.4-.2.7-.2.5.1.7.2c.2.2.3.4.3.8s-.1.6-.3.8-.4.2-.7.2-.5-.1-.7-.2c-.2-.2-.3-.4-.3-.8z" />
		<path d="m268 90.3c0 .8-.1 1.5-.2 2.2-.1.6-.3 1.2-.6 1.6s-.6.8-1.1 1c-.4.2-1 .3-1.6.3-.8 0-1.4-.2-1.9-.6s-.9-1-1.1-1.8-.4-1.7-.4-2.8.1-2 .3-2.8.6-1.4 1.1-1.8 1.2-.6 2-.6 1.4.2 1.9.6.9 1 1.1 1.8c.4.9.5 1.9.5 2.9zm-5.2 0c0 .8.1 1.5.2 2.1s.3 1 .6 1.3.6.4 1 .4.8-.1 1-.4c.3-.3.4-.7.6-1.3.1-.6.2-1.3.2-2.1s-.1-1.5-.2-2.1-.3-1-.6-1.3-.6-.4-1-.4-.8.1-1 .4c-.3.3-.4.7-.6 1.3-.1.6-.2 1.3-.2 2.1z" />
		<path d="m276 90.3c0 .8-.1 1.5-.2 2.2-.1.6-.3 1.2-.6 1.6s-.6.8-1.1 1c-.4.2-1 .3-1.6.3-.8 0-1.4-.2-1.9-.6s-.9-1-1.1-1.8-.4-1.7-.4-2.8.1-2 .3-2.8.6-1.4 1.1-1.8 1.2-.6 2-.6 1.4.2 1.9.6.9 1 1.1 1.8c.4.9.5 1.9.5 2.9zm-5.2 0c0 .8.1 1.5.2 2.1s.3 1 .6 1.3.6.4 1 .4.8-.1 1-.4c.3-.3.4-.7.6-1.3.1-.6.2-1.3.2-2.1s-.1-1.5-.2-2.1-.3-1-.6-1.3-.6-.4-1-.4-.8.1-1 .4c-.3.3-.4.7-.6 1.3-.1.6-.2 1.3-.2 2.1z" />
		<path d="m283 84.7v2.7.8c0 .3 0 .5-.1.6h.1c.2-.3.4-.5.6-.7s.5-.3.8-.4.6-.1.9-.1c.6 0 1.1.1 1.5.3s.7.5.9.9.3.9.3 1.6v4.9h-1.6v-4.6c0-.6-.1-1-.4-1.3-.2-.3-.6-.4-1.1-.4s-.9.1-1.2.3-.5.5-.6.9-.2.9-.2 1.4v3.8h-1.6v-10.7z" />
	</g>
	<path d="m2.1 70.6c36.5 0 32.2-68.6 68.7-68.6s32.2 18.3 68.6 18.3c36.5 0 30.9 30.1 67.3 30.1 36.5 0 42.7 15.4 79.1 15.4" fill="none" stroke="url(#a)" stroke-linecap="round" stroke-width="3" />
</svg>
