<svg width="40" height="59" viewBox="0 0 40 59" fill="none" xmlns="http://www.w3.org/2000/svg">
<g clip-path="url(#clip0_340_6351)">
<path d="M19.8546 0C25.5445 4.99266 30.8738 11.1307 34.5356 17.9082C36.6672 21.6303 38.6897 25.5364 39.5898 29.6832C40.2784 35.245 40.2749 41.2392 38.1781 46.5756C36.0518 51.5545 32.3644 56.4866 26.9695 58.0136C19.4204 60.7582 10.3883 57.5315 5.11192 51.3801C3.83576 49.7004 2.92215 47.7443 2.11579 45.7818C1.4026 44.8011 1.39538 43.6064 1.0338 42.4812C-0.038226 39.188 -0.434768 35.5805 0.610302 32.2526C1.87513 28.1868 3.52224 24.0219 6.30447 20.764C9.26641 17.3411 12.7716 14.4275 15.3911 10.7089C17.441 7.40881 19.3934 3.91017 19.8546 0ZM18.4804 26.5149C17.5686 28.0327 16.7147 30.0448 15.3628 31.4152C12.1619 34.8073 8.15473 37.8944 6.99031 42.63C6.106 46.0766 7.28332 49.827 9.24922 52.7289C12.663 56.9813 18.7445 58.7304 23.8884 57.0958C26.3692 56.3455 28.0599 54.1821 29.6435 52.2459C31.6651 49.0996 31.855 45.1619 31.4301 41.5349C30.7714 38.4341 28.9749 35.7043 27.2594 33.089C25.6217 30.5283 23.4157 28.445 21.1687 26.4333C19.1184 24.9342 19.1377 23.3745 18.4804 26.5149Z" fill="#ccc"/>
</g>
<defs>
<clipPath id="clip0_340_6351">
<rect width="40" height="59" fill="black"/>
</clipPath>
</defs>
</svg>
