<svg width="59" height="68" viewBox="0 0 59 68" fill="none" xmlns="http://www.w3.org/2000/svg">
<g clip-path="url(#clip0_340_6468)">
<path d="M25.3388 39.5944C24.6326 46.4327 23.9454 53.1752 23.2267 59.9178C23.1384 60.728 23.0502 62.125 22.6719 62.2334C19.2106 63.2477 20.5472 65.7163 20.6228 67.9745H37.1476C36.9522 66.233 37.2485 63.7133 36.5171 63.3752C33.163 61.7741 34.1276 58.7951 33.8187 56.301C33.1126 50.6556 32.6082 44.9783 32.0534 39.5753L25.3388 39.5944Z" fill="white"/>
<path d="M2.09318 52.7989L23.7501 38.4334C22.735 34.606 20.3581 33.8724 17.0922 33.5981C13.6246 33.3047 11.6638 34.6953 9.7724 37.2916C7.04244 41.0488 4.09809 44.672 1.08442 48.206C-0.624175 50.2026 -0.327847 51.5103 2.09318 52.7989Z" fill="white"/>
<path d="M36.0572 33.2154C34.1658 37.7891 34.3801 37.6807 36.3851 41.3614C38.0432 44.4105 40.3129 45.3099 43.5662 45.1887C47.7399 45.0229 51.9326 45.3482 56.1127 45.2398C57.0836 45.2398 58.0356 44.2702 59.0002 43.7471C58.3698 42.8668 57.9032 41.5145 57.0521 41.1955C50.1547 38.4525 43.1816 35.9009 36.0572 33.2154Z" fill="white"/>
<path d="M25.446 26.1985C32.0344 25.1268 34.7644 19.6026 31.9083 14.1295C30.1493 10.755 28.5353 7.29119 26.5556 4.05705C25.6162 2.50695 25.7423 -0.848397 22.6655 0.197757C19.7149 1.19926 21.7387 3.7381 21.972 5.41577C22.9493 12.3051 24.2354 19.1433 25.446 26.1985Z" fill="white"/>
<path d="M33.9572 32.6987C33.9316 31.6524 33.5994 30.6374 33.0027 29.7824C32.4059 28.9275 31.5716 28.2712 30.6056 27.8969C29.6396 27.5225 28.5855 27.4469 27.5769 27.6798C26.5684 27.9127 25.651 28.4434 24.9412 29.2047C24.2313 29.9661 23.761 30.9236 23.5899 31.9558C23.4189 32.988 23.5548 34.0484 23.9804 35.0023C24.406 35.9562 25.1021 36.7607 25.9804 37.3137C26.8586 37.8667 27.8795 38.1432 28.9134 38.1081C30.2864 38.0532 31.5835 37.4561 32.5264 36.4449C33.4693 35.4336 33.983 34.0887 33.9572 32.6987Z" fill="white"/>
<path d="M25.3388 39.5944H32.066C32.6208 44.9974 33.1252 50.6747 33.8313 56.3201C34.1402 58.8143 33.2008 61.7932 36.5297 63.3944C37.2422 63.7324 36.9459 66.2521 37.1602 67.9936H20.6228C20.5472 65.7163 19.2106 63.2476 22.6719 62.2525C23.0502 62.1441 23.1384 60.7471 23.2267 59.937C23.9454 53.1816 24.6326 46.439 25.3388 39.5944Z" fill="#FEFEFF"/>
<path d="M2.09318 52.7989C-0.327847 51.5231 -0.624175 50.2026 1.08442 48.206C4.1044 44.672 7.04244 41.0488 9.7724 37.2916C11.6638 34.6953 13.6246 33.3047 17.0922 33.5981C20.3581 33.8724 22.735 34.6187 23.7501 38.4334L2.09318 52.7989Z" fill="#FEFEFF"/>
<path d="M36.057 33.2154C43.1814 35.8818 50.1544 38.4334 57.0519 41.17C57.903 41.5081 58.3569 42.8604 59 43.7216C58.0354 44.2447 57.1086 45.1888 56.1125 45.2143C51.9324 45.3227 47.7397 44.9974 43.566 45.1632C40.3127 45.2908 38.043 44.3914 36.3848 41.3359C34.3799 37.6807 34.1845 37.8083 36.057 33.2154Z" fill="#FEFEFF"/>
<path d="M25.446 26.1985C24.2354 19.1433 22.924 12.3051 21.972 5.41577C21.7387 3.7381 19.7149 1.19926 22.6655 0.197757C25.7423 -0.848397 25.6162 2.50695 26.5556 4.05705C28.5353 7.29119 30.1493 10.755 31.9083 14.1295C34.7644 19.6026 32.066 25.1268 25.446 26.1985Z" fill="#FEFEFF"/>
<path d="M33.9578 32.6987C33.9603 33.7447 33.6557 34.7679 33.0828 35.6386C32.5098 36.5092 31.6943 37.1882 30.7395 37.5894C29.7848 37.9905 28.7337 38.0958 27.7198 37.8919C26.7058 37.688 25.7744 37.184 25.0439 36.444C24.3133 35.7039 23.8163 34.761 23.616 33.7348C23.4157 32.7086 23.5211 31.6454 23.9187 30.6799C24.3164 29.7143 24.9884 28.89 25.8496 28.3114C26.7109 27.7328 27.7225 27.4259 28.7563 27.4297C30.1323 27.4446 31.4477 28.0048 32.4202 28.9899C33.3926 29.9749 33.9447 31.3065 33.9578 32.6987Z" fill="#FEFEFF"/>
</g>
<defs>
<clipPath id="clip0_340_6468">
<rect width="59" height="68" fill="white"/>
</clipPath>
</defs>
</svg>
