<svg width="49" height="39" viewBox="0 0 49 39" fill="none" xmlns="http://www.w3.org/2000/svg">
<g clip-path="url(#clip0_340_6435)">
<path d="M27.4646 28.6833H30.4017C35.5919 28.6833 40.7871 28.6279 45.9923 28.7135C47.7878 28.7437 48.3561 27.9428 48.3963 26.3257C48.4365 24.613 47.2547 24.7591 46.1633 24.7591C31.7461 24.7591 17.3407 24.7591 2.94697 24.7591C1.76007 24.7591 0.482632 24.618 0.583217 26.4718C0.673743 28.1543 1.49352 28.7387 3.17329 28.7084C8.44898 28.6278 13.7347 28.6833 19.0004 28.6833H21.8167V35.635C20.7254 35.7156 19.5737 35.5795 18.6282 35.9574C17.9341 36.2344 17.5167 37.1915 16.9736 37.8414C17.5871 38.2192 18.1906 38.9093 18.8143 38.9244C22.5828 39.0252 26.3514 39.0252 30.12 38.9244C30.7789 38.9244 31.4226 38.2746 32.0764 37.9169C31.4679 37.2218 30.9851 36.2747 30.2206 35.9019C29.4562 35.5292 28.3246 35.6601 27.2031 35.5594C27.2634 33.217 27.359 31.0761 27.4646 28.6833Z" fill="#ccc"/>
<path d="M16.9336 22.6383C21.7818 22.6383 26.1874 22.6937 30.588 22.5628C31.0909 22.5628 31.9359 21.4545 31.9359 20.8601C31.9342 18.3565 31.7662 15.8557 31.4329 13.3744C31.3474 12.7548 30.4271 11.8028 29.8487 11.7776C26.3282 11.6315 22.843 11.6416 19.3426 11.7776C18.7592 11.7776 17.7634 12.5584 17.7031 13.0621C17.3259 16.0896 17.18 19.1776 16.9336 22.6383Z" fill="#ccc"/>
<path d="M15.9479 11.7423C11.5523 11.7423 7.47357 11.7121 3.37473 11.7876C3.11072 11.8451 2.86503 11.9672 2.65966 12.143C2.45429 12.3188 2.29562 12.5429 2.19787 12.7951C1.4133 15.9284 0.744427 19.0919 -0.0200195 22.4922H15.0677C15.3695 18.971 15.6461 15.5204 15.9479 11.7423Z" fill="#ccc"/>
<path d="M49.0003 22.6383C48.3515 19.5906 47.6373 16.9309 47.2652 14.2257C46.9835 12.2108 46.1437 11.4753 44.1621 11.707C42.7426 11.802 41.3191 11.8238 39.8973 11.7725H33.1431C33.3694 15.2987 33.5202 18.2809 33.8119 21.2732C33.8572 21.7769 34.5161 22.593 34.9033 22.598C39.4799 22.6635 44.0565 22.6383 49.0003 22.6383Z" fill="#ccc"/>
<path d="M31.1811 9.74243C30.9749 6.78041 30.8543 4.035 30.5324 1.30973C30.4771 0.836213 29.5969 0.120897 29.0739 0.100747C26.0563 -0.0100769 23.0388 -1.96695e-06 20.0212 0.100747C19.5183 0.100747 18.6885 0.725386 18.6382 1.13342C18.3163 3.92921 18.1353 6.75018 17.9341 9.74243H31.1811Z" fill="#ccc"/>
<path d="M2.82129 9.90364H8.50434C16.5763 9.90364 16.5512 9.90364 16.7523 1.81852C16.7875 0.463444 16.3349 0.0151015 15.0625 0.0302139C12.226 0.0654761 9.38448 -0.0302387 6.55302 0.105773C6.18339 0.166633 5.83373 0.315536 5.53354 0.539955C5.23334 0.764374 4.99136 1.05774 4.82796 1.39536C4.0786 3.99973 3.55053 6.70485 2.82129 9.90364Z" fill="#ccc"/>
<path d="M46.234 9.69207C45.5651 6.66959 45.022 3.90404 44.2827 1.18885C44.1519 0.685107 43.2215 0.115867 42.6431 0.0957173C39.8016 -0.0201442 36.945 -0.0453315 34.0934 0.0957173C33.5201 0.125942 32.5293 1.10321 32.5293 1.60695C32.5293 4.27177 32.8059 6.93155 32.987 9.66689L46.234 9.69207Z" fill="#ccc"/>
<path d="M27.4647 28.6833C27.3591 31.0761 27.2636 33.217 27.163 35.5795C28.3097 35.6803 29.391 35.5292 30.1806 35.9221C30.9701 36.315 31.4278 37.2369 32.0364 37.9371C31.3825 38.2847 30.7388 38.9143 30.08 38.9446C26.3114 39.042 22.5428 39.042 18.7742 38.9446C18.1506 38.9446 17.5471 38.2393 16.9335 37.8615C17.4767 37.2117 17.8941 36.2546 18.5881 35.9775C19.5336 35.5997 20.6853 35.7357 21.7767 35.6551V28.6833H18.9603C13.6846 28.6833 8.39885 28.6278 3.13322 28.7084C1.45345 28.7387 0.618616 28.1543 0.543178 26.4718C0.442593 24.618 1.72003 24.7591 2.90693 24.7591C17.3241 24.7591 31.7296 24.7591 46.1233 24.7591C47.2146 24.7591 48.3965 24.613 48.3563 26.3257C48.316 27.9428 47.7477 28.7437 45.9523 28.7135C40.7621 28.6279 35.5669 28.6833 30.3616 28.6833H27.4647Z" fill="#ccc"/>
<path d="M16.9336 22.6383C17.18 19.1625 17.3259 16.0896 17.688 13.0671C17.7483 12.5634 18.7441 11.8028 19.3275 11.7826C22.848 11.6617 26.3333 11.6516 29.8336 11.7826C30.407 11.7826 31.3424 12.7599 31.4178 13.3795C31.7511 15.8607 31.9191 18.3615 31.9208 20.8651C31.9208 21.4596 31.0658 22.5527 30.5729 22.5678C26.1874 22.7088 21.7818 22.6383 16.9336 22.6383Z" fill="#ccc"/>
<path d="M15.9478 11.7423C15.646 15.5204 15.3694 18.971 15.0878 22.4872H0C0.764446 19.0869 1.43332 15.9385 2.21789 12.7901C2.31564 12.5378 2.47431 12.3137 2.67968 12.1379C2.88505 11.9621 3.13074 11.84 3.39474 11.7826C7.47347 11.7121 11.5673 11.7423 15.9478 11.7423Z" fill="#ccc"/>
<path d="M48.9999 22.6383C44.0561 22.6383 39.4795 22.6736 34.918 22.5779C34.5307 22.5779 33.8719 21.7467 33.8266 21.253C33.5349 18.2608 33.384 15.2584 33.1577 11.7524H39.912C41.3338 11.8037 42.7573 11.7818 44.1768 11.6869C46.1583 11.4753 46.9982 12.2259 47.2799 14.2056C47.6369 16.9208 48.3511 19.5806 48.9999 22.6383Z" fill="#ccc"/>
<path d="M31.1813 9.74243H17.9443C18.1656 6.75018 18.3266 3.92921 18.6484 1.13342C18.6987 0.725386 19.5386 0.125934 20.0315 0.100747C23.049 -1.96695e-06 26.0666 -0.0100769 29.0841 0.100747C29.5871 0.100747 30.4873 0.836213 30.5426 1.30973C30.8494 4.035 30.9701 6.78041 31.1813 9.74243Z" fill="#ccc"/>
<path d="M2.82129 9.90367C3.55053 6.70489 4.0786 4.01991 4.83299 1.3954C4.99639 1.05778 5.23837 0.764411 5.53857 0.539992C5.83877 0.315573 6.18839 0.166669 6.55802 0.105809C9.38949 -0.030202 12.231 0.0655128 15.0675 0.0302505C16.3399 0.0302505 16.7926 0.463481 16.7574 1.81856C16.5461 9.90872 16.5813 9.90871 8.50937 9.90367H2.82129Z" fill="#ccc"/>
<path d="M46.234 9.69204H33.0021C32.821 6.97685 32.5495 4.31707 32.5444 1.63211C32.5444 1.09814 33.5503 0.120869 34.1085 0.120869C36.945 -0.0403292 39.8016 -0.0151419 42.6583 0.120869C43.2366 0.120869 44.167 0.720334 44.2978 1.214C45.022 3.90401 45.5652 6.6746 46.234 9.69204Z" fill="#ccc"/>
</g>
<defs>
<clipPath id="clip0_340_6435">
<rect width="49" height="39" fill="black"/>
</clipPath>
</defs>
</svg>
