<svg width="904" height="551" viewBox="0 0 904 551" fill="none" xmlns="http://www.w3.org/2000/svg">
<g clip-path="url(#clip0_340_10753)">
<path d="M72.7163 454.812C66.6377 454.816 60.6598 453.259 55.3545 450.291C50.0491 447.322 45.5938 443.041 42.4147 437.858C21.74 404.12 8.24848 366.475 2.78479 327.28C-2.67889 288.085 0.00287214 248.183 10.6621 210.072C21.3214 171.962 39.7286 136.463 64.7317 105.798C89.7347 75.1338 120.795 49.9633 155.969 31.8629C191.142 13.7624 229.672 3.12175 269.145 0.60667C308.618 -1.90841 348.185 3.75642 385.369 17.2465C422.553 30.7366 456.554 51.7615 485.243 79.0051C513.931 106.249 536.69 139.124 552.095 175.574C553.991 179.889 555.01 184.539 555.095 189.252C555.179 193.965 554.326 198.648 552.586 203.029C550.846 207.409 548.253 211.4 544.958 214.769C541.663 218.138 537.731 220.819 533.392 222.655C529.053 224.491 524.392 225.446 519.681 225.464C514.97 225.482 510.302 224.563 505.948 222.761C501.595 220.958 497.643 218.308 494.322 214.965C491.001 211.621 488.378 207.65 486.604 203.283C475.013 175.854 457.888 151.113 436.301 130.61C414.714 110.108 389.129 94.2837 361.149 84.1292C333.168 73.9746 303.394 69.708 273.69 71.5964C243.985 73.4848 214.99 81.4876 188.519 95.1038C162.048 108.72 138.671 127.657 119.851 150.728C101.031 173.8 87.1738 200.51 79.1458 229.187C71.1177 257.864 69.092 287.89 73.1956 317.386C77.2991 346.882 87.4436 375.213 102.994 400.606C106.304 405.999 108.116 412.176 108.245 418.503C108.374 424.829 106.814 431.076 103.727 436.598C100.64 442.121 96.1367 446.72 90.6815 449.922C85.2264 453.123 79.0167 454.811 72.6923 454.812H72.7163Z" fill="#7CBE82"/>
<path d="M234.71 427.637H283.719V443.977H252.676V474.223H277.347V490.563H252.676V525.668H283.719V542.016H234.71V427.637Z" fill="white"/>
<path d="M294.005 427.637H311.979V542.056H294.005V427.637Z" fill="white"/>
<path d="M325.367 427.637H347.918L365.397 496.124H365.724V427.637H381.736V542.056H363.292L341.706 458.498H341.379V542.024H325.367V427.637Z" fill="white"/>
<path d="M421.264 427.637H439.237V525.708H468.805V542.056H421.264V427.637Z" fill="white"/>
<path d="M477.457 427.637H495.431V542.056H477.457V427.637Z" fill="white"/>
<path d="M514.465 536.336C509.941 531.432 507.679 524.517 507.679 515.592V454.158C507.679 445.222 509.941 438.307 514.465 433.414C518.989 428.52 525.549 426.068 534.145 426.058C542.747 426.058 549.309 428.51 553.833 433.414C558.357 438.318 560.617 445.232 560.611 454.158V466.253H543.626V453.009C543.626 445.929 540.631 442.389 534.639 442.389C528.648 442.389 525.653 445.929 525.653 453.009V516.924C525.653 523.897 528.648 527.384 534.639 527.384C540.631 527.384 543.626 523.897 543.626 516.924V499.435H560.611V515.616C560.611 524.552 558.352 531.466 553.833 536.36C549.315 541.253 542.752 543.705 534.145 543.716C525.544 543.7 518.984 541.24 514.465 536.336Z" fill="white"/>
<path d="M571.416 427.637H589.39V474.223H608.663V427.637H626.637V542.056H608.663V490.563H589.39V542.056H571.416V427.637Z" fill="white"/>
<path d="M654.06 443.977H635.273V427.637H690.812V443.977H672.025V542.056H654.06V443.977Z" fill="white"/>
<path d="M739.494 427.637H763.839L782.466 542.056H764.493L761.224 519.334V519.661H740.802L737.541 542.056H720.875L739.494 427.637ZM759.103 504.135L751.128 447.575H750.801L742.963 504.135H759.103Z" fill="white"/>
<path d="M797.003 536.256C792.426 531.293 790.138 524.182 790.138 514.921V427.637H808.111V516.198C808.111 520.123 808.909 522.956 810.504 524.695C812.098 526.434 814.358 527.307 817.282 527.312C820.221 527.312 822.481 526.44 824.06 524.695C825.638 522.95 826.436 520.118 826.452 516.198V427.637H843.772V514.921C843.772 524.187 841.483 531.299 836.906 536.256C832.329 541.213 825.684 543.692 816.97 543.692C808.231 543.692 801.575 541.213 797.003 536.256Z" fill="white"/>
<path d="M856.466 427.637H904.008V443.977H874.432V475.851H897.637V492.199H874.432V542.056H856.466V427.637Z" fill="white"/>
<path d="M135.767 551C155.541 551 171.571 534.961 171.571 515.177C171.571 495.392 155.541 479.354 135.767 479.354C115.993 479.354 99.9634 495.392 99.9634 515.177C99.9634 534.961 115.993 551 135.767 551Z" fill="#7CBE82"/>
<path d="M239.334 397.144C237.638 397.154 235.942 397.071 234.255 396.896V387.139C235.201 387.236 236.151 387.284 237.102 387.282C241.089 387.282 244.135 386.197 246.208 384.091C248.281 381.985 249.302 378.857 249.302 374.82V297.325H260.649V374.373C260.649 382.208 258.903 388.048 255.45 391.718C251.997 395.388 246.615 397.144 239.334 397.144Z" fill="white"/>
<path d="M277.443 396.553V297.285H317.09V307.155H288.79V339.746H311.277V349.616H288.79V386.684H317.09V396.553H277.443Z" fill="white"/>
<path d="M344.306 396.553V307.155H327.177V297.285H372.781V307.155H355.653V396.553H344.306Z" fill="white"/>
<path d="M382.43 396.553V384.944L414.031 307.155H383.913V297.285H425.347V308.894L393.745 386.684H425.347V396.553H382.43Z" fill="white"/>
<path d="M452.418 396.553V307.155H435.29V297.285H480.894V307.155H463.774V396.553H452.418Z" fill="white"/>
<path d="M538.364 398.037C531.187 398.037 525.693 396.034 522.041 392.069C518.389 388.104 516.459 382.08 516.459 374.333V319.497C516.459 311.75 518.341 305.782 522.041 301.761C525.741 297.74 531.187 295.793 538.364 295.793C545.541 295.793 551.027 297.804 554.679 301.761C558.331 305.718 560.261 311.75 560.261 319.497V325.88H549.807V318.42C549.807 314.566 548.73 305.654 538.802 305.654C528.875 305.654 527.798 314.598 527.798 318.42V375.522C527.798 379.328 528.867 388.168 538.802 388.168C548.738 388.168 549.807 379.328 549.807 375.522V352.592H541.609V342.73H560.253V374.333C560.253 382.08 558.371 388.048 554.671 392.069C550.971 396.09 545.541 398.037 538.364 398.037Z" fill="white"/>
<path d="M575.866 396.553V297.285H615.513V307.155H587.221V339.746H609.708V349.616H587.221V386.684H615.513V396.553H575.866Z" fill="white"/>
<path d="M663.876 396.553V349.616H641.277V396.553H629.922V297.285H641.277V339.746H663.876V297.285H675.231V396.553H663.876Z" fill="white"/>
<path d="M705.277 396.553V307.155H688.149V297.285H733.753V307.155H716.632V396.553H705.277Z" fill="white"/>
<path d="M770.505 396.545V297.285H793.008C800.384 297.285 805.926 299.216 809.483 303.038C813.039 306.859 814.913 312.795 814.913 320.542V373.288C814.913 381.035 813.087 386.923 809.483 390.793C805.879 394.662 800.384 396.545 793.008 396.545H770.505ZM781.853 386.692H792.705C796.118 386.692 798.822 385.607 800.751 383.5C802.681 381.394 803.566 378.266 803.566 374.062V319.808C803.566 315.604 802.617 312.428 800.751 310.37C798.885 308.311 796.11 307.179 792.705 307.179H781.853V386.692Z" fill="white"/>
<path d="M842.312 297.285H830.965V396.553H842.312V297.285Z" fill="white"/>
<path d="M892.684 396.545C892.448 395.699 892.267 394.838 892.142 393.968C891.911 391.403 891.821 388.828 891.871 386.253V367.176C891.871 361.839 890.898 357.945 888.993 355.608C886.959 353.11 883.618 351.85 879.081 351.85H870.907V396.529H859.552V297.285H881.313C889.008 297.285 894.622 299.009 897.987 302.415C901.352 305.822 903.067 311.335 903.067 318.755V325.138C903.067 334.784 899.997 340.919 893.928 343.361L892.493 343.943L892.358 345.539V347.932L894.088 348.451C895.609 348.859 897.02 349.604 898.214 350.632C899.408 351.659 900.355 352.943 900.986 354.387C902.477 357.722 903.226 362.365 903.226 368.118V386.468C903.201 388.972 903.304 391.475 903.537 393.968C903.635 394.861 903.792 395.745 904.008 396.617L892.684 396.545ZM870.907 342.012H879.376C883.363 342.012 886.433 340.904 888.554 338.717C890.675 336.531 891.744 333.132 891.744 328.473V320.391C891.744 316.058 890.882 312.771 889.184 310.633C887.35 308.319 884.559 307.147 880.891 307.147H870.931L870.907 342.012Z" fill="white"/>
</g>
<defs>
<clipPath id="clip0_340_10753">
<rect width="904" height="551" fill="white"/>
</clipPath>
</defs>
</svg>
