<svg xmlns="http://www.w3.org/2000/svg" xmlns:xlink="http://www.w3.org/1999/xlink" width="1920" height="1080" viewBox="0 0 1920 1080">
  <defs>
    <style>
      .cls-1, .cls-7 {
        fill: none;
      }

      .cls-2 {
        clip-path: url(#clip-path);
      }

      .cls-3 {
        fill: #71a875;
      }

      .cls-3, .cls-4 {
        stroke: #fff;
        stroke-miterlimit: 10;
        stroke-width: 0.25px;
      }

      .cls-4 {
        fill: #89bb8a;
      }

      .cls-5 {
        fill: #e6e6e6;
      }

      .cls-6 {
        clip-path: url(#clip-path-2);
      }

      .cls-7 {
        stroke: #486c4a;
        stroke-width: 2px;
      }

      .cls-8 {
        clip-path: url(#clip-path-3);
      }

      .cls-9 {
        fill: #fff;
      }

      .cls-10 {
        fill: #fefeff;
      }

      .cls-11 {
        clip-path: url(#clip-path-4);
      }

      .cls-12 {
        clip-path: url(#clip-path-5);
      }

      .cls-13 {
        clip-path: url(#clip-path-6);
      }

      .cls-14 {
        clip-path: url(#clip-path-7);
      }

      .cls-15 {
        clip-path: url(#clip-path-8);
      }

      .cls-16 {
        clip-path: url(#clip-path-9);
      }

      .cls-17 {
        clip-path: url(#clip-path-10);
      }

      .cls-18 {
        clip-path: url(#clip-path-11);
      }

      .cls-19 {
        clip-path: url(#clip-path-12);
      }

      .cls-20 {
        clip-path: url(#clip-path-13);
      }

      .cls-21 {
        clip-path: url(#clip-path-14);
      }

      .cls-22 {
        clip-path: url(#clip-path-15);
      }

      .cls-23 {
        clip-path: url(#clip-path-16);
      }

      .cls-24 {
        clip-path: url(#clip-path-17);
      }

      .cls-25 {
        clip-path: url(#clip-path-18);
      }

      .cls-26 {
        clip-path: url(#clip-path-19);
      }

      .cls-27 {
        fill: #efd37b;
      }
    </style>
    <clipPath id="clip-path">
      <rect class="cls-1" x="243" width="1677" height="1080"/>
    </clipPath>
    <clipPath id="clip-path-2">
      <path class="cls-1" d="M1316.84,898.15c1.15-6.92,4.61-16.15,11.54-18.46s34.61-8.07,38.07-13.84,10.38,1.15,16.15-3.46a33.85,33.85,0,0,1,19.62-6.93c5.76,0,20.76-3.46,26.53-2.3s13.85,15,17.31,15,9.57-4.61,9.22-7.4,3.13-5.56,5.57-7,4.52-6.61,4.18-9.4a15.86,15.86,0,0,0-5.57-9.39c-3.14-2.44-3.83-9.06-8-9.4s-9.75-5.23-9.75-8.36.35-8.35,1.74-9,8.71-.7,11.84-2.09,3.83-7,3.83-10.44,2.78-8.7-2.09-8.7-8.7-.35-8.7-4.88V764c0-2.44,3.83-5.22,5.92-7s5.56-2.79,5.22-7.31-3.14-15-3.48-19.5,1.39-12.18-1.74-13.22-2.09-5.57-7.32-4.53-8,1-8-3.48,1.39-45.25.69-53.61.35-15.32-1.74-16.71-2.09-7.31-7.66-9-7.31-6.61-10.79-11.14-7.65-5.22-8-10.44-.7-13.58,1.74-13.58,8.7-3.48,8.7-6.26,4.53-6.27,7-6.27,8.36.7,8.71-2.43,5.91-4.53,5.91-9.41,4.18-13.57,5.92-13.92,7.66-1.74,12.18-1.74,12.54-1.39,15.32-1.39,7.66-1.39,7.66-4.18.7-7.66,1-13.92,1.4-8,3.14-9.4,3.48-4.18,2.78-9-.35-8.36-2.78-11.14-3.48-7.66-3.48-10.79,2.43-4.18,4.52-7,5.22-8,7.66-8.35,6.27,2.44,6.27,6.27,9.4,5.57,11.13,5.57,5.92,4.52,6.62.34,0-9.4,2.44-9.74,4.52,6.26,7.31,5.57,6.61,3.48,9.39,3.48,7.32,1,7.66-2.44,1.74-10.44,1.4-12.88,0-11.49-3.83-12.18-5.23-4.18-8.36-5.57-7-3.83-6.26-7.31.34-10.45.34-14.28,4.53-10.79,1.74-11.83-8-3.83-7.65-8,2.43-7.31,4.17-8,3.14-3.83,3.48-8,.7-13.23.7-15.67-3.83-7.31-5.57-8.7-3.83-6.26-8.7-8.7-6.61-3.83-9.4-7-6.61-10.45-10.44-11.49-6.27-4.53-8.71-5.92-5.57-4.87-4.17-7,4.52-3.83,5.91-5.57,4.88-5.57,4.18-9.4,3.13-10.09-1.39-10.09-7-1.05-11.49-1.4-6.26-1.39-8.7-4.17-5.57-2.79-9-4.53-7.31-2.44-7.31-5.22-.7-26.11-.7-29.24,6.27-5.22,6.27-7.66,3.83-5.57,1.39-9.05-1-10.44-4.18-12.18-4.87,2.43-5.91-1.74.69-7.66,2.78-8.71,10.44,4.18,11.49-.35.35-10.44-.35-14.62-5.22-8-5.92-12.53,1.74-10.09-.69-11.48-3.49-7-3.49-10.1,2.09-15,.35-17.41-5.91-4.52-7.66-6.26a4.32,4.32,0,0,0-5.91-.35c-1.74,1.39-2.44,5.92-4.18,9.05s-5.22,3.13-5.22,6.27-1.4,11.48-3.14,12.18-3.13-1-7.65-.7-10.1,1.05-12.88,0-6.62-.69-6.62-4.17,2.79-9.75,1.74-11.84-4.17-3.13-5.92-3.13-4.52-.7-7,1.74-3.83,5.92-6.26,5.92-4.18-1.74-4.88-4.18-4.87-1.74-5.22-5.22-.35-9.05,1.74-9.4,7-1.39,7.31-3.13-.35-1.4,1.39-4.88,0-7.66,0-10.09,1.05-8.71.35-12.19-1.74-5.91-4.87-5.57-10.44-4.17-11.84-.69-.69,9.74-4.17,9.4-9,1-9.4-3.14,1-9.39-3.14-8.7a26,26,0,0,1-12.53-.69c-4.87-1.4-5.57-2.44-6.61.34s1.39,5.92-4.53,6.62-9,1.39-9.4-2.44-3.13-6.61-1.74-10.44,1.74-9.05-1.74-8-5.22,5.57-7.65,6.62-4.53,6.61-7.31,5.22-3.49-2.44-7.66-4.18-7.31-.35-7.31-3.83-.35-4.87-3.83-4.87-12.19-1-16-1.4-9.74,1-9.74,2.79-2.44,9.4.69,9.75,7.66,2.78,8.36,5.56,3.83,9.06,0,11.84-8.36,2.44-10.45,8,.7,9-3.48,14.62-9.74,7.31-8.7,10.79-2.09,6.26-5.92,6.61-4.17.7-6.26,2.79-4.18,2.78-8.71,2.09-6.26-2.44-10.44-3.83a33.11,33.11,0,0,1-8.7-3.83c-3.48-2.09-5.22-5.22-5.57-2.44s.35,11.14-1,13.23,0,9.75-2.43,11.14-5.22,2.44-8.71,1.39-6.26.35-8-1.39-1-5.92-3.13-8.7-1.74-6.27-5.92-7-6.27-2.78-6.62.7,1.4,7.31,2.09,12.88-1,12.18-1.74,14.62,0,4.18-1.39,9.75-1.74,9.05-7.66,8.35-8.35,0-10.79,2.79-1.39,6.26-5.57,6.26-10.1,1.4-10.44-1.74-2.44-11.14,0-11.83,5.22-1.39,5.22-4.88.35-10.79,1.39-10.79,1-2.78,2.79-5.22,5.22-5.22,4.87-9,3.13-5.22-2.44-7.66-9.4-2.43-11.49-4.18-5.22-6.61-8.35-7.65-5.22-3.14-8.35-6.27-2.09-7-8-9.4-4.18-7-7.66-4.87-3.48,8-3.48,10.09-2.09,9.4,2.09,10.45,5.92,4.17,7.31,8-.35,8.36-4.53,7a9.34,9.34,0,0,0-9.4,1.75c-2.08,1.74-8-1.05-8.7-3.83s-1.74-11.84-5.57-13.58-3.83-1.39-7.66-3.83-5.91-5.22-9.4-5.92-5.22-6.26-8.35-5.91-3.48,7.31-3.13,9.74-.35,18.8-.7,25.76,1.39,17.76,1.39,22.28-.69,12.53,2.79,13.58,8.7,5.22,10.79,5.57,1.74,11.83,1,25.41-2.09,34.81-1.75,41.42.7,11.14-3.48,12.88-3.83,5.57-9.74,8-9.4-.35-10.45,3.13-.69,8.71,0,13.93-.35,14.62-.35,17.75-3.48,7.31-7,11.49-7,7.66-9.05,12.88-6.26,12.18-10.09,14.27-9.75,3.13-10.45,6.61-3.48,5.57-7.65,8c-3.31,1.93-3.4.83-6.72,1.31.32,1.34.6,2.4.6,2.4s-7.34,8.74-9.78,10.84-12.58,8.73-14,10.48-5.94,8.39-5.94,10.14.7,32.15,1,33.9-2.8,3.49-7,3.14-18.18,1.4-18.18,1.4a28.11,28.11,0,0,0-2.79,4.54c-.7,1.75-7,3.5-7.34,4.55a46.17,46.17,0,0,0-.7,10.48c.35,2.45-4.89,11.18-7.69,12.23s-8.39,5.25-9.44,7.34-8.51,17.71-8.51,22.84-8.79,35.16-12.45,42.49-10.26,27.84-10.26,33-4.4,28.57-5.86,33.7S856,669,851.55,675.58s-12.46,20.51-16.12,24.91-8.79,10.26-8.79,13.92,2.2,16.85,6.59,20.51,10.26,4.4,11,8.06,2.2,11.72-2.93,13.19-12.45,9.52-13.92,13.19-12.45,23.44-14.65,27.84-10.26,14.65-10.26,17.58,6.6,8.8,11,8.8c0,0,10.26,2.93,11,7.32S820.78,847,820.78,847s-13.19,2.2-12.46,8.79,4.87,9,5.31,10.52,7.49,4.62,8.81,7.71,6.83,7.27,8.15,7.27,8.59-1.54,8.81-3.31,4.41-7.71,7.05-7.71,9,.88,10.13.88,5.07,4.85,5.29,6.83,1.32,7,1.54,9.48-2.86,5.94-2.42,8.81,0,9.91,1.1,10.13,9.25,1.76,9.69-.22,2.2-6.39,5.06-7.27,10.14-1.32,11.9.66,6,2.42,6.61,4.41,4.84-.45,5.28,1.76,6.61,3.52,13.44,3.52,18.06-.44,20.27-1.32,6.82-3.08,7.49-5.29,5.5-8.15,7.49-8.37,7.7-3.52,9.47-4.62,4.84-5.51,6.38-6.61,10.58-5.51,12.34-5.51,11.67,7.27,13.88,11,5.06,7.71,6.16,9.69,2.65,3.52,6,4.85,13.22.21,17.62-.23,15-1.54,17-2.2,6.39-6,7.49-6.83,6.39-4.18,9.25-4.62,9.26-9.25,9-10.8-10.36-3.52-11.68-5.06-7-3.31-9.47-3.53-4.85-2.42-6.17-4.4-4.62-4.19-6-5.07-1.54-5.06-1.1-6.61,4.41-4.4,5.51-4.84,3.08-4.41,6.17-4.19,14.32,2.43,16.3.66,1.1-7.71.88-9.25,5.07-3.08,4.85-4.4.66-7.27,2.42-7.71,6.17-2.21,11-2.21,25.55-.22,26.88-.22,6.82,3.31,6.6,4.63.44,9.42.44,13.09,0,8.42,2.56,8.42,4.76,7.7,5.86,8.06,7.69,1.47,11,0,4-5.13,7.33-5.86,14.65,2.2,16.85,1.83,2.2,8.79,6.23,9.16,19.41,1.1,23.81.37,13.92,2.93,15.75,5.13,2.93,6.59,5.13,8.79,6.23,7,6.23,8.79,1.83,9.52,4.76,11.35,7.32,1.1,9.52,1.1,4-4.76,4.76-7.32,5.87-9.89,8.06-9.16,8.06-.73,9.53-.73,9.89,4.76,11,7.69,8.42,5.13,10.26,8.06,4.76,4.76,7.69,7.69,4,7.69,7.69,9.89,11.36,7.7,11.36,9.89h0a15,15,0,0,0,4.78-2.42C1304.15,916.61,1315.69,905.07,1316.84,898.15Z"/>
    </clipPath>
    <clipPath id="clip-path-3">
      <rect class="cls-1" x="1172.87" y="471.97" width="49" height="39"/>
    </clipPath>
    <clipPath id="clip-path-4">
      <rect class="cls-1" x="1307.87" y="343.97" width="40" height="59"/>
    </clipPath>
    <clipPath id="clip-path-5">
      <rect class="cls-1" x="1087.87" y="756.97" width="40" height="59"/>
    </clipPath>
    <clipPath id="clip-path-6">
      <rect class="cls-1" x="1070.87" y="194.97" width="40" height="59"/>
    </clipPath>
    <clipPath id="clip-path-7">
      <rect class="cls-1" x="1364.87" y="204.97" width="49" height="39"/>
    </clipPath>
    <clipPath id="clip-path-8">
      <rect class="cls-1" x="904.87" y="817.97" width="59" height="68"/>
    </clipPath>
    <clipPath id="clip-path-9">
      <rect class="cls-1" x="1037.87" y="755.97" width="49" height="39"/>
    </clipPath>
    <clipPath id="clip-path-10">
      <rect class="cls-1" x="1394.87" y="406.97" width="49" height="39"/>
    </clipPath>
    <clipPath id="clip-path-11">
      <rect class="cls-1" x="1416.87" y="535.97" width="49" height="39"/>
    </clipPath>
    <clipPath id="clip-path-12">
      <rect class="cls-1" x="1418.87" y="712.97" width="40" height="59"/>
    </clipPath>
    <clipPath id="clip-path-13">
      <rect class="cls-1" x="1101.87" y="261.97" width="49" height="39"/>
    </clipPath>
    <clipPath id="clip-path-14">
      <rect class="cls-1" x="1040.87" y="261.97" width="49" height="39"/>
    </clipPath>
    <clipPath id="clip-path-15">
      <rect class="cls-1" x="1320.87" y="129.97" width="59" height="68"/>
    </clipPath>
    <clipPath id="clip-path-16">
      <rect class="cls-1" x="1478.87" y="369.97" width="59" height="68"/>
    </clipPath>
    <clipPath id="clip-path-17">
      <rect class="cls-1" x="1357.87" y="329.97" width="59" height="68"/>
    </clipPath>
    <clipPath id="clip-path-18">
      <rect class="cls-1" x="1342.87" y="473.97" width="40" height="59"/>
    </clipPath>
    <clipPath id="clip-path-19">
      <rect class="cls-1" x="1503.69" y="53.6" width="131" height="131"/>
    </clipPath>
  </defs>
  <g id="Karte">
    <g class="cls-2">
      <g>
        <path class="cls-3" d="M1316.84,898.15c1.15-6.92,4.61-16.15,11.54-18.46s34.61-8.07,38.07-13.84,10.38,1.15,16.15-3.46a33.85,33.85,0,0,1,19.62-6.93c5.76,0,20.76-3.46,26.53-2.3s13.85,15,17.31,15,9.57-4.61,9.22-7.4,3.13-5.56,5.57-7,4.52-6.61,4.18-9.4a15.86,15.86,0,0,0-5.57-9.39c-3.14-2.44-3.83-9.06-8-9.4s-9.75-5.23-9.75-8.36.35-8.35,1.74-9,8.71-.7,11.84-2.09,3.83-7,3.83-10.44,2.78-8.7-2.09-8.7-8.7-.35-8.7-4.88V764c0-2.44,3.83-5.22,5.92-7s5.56-2.79,5.22-7.31-3.14-15-3.48-19.5,1.39-12.18-1.74-13.22-2.09-5.57-7.32-4.53-8,1-8-3.48,1.39-45.25.69-53.61.35-15.32-1.74-16.71-2.09-7.31-7.66-9-7.31-6.61-10.79-11.14-7.65-5.22-8-10.44-.7-13.58,1.74-13.58,8.7-3.48,8.7-6.26,4.53-6.27,7-6.27,8.36.7,8.71-2.43,5.91-4.53,5.91-9.41,4.18-13.57,5.92-13.92,7.66-1.74,12.18-1.74,12.54-1.39,15.32-1.39,7.66-1.39,7.66-4.18.7-7.66,1-13.92,1.4-8,3.14-9.4,3.48-4.18,2.78-9-.35-8.36-2.78-11.14-3.48-7.66-3.48-10.79,2.43-4.18,4.52-7,5.22-8,7.66-8.35,6.27,2.44,6.27,6.27,9.4,5.57,11.13,5.57,5.92,4.52,6.62.34,0-9.4,2.44-9.74,4.52,6.26,7.31,5.57,6.61,3.48,9.39,3.48,7.32,1,7.66-2.44,1.74-10.44,1.4-12.88,0-11.49-3.83-12.18-5.23-4.18-8.36-5.57-7-3.83-6.26-7.31.34-10.45.34-14.28,4.53-10.79,1.74-11.83-8-3.83-7.65-8,2.43-7.31,4.17-8,3.14-3.83,3.48-8,.7-13.23.7-15.67-3.83-7.31-5.57-8.7-3.83-6.26-8.7-8.7-6.61-3.83-9.4-7-6.61-10.45-10.44-11.49-6.27-4.53-8.71-5.92-5.57-4.87-4.17-7,4.52-3.83,5.91-5.57,4.88-5.57,4.18-9.4,3.13-10.09-1.39-10.09-7-1.05-11.49-1.4-6.26-1.39-8.7-4.17-5.57-2.79-9-4.53-7.31-2.44-7.31-5.22-.7-26.11-.7-29.24,6.27-5.22,6.27-7.66,3.83-5.57,1.39-9.05-1-10.44-4.18-12.18-4.87,2.43-5.91-1.74.69-7.66,2.78-8.71,10.44,4.18,11.49-.35.35-10.44-.35-14.62-5.22-8-5.92-12.53,1.74-10.09-.69-11.48-3.49-7-3.49-10.1,2.09-15,.35-17.41-5.91-4.52-7.66-6.26a4.32,4.32,0,0,0-5.91-.35c-1.74,1.39-2.44,5.92-4.18,9.05s-5.22,3.13-5.22,6.27-1.4,11.48-3.14,12.18-3.13-1-7.65-.7-10.1,1.05-12.88,0-6.62-.69-6.62-4.17,2.79-9.75,1.74-11.84-4.17-3.13-5.92-3.13-4.52-.7-7,1.74-3.83,5.92-6.26,5.92-4.18-1.74-4.88-4.18-4.87-1.74-5.22-5.22-.35-9.05,1.74-9.4,7-1.39,7.31-3.13-.35-1.4,1.39-4.88,0-7.66,0-10.09,1.05-8.71.35-12.19-1.74-5.91-4.87-5.57-10.44-4.17-11.84-.69-.69,9.74-4.17,9.4-9,1-9.4-3.14,1-9.39-3.14-8.7a26,26,0,0,1-12.53-.69c-4.87-1.4-5.57-2.44-6.61.34s1.39,5.92-4.53,6.62-9,1.39-9.4-2.44-3.13-6.61-1.74-10.44,1.74-9.05-1.74-8-5.22,5.57-7.65,6.62-4.53,6.61-7.31,5.22-3.49-2.44-7.66-4.18-7.31-.35-7.31-3.83-.35-4.87-3.83-4.87-12.19-1-16-1.4-9.74,1-9.74,2.79-2.44,9.4.69,9.75,7.66,2.78,8.36,5.56,3.83,9.06,0,11.84-8.36,2.44-10.45,8,.7,9-3.48,14.62-9.74,7.31-8.7,10.79-2.09,6.26-5.92,6.61-4.17.7-6.26,2.79-4.18,2.78-8.71,2.09-6.26-2.44-10.44-3.83a33.11,33.11,0,0,1-8.7-3.83c-3.48-2.09-5.22-5.22-5.57-2.44s.35,11.14-1,13.23,0,9.75-2.43,11.14-5.22,2.44-8.71,1.39-6.26.35-8-1.39-1-5.92-3.13-8.7-1.74-6.27-5.92-7-6.27-2.78-6.62.7,1.4,7.31,2.09,12.88-1,12.18-1.74,14.62,0,4.18-1.39,9.75-1.74,9.05-7.66,8.35-8.35,0-10.79,2.79-1.39,6.26-5.57,6.26-10.1,1.4-10.44-1.74-2.44-11.14,0-11.83,5.22-1.39,5.22-4.88.35-10.79,1.39-10.79,1-2.78,2.79-5.22,5.22-5.22,4.87-9,3.13-5.22-2.44-7.66-9.4-2.43-11.49-4.18-5.22-6.61-8.35-7.65-5.22-3.14-8.35-6.27-2.09-7-8-9.4-4.18-7-7.66-4.87-3.48,8-3.48,10.09-2.09,9.4,2.09,10.45,5.92,4.17,7.31,8-.35,8.36-4.53,7a9.34,9.34,0,0,0-9.4,1.75c-2.08,1.74-8-1.05-8.7-3.83s-1.74-11.84-5.57-13.58-3.83-1.39-7.66-3.83-5.91-5.22-9.4-5.92-5.22-6.26-8.35-5.91-3.48,7.31-3.13,9.74-.35,18.8-.7,25.76,1.39,17.76,1.39,22.28-.69,12.53,2.79,13.58,8.7,5.22,10.79,5.57,1.74,11.83,1,25.41-2.09,34.81-1.75,41.42.7,11.14-3.48,12.88-3.83,5.57-9.74,8-9.4-.35-10.45,3.13-.69,8.71,0,13.93-.35,14.62-.35,17.75-3.48,7.31-7,11.49-7,7.66-9.05,12.88-6.26,12.18-10.09,14.27-9.75,3.13-10.45,6.61-3.48,5.57-7.65,8c-3.31,1.93-3.4.83-6.72,1.31.32,1.34.6,2.4.6,2.4s-7.34,8.74-9.78,10.84-12.58,8.73-14,10.48-5.94,8.39-5.94,10.14.7,32.15,1,33.9-2.8,3.49-7,3.14-18.18,1.4-18.18,1.4a28.11,28.11,0,0,0-2.79,4.54c-.7,1.75-7,3.5-7.34,4.55a46.17,46.17,0,0,0-.7,10.48c.35,2.45-4.89,11.18-7.69,12.23s-8.39,5.25-9.44,7.34-8.51,17.71-8.51,22.84-8.79,35.16-12.45,42.49-10.26,27.84-10.26,33-4.4,28.57-5.86,33.7S856,669,851.55,675.58s-12.46,20.51-16.12,24.91-8.79,10.26-8.79,13.92,2.2,16.85,6.59,20.51,10.26,4.4,11,8.06,2.2,11.72-2.93,13.19-12.45,9.52-13.92,13.19-12.45,23.44-14.65,27.84-10.26,14.65-10.26,17.58,6.6,8.8,11,8.8c0,0,10.26,2.93,11,7.32S820.78,847,820.78,847s-13.19,2.2-12.46,8.79,4.87,9,5.31,10.52,7.49,4.62,8.81,7.71,6.83,7.27,8.15,7.27,8.59-1.54,8.81-3.31,4.41-7.71,7.05-7.71,9,.88,10.13.88,5.07,4.85,5.29,6.83,1.32,7,1.54,9.48-2.86,5.94-2.42,8.81,0,9.91,1.1,10.13,9.25,1.76,9.69-.22,2.2-6.39,5.06-7.27,10.14-1.32,11.9.66,6,2.42,6.61,4.41,4.84-.45,5.28,1.76,6.61,3.52,13.44,3.52,18.06-.44,20.27-1.32,6.82-3.08,7.49-5.29,5.5-8.15,7.49-8.37,7.7-3.52,9.47-4.62,4.84-5.51,6.38-6.61,10.58-5.51,12.34-5.51,11.67,7.27,13.88,11,5.06,7.71,6.16,9.69,2.65,3.52,6,4.85,13.22.21,17.62-.23,15-1.54,17-2.2,6.39-6,7.49-6.83,6.39-4.18,9.25-4.62,9.26-9.25,9-10.8-10.36-3.52-11.68-5.06-7-3.31-9.47-3.53-4.85-2.42-6.17-4.4-4.62-4.19-6-5.07-1.54-5.06-1.1-6.61,4.41-4.4,5.51-4.84,3.08-4.41,6.17-4.19,14.32,2.43,16.3.66,1.1-7.71.88-9.25,5.07-3.08,4.85-4.4.66-7.27,2.42-7.71,6.17-2.21,11-2.21,25.55-.22,26.88-.22,6.82,3.31,6.6,4.63.44,9.42.44,13.09,0,8.42,2.56,8.42,4.76,7.7,5.86,8.06,7.69,1.47,11,0,4-5.13,7.33-5.86,14.65,2.2,16.85,1.83,2.2,8.79,6.23,9.16,19.41,1.1,23.81.37,13.92,2.93,15.75,5.13,2.93,6.59,5.13,8.79,6.23,7,6.23,8.79,1.83,9.52,4.76,11.35,7.32,1.1,9.52,1.1,4-4.76,4.76-7.32,5.87-9.89,8.06-9.16,8.06-.73,9.53-.73,9.89,4.76,11,7.69,8.42,5.13,10.26,8.06,4.76,4.76,7.69,7.69,4,7.69,7.69,9.89,11.36,7.7,11.36,9.89h0a15,15,0,0,0,4.78-2.42C1304.15,916.61,1315.69,905.07,1316.84,898.15Z"/>
        <path class="cls-4" d="M808.52,281.69c1.76-2.64,4.4-13.22,7.93-16.74s14.1-7.93,13.21-16.74,3.53-23.79-1.76-28.2-10.57.89-15.86-2.64S804.11,206.8,798,205.92,790,195.34,790,190.06s1.76-15,4.4-17.63,9.69-11.45,5.29-15-8.81-11.46-14.1-9.7-7.93,15.86-12.33,15-10.58-7.05-13.22-12.33-2.64-16.74-10.57-15-22,.88-28.2,0-16.74,3.52-22-3.53-8.81-15-16.74-12.33-12.33.88-17.62,7.05-9.69,11.45-11.45,18.5-13.22,17.62-17.63,13.22-13.21-11.46-15.86-8.81-11.45,8.81-16.74,13.21-20.26,10.58-22.9,6.17-7.93-7-10.58-8.81-2.64-1.76-8.81-2.64a34.62,34.62,0,0,0-10.51.47c-.12,6.22-.4,13.27-.24,15.29.25,2.93,3.18,7.08,6.6,8.79s4.39,3.17,10,6.1,8.55,4.4,12.7,6.6,12,9.52,12,9.52,12.7,7.09,14.65,8.31,6.11,7.32,9.28,7.32,8.06-1.22,8.55,5.86a107.89,107.89,0,0,0,2.2,14.41c.48,2.93-4.89,3.67-6.11,6.6s-1.95,5.86-1.47,12.45,0,10.5.49,14.17,1.71,10.25,4.15,11.47,6.84,4.89,6.6,9-2.2,5.86,3.42,8.3S643,305.34,644.7,308s12-1.71,12.21-2.45,1.46-5.12,2-7.57,4.64-5.37,4.64-8.3,4.4-6.11,6.59-5.62,15.63-.49,17.1,0,1.71,8.55,3.91,10.5,1.71,6.84,5.61,6.84,9.77-.24,10.26-3.42,1.71-7.57,4.64-7.81,9.28-.73,8.79,1.95,3.67,4.89,4.4,6.6,3.42,5.61-.49,8.54-.73,7.09-.49,7.82,6.84,1.46,11.72,1.71,9.29-3.67,10,2.2,3.42,10.25,4.64,10.5,4.88,4.15,8.55,3.42,9,1.46,9.76-1.71-1-10,.49-11,3.42.49,5.38-2.93S776.82,311,779,311s7.81-.74,9.52-3.67,4.4-5.13,6.84-4.88a73.91,73.91,0,0,0,8.13.13c-.15-4.25-.28-8.07-.28-9.4C803.23,289.62,806.76,284.33,808.52,281.69Z"/>
        <path class="cls-4" d="M2346.91,486.92c-1.83-2.2-2.2-9.53-6.23-9.53s-3.3-6.59-6.59-7.32-8.43,1.83-9.53-1.1-1.83-5.86-3.29-8.43-2.57-8.42-1.1-9.89,7.69,1.1,8.79-1.46,4-8.43,2.2-11.36-4-4.4-8.43-7.69-2.93-9.53-8.42-9.53-8.8,1.47-12.09-.36-2.93-8.06-3.3-10.63,1.1-24.18-1.1-24.18-5.13-8.79-8.42-9.52-6.6,1.83-11.73,1.83-2.56,5.13-6.59,5.5-10.26,2.19-14.66,1.83-2.56-4.76-5.86-4-8.42,0-8.79-5.13,1.47-20.15-1.83-20.15-2.56-12.82-5.5-13.55-15.38-3.3-24.17-2.93-11.72-3.3-18.69-2.93-7.32-4-11.72-3.3-12.09,0-12.45-1.47,1.46-15.38-1.84-16.48-6.22-7-7-12.09-3.66-11.72-7.69-12.46.37-8.42-7.32-7.32-2.94-5.86-15-5.13-23.82,0-27.84-4.4-10.63-5.12-12.09-12.45-.37-11-4.4-15.39-7.33-4-8.43-7.69-10.62-7-11.72-9.89a44.74,44.74,0,0,1-3.29-14.29c-.74-8.06-1.84-13.19-4.77-13.19s-26.37.74-26.37-1.09-1.1-26.75-.74-28.94-4.76-5.13-4.76-11,.37-12.45-2.56-17.58-2.57-8.79-8.43-11-2.2-1.1-8.42-7-11-5.49-9.89-9.16,1.83-7,4.39-8.79,8.06-.73,8.79-4.76,4.4-9.53.74-10.26-14.66,2.93-15.76-1.46-1.46-10.63-.36-13.56,8.42-1.46,13.19-2.2,11-1.1,9.89-4-.74-7.69,1.83-7.69,4.76-5.49,4.76-9.16-4.4-5.49-7.33-8.06-8.79-3.29-8.79-7.32,0-12.09-2.2-12.09-9.15,1.1-11.72-2.93.37-7-8.06-9.89S1968.12,7.76,1967,4.83s-11.35-9.89-14.28-12.46-5.13-7.69-6.6-9.89-3.29-3.66-7.69-4.39-8.79-3.67-7.33-5.87,5.86-2.56,4.77-9.15,0-14.66-2.2-16.12-4-7.7-10.26-9.16-4.76-2.56-8.06-6.59-6.23-4-7-7.33-1.83-7.33.37-8.06,12.45,1.47,14.28,1.1,2.2-3.66,1.47-8.06c-.55-3.3-1.51-7.85-.56-9.59-2.78-1-5.79-1.34-6.28-4-.75-4.15-6-9.43-9-10.56s-10.57-4.91-11-7.17a88.75,88.75,0,0,0-3-9.81c-.93-2.79-3.3-5.56-4.14-7.94-5.42,2.13-11,4.14-14,4.65-7,1.17-17.58,5.85-19.92-1.18,0,0-12.89-16.4-21.09-14.05s-12.89,8.2-19.92,10.54-18.75,2.34-22.26,4.69c0,0-10.54,10.54-15.23,8.2,0,0-19.92-5.86-19.92-14.06s-7-16.4-14.06-17.58-18.74-9.37-25.77-4.68-12.89,15.23-8.21,18.74S1723-128.57,1723-128.57s-3.51,14.06,0,18.74,11.72,15.23,8.2,18.75-10.27,5-13.49,4.33S1706-84.61,1702-84.25s-8.22,2.14-11.07,1.07-3.93-5.36-8.58-7.5-9.65-5.72-9.65-8.93-7.86-6.44-8.21-8.94-6.79-3.93-8.58-3.57-2.86,6.79-6.07,7.5-1.43,3.58-6.79,3.22-10,0-12.51.71-2.14,3.93-6.07,5.72-7.15,1.79-10,3.22-1.79,6.07-5.36,7.5-1.08,5.72,1.07,6.07,14.65.36,19.65.72,7.5,3.93,11.07,6.07-2.85,8.22-1.78,10.36-7.86,2.15-13.94,1.79l-6.07-.36s-5.36-4.64-6.79-1.43-.71,8.94-2.14,11.44-5.72,3.21-9.29,2.14-14.36-7.66-14.87-10.66-6-6.52-7.51-14L1577-79.66s-1-8.52-4.51-11c0,0-12-3.51-12-7s-5-7.51-8.52-9-10.52-3-13-3.5-9-6-13-11-7.52-13.53-11-15a33.93,33.93,0,0,0-6-2s-5.51-.51-10.52-7-13.53-13.53-17-16.53c0,0-9.52-10.53-15-11-4-.37-11,.61-15.28.36-.88,1.68-1.56,3-1.86,3.77-1.9,4.75-14.26,15.21-19,19s-10.46,10.46-15.21,12.36-17.11,0-20.91,1-17.11-1-20.91-1-2.86,17.11-1.91,22.81-7.6,4.76-13.3,4.76-6.66,7.6-10.46,10.45-5.7,10.46-8.56,10.46-15.21.95-20,0-5.7,7.6-6.65,12.36,0,16.16,1,24.71-4.75,14.26-10.46,15.21S1280-42.3,1280-42.3s-13.31,1.9-18.06,1.9-9.51-5.71-15.21-6.66-17.11,1.91-19,5.71-13.31-.95-17.11-1.9-14.26,2.85-18.06,7.6-2.85,16.16,0,21.86,1.9,14.26,0,19-12.36,15.21-14.26,19-3.8,14.26-6.65,26.61,8.55,9.51,16.16,17.11,8.55,15.21,9.5,22.82-1.9,12.35-4.75,18.06-8.56,10.45-10.46,15.21,1,12.35,5.71,15.2,10.45,14.26,13.76,19.73c.35-2.78,2.09.35,5.57,2.44a33.11,33.11,0,0,0,8.7,3.83c4.18,1.39,5.92,3.13,10.44,3.83s6.62,0,8.71-2.09,2.43-2.44,6.26-2.79,7-3.13,5.92-6.61,4.53-5.22,8.7-10.79,1.4-9.05,3.48-14.62,6.62-5.22,10.45-8,.69-9,0-11.84-5.22-5.22-8.36-5.56-.69-8-.69-9.75,5.91-3.13,9.74-2.79,12.54,1.4,16,1.4,3.83,1.39,3.83,4.87,3.13,2.09,7.31,3.83,4.87,2.78,7.66,4.18,4.87-4.18,7.31-5.22,4.17-5.58,7.65-6.62,3.14,4.18,1.74,8,1.4,6.61,1.74,10.44,3.49,3.13,9.4,2.44,3.48-3.83,4.53-6.62,1.74-1.74,6.61-.34a26,26,0,0,0,12.53.69c4.18-.69,2.79,4.53,3.14,8.7s5.91,2.79,9.4,3.14,2.78-5.92,4.17-9.4,8.71,1,11.84.69,4.18,2.09,4.87,5.57-.35,9.75-.35,12.19,1.75,6.61,0,10.09-1,3.14-1.39,4.88-5.22,2.78-7.31,3.13-2.09,5.92-1.74,9.4,4.53,2.78,5.22,5.22,2.44,4.18,4.88,4.18,3.83-3.48,6.26-5.92,5.22-1.74,7-1.74,4.88,1,5.92,3.13-1.74,8.36-1.74,11.84,3.83,3.13,6.62,4.17,8.35.35,12.88,0,5.91,1.4,7.65.7,3.14-9,3.14-12.18,3.48-3.14,5.22-6.27,2.44-7.66,4.18-9.05a4.32,4.32,0,0,1,5.91.35c1.75,1.74,5.92,3.83,7.66,6.26s-.35,14.28-.35,17.41,1,8.7,3.49,10.1,0,7,.69,11.48,5.22,8.36,5.92,12.53,1.39,10.1.35,14.62-9.4-.69-11.49.35-3.83,4.53-2.78,8.71,2.78,0,5.91,1.74,1.74,8.7,4.18,12.18-1.39,6.61-1.39,9.05-6.27,4.53-6.27,7.66.7,26.45.7,29.24,3.83,3.48,7.31,5.22,6.61,1.74,9,4.53,4.18,3.83,8.7,4.17,7,1.4,11.49,1.4.7,6.26,1.39,10.09-2.78,7.66-4.18,9.4-4.52,3.48-5.91,5.57,1.74,5.57,4.17,7,4.88,4.87,8.71,5.92,7.65,8.35,10.44,11.49,4.52,4.52,9.4,7,7,7.31,8.7,8.7,5.57,6.27,5.57,8.7-.35,11.49-.7,15.67-1.74,7.31-3.48,8-3.83,3.83-4.17,8,4.87,7,7.65,8-1.74,8-1.74,11.83.35,10.8-.34,14.28,3.13,5.91,6.26,7.31,4.53,4.87,8.36,5.57,3.48,9.74,3.83,12.18-1,9.4-1.4,12.88-4.87,2.44-7.66,2.44-6.61-4.18-9.39-3.48-4.88-5.92-7.31-5.57-1.75,5.57-2.44,9.74-4.87-.34-6.62-.34-11.13-1.75-11.13-5.57-3.83-6.62-6.27-6.27-5.57,5.57-7.66,8.35-4.52,3.83-4.52,7,1,8,3.48,10.79,2.09,6.26,2.78,11.14-1,7.66-2.78,9-2.79,3.13-3.14,9.4-1,11.14-1,13.92-4.87,4.18-7.66,4.18-10.79,1.39-15.32,1.39-10.44,1.39-12.18,1.74-5.92,9.05-5.92,13.92-5.57,6.27-5.91,9.41-6.27,2.43-8.71,2.43-7,3.48-7,6.27-6.27,6.26-8.7,6.26-2.09,8.36-1.74,13.58,4.52,5.92,8,10.44,5.23,9.4,10.79,11.14,5.57,7.66,7.66,9,1.05,8.36,1.74,16.71-.69,49.09-.69,53.61,2.78,4.53,8,3.48,4.18,3.48,7.32,4.53,1.39,8.7,1.74,13.22,3.13,15,3.48,19.5-3.14,5.57-5.22,7.31-5.92,4.52-5.92,7v18.1c0,4.53,3.83,4.88,8.7,4.88s2.09,5.22,2.09,8.7-.7,9.05-3.83,10.44-10.44,1.39-11.84,2.09-1.74,5.92-1.74,9,5.57,8,9.75,8.36,4.87,7,8,9.4a15.86,15.86,0,0,1,5.57,9.39c.34,2.79-1.74,8-4.18,9.4s-5.92,4.18-5.57,7-5.76,7.4-9.22,7.4-11.54-13.85-17.31-15-20.77,2.3-26.53,2.3a33.85,33.85,0,0,0-19.62,6.93c-5.77,4.61-12.69-2.31-16.15,3.46s-31.15,11.54-38.07,13.84-10.39,11.54-11.54,18.46-12.69,18.46-16.15,21.92a15,15,0,0,1-4.78,2.42c0,2.21-.37,17.58-.37,20.87s3.66,8.8,5.86,11.73,9.16,2.19,10.63,4,6.59,2.93,9.52,2.19,10.26-5.49,10.62-9.15,7-9.16,9.53-11.36,5.86-8.06,5.86-12.09-1.1-12.82,1.1-13.19,5.13-2.93,6.59-6.59,5.5-8.06,7.7-9.89,8.06-5.86,10.62-6.23,6.59,5.86,8.42,5.86,6.23,4.4,10.26,4.76,6.6,5.5,11,5.5,16.12.73,18.32,2.93,5.13,0,6.23,2.93-1.1,20.52,0,22.71,7,4.77,9.89,6.23,3.3,6.23,7.69,6.59,6.59,4,5.86,6.6-2.2,8.06-3.29,8.42-4,5.87-3.67,11.36-.73,11,2.93,12.46,8.43-3.67,10.26.36,1.1,11,2.2,13.19,6.59,7,6.59,8.43,4.76,8.42,7.33,8.79,9.16-.73,11-1.47,3.3-8.06,5.49-8.79,5.86-7,8.79-6.59,11-2.94,14.66-3.3,8.42.36,9.16-2.56,5.49-5.13,5.12-7.33-1.46-23.08-2.19-26.38-3.3-5.86-4-11.35-.37-21.62-2.2-22-6.23-.74-6.59-2.93-.74-12.46-.74-15,1.83-8.06,1.83-8.06,4.4-1.47,5.13-3.3,4-3.66,5.86-5.13,6.23-8.79,8.43-8.06,4.4-3.66,6.59-4.39,8.8.36,8.8.36a58.41,58.41,0,0,0,.36,10.63c.73,6.59-3.3,8.42-5.13,10.62s-3.29,8.43-1.83,10.26,3.3,1.1,5.86,2.2,7-.74,6.6,2.93,3.66,3.66,6.22,4.76,8.8,2.56,9.89,0,1.47-6.23.74-8.06.73-7.33,1.83-7.69,7.33,0,7.33,0,5.13,5.86,8.06,7,7.69.73,10.25,2.19a79.89,79.89,0,0,1,9.53,7c2.56,2.2,5.49,5.13,8.06,4.77s11.35-3.67,11.72-5.5,3.66-6.23,7.33-7,5.86-7.33,9.15-8.06,13.56-.73,17.95-1.1,7.7-.36,8.43,2.2c0,0,5.86,15,1.83,14.65s-7.69,1.1-7.69,5.13.73,9.53-1.83,10.63-3.3,4.76-2.93,7.69-1.47,12.45,0,12.45,5.86,3.67,9.52,3.3,11.36-1.46,13.92-1.1,4.76-5.13,7-6.23,7-1.83,19.42-1.46,20.51-.73,20.15,2.2,4,6.23,4.76,7.32-.73,5.5.73,6.23,10.26-.73,10.26-2.2,3.29-4,7.32-4.39,9.9.73,12.46-1.1a16.12,16.12,0,0,0,5.86-7c1.83-3.67,7.69-7,8.43-9.89s.73-7.7,2.56-11,5.5-4.4,6.59-8.06,3.3-13.92,5.87-13.19,5.86,5.86,9.15,4.4,11.73-1.47,14.66-1.1,4.76-4.76,4.76-6.6.37-8.06,2.93-8.42,4-9.89,5.86-9.89,6.6,1.1,9.89.73,6.6,4.4,11,4,8.43-5.13,12.82-4.76,35.17-1.1,43.23-1.1,20.51-3.3,22,.36,7,5.13,8.43,5.13,8.42,4,11.35,4,8.06-2.56,7.33-4.76,2.93-7,2.93-10.26,1.1-12.82,0-17.21,2.2-7.7,3.66-9.16,3.3-5.13,5.5-5.86,5.13-2.93,9.52-3.3,11.72,4.4,16.49,4.4,19.78.73,22.71.73,2.2,5.49,4,7.69,6.59,2.57,6.59,5.13.37,12.45,5.5,13.55,21.61.37,27.47-.36,12.09-1.1,13.56-2.2,5.49-4.76,8.79-4.4,12.45,0,15.75.37,1.83,5.86,4.4,7.69.36,5.13,3.29,6.6,4.77,2.19,4.4,7-1.83,22.71.73,24.91,4.76,8.06,8.79,8.42,2.94,7.33,6.6,8.06,5.49-1.46,8.06,1.83,5.86,5.5,10.26,5.13,14.65-.36,17.21-.36,2.57-4.4,5.13-4.4,6.59-2.56,5.5-4.4-1.84-21.24-2.57-27.1,4.4-6.6,4-10.63-1.1-7.69,1.47-7.69,7.32-1.47,6.59-4.4,1.47-11-1.47-11-5.12.74-8.42-.73-5.13-6.23-4-9.89,4-10.62,3.3-12.09-2.93-7.69-4.77-7.33-2.93,2.93-5.86,5.87-7,8.05-9.52,7-5.86-5.5-7.69-5.13-4-4-4-5.5,1.1-10.62.73-15.38-1.1-13.56-2.57-15-.73-8.06-1.09-11.73,7-2.93,8.06-4,2.93-9.15,5.86-9.15,4-6.23,4-9.16-5.5-5.86-8.43-5.86a8.41,8.41,0,0,1-7.69-7c-.74-4.4-1.83-9.53-2.2-11.73s-7.69-3.66-7.33-9.15-3.29-12.09-7.32-15.76a57.65,57.65,0,0,1-10.63-14.28c-1.46-3.3-1.1-12.82-3.66-14.29s-7.33-.73-7.33-6.23-2.56-9.16.37-10.62,10.62-1.47,13.19-4.4,7.69-5.13,7.32-10.26-.73-19,.74-19.41,35.53-.37,36.63,0,1.46-11,1.46-15,5.13-2.93,8.8-2.93,36.63-.37,37-1.47,5.12-2.56,8.79-5.49,6.22-9.16,10.25-9.52,8.43-1.84,10.63-5.5-1.1-8.06,4-7.69,9.16-8.79,13.92-9.53,7.33-5.49,7.33-8.79-2.2-13.19-2.2-14.65-4.4-2.57-4.4-7,1.1-11.73-2.93-12.82,0-8.06-4-9.89-4.76-7.7-4.76-10.63,8.79,2.2,11.35-.37,6.6-9.52,9.16-8.42,7.33.37,9.89-2.56,2.2-7,4.77-8.43,7.32-5.13,7.69-8.79,8.06-6.6,10.62-6.6,7.33,4.4,7.7,7.7,2.56,7.32,5.49,7.32,7,1.47,12.82,1.47,18-1.83,18-3.3,4.4-2.93,4-9.16S2348.74,489.12,2346.91,486.92Z"/>
        <path class="cls-4" d="M1047.07,130c.79-4,7.94-10.33,12.71-15.1s4-13.51,3.18-19.07-8-14.3-11.12-15.89-7.95-9.53-8.75-15.89S1041.51,53,1041.51,45s-2.39-19.86-2.39-26.22-4.77-16.69-6.35-23-6.36-11.92-11.92-12.72-10.33-2.38-11.13-4.77-13.51-1.58-17.48-1.58S970-20.16,967.61-20.16,954.1-12.21,950.92-9,941.39-.29,938.21-.29s-16.69,4-20.66-.8S912-11.42,908-16.18s-7.94-13.51-6.35-17.48S910.4-43.2,916-45.58s12.71-7.16,15.89-8-1.59-9.53-1.59-14.3a65,65,0,0,1,2.39-16.69c1.59-5.56,2.38-11.92,12.71-9.53s7.15.79,11.12,0,4-11.92,8.75-15.1,13.5-4.77,15.09-8.74,11.13-15.1,5.56-16.69-7.15-7.15-10.33-8.74a75.38,75.38,0,0,0-15.89-4.77c-4.76-.79-3.18-10.32-4.76-16.68s-10.33-6.36-11.92-9.54-4-10.33-.8-14.3,4-6.36,8.74-11.92,3.18-15.89,4-19.07,9.53,3.18,15.09,7.95,11.13,1.59,15.89,3.18,3.18-13.51,4-20.66-2.39-12.72-4.77-19.07-4.77-16.69-5.56-19.07S966-276,963.64-278.4s-2.39-15.1,0-19.86-8.74-16.69-11.13-16.69-8.74-7.94-12.71-7.94-4-13.51-4-15.9-7.15-11.92-9.53-12.71-4-12.71-8.74-11.92-4.77,10.33-4.77,15.1S912-327.66,908-327.66s-10.33,4-14.3,6.36-1.59,11.91-1.59,18.27-1.59,9.53-5.56,13.51S872.26-284,868.29-284s-9.54,4.77-14.31,5.56S837.3-272,834.12-272s-8,8.74-8,11.12-4,17.48-7.15,18.28-26.22-2.38-30.19-1.59-19.07,11.92-22.25,13.51-12.72,4.77-16.69,9.53-13.51,1.59-16.68,3.18-10.34,1.59-12.72,9.54-11.12,7.15-15.89,11.12-.79,8.74,0,14.3-6.36,7.15-9.54,8-10.33-4.77-12.71-7.15-10.33,4.77-12.71,9.53S667.25-160,672-156.82s8.74,10.32,11.13,15.89,1.58,14.3-4,16.68-17.48,0-23.84,1.59-11.91-4.77-14.3-5.56-7.15-10.33-11.92-8.74a85.16,85.16,0,0,1-16.68,3.18c-2.39,0-8.74,11.12-12.72,12.71s-4.76-9.53-6.35-12.71,0-7.95-.8-10.33-8.74-4-10.33-.8,2.39,27,0,27.81c-1.73.58-7.63-2.19-12.27-4.67.3,4.28.42,7.18-.73,8.76-2,2.69-2.93,5.37-7.08,7.57s-4.64,3.42-10.75,6.35-6.59,2.69-9.52,7.33.73,13.67-1,18.07-1.71,12-3.66,16.36a44.77,44.77,0,0,0-3.42,18.81c.24,7.57,1.47,23.93,1.47,33.21s0,16.85,1.71,18.81,3.17,5.13,2.93,9.77,2,6.35,4.39,8.79S561.91,47.2,565.08,49.4s4.4.49,8.06,3.66,5.62,3.91,9.28,6.84,8.06,3.42,7.08,7.57S589,83.34,589,86.27a13.48,13.48,0,0,1-5.12,10.26c-3.67,2.69-3.18,5.13-9.29,5.37s-8.3.25-9.52,4.4-2.2,1.71-4.64,6.35-4.64,4.15-3.42,9.77.25,5.86-1.95,9.28-2.69,7.81-2.93,9.52-2,3.18-1.71,9.28c.07,1.92.05,4.6,0,7.43a34.62,34.62,0,0,1,10.51-.47c6.17.88,6.17.88,8.81,2.64s7.93,4.41,10.58,8.81,17.62-1.76,22.9-6.17,14.1-10.57,16.74-13.21,11.46,4.4,15.86,8.81,15.86-6.17,17.63-13.22,6.16-12.33,11.45-18.5,9.69-4.41,17.62-7.05,11.46,5.29,16.74,12.33,15.86,2.65,22,3.53,20.27,1.76,28.2,0,7.93,9.69,10.57,15,8.81,11.45,13.22,12.33,7-13.21,12.33-15,9.69,6.17,14.1,9.7-2.65,12.33-5.29,15-4.4,12.34-4.4,17.63,1.76,15,7.93,15.86,8.81,7.93,14.09,11.45,10.58-1.76,15.86,2.64.88,19.39,1.76,28.2S820,261.43,816.45,265s-6.17,14.1-7.93,16.74-5.29,7.93-5.29,11.45c0,1.33.13,5.15.28,9.4.71,0,1.3-.08,1.64-.13,1.46-.25,9,4.88,11.48,6.11s3.17,2.93,4.15,5.37,2.68,2.44,5.61,2.93,4.89,2.2,7.33,5.13a31.17,31.17,0,0,0,7.57,6.83c2.2,1.23,6.11,4.16,7.33,7.09s5.86,3.66,8.79,3.9,18.56-1.46,19.3-1.22,1,5.13,2.68,6.35,6.35,1.47,6.6,4.16,3.41,2.44,4.88,6.59,1.71,7.33,2.44,9-1.95,5.37,3.91,5.12,18.07-1.46,23.2-1,3.91-4.4,7.57-5.86,5.37-3.18,8.3-1.71-.73,8.06,4.4,7.81,8.79.73,12.46-1.46,1.71-6.11,5.61-5.38,5.86,2.69,7.57,6.84,1.22,10,4.64,12.94,6.84,3.18,9.53,5.13,4.64,3.91,4.64,5.86a27.06,27.06,0,0,0,.79,4.69c3.32-.48,3.41.62,6.72-1.31,4.17-2.44,7-4.52,7.65-8s6.62-4.52,10.45-6.61,8-9,10.09-14.27,5.57-8.7,9.05-12.88,7-8.36,7-11.49,1.05-12.53.35-17.75-1-10.45,0-13.93,4.53-.69,10.45-3.13,5.57-6.27,9.74-8,3.83-6.26,3.48-12.88,1.05-27.84,1.75-41.42,1-25.07-1-25.41-7.31-4.53-10.79-5.57S1048,206,1048,201.45s-1.74-15.32-1.39-22.28,1.05-23.32.7-25.76c-.25-1.73-.12-5.73,1.09-8a30.28,30.28,0,0,1-1.32-5C1045.48,130,1046.27,134,1047.07,130Z"/>
        <path class="cls-4" d="M989.86-229.13c-.8,7.15.79,22.24-4,20.66s-10.33,1.58-15.89-3.18-14.3-11.13-15.09-7.95.79,13.51-4,19.07-5.56,7.95-8.74,11.92-.79,11.13.8,14.3,10.33,3.18,11.92,9.54,0,15.89,4.76,16.68a75.38,75.38,0,0,1,15.89,4.77c3.18,1.59,4.77,7.15,10.33,8.74s-4,12.72-5.56,16.69-10.33,5.56-15.09,8.74-4.77,14.3-8.75,15.1-.79,2.38-11.12,0-11.12,4-12.71,9.53a65,65,0,0,0-2.39,16.69c0,4.77,4.77,13.51,1.59,14.3S921.52-48,916-45.58s-12.71,7.94-14.3,11.92S904-20.95,908-16.18s5.57,10.33,9.54,15.09,17.48.8,20.66.8S947.74-5.85,950.92-9s14.31-11.13,16.69-11.13,20.66-3.17,24.63-3.17,16.69-.8,17.48,1.58,5.56,4,11.13,4.77,10.33,6.36,11.92,12.72,6.35,16.68,6.35,23,2.39,18.27,2.39,26.22.79,12.71,1.58,19.07,5.57,14.3,8.75,15.89,10.32,10.33,11.12,15.89,1.59,14.31-3.18,19.07-11.92,11.13-12.71,15.1-1.59,0,0,10.33a30.28,30.28,0,0,0,1.32,5,2.79,2.79,0,0,1,2-1.71c3.13-.35,4.87,5.22,8.35,5.91s5.58,3.48,9.4,5.92,3.83,2.09,7.66,3.83,4.88,10.79,5.57,13.58,6.62,5.57,8.7,3.83a9.34,9.34,0,0,1,9.4-1.75c4.18,1.4,5.92-3.13,4.53-7s-3.13-7-7.31-8-2.09-8.36-2.09-10.45,0-8,3.48-10.09,1.74,2.43,7.66,4.87,4.87,6.27,8,9.4,5.22,5.22,8.35,6.27,6.27,5.91,8.35,7.65,5.92,1.75,11.49,4.18,2.09,3.83,2.44,7.66-3.13,6.61-4.87,9-1.75,5.22-2.79,5.22-1.39,7.31-1.39,10.79-2.79,4.18-5.22,4.88-.35,8.7,0,11.83,6.26,1.74,10.44,1.74,3.13-3.48,5.57-6.26S1151,213.29,1157,214s6.27-2.78,7.66-8.35.7-7.31,1.39-9.75,2.44-9,1.74-14.62-2.43-9.4-2.09-12.88,2.44-1.39,6.62-.7,3.83,4.18,5.92,7,1.39,7,3.13,8.7,4.52.35,8,1.39,6.27,0,8.71-1.39,1-9,2.43-11.14.7-10.44,1-13.23c-3.31-5.47-9-16.87-13.76-19.73s-7.61-10.45-5.71-15.2,7.61-9.51,10.46-15.21,5.7-10.46,4.75-18.06-1.9-15.21-9.5-22.82-19-4.75-16.16-17.11,4.75-22.81,6.65-26.61,12.36-14.26,14.26-19,2.85-13.31,0-19-3.8-17.11,0-21.86,14.26-8.55,18.06-7.6,15.21,5.7,17.11,1.9,13.31-6.66,19-5.71,10.46,6.66,15.21,6.66S1280-42.3,1280-42.3s17.11,6.65,22.81,5.7,11.41-6.65,10.46-15.21-1.9-20-1-24.71,1.9-13.31,6.65-12.36,17.11,0,20,0,4.76-7.6,8.56-10.46,4.75-10.45,10.46-10.45,14.26,1,13.3-4.76-1.9-22.81,1.91-22.81,17.11,1.9,20.91,1,16.16.95,20.91-1,10.46-8.55,15.21-12.36,17.11-14.26,19-19c.3-.74,1-2.09,1.86-3.77-1.54-.09-2.73-.33-3.26-.86-2-2-5-7.52-5-13.53s1.5-26.55,1-32.07-.5-19-3-19.54-17.53-1-22.55-1-8-1.5-11.52-6-7.52-6-8.52-11-.5-15-1.5-21,6-13,8-16.54,7.51-7,9.52-10,16-3.51,13.52-7.51.51-9-5.51-10-12,.51-18-.5-9-1-10-5,4-9.52,4-12,4.51-8,6.52-9,8.51-8.52,8.51-11.53,6.52-4,9.52-4.51,14.54-1,18-.5,8-1.5,7-6.51-.5-16-2-17-4-5.51-7.51-7-7.52-8-10.53-10-3.5-6.51-.5-6.51,12-1,15.54-.5,8-6,10.52-6.51,5-6,8.52-6,5.51-4.51,4-8-1-9.52-7.52-11.53-7.52-7-12-10.52-6.51-7.52-12.52-10.52-12-3.51-13.53-8-1-11-2.51-16.54c-1-3.56,1.21-8.36,3.81-11.59-5.31-2-5.14-2.22-7.16-4.25-2.33-2.32-2.91-3.49-5.23-7.55s-8.14-2.91-13.37-1.17-4.65,7-7,9.88-5.81,1.17-11,1.75-8.72-3.49-11-8.14-4.07-7-7.56-8.72-8.14,7-10.46,9.3-7.56,8.14-7.56,12.21a7.56,7.56,0,0,0,6.39,7.55c3.49.58,8.14,5.24,11.63,8.14s-.58,7.56-1.74,12.21-8.72,2.32-15.12,1.16-7.55-1.74-9.3-7.56-7.55-4.06-12.2-4.06a11.19,11.19,0,0,1-9.3-4.65c-1.75-2.33-2.91-10.47-2.91-16.28s1.16-3.49,7-5.81,9.3-7,12.2-10.46-3.48-8.72-4.65-11-3.48-13.37-3.48-19.76,6.39-11.62,12.78-14.53,5.82-9.3,11.05-14,2.9-9.88,3.48-16.28-7-3.48-11.62-4.65-12.79,2.91-16.28,4.65-5.23,6.4-8.71,7a99.33,99.33,0,0,1-19.19.58c-5.81-.58-12.78-2.91-15.11-7.56-1.25-2.51-2.81-4.37-4-6.35-3,3.29-6,7.15-7.45,8.56-2.45,2.45-4.4,5.38-5.38,10.75s.49,16.12,0,18.56-4.39,5.86-6.35,6.84-3.42,9.28-4.39,10.75-7.82,3.9-11.24,3.9-4.39,7.82-3.9,10.75-4.89,8.3-6.84,9.28-5.86-.49-8.31-.49-14.65-14.17-14.65-19.54-4.4-9.28-6.84-8.79-8.3-1.46-11.72-.49-9.28,4.89-10.26,7.82-2,15.14-1.46,18.56-1,10.74-2.44,13.67-7.82,5.38-12.21,6.84-11.73-.49-17.1-1-20,3.9-23.93,4.88-8.31,1.47-12.22,2.44-4.88,8.79-5.86,14.66-4.88,9.28-2.93,11.23,2.44,5.86,3.91,8.79,5.37,1,9.77-1.47,3.91-5.86,8.79-6.83,3.91,1,5.86,5.86,1.47,9.77,2.44,16.6a31.21,31.21,0,0,1-2.44,16.61c-1.46,2.93-3.42,11.24-4.39,14.17s-6.35,4.39-9.77,4.88-11.24-.49-16.12-.49-18.07-.48-19.54-.48-6.35,2.44-6.84,5.37.49,12.7.49,18.56a43.63,43.63,0,0,1-3.91,16.61c-2,4.39-2.93,11.72-3.42,15.14s-6.34,10.74-9.28,11.72-9.76,5.86-12.21,8.3-14.68,8.84-19.52,10.22a33.92,33.92,0,0,0-12.44,7.26c-3.11,2.76-5.18,9.33-8,15.55s-5.87,7.95-6.91,9.68-4.14,14.16-5.18,18-1.38,12.44-2.42,15.89a9.36,9.36,0,0,1-3.08,3.95c.85,3,1.8,6.19,2.75,8.73C987.47-241.85,990.65-236.28,989.86-229.13Z"/>
      </g>
    </g>
    <g>
      <path class="cls-5" d="M849.63,219.69c-13.58,0-27.16.08-40.76-.1a6.23,6.23,0,0,1-4.59-2.28c-1.65-2.5.71-5.19,4.39-5.21,12.32,0,24.65,0,37-.07q21.63,0,43.26-.07a27.37,27.37,0,0,0,15-3.91c8.69-5.49,11.35-17.1,5.86-25.47-4.32-6.6-12.68-8.74-18.58-4.76-4.89,3.31-6.44,9.08-3.76,14.13,2.07,3.92,5.47,5.15,9.47,3.42a12.19,12.19,0,0,0,1.39-.72c3.61-2.05,5.47-2,6.8.17s.38,4.46-3.09,6.47c-6.27,3.66-12.65,3.32-17.48-.92a18.39,18.39,0,0,1-4.81-19.68A19.41,19.41,0,0,1,906.15,170c8.08,3.66,12.74,10.14,13.75,19,1.16,10.14-2.44,18.47-10.66,24.52-6.14,4.53-13.26,6-20.69,6.06-12.95.06-25.9,0-38.87,0Z"/>
      <path class="cls-5" d="M844.66,228.47H903c6.16,0,12.11,1,17.55,4,8.85,4.84,14.18,12.27,14.17,22.6s-5.44,17.46-14.24,22.17c-5.86,3.12-12.24,4.12-18.81,4.2-2.36,0-4.19-.9-4.33-3.53-.15-2.8,1.6-4,4.13-4.06,6.36-.17,12.5-1.17,17.92-4.82,8.7-5.86,10.42-16.68,3.82-24.77-4.89-6-11.65-7.95-19-8.07-9.2-.15-18.39-.06-27.59-.06L786,236h-2.2c-3.32-.08-5-1.4-5-3.87s1.67-3.73,5.08-3.73h60.82Z"/>
      <path class="cls-5" d="M820.05,200.15c-13.8,0-27.59.06-41.38-.08a6.32,6.32,0,0,1-4.49-2c-1.73-2.26.2-5.32,3.32-5.49,2.92-.17,5.84-.05,8.78,0l73.65.13c.94,0,1.88,0,2.82,0,2.42.2,4,1.4,3.88,4-.1,2.43-1.66,3.53-4,3.55-5.12,0-10.24,0-15.36,0H820Z"/>
    </g>
  </g>
  <g id="Stromnetz">
    <g class="cls-6">
      <g>
        <path class="cls-7" d="M1038,901l-37.63-90.92c10.66-12,33.32-37.23,38.6-42.65,6.6-6.79,55.36-41.69,62.47-50.89,5.69-7.37,23.37-42.17,31.49-58.65L1170,637.05l-23.36-47V545.45l23.36-31V462.08l31.49-23.26,17.78-73.19v-44.1l96.5-28.6,42.67-10.66,73.65-51.86L1460,148l-4.54-74.14,25.91-19.39"/>
        <path class="cls-7" d="M949,919.47,872.37,799.18l30.56-93.95V668L949,547.65,1039.19,406l44.59-100.41,44.59-29.32L1115,181,1083.78,67.47"/>
        <path class="cls-7" d="M1402.37,916.47V600.37l-64.6-20.47-31-70.46V460.88l-20-20.47h-41.56L1142.47,298.07l-43.06-45.32L1106,236"/>
        <path class="cls-7" d="M1402.37,659.47l39.93,8.95,30.55,19.51,8.61,60.18,59.91,67.9-7.44,28.46"/>
        <path class="cls-7" d="M1391,222l-3.63,25.47,29,122.5,37,39.5,44,147.5"/>
        <path class="cls-7" d="M1115,790l54.37-152.53"/>
      </g>
    </g>
  </g>
  <g id="Anlagen">
    <g class="cls-8">
      <g>
        <path class="cls-9" d="M1200.33,500.65h2.94c5.19,0,10.38,0,15.59,0,1.79,0,2.36-.77,2.4-2.38s-1.14-1.57-2.23-1.57h-43.22c-1.18,0-2.46-.14-2.36,1.71.09,1.69.91,2.27,2.59,2.24,5.28-.08,10.56,0,15.83,0h2.81v7a11,11,0,0,0-3.19.32c-.69.28-1.11,1.23-1.65,1.88.61.38,1.22,1.07,1.84,1.09q5.65.15,11.31,0c.66,0,1.3-.65,2-1-.61-.7-1.09-1.64-1.85-2a10,10,0,0,0-3-.34C1200.13,505.19,1200.23,503.05,1200.33,500.65Z"/>
        <path class="cls-9" d="M1189.8,494.61c4.85,0,9.25.06,13.65-.08.51,0,1.35-1.1,1.35-1.7a56.73,56.73,0,0,0-.5-7.48,2.35,2.35,0,0,0-1.58-1.6c-3.53-.15-7-.14-10.51,0a2.15,2.15,0,0,0-1.64,1.28C1190.19,488.06,1190.05,491.15,1189.8,494.61Z"/>
        <path class="cls-9" d="M1188.81,483.71c-4.39,0-8.47,0-12.57.05a1.69,1.69,0,0,0-.71.35,1.63,1.63,0,0,0-.47.66c-.78,3.13-1.45,6.29-2.21,9.69h15.08C1188.24,490.94,1188.51,487.49,1188.81,483.71Z"/>
        <path class="cls-9" d="M1221.87,494.61c-.65-3.05-1.37-5.71-1.74-8.41-.28-2-1.12-2.75-3.1-2.52a40.52,40.52,0,0,1-4.27.06H1206c.23,3.53.38,6.51.67,9.5,0,.51.7,1.32,1.09,1.33C1212.35,494.63,1216.92,494.61,1221.87,494.61Z"/>
        <path class="cls-9" d="M1204.05,481.71c-.21-3-.33-5.7-.65-8.43a2,2,0,0,0-1.46-1.21c-3-.11-6-.1-9,0a1.78,1.78,0,0,0-1.39,1c-.32,2.8-.5,5.62-.7,8.61Z"/>
        <path class="cls-9" d="M1175.69,481.88h5.68c8.07,0,8.05,0,8.25-8.09,0-1.35-.42-1.8-1.69-1.79-2.84,0-5.68-.06-8.51.08a2.37,2.37,0,0,0-1,.43,2.47,2.47,0,0,0-.71.86C1177,476,1176.42,478.68,1175.69,481.88Z"/>
        <path class="cls-9" d="M1219.1,481.66c-.67-3-1.21-5.78-1.95-8.5a2.11,2.11,0,0,0-1.64-1.09c-2.84-.12-5.7-.14-8.55,0a2.26,2.26,0,0,0-1.56,1.51c0,2.66.27,5.32.45,8.06Z"/>
        <path class="cls-10" d="M1200.33,500.65c-.1,2.4-.2,4.54-.3,6.9a9.38,9.38,0,0,1,3,.34c.79.4,1.24,1.32,1.85,2-.65.35-1.29,1-2,1q-5.65.13-11.31,0c-.62,0-1.23-.71-1.84-1.09.54-.65,1-1.6,1.65-1.88a11,11,0,0,1,3.19-.32v-7h-2.81c-5.28,0-10.56,0-15.83,0-1.68,0-2.51-.55-2.59-2.24-.1-1.85,1.18-1.71,2.36-1.71H1219c1.09,0,2.27-.15,2.23,1.57s-.61,2.42-2.4,2.38c-5.19-.08-10.39,0-15.59,0Z"/>
        <path class="cls-10" d="M1189.8,494.61c.25-3.48.39-6.55.75-9.57a2.18,2.18,0,0,1,1.64-1.29c3.52-.12,7-.13,10.51,0,.57,0,1.51,1,1.58,1.6a55.12,55.12,0,0,1,.51,7.49c0,.59-.86,1.68-1.35,1.7C1199.05,494.68,1194.65,494.61,1189.8,494.61Z"/>
        <path class="cls-10" d="M1188.81,483.71c-.3,3.78-.57,7.23-.86,10.75h-15.08c.76-3.4,1.43-6.55,2.21-9.7a1.67,1.67,0,0,1,.47-.65,1.6,1.6,0,0,1,.71-.36C1180.34,483.68,1184.43,483.71,1188.81,483.71Z"/>
        <path class="cls-10" d="M1221.87,494.61c-4.95,0-9.52,0-14.09-.06-.38,0-1-.83-1.09-1.33-.29-3-.44-6-.67-9.5h6.76a40.37,40.37,0,0,0,4.26-.06c2-.21,2.82.54,3.11,2.52C1220.5,488.89,1221.22,491.55,1221.87,494.61Z"/>
        <path class="cls-10" d="M1204.05,481.71h-13.24c.22-3,.38-5.81.7-8.61.06-.4.9-1,1.39-1,3-.1,6-.11,9,0a2,2,0,0,1,1.46,1.21C1203.72,476,1203.84,478.75,1204.05,481.71Z"/>
        <path class="cls-10" d="M1175.69,481.88c.73-3.2,1.26-5.89,2-8.51a2.27,2.27,0,0,1,.71-.86,2.33,2.33,0,0,1,1-.43c2.84-.14,5.68,0,8.51-.08,1.28,0,1.73.43,1.69,1.79-.21,8.09-.17,8.09-8.24,8.09Z"/>
        <path class="cls-10" d="M1219.1,481.66h-13.23c-.18-2.71-.45-5.37-.46-8.06a2.2,2.2,0,0,1,1.57-1.51,83.88,83.88,0,0,1,8.54,0,2.07,2.07,0,0,1,1.64,1.1C1217.89,475.88,1218.43,478.65,1219.1,481.66Z"/>
      </g>
    </g>
    <g class="cls-11">
      <path class="cls-10" d="M1327.72,344a66.6,66.6,0,0,1,14.68,17.91,42.46,42.46,0,0,1,5.06,11.77c.68,5.57.68,11.56-1.42,16.9-2.12,5-5.81,9.91-11.2,11.44-7.55,2.74-16.59-.49-21.86-6.64a24.51,24.51,0,0,1-3-5.6c-.71-1-.72-2.17-1.08-3.3a16.88,16.88,0,0,1-.42-10.23c1.26-4.06,2.91-8.23,5.69-11.48,3-3.43,6.47-6.34,9.09-10.06C1325.31,351.38,1327.26,347.88,1327.72,344Zm-1.37,26.52c-.91,1.51-1.77,3.53-3.12,4.9-3.2,3.39-7.21,6.48-8.37,11.21-.89,3.45.29,7.2,2.26,10.1a13.83,13.83,0,0,0,14.63,4.37c2.49-.75,4.18-2.92,5.76-4.85,2-3.15,2.21-7.09,1.79-10.71-.66-3.1-2.46-5.83-4.17-8.45a33.78,33.78,0,0,0-6.09-6.66C1327,368.91,1327,367.35,1326.35,370.49Z"/>
    </g>
    <g class="cls-12">
      <path class="cls-10" d="M1107.72,757a66.6,66.6,0,0,1,14.68,17.91,42.46,42.46,0,0,1,5.06,11.77c.68,5.57.68,11.56-1.42,16.9-2.12,5-5.81,9.91-11.2,11.44-7.55,2.74-16.59-.49-21.86-6.64a24.51,24.51,0,0,1-3-5.6c-.71-1-.72-2.17-1.08-3.3a16.88,16.88,0,0,1-.42-10.23c1.26-4.06,2.91-8.23,5.69-11.48,3-3.43,6.47-6.34,9.09-10.06C1105.31,764.38,1107.26,760.88,1107.72,757Zm-1.37,26.52c-.91,1.51-1.77,3.53-3.12,4.9-3.2,3.39-7.21,6.48-8.37,11.21-.89,3.45.29,7.2,2.26,10.1a13.83,13.83,0,0,0,14.63,4.37c2.49-.75,4.18-2.92,5.76-4.85,2-3.15,2.21-7.09,1.79-10.71-.66-3.1-2.46-5.83-4.17-8.45a33.78,33.78,0,0,0-6.09-6.66C1107,781.91,1107,780.35,1106.35,783.49Z"/>
    </g>
    <g class="cls-13">
      <path class="cls-10" d="M1090.72,195a66.6,66.6,0,0,1,14.68,17.91,42.46,42.46,0,0,1,5.06,11.77c.68,5.57.68,11.56-1.42,16.9-2.12,5-5.81,9.91-11.2,11.44-7.55,2.74-16.59-.49-21.86-6.64a24.51,24.51,0,0,1-3-5.6c-.71-1-.72-2.17-1.08-3.3a16.88,16.88,0,0,1-.42-10.23c1.26-4.06,2.91-8.23,5.69-11.48,3-3.43,6.47-6.34,9.09-10.06C1088.31,202.38,1090.26,198.88,1090.72,195Zm-1.37,26.52c-.91,1.51-1.77,3.53-3.12,4.9-3.2,3.39-7.21,6.48-8.37,11.21-.89,3.45.29,7.2,2.26,10.1a13.83,13.83,0,0,0,14.63,4.37c2.49-.75,4.18-2.92,5.76-4.85,2-3.15,2.21-7.09,1.79-10.71-.66-3.1-2.46-5.83-4.17-8.45a33.78,33.78,0,0,0-6.09-6.66C1090,219.91,1090,218.35,1089.35,221.49Z"/>
    </g>
    <g class="cls-14">
      <g>
        <path class="cls-9" d="M1392.33,233.65h2.94c5.19,0,10.38-.05,15.59,0,1.79,0,2.36-.77,2.4-2.38s-1.14-1.57-2.23-1.57h-43.22c-1.18,0-2.46-.14-2.36,1.71.09,1.69.91,2.27,2.59,2.24,5.28-.08,10.56,0,15.83,0h2.81v7a11,11,0,0,0-3.19.32c-.69.28-1.11,1.23-1.65,1.88.61.38,1.22,1.07,1.84,1.09q5.65.15,11.31,0c.66,0,1.3-.65,2-1-.61-.7-1.09-1.64-1.85-2a10,10,0,0,0-3-.34C1392.13,238.19,1392.23,236.05,1392.33,233.65Z"/>
        <path class="cls-9" d="M1381.8,227.61c4.85,0,9.25.06,13.65-.08.51,0,1.35-1.1,1.35-1.7a56.73,56.73,0,0,0-.5-7.48,2.35,2.35,0,0,0-1.58-1.6c-3.53-.15-7-.14-10.51,0a2.15,2.15,0,0,0-1.64,1.28C1382.19,221.06,1382.05,224.15,1381.8,227.61Z"/>
        <path class="cls-9" d="M1380.81,216.71c-4.39,0-8.47,0-12.57,0a1.69,1.69,0,0,0-.71.35,1.63,1.63,0,0,0-.47.66c-.78,3.13-1.45,6.29-2.21,9.69h15.08C1380.24,223.94,1380.51,220.49,1380.81,216.71Z"/>
        <path class="cls-9" d="M1413.87,227.61c-.65-3.05-1.37-5.71-1.74-8.41-.28-2-1.12-2.75-3.1-2.52a40.52,40.52,0,0,1-4.27.06H1398c.23,3.53.38,6.51.67,9.5,0,.51.7,1.32,1.09,1.33C1404.35,227.63,1408.92,227.61,1413.87,227.61Z"/>
        <path class="cls-9" d="M1396.05,214.71c-.21-3-.33-5.7-.65-8.43a2,2,0,0,0-1.46-1.21c-3-.11-6-.1-9,0a1.78,1.78,0,0,0-1.39,1c-.32,2.8-.5,5.62-.7,8.61Z"/>
        <path class="cls-9" d="M1367.69,214.88h5.68c8.07,0,8.05,0,8.25-8.09,0-1.35-.42-1.8-1.69-1.79-2.84,0-5.68-.06-8.51.08a2.37,2.37,0,0,0-1,.43,2.47,2.47,0,0,0-.71.86C1369,209,1368.42,211.68,1367.69,214.88Z"/>
        <path class="cls-9" d="M1411.1,214.66c-.67-3-1.21-5.78-1.95-8.5a2.11,2.11,0,0,0-1.64-1.09c-2.84-.12-5.7-.14-8.55,0a2.26,2.26,0,0,0-1.56,1.51c0,2.66.27,5.32.45,8.06Z"/>
        <path class="cls-10" d="M1392.33,233.65c-.1,2.4-.2,4.54-.3,6.9a9.38,9.38,0,0,1,3,.34c.79.4,1.24,1.32,1.85,2-.65.35-1.29,1-2,1q-5.65.14-11.31,0c-.62,0-1.23-.71-1.84-1.09.54-.65,1-1.6,1.65-1.88a11,11,0,0,1,3.19-.32v-7h-2.81c-5.28,0-10.56-.05-15.83,0-1.68,0-2.51-.55-2.59-2.24-.1-1.85,1.18-1.71,2.36-1.71H1411c1.09,0,2.27-.15,2.23,1.57s-.61,2.42-2.4,2.38c-5.19-.08-10.39,0-15.59,0Z"/>
        <path class="cls-10" d="M1381.8,227.61c.25-3.48.39-6.55.75-9.57a2.18,2.18,0,0,1,1.64-1.29c3.52-.12,7-.13,10.51,0,.57,0,1.51,1,1.58,1.6a55.12,55.12,0,0,1,.51,7.49c0,.59-.86,1.68-1.35,1.7C1391.05,227.68,1386.65,227.61,1381.8,227.61Z"/>
        <path class="cls-10" d="M1380.81,216.71c-.3,3.78-.57,7.23-.86,10.75h-15.08c.76-3.4,1.43-6.55,2.21-9.7a1.67,1.67,0,0,1,.47-.65,1.6,1.6,0,0,1,.71-.36C1372.34,216.68,1376.43,216.71,1380.81,216.71Z"/>
        <path class="cls-10" d="M1413.87,227.61c-4.95,0-9.52,0-14.09-.06-.38,0-1-.83-1.09-1.33-.29-3-.44-6-.67-9.5h6.76a40.37,40.37,0,0,0,4.26-.06c2-.21,2.82.54,3.11,2.52C1412.5,221.89,1413.22,224.55,1413.87,227.61Z"/>
        <path class="cls-10" d="M1396.05,214.71h-13.24c.22-3,.38-5.81.7-8.61.06-.4.9-1,1.39-1,3-.1,6-.11,9,0a2,2,0,0,1,1.46,1.21C1395.72,209,1395.84,211.75,1396.05,214.71Z"/>
        <path class="cls-10" d="M1367.69,214.88c.73-3.2,1.26-5.89,2-8.51a2.27,2.27,0,0,1,.71-.86,2.33,2.33,0,0,1,1-.43c2.84-.14,5.68,0,8.51-.08,1.28,0,1.73.43,1.69,1.79-.21,8.09-.17,8.09-8.24,8.09Z"/>
        <path class="cls-10" d="M1411.1,214.66h-13.23c-.18-2.71-.45-5.37-.46-8.06a2.2,2.2,0,0,1,1.57-1.51,83.88,83.88,0,0,1,8.54,0,2.07,2.07,0,0,1,1.64,1.1C1409.89,208.88,1410.43,211.65,1411.1,214.66Z"/>
      </g>
    </g>
    <g class="cls-15">
      <g>
        <path class="cls-9" d="M930.21,857.57c-.71,6.83-1.4,13.58-2.12,20.32-.09.81-.17,2.21-.55,2.31-3.46,1-2.13,3.49-2,5.75H942c-.19-1.75.1-4.27-.63-4.6-3.35-1.6-2.39-4.58-2.69-7.08-.71-5.64-1.22-11.32-1.77-16.72Z"/>
        <path class="cls-9" d="M907,870.77l21.66-14.37c-1-3.82-3.4-4.56-6.66-4.83-3.47-.29-5.43,1.1-7.32,3.69-2.73,3.76-5.68,7.38-8.69,10.92C904.24,868.17,904.54,869.48,907,870.77Z"/>
        <path class="cls-9" d="M940.92,851.19c-1.89,4.57-1.67,4.46.33,8.14,1.66,3,3.93,3.95,7.18,3.83,4.18-.17,8.37.16,12.55.05,1,0,1.92-1,2.89-1.49-.63-.88-1.1-2.23-2-2.55C955,856.42,948.05,853.87,940.92,851.19Z"/>
        <path class="cls-9" d="M930.31,844.17c6.59-1.07,9.32-6.6,6.46-12.07-1.75-3.37-3.37-6.84-5.35-10.07-.94-1.55-.81-4.91-3.89-3.86s-.92,3.54-.69,5.22C927.82,830.28,929.1,837.11,930.31,844.17Z"/>
        <path class="cls-9" d="M938.82,850.67a5.25,5.25,0,0,0-3.35-4.8,5.15,5.15,0,0,0-5.66,1.31,5.32,5.32,0,0,0,1,8.11,5.16,5.16,0,0,0,6.54-.87A5.31,5.31,0,0,0,938.82,850.67Z"/>
        <path class="cls-10" d="M930.21,857.57h6.72c.56,5.4,1.06,11.08,1.77,16.72.31,2.5-.63,5.47,2.7,7.08.71.33.41,2.85.63,4.6H925.49c-.08-2.28-1.41-4.75,2-5.75.38-.1.46-1.5.55-2.31C928.81,871.15,929.5,864.41,930.21,857.57Z"/>
        <path class="cls-10" d="M907,870.77c-2.42-1.28-2.72-2.6-1-4.59,3-3.54,6-7.16,8.69-10.92,1.89-2.59,3.85-4,7.32-3.69,3.26.27,5.64,1,6.66,4.83Z"/>
        <path class="cls-10" d="M940.92,851.19c7.13,2.66,14.1,5.21,21,7.95.85.34,1.3,1.69,2,2.55-1,.53-1.89,1.47-2.89,1.5-4.18.1-8.37-.22-12.55-.06-3.25.13-5.52-.77-7.18-3.82C939.25,855.65,939.05,855.78,940.92,851.19Z"/>
        <path class="cls-10" d="M930.31,844.17c-1.21-7.06-2.52-13.89-3.47-20.78-.23-1.68-2.26-4.22.69-5.22s3,2.31,3.89,3.86c2,3.23,3.6,6.7,5.35,10.07C939.63,837.57,936.93,843.1,930.31,844.17Z"/>
        <path class="cls-10" d="M938.82,850.67a5.27,5.27,0,0,1-3.21,4.89,5.21,5.21,0,0,1-5.7-1.14,5.31,5.31,0,0,1-1.12-5.77,5.21,5.21,0,0,1,4.83-3.25,5.29,5.29,0,0,1,3.67,1.56A5.36,5.36,0,0,1,938.82,850.67Z"/>
      </g>
    </g>
    <g class="cls-16">
      <g>
        <path class="cls-9" d="M1065.33,784.65h2.94c5.19,0,10.38,0,15.59,0,1.79,0,2.36-.77,2.4-2.38s-1.14-1.57-2.23-1.57h-43.22c-1.18,0-2.46-.14-2.36,1.71.09,1.69.91,2.27,2.59,2.24,5.28-.08,10.56,0,15.83,0h2.81v7a11,11,0,0,0-3.19.32c-.69.28-1.11,1.23-1.65,1.88.61.38,1.22,1.07,1.84,1.09q5.65.15,11.31,0c.66,0,1.3-.65,2-1-.61-.7-1.09-1.64-1.85-2a10,10,0,0,0-3-.34C1065.13,789.19,1065.23,787.05,1065.33,784.65Z"/>
        <path class="cls-9" d="M1054.8,778.61c4.85,0,9.25.06,13.65-.08.51,0,1.35-1.1,1.35-1.7a56.73,56.73,0,0,0-.5-7.48,2.35,2.35,0,0,0-1.58-1.6c-3.53-.15-7-.14-10.51,0a2.15,2.15,0,0,0-1.64,1.28C1055.19,772.06,1055.05,775.15,1054.8,778.61Z"/>
        <path class="cls-9" d="M1053.81,767.71c-4.39,0-8.47,0-12.57,0a1.69,1.69,0,0,0-.71.35,1.63,1.63,0,0,0-.47.66c-.78,3.13-1.45,6.29-2.21,9.69h15.08C1053.24,774.94,1053.51,771.49,1053.81,767.71Z"/>
        <path class="cls-9" d="M1086.87,778.61c-.65-3.05-1.37-5.71-1.74-8.41-.28-2-1.12-2.75-3.1-2.52a40.52,40.52,0,0,1-4.27.06H1071c.23,3.53.38,6.51.67,9.5,0,.51.7,1.32,1.09,1.33C1077.35,778.63,1081.92,778.61,1086.87,778.61Z"/>
        <path class="cls-9" d="M1069.05,765.71c-.21-3-.33-5.7-.65-8.43a2,2,0,0,0-1.46-1.21c-3-.11-6-.1-9,0a1.78,1.78,0,0,0-1.39,1c-.32,2.8-.5,5.62-.7,8.61Z"/>
        <path class="cls-9" d="M1040.69,765.88h5.68c8.07,0,8.05,0,8.25-8.09,0-1.35-.42-1.8-1.69-1.79-2.84,0-5.68-.06-8.51.08a2.37,2.37,0,0,0-1,.43,2.47,2.47,0,0,0-.71.86C1042,760,1041.42,762.68,1040.69,765.88Z"/>
        <path class="cls-9" d="M1084.1,765.66c-.67-3-1.21-5.78-1.95-8.5a2.11,2.11,0,0,0-1.64-1.09c-2.84-.12-5.7-.14-8.55,0a2.26,2.26,0,0,0-1.56,1.51c0,2.66.27,5.32.45,8.06Z"/>
        <path class="cls-10" d="M1065.33,784.65c-.1,2.4-.2,4.54-.3,6.9a9.38,9.38,0,0,1,3,.34c.79.4,1.24,1.32,1.85,2-.65.35-1.29,1-2,1q-5.65.14-11.31,0c-.62,0-1.23-.71-1.84-1.09.54-.65,1-1.6,1.65-1.88a11,11,0,0,1,3.19-.32v-7h-2.81c-5.28,0-10.56,0-15.83,0-1.68,0-2.51-.55-2.59-2.24-.1-1.85,1.18-1.71,2.36-1.71H1084c1.09,0,2.27-.15,2.23,1.57s-.61,2.42-2.4,2.38c-5.19-.08-10.39,0-15.59,0Z"/>
        <path class="cls-10" d="M1054.8,778.61c.25-3.48.39-6.55.75-9.57a2.18,2.18,0,0,1,1.64-1.29c3.52-.12,7-.13,10.51,0,.57,0,1.51,1,1.58,1.6a55.12,55.12,0,0,1,.51,7.49c0,.59-.86,1.68-1.35,1.7C1064.05,778.68,1059.65,778.61,1054.8,778.61Z"/>
        <path class="cls-10" d="M1053.81,767.71c-.3,3.78-.57,7.23-.86,10.75h-15.08c.76-3.4,1.43-6.55,2.21-9.7a1.67,1.67,0,0,1,.47-.65,1.6,1.6,0,0,1,.71-.36C1045.34,767.68,1049.43,767.71,1053.81,767.71Z"/>
        <path class="cls-10" d="M1086.87,778.61c-4.95,0-9.52,0-14.09-.06-.38,0-1-.83-1.09-1.33-.29-3-.44-6-.67-9.5h6.76a40.37,40.37,0,0,0,4.26-.06c2-.21,2.82.54,3.11,2.52C1085.5,772.89,1086.22,775.55,1086.87,778.61Z"/>
        <path class="cls-10" d="M1069.05,765.71h-13.24c.22-3,.38-5.81.7-8.61.06-.4.9-1,1.39-1,3-.1,6-.11,9,0a2,2,0,0,1,1.46,1.21C1068.72,760,1068.84,762.75,1069.05,765.71Z"/>
        <path class="cls-10" d="M1040.69,765.88c.73-3.2,1.26-5.89,2-8.51a2.27,2.27,0,0,1,.71-.86,2.33,2.33,0,0,1,1-.43c2.84-.14,5.68,0,8.51-.08,1.28,0,1.73.43,1.69,1.79-.21,8.09-.17,8.09-8.24,8.09Z"/>
        <path class="cls-10" d="M1084.1,765.66h-13.23c-.18-2.71-.45-5.37-.46-8.06a2.2,2.2,0,0,1,1.57-1.51,83.88,83.88,0,0,1,8.54,0,2.07,2.07,0,0,1,1.64,1.1C1082.89,759.88,1083.43,762.65,1084.1,765.66Z"/>
      </g>
    </g>
    <g class="cls-17">
      <g>
        <path class="cls-9" d="M1422.33,435.65h2.94c5.19,0,10.38,0,15.59,0,1.79,0,2.36-.77,2.4-2.38s-1.14-1.57-2.23-1.57h-43.22c-1.18,0-2.46-.14-2.36,1.71.09,1.69.91,2.27,2.59,2.24,5.28-.08,10.56,0,15.83,0h2.81v7a11,11,0,0,0-3.19.32c-.69.28-1.11,1.23-1.65,1.88.61.38,1.22,1.07,1.84,1.09q5.65.15,11.31,0c.66,0,1.3-.65,2-1-.61-.7-1.09-1.64-1.85-2a10,10,0,0,0-3-.34C1422.13,440.19,1422.23,438.05,1422.33,435.65Z"/>
        <path class="cls-9" d="M1411.8,429.61c4.85,0,9.25.06,13.65-.08.51,0,1.35-1.1,1.35-1.7a56.73,56.73,0,0,0-.5-7.48,2.35,2.35,0,0,0-1.58-1.6c-3.53-.15-7-.14-10.51,0a2.15,2.15,0,0,0-1.64,1.28C1412.19,423.06,1412.05,426.15,1411.8,429.61Z"/>
        <path class="cls-9" d="M1410.81,418.71c-4.39,0-8.47,0-12.57.05a1.69,1.69,0,0,0-.71.35,1.63,1.63,0,0,0-.47.66c-.78,3.13-1.45,6.29-2.21,9.69h15.08C1410.24,425.94,1410.51,422.49,1410.81,418.71Z"/>
        <path class="cls-9" d="M1443.87,429.61c-.65-3.05-1.37-5.71-1.74-8.41-.28-2-1.12-2.75-3.1-2.52a40.52,40.52,0,0,1-4.27.06H1428c.23,3.53.38,6.51.67,9.5,0,.51.7,1.32,1.09,1.33C1434.35,429.63,1438.92,429.61,1443.87,429.61Z"/>
        <path class="cls-9" d="M1426.05,416.71c-.21-3-.33-5.7-.65-8.43a2,2,0,0,0-1.46-1.21c-3-.11-6-.1-9,0a1.78,1.78,0,0,0-1.39,1c-.32,2.8-.5,5.62-.7,8.61Z"/>
        <path class="cls-9" d="M1397.69,416.88h5.68c8.07,0,8.05,0,8.25-8.09,0-1.35-.42-1.8-1.69-1.79-2.84,0-5.68-.06-8.51.08a2.37,2.37,0,0,0-1,.43,2.47,2.47,0,0,0-.71.86C1399,411,1398.42,413.68,1397.69,416.88Z"/>
        <path class="cls-9" d="M1441.1,416.66c-.67-3-1.21-5.78-1.95-8.5a2.11,2.11,0,0,0-1.64-1.09c-2.84-.12-5.7-.14-8.55,0a2.26,2.26,0,0,0-1.56,1.51c0,2.66.27,5.32.45,8.06Z"/>
        <path class="cls-10" d="M1422.33,435.65c-.1,2.4-.2,4.54-.3,6.9a9.38,9.38,0,0,1,3,.34c.79.4,1.24,1.32,1.85,2-.65.35-1.29,1-2,1q-5.65.13-11.31,0c-.62,0-1.23-.71-1.84-1.09.54-.65,1-1.6,1.65-1.88a11,11,0,0,1,3.19-.32v-7h-2.81c-5.28,0-10.56,0-15.83,0-1.68,0-2.51-.55-2.59-2.24-.1-1.85,1.18-1.71,2.36-1.71H1441c1.09,0,2.27-.15,2.23,1.57s-.61,2.42-2.4,2.38c-5.19-.08-10.39,0-15.59,0Z"/>
        <path class="cls-10" d="M1411.8,429.61c.25-3.48.39-6.55.75-9.57a2.18,2.18,0,0,1,1.64-1.29c3.52-.12,7-.13,10.51,0,.57,0,1.51,1,1.58,1.6a55.12,55.12,0,0,1,.51,7.49c0,.59-.86,1.68-1.35,1.7C1421.05,429.68,1416.65,429.61,1411.8,429.61Z"/>
        <path class="cls-10" d="M1410.81,418.71c-.3,3.78-.57,7.23-.86,10.75h-15.08c.76-3.4,1.43-6.55,2.21-9.7a1.67,1.67,0,0,1,.47-.65,1.6,1.6,0,0,1,.71-.36C1402.34,418.68,1406.43,418.71,1410.81,418.71Z"/>
        <path class="cls-10" d="M1443.87,429.61c-4.95,0-9.52,0-14.09-.06-.38,0-1-.83-1.09-1.33-.29-3-.44-6-.67-9.5h6.76a40.37,40.37,0,0,0,4.26-.06c2-.21,2.82.54,3.11,2.52C1442.5,423.89,1443.22,426.55,1443.87,429.61Z"/>
        <path class="cls-10" d="M1426.05,416.71h-13.24c.22-3,.38-5.81.7-8.61.06-.4.9-1,1.39-1,3-.1,6-.11,9,0a2,2,0,0,1,1.46,1.21C1425.72,411,1425.84,413.75,1426.05,416.71Z"/>
        <path class="cls-10" d="M1397.69,416.88c.73-3.2,1.26-5.89,2-8.51a2.27,2.27,0,0,1,.71-.86,2.33,2.33,0,0,1,1-.43c2.84-.14,5.68,0,8.51-.08,1.28,0,1.73.43,1.69,1.79-.21,8.09-.17,8.09-8.24,8.09Z"/>
        <path class="cls-10" d="M1441.1,416.66h-13.23c-.18-2.71-.45-5.37-.46-8.06a2.2,2.2,0,0,1,1.57-1.51,83.88,83.88,0,0,1,8.54,0,2.07,2.07,0,0,1,1.64,1.1C1439.89,410.88,1440.43,413.65,1441.1,416.66Z"/>
      </g>
    </g>
    <g class="cls-18">
      <g>
        <path class="cls-9" d="M1444.33,564.65h2.94c5.19,0,10.38,0,15.59,0,1.79,0,2.36-.77,2.4-2.38s-1.14-1.57-2.23-1.57h-43.22c-1.18,0-2.46-.14-2.36,1.71.09,1.69.91,2.27,2.59,2.24,5.28-.08,10.56,0,15.83,0h2.81v7a11,11,0,0,0-3.19.32c-.69.28-1.11,1.23-1.65,1.88.61.38,1.22,1.07,1.84,1.09q5.65.15,11.31,0c.66,0,1.3-.65,2-1-.61-.7-1.09-1.64-1.85-2a10,10,0,0,0-3-.34C1444.13,569.19,1444.23,567.05,1444.33,564.65Z"/>
        <path class="cls-9" d="M1433.8,558.61c4.85,0,9.25.06,13.65-.08.51,0,1.35-1.1,1.35-1.7a56.73,56.73,0,0,0-.5-7.48,2.35,2.35,0,0,0-1.58-1.6c-3.53-.15-7-.14-10.51,0a2.15,2.15,0,0,0-1.64,1.28C1434.19,552.06,1434.05,555.15,1433.8,558.61Z"/>
        <path class="cls-9" d="M1432.81,547.71c-4.39,0-8.47,0-12.57,0a1.69,1.69,0,0,0-.71.35,1.63,1.63,0,0,0-.47.66c-.78,3.13-1.45,6.29-2.21,9.69h15.08C1432.24,554.94,1432.51,551.49,1432.81,547.71Z"/>
        <path class="cls-9" d="M1465.87,558.61c-.65-3.05-1.37-5.71-1.74-8.41-.28-2-1.12-2.75-3.1-2.52a40.52,40.52,0,0,1-4.27.06H1450c.23,3.53.38,6.51.67,9.5,0,.51.7,1.32,1.09,1.33C1456.35,558.63,1460.92,558.61,1465.87,558.61Z"/>
        <path class="cls-9" d="M1448.05,545.71c-.21-3-.33-5.7-.65-8.43a2,2,0,0,0-1.46-1.21c-3-.11-6-.1-9,0a1.78,1.78,0,0,0-1.39,1c-.32,2.8-.5,5.62-.7,8.61Z"/>
        <path class="cls-9" d="M1419.69,545.88h5.68c8.07,0,8.05,0,8.25-8.09,0-1.35-.42-1.8-1.69-1.79-2.84,0-5.68-.06-8.51.08a2.37,2.37,0,0,0-1,.43,2.47,2.47,0,0,0-.71.86C1421,540,1420.42,542.68,1419.69,545.88Z"/>
        <path class="cls-9" d="M1463.1,545.66c-.67-3-1.21-5.78-1.95-8.5a2.11,2.11,0,0,0-1.64-1.09c-2.84-.12-5.7-.14-8.55,0a2.26,2.26,0,0,0-1.56,1.51c0,2.66.27,5.32.45,8.06Z"/>
        <path class="cls-10" d="M1444.33,564.65c-.1,2.4-.2,4.54-.3,6.9a9.38,9.38,0,0,1,3,.34c.79.4,1.24,1.32,1.85,2-.65.35-1.29,1-2,1q-5.65.14-11.31,0c-.62,0-1.23-.71-1.84-1.09.54-.65,1-1.6,1.65-1.88a11,11,0,0,1,3.19-.32v-7h-2.81c-5.28,0-10.56,0-15.83,0-1.68,0-2.51-.55-2.59-2.24-.1-1.85,1.18-1.71,2.36-1.71H1463c1.09,0,2.27-.15,2.23,1.57s-.61,2.42-2.4,2.38c-5.19-.08-10.39,0-15.59,0Z"/>
        <path class="cls-10" d="M1433.8,558.61c.25-3.48.39-6.55.75-9.57a2.18,2.18,0,0,1,1.64-1.29c3.52-.12,7-.13,10.51,0,.57,0,1.51,1,1.58,1.6a55.12,55.12,0,0,1,.51,7.49c0,.59-.86,1.68-1.35,1.7C1443.05,558.68,1438.65,558.61,1433.8,558.61Z"/>
        <path class="cls-10" d="M1432.81,547.71c-.3,3.78-.57,7.23-.86,10.75h-15.08c.76-3.4,1.43-6.55,2.21-9.7a1.67,1.67,0,0,1,.47-.65,1.6,1.6,0,0,1,.71-.36C1424.34,547.68,1428.43,547.71,1432.81,547.71Z"/>
        <path class="cls-10" d="M1465.87,558.61c-4.95,0-9.52,0-14.09-.06-.38,0-1-.83-1.09-1.33-.29-3-.44-6-.67-9.5h6.76a40.37,40.37,0,0,0,4.26-.06c2-.21,2.82.54,3.11,2.52C1464.5,552.89,1465.22,555.55,1465.87,558.61Z"/>
        <path class="cls-10" d="M1448.05,545.71h-13.24c.22-3,.38-5.81.7-8.61.06-.4.9-1,1.39-1,3-.1,6-.11,9,0a2,2,0,0,1,1.46,1.21C1447.72,540,1447.84,542.75,1448.05,545.71Z"/>
        <path class="cls-10" d="M1419.69,545.88c.73-3.2,1.26-5.89,2-8.51a2.27,2.27,0,0,1,.71-.86,2.33,2.33,0,0,1,1-.43c2.84-.14,5.68,0,8.51-.08,1.28,0,1.73.43,1.69,1.79-.21,8.09-.17,8.09-8.24,8.09Z"/>
        <path class="cls-10" d="M1463.1,545.66h-13.23c-.18-2.71-.45-5.37-.46-8.06a2.2,2.2,0,0,1,1.57-1.51,83.88,83.88,0,0,1,8.54,0,2.07,2.07,0,0,1,1.64,1.1C1461.89,539.88,1462.43,542.65,1463.1,545.66Z"/>
      </g>
    </g>
    <g class="cls-19">
      <path class="cls-10" d="M1438.72,713a66.6,66.6,0,0,1,14.68,17.91,42.46,42.46,0,0,1,5.06,11.77c.68,5.57.68,11.56-1.42,16.9-2.12,5-5.81,9.91-11.2,11.44-7.55,2.74-16.59-.49-21.86-6.64a24.51,24.51,0,0,1-3-5.6c-.71-1-.72-2.17-1.08-3.3a16.88,16.88,0,0,1-.42-10.23c1.26-4.06,2.91-8.23,5.69-11.48,3-3.43,6.47-6.34,9.09-10.06C1436.31,720.38,1438.26,716.88,1438.72,713Zm-1.37,26.52c-.91,1.51-1.77,3.53-3.12,4.9-3.2,3.39-7.21,6.48-8.37,11.21-.89,3.45.29,7.2,2.26,10.1a13.83,13.83,0,0,0,14.63,4.37c2.49-.75,4.18-2.92,5.76-4.85,2-3.15,2.21-7.09,1.79-10.71-.66-3.1-2.46-5.83-4.17-8.45a33.78,33.78,0,0,0-6.09-6.66C1438,737.91,1438,736.35,1437.35,739.49Z"/>
    </g>
    <g class="cls-20">
      <g>
        <path class="cls-9" d="M1129.33,290.65h2.94c5.19,0,10.38,0,15.59,0,1.79,0,2.36-.77,2.4-2.38s-1.14-1.57-2.23-1.57h-43.22c-1.18,0-2.46-.14-2.36,1.71.09,1.69.91,2.27,2.59,2.24,5.28-.08,10.56,0,15.83,0h2.81v7a11,11,0,0,0-3.19.32c-.69.28-1.11,1.23-1.65,1.88.61.38,1.22,1.07,1.84,1.09q5.65.15,11.31,0c.66,0,1.3-.65,2-1-.61-.7-1.09-1.64-1.85-2a10,10,0,0,0-3-.34C1129.13,295.19,1129.23,293.05,1129.33,290.65Z"/>
        <path class="cls-9" d="M1118.8,284.61c4.85,0,9.25.06,13.65-.08.51,0,1.35-1.1,1.35-1.7a56.73,56.73,0,0,0-.5-7.48,2.35,2.35,0,0,0-1.58-1.6c-3.53-.15-7-.14-10.51,0a2.15,2.15,0,0,0-1.64,1.28C1119.19,278.06,1119.05,281.15,1118.8,284.61Z"/>
        <path class="cls-9" d="M1117.81,273.71c-4.39,0-8.47,0-12.57.05a1.69,1.69,0,0,0-.71.35,1.63,1.63,0,0,0-.47.66c-.78,3.13-1.45,6.29-2.21,9.69h15.08C1117.24,280.94,1117.51,277.49,1117.81,273.71Z"/>
        <path class="cls-9" d="M1150.87,284.61c-.65-3.05-1.37-5.71-1.74-8.41-.28-2-1.12-2.75-3.1-2.52a40.52,40.52,0,0,1-4.27.06H1135c.23,3.53.38,6.51.67,9.5,0,.51.7,1.32,1.09,1.33C1141.35,284.63,1145.92,284.61,1150.87,284.61Z"/>
        <path class="cls-9" d="M1133.05,271.71c-.21-3-.33-5.7-.65-8.43a2,2,0,0,0-1.46-1.21c-3-.11-6-.1-9,0a1.78,1.78,0,0,0-1.39,1c-.32,2.8-.5,5.62-.7,8.61Z"/>
        <path class="cls-9" d="M1104.69,271.88h5.68c8.07,0,8.05,0,8.25-8.09,0-1.35-.42-1.8-1.69-1.79-2.84,0-5.68-.06-8.51.08a2.37,2.37,0,0,0-1,.43,2.47,2.47,0,0,0-.71.86C1106,266,1105.42,268.68,1104.69,271.88Z"/>
        <path class="cls-9" d="M1148.1,271.66c-.67-3-1.21-5.78-1.95-8.5a2.11,2.11,0,0,0-1.64-1.09c-2.84-.12-5.7-.14-8.55,0a2.26,2.26,0,0,0-1.56,1.51c0,2.66.27,5.32.45,8.06Z"/>
        <path class="cls-10" d="M1129.33,290.65c-.1,2.4-.2,4.54-.3,6.9a9.38,9.38,0,0,1,3,.34c.79.4,1.24,1.32,1.85,2-.65.35-1.29,1-2,1q-5.65.13-11.31,0c-.62,0-1.23-.71-1.84-1.09.54-.65,1-1.6,1.65-1.88a11,11,0,0,1,3.19-.32v-7h-2.81c-5.28,0-10.56,0-15.83,0-1.68,0-2.51-.55-2.59-2.24-.1-1.85,1.18-1.71,2.36-1.71H1148c1.09,0,2.27-.15,2.23,1.57s-.61,2.42-2.4,2.38c-5.19-.08-10.39,0-15.59,0Z"/>
        <path class="cls-10" d="M1118.8,284.61c.25-3.48.39-6.55.75-9.57a2.18,2.18,0,0,1,1.64-1.29c3.52-.12,7-.13,10.51,0,.57,0,1.51,1,1.58,1.6a55.12,55.12,0,0,1,.51,7.49c0,.59-.86,1.68-1.35,1.7C1128.05,284.68,1123.65,284.61,1118.8,284.61Z"/>
        <path class="cls-10" d="M1117.81,273.71c-.3,3.78-.57,7.23-.86,10.75h-15.08c.76-3.4,1.43-6.55,2.21-9.7a1.67,1.67,0,0,1,.47-.65,1.6,1.6,0,0,1,.71-.36C1109.34,273.68,1113.43,273.71,1117.81,273.71Z"/>
        <path class="cls-10" d="M1150.87,284.61c-4.95,0-9.52,0-14.09-.06-.38,0-1-.83-1.09-1.33-.29-3-.44-6-.67-9.5h6.76a40.37,40.37,0,0,0,4.26-.06c2-.21,2.82.54,3.11,2.52C1149.5,278.89,1150.22,281.55,1150.87,284.61Z"/>
        <path class="cls-10" d="M1133.05,271.71h-13.24c.22-3,.38-5.81.7-8.61.06-.4.9-1,1.39-1,3-.1,6-.11,9,0a2,2,0,0,1,1.46,1.21C1132.72,266,1132.84,268.75,1133.05,271.71Z"/>
        <path class="cls-10" d="M1104.69,271.88c.73-3.2,1.26-5.89,2-8.51a2.27,2.27,0,0,1,.71-.86,2.33,2.33,0,0,1,1-.43c2.84-.14,5.68,0,8.51-.08,1.28,0,1.73.43,1.69,1.79-.21,8.09-.17,8.09-8.24,8.09Z"/>
        <path class="cls-10" d="M1148.1,271.66h-13.23c-.18-2.71-.45-5.37-.46-8.06a2.2,2.2,0,0,1,1.57-1.51,83.88,83.88,0,0,1,8.54,0,2.07,2.07,0,0,1,1.64,1.1C1146.89,265.88,1147.43,268.65,1148.1,271.66Z"/>
      </g>
    </g>
    <g class="cls-21">
      <g>
        <path class="cls-9" d="M1068.33,290.65h2.94c5.19,0,10.38,0,15.59,0,1.79,0,2.36-.77,2.4-2.38s-1.14-1.57-2.23-1.57h-43.22c-1.18,0-2.46-.14-2.36,1.71.09,1.69.91,2.27,2.59,2.24,5.28-.08,10.56,0,15.83,0h2.81v7a11,11,0,0,0-3.19.32c-.69.28-1.11,1.23-1.65,1.88.61.38,1.22,1.07,1.84,1.09q5.65.15,11.31,0c.66,0,1.3-.65,2-1-.61-.7-1.09-1.64-1.85-2a10,10,0,0,0-3-.34C1068.13,295.19,1068.23,293.05,1068.33,290.65Z"/>
        <path class="cls-9" d="M1057.8,284.61c4.85,0,9.25.06,13.65-.08.51,0,1.35-1.1,1.35-1.7a56.73,56.73,0,0,0-.5-7.48,2.35,2.35,0,0,0-1.58-1.6c-3.53-.15-7-.14-10.51,0a2.15,2.15,0,0,0-1.64,1.28C1058.19,278.06,1058.05,281.15,1057.8,284.61Z"/>
        <path class="cls-9" d="M1056.81,273.71c-4.39,0-8.47,0-12.57.05a1.69,1.69,0,0,0-.71.35,1.63,1.63,0,0,0-.47.66c-.78,3.13-1.45,6.29-2.21,9.69h15.08C1056.24,280.94,1056.51,277.49,1056.81,273.71Z"/>
        <path class="cls-9" d="M1089.87,284.61c-.65-3.05-1.37-5.71-1.74-8.41-.28-2-1.12-2.75-3.1-2.52a40.52,40.52,0,0,1-4.27.06H1074c.23,3.53.38,6.51.67,9.5,0,.51.7,1.32,1.09,1.33C1080.35,284.63,1084.92,284.61,1089.87,284.61Z"/>
        <path class="cls-9" d="M1072.05,271.71c-.21-3-.33-5.7-.65-8.43a2,2,0,0,0-1.46-1.21c-3-.11-6-.1-9,0a1.78,1.78,0,0,0-1.39,1c-.32,2.8-.5,5.62-.7,8.61Z"/>
        <path class="cls-9" d="M1043.69,271.88h5.68c8.07,0,8.05,0,8.25-8.09,0-1.35-.42-1.8-1.69-1.79-2.84,0-5.68-.06-8.51.08a2.37,2.37,0,0,0-1,.43,2.47,2.47,0,0,0-.71.86C1045,266,1044.42,268.68,1043.69,271.88Z"/>
        <path class="cls-9" d="M1087.1,271.66c-.67-3-1.21-5.78-1.95-8.5a2.11,2.11,0,0,0-1.64-1.09c-2.84-.12-5.7-.14-8.55,0a2.26,2.26,0,0,0-1.56,1.51c0,2.66.27,5.32.45,8.06Z"/>
        <path class="cls-10" d="M1068.33,290.65c-.1,2.4-.2,4.54-.3,6.9a9.38,9.38,0,0,1,3,.34c.79.4,1.24,1.32,1.85,2-.65.35-1.29,1-2,1q-5.65.13-11.31,0c-.62,0-1.23-.71-1.84-1.09.54-.65,1-1.6,1.65-1.88a11,11,0,0,1,3.19-.32v-7h-2.81c-5.28,0-10.56,0-15.83,0-1.68,0-2.51-.55-2.59-2.24-.1-1.85,1.18-1.71,2.36-1.71H1087c1.09,0,2.27-.15,2.23,1.57s-.61,2.42-2.4,2.38c-5.19-.08-10.39,0-15.59,0Z"/>
        <path class="cls-10" d="M1057.8,284.61c.25-3.48.39-6.55.75-9.57a2.18,2.18,0,0,1,1.64-1.29c3.52-.12,7-.13,10.51,0,.57,0,1.51,1,1.58,1.6a55.12,55.12,0,0,1,.51,7.49c0,.59-.86,1.68-1.35,1.7C1067.05,284.68,1062.65,284.61,1057.8,284.61Z"/>
        <path class="cls-10" d="M1056.81,273.71c-.3,3.78-.57,7.23-.86,10.75h-15.08c.76-3.4,1.43-6.55,2.21-9.7a1.67,1.67,0,0,1,.47-.65,1.6,1.6,0,0,1,.71-.36C1048.34,273.68,1052.43,273.71,1056.81,273.71Z"/>
        <path class="cls-10" d="M1089.87,284.61c-4.95,0-9.52,0-14.09-.06-.38,0-1-.83-1.09-1.33-.29-3-.44-6-.67-9.5h6.76a40.37,40.37,0,0,0,4.26-.06c2-.21,2.82.54,3.11,2.52C1088.5,278.89,1089.22,281.55,1089.87,284.61Z"/>
        <path class="cls-10" d="M1072.05,271.71h-13.24c.22-3,.38-5.81.7-8.61.06-.4.9-1,1.39-1,3-.1,6-.11,9,0a2,2,0,0,1,1.46,1.21C1071.72,266,1071.84,268.75,1072.05,271.71Z"/>
        <path class="cls-10" d="M1043.69,271.88c.73-3.2,1.26-5.89,2-8.51a2.27,2.27,0,0,1,.71-.86,2.33,2.33,0,0,1,1-.43c2.84-.14,5.68,0,8.51-.08,1.28,0,1.73.43,1.69,1.79-.21,8.09-.17,8.09-8.24,8.09Z"/>
        <path class="cls-10" d="M1087.1,271.66h-13.23c-.18-2.71-.45-5.37-.46-8.06a2.2,2.2,0,0,1,1.57-1.51,83.88,83.88,0,0,1,8.54,0,2.07,2.07,0,0,1,1.64,1.1C1085.89,265.88,1086.43,268.65,1087.1,271.66Z"/>
      </g>
    </g>
    <g class="cls-22">
      <g>
        <path class="cls-9" d="M1346.21,169.57c-.71,6.83-1.4,13.58-2.12,20.32-.09.81-.17,2.21-.55,2.31-3.46,1-2.13,3.49-2,5.75H1358c-.19-1.75.1-4.27-.63-4.6-3.35-1.6-2.39-4.58-2.69-7.08-.71-5.64-1.22-11.32-1.77-16.72Z"/>
        <path class="cls-9" d="M1323,182.77l21.66-14.36c-1-3.83-3.4-4.57-6.66-4.84-3.47-.29-5.43,1.1-7.32,3.69-2.73,3.76-5.68,7.38-8.69,10.92C1320.24,180.17,1320.54,181.48,1323,182.77Z"/>
        <path class="cls-9" d="M1356.92,163.19c-1.89,4.57-1.67,4.46.33,8.14,1.66,3,3.93,3.95,7.18,3.83,4.18-.17,8.37.16,12.55.05,1,0,1.92-1,2.89-1.49-.63-.88-1.1-2.23-1.95-2.55C1371,168.42,1364.05,165.87,1356.92,163.19Z"/>
        <path class="cls-9" d="M1346.31,156.17c6.59-1.07,9.32-6.6,6.46-12.07-1.75-3.37-3.37-6.84-5.35-10.07-.94-1.55-.81-4.91-3.89-3.86s-.92,3.54-.69,5.22C1343.82,142.28,1345.1,149.11,1346.31,156.17Z"/>
        <path class="cls-9" d="M1354.82,162.67a5.25,5.25,0,0,0-3.35-4.8,5.15,5.15,0,0,0-5.66,1.31,5.32,5.32,0,0,0,1,8.11,5.16,5.16,0,0,0,6.54-.87A5.31,5.31,0,0,0,1354.82,162.67Z"/>
        <path class="cls-10" d="M1346.21,169.57h6.72c.56,5.4,1.06,11.08,1.77,16.72.31,2.5-.63,5.47,2.7,7.08.71.33.41,2.85.63,4.6h-16.54c-.08-2.28-1.41-4.75,2-5.75.38-.1.46-1.5.55-2.31C1344.81,183.15,1345.5,176.41,1346.21,169.57Z"/>
        <path class="cls-10" d="M1323,182.77c-2.42-1.28-2.72-2.6-1-4.59,3-3.54,6-7.16,8.69-10.92,1.89-2.59,3.85-4,7.32-3.69,3.26.27,5.64,1,6.66,4.84Z"/>
        <path class="cls-10" d="M1356.92,163.19c7.13,2.66,14.1,5.21,21,7.95.85.34,1.3,1.69,1.95,2.55-1,.53-1.89,1.47-2.89,1.5-4.18.1-8.37-.22-12.55-.06-3.25.13-5.52-.77-7.18-3.82C1355.25,167.65,1355.05,167.78,1356.92,163.19Z"/>
        <path class="cls-10" d="M1346.31,156.17c-1.21-7.06-2.52-13.89-3.47-20.78-.23-1.68-2.26-4.22.69-5.22s3,2.31,3.89,3.86c2,3.23,3.6,6.7,5.35,10.07C1355.63,149.57,1352.93,155.1,1346.31,156.17Z"/>
        <path class="cls-10" d="M1354.82,162.67a5.27,5.27,0,0,1-3.21,4.89,5.21,5.21,0,0,1-5.7-1.14,5.31,5.31,0,0,1-1.12-5.77,5.21,5.21,0,0,1,4.83-3.25,5.29,5.29,0,0,1,3.67,1.56A5.36,5.36,0,0,1,1354.82,162.67Z"/>
      </g>
    </g>
    <g class="cls-23">
      <g>
        <path class="cls-9" d="M1504.21,409.57c-.71,6.83-1.4,13.58-2.12,20.32-.09.81-.17,2.21-.55,2.31-3.46,1-2.13,3.49-2,5.75H1516c-.19-1.75.1-4.27-.63-4.6-3.35-1.6-2.39-4.58-2.69-7.08-.71-5.64-1.22-11.32-1.77-16.72Z"/>
        <path class="cls-9" d="M1481,422.77l21.66-14.37c-1-3.82-3.4-4.56-6.66-4.83-3.47-.29-5.43,1.1-7.32,3.69-2.73,3.76-5.68,7.38-8.69,10.92C1478.24,420.17,1478.54,421.48,1481,422.77Z"/>
        <path class="cls-9" d="M1514.92,403.19c-1.89,4.57-1.67,4.46.33,8.14,1.66,3.05,3.93,3.95,7.18,3.83,4.18-.17,8.37.16,12.55,0,1,0,1.93-1,2.89-1.49-.63-.88-1.1-2.23-1.95-2.55C1529,408.42,1522.05,405.87,1514.92,403.19Z"/>
        <path class="cls-9" d="M1504.31,396.17c6.59-1.07,9.32-6.6,6.46-12.07-1.75-3.37-3.37-6.84-5.35-10.07-.94-1.55-.81-4.91-3.89-3.86s-.92,3.54-.69,5.22C1501.82,382.28,1503.1,389.11,1504.31,396.17Z"/>
        <path class="cls-9" d="M1512.82,402.67a5.25,5.25,0,0,0-3.35-4.8,5.15,5.15,0,0,0-5.66,1.31,5.32,5.32,0,0,0,1,8.11,5.16,5.16,0,0,0,6.54-.87A5.31,5.31,0,0,0,1512.82,402.67Z"/>
        <path class="cls-10" d="M1504.21,409.57h6.72c.56,5.4,1.06,11.08,1.77,16.72.31,2.5-.63,5.47,2.7,7.08.71.33.41,2.85.63,4.6h-16.54c-.08-2.28-1.41-4.75,2-5.75.38-.1.46-1.5.55-2.31C1502.81,423.15,1503.5,416.41,1504.21,409.57Z"/>
        <path class="cls-10" d="M1481,422.77c-2.42-1.28-2.72-2.6-1-4.59,3-3.54,6-7.16,8.69-10.92,1.89-2.59,3.85-4,7.32-3.69,3.26.27,5.64,1,6.66,4.83Z"/>
        <path class="cls-10" d="M1514.92,403.19c7.13,2.66,14.1,5.21,21,7.95.85.34,1.31,1.69,1.95,2.55-1,.53-1.89,1.47-2.89,1.5-4.18.1-8.37-.22-12.55-.06-3.25.13-5.52-.77-7.18-3.82C1513.25,407.65,1513.05,407.78,1514.92,403.19Z"/>
        <path class="cls-10" d="M1504.31,396.17c-1.21-7.06-2.52-13.89-3.47-20.78-.23-1.68-2.26-4.22.69-5.22s3,2.31,3.89,3.86c2,3.23,3.6,6.7,5.35,10.07C1513.63,389.57,1510.93,395.1,1504.31,396.17Z"/>
        <path class="cls-10" d="M1512.82,402.67a5.27,5.27,0,0,1-3.21,4.89,5.21,5.21,0,0,1-5.7-1.14,5.31,5.31,0,0,1-1.12-5.77,5.21,5.21,0,0,1,4.83-3.25,5.29,5.29,0,0,1,3.67,1.56A5.36,5.36,0,0,1,1512.82,402.67Z"/>
      </g>
    </g>
    <g class="cls-24">
      <g>
        <path class="cls-9" d="M1383.21,369.57c-.71,6.83-1.4,13.58-2.12,20.32-.09.81-.17,2.21-.55,2.31-3.46,1-2.13,3.49-2,5.75H1395c-.19-1.75.1-4.27-.63-4.6-3.35-1.6-2.39-4.58-2.69-7.08-.71-5.64-1.22-11.32-1.77-16.72Z"/>
        <path class="cls-9" d="M1360,382.77l21.66-14.37c-1-3.82-3.4-4.56-6.66-4.83-3.47-.29-5.43,1.1-7.32,3.69-2.73,3.76-5.68,7.38-8.69,10.92C1357.24,380.17,1357.54,381.48,1360,382.77Z"/>
        <path class="cls-9" d="M1393.92,363.19c-1.89,4.57-1.67,4.46.33,8.14,1.66,3.05,3.93,3.95,7.18,3.83,4.18-.17,8.37.16,12.55,0,1,0,1.92-1,2.89-1.49-.63-.88-1.1-2.23-1.95-2.55C1408,368.42,1401.05,365.87,1393.92,363.19Z"/>
        <path class="cls-9" d="M1383.31,356.17c6.59-1.07,9.32-6.6,6.46-12.07-1.75-3.37-3.37-6.84-5.35-10.07-.94-1.55-.81-4.91-3.89-3.86s-.92,3.54-.69,5.22C1380.82,342.28,1382.1,349.11,1383.31,356.17Z"/>
        <path class="cls-9" d="M1391.82,362.67a5.25,5.25,0,0,0-3.35-4.8,5.15,5.15,0,0,0-5.66,1.31,5.32,5.32,0,0,0,1,8.11,5.16,5.16,0,0,0,6.54-.87A5.31,5.31,0,0,0,1391.82,362.67Z"/>
        <path class="cls-10" d="M1383.21,369.57h6.72c.56,5.4,1.06,11.08,1.77,16.72.31,2.5-.63,5.47,2.7,7.08.71.33.41,2.85.63,4.6h-16.54c-.08-2.28-1.41-4.75,2-5.75.38-.1.46-1.5.55-2.31C1381.81,383.15,1382.5,376.41,1383.21,369.57Z"/>
        <path class="cls-10" d="M1360,382.77c-2.42-1.28-2.72-2.6-1-4.59,3-3.54,6-7.16,8.69-10.92,1.89-2.59,3.85-4,7.32-3.69,3.26.27,5.64,1,6.66,4.83Z"/>
        <path class="cls-10" d="M1393.92,363.19c7.13,2.66,14.1,5.21,21,7.95.85.34,1.3,1.69,1.95,2.55-1,.53-1.89,1.47-2.89,1.5-4.18.1-8.37-.22-12.55-.06-3.25.13-5.52-.77-7.18-3.82C1392.25,367.65,1392.05,367.78,1393.92,363.19Z"/>
        <path class="cls-10" d="M1383.31,356.17c-1.21-7.06-2.52-13.89-3.47-20.78-.23-1.68-2.26-4.22.69-5.22s3,2.31,3.89,3.86c2,3.23,3.6,6.7,5.35,10.07C1392.63,349.57,1389.93,355.1,1383.31,356.17Z"/>
        <path class="cls-10" d="M1391.82,362.67a5.27,5.27,0,0,1-3.21,4.89,5.21,5.21,0,0,1-5.7-1.14,5.31,5.31,0,0,1-1.12-5.77,5.21,5.21,0,0,1,4.83-3.25,5.29,5.29,0,0,1,3.67,1.56A5.36,5.36,0,0,1,1391.82,362.67Z"/>
      </g>
    </g>
    <g class="cls-25">
      <path class="cls-10" d="M1362.72,474a66.6,66.6,0,0,1,14.68,17.91,42.46,42.46,0,0,1,5.06,11.77c.68,5.57.68,11.56-1.42,16.9-2.12,5-5.81,9.91-11.2,11.44-7.55,2.74-16.59-.49-21.86-6.64a24.51,24.51,0,0,1-3-5.6c-.71-1-.72-2.17-1.08-3.3a16.88,16.88,0,0,1-.42-10.23c1.26-4.06,2.91-8.23,5.69-11.48,3-3.43,6.47-6.34,9.09-10.06C1360.31,481.38,1362.26,477.88,1362.72,474Zm-1.37,26.52c-.91,1.51-1.77,3.53-3.12,4.9-3.2,3.39-7.21,6.48-8.37,11.21-.89,3.45.29,7.2,2.26,10.1a13.83,13.83,0,0,0,14.63,4.37c2.49-.75,4.18-2.92,5.76-4.85,2-3.15,2.21-7.09,1.79-10.71-.66-3.1-2.46-5.83-4.17-8.45a33.78,33.78,0,0,0-6.09-6.66C1362,498.91,1362,497.35,1361.35,500.49Z"/>
    </g>
  </g>
  <g id="Wetter">
    <g class="cls-26">
      <g>
        <path class="cls-27" d="M1634.69,120.37c-.1.22-.23.44-.31.67a6.34,6.34,0,0,1-6.09,4.43c-3.41,0-6.83.06-10.24,0a6.38,6.38,0,1,1,0-12.76c3.29-.07,6.57,0,9.85,0a6.4,6.4,0,0,1,6.54,4.69,2.26,2.26,0,0,0,.26.42Z"/>
        <path class="cls-27" d="M1567.91,184.6a6.79,6.79,0,0,0-.67-.32,6.35,6.35,0,0,1-4.44-6.09c0-3.41-.06-6.82,0-10.23a6.39,6.39,0,1,1,12.77,0c.06,3.28,0,6.56,0,9.85a6.4,6.4,0,0,1-4.69,6.54,2.22,2.22,0,0,0-.42.25Z"/>
        <path class="cls-27" d="M1569.21,151.88a32.81,32.81,0,1,1,23.15-9.61A32.84,32.84,0,0,1,1569.21,151.88Z"/>
        <path class="cls-27" d="M1527.52,167.57c-2.76-.4-4.74-1.59-5.86-3.94a5.68,5.68,0,0,1,.72-6.59q4-4.41,8.4-8.4a6.31,6.31,0,0,1,8.88,8.85,116.79,116.79,0,0,1-8.42,8.38C1530.28,166.75,1528.78,167,1527.52,167.57Z"/>
        <path class="cls-27" d="M1521,77.25a6.11,6.11,0,0,1,3.66-5.69,5.68,5.68,0,0,1,6.58.74c2.9,2.64,5.7,5.4,8.32,8.31a6.3,6.3,0,0,1-8.9,8.84,115.9,115.9,0,0,1-8.21-8.23c-.9-1-1.19-2.54-1.76-3.83Z"/>
        <path class="cls-27" d="M1617.34,77.68a6.18,6.18,0,0,1-2,4.33c-2.28,2.3-4.54,4.61-6.87,6.87a6.39,6.39,0,0,1-9.27.14c-2.54-2.61-2.45-6.41.23-9.19q3.42-3.52,7-7a6.24,6.24,0,0,1,7.18-1.41A6.37,6.37,0,0,1,1617.34,77.68Z"/>
        <path class="cls-27" d="M1611,167.25a6.33,6.33,0,0,1-4.7-2c-2.33-2.31-4.68-4.61-7-7a6.4,6.4,0,1,1,9.06-9c2.4,2.31,4.74,4.67,7,7.06a6.39,6.39,0,0,1-4.45,10.92Z"/>
        <path class="cls-27" d="M1562.79,65.07c0-1.67,0-3.34,0-5a6.39,6.39,0,1,1,12.78,0c.06,3.37,0,6.73,0,10.1a6.39,6.39,0,1,1-12.78,0C1562.76,68.47,1562.79,66.77,1562.79,65.07Z"/>
        <path class="cls-27" d="M1515.16,125.48c-1.66,0-3.33,0-5,0a6.39,6.39,0,1,1,0-12.77q5-.09,10.1,0a6.39,6.39,0,1,1,0,12.77C1518.58,125.52,1516.87,125.48,1515.16,125.48Z"/>
      </g>
    </g>
  </g>
</svg>
