<?xml version="1.0" encoding="utf-8"?>
<!-- Generator: Adobe Illustrator 25.4.1, SVG Export Plug-In . SVG Version: 6.00 Build 0)  -->
<svg version="1.1" id="Ebene_1" xmlns="http://www.w3.org/2000/svg" xmlns:xlink="http://www.w3.org/1999/xlink" x="0px" y="0px"
	 viewBox="0 0 1920 1080" style="enable-background:new 0 0 1920 1080;" xml:space="preserve">
<style type="text/css">
	.st0{clip-path:url(#SVGID_00000089543789518070003360000010035243608398022830_);}
	.st1{fill:#71A875;stroke:#FFFFFF;stroke-width:0.25;stroke-miterlimit:10;}
	.st2{fill:#89BB8A;stroke:#FFFFFF;stroke-width:0.25;stroke-miterlimit:10;}
	
		.st3{fill:url(#SVGID_00000107549254691802527530000013162085919254746035_);stroke:#FFFFFF;stroke-width:0.25;stroke-miterlimit:10;}
	.st4{clip-path:url(#SVGID_00000153690409755458246630000009257672201924086444_);}
	.st5{fill:none;stroke:#486C4A;stroke-width:2;}
	.st6{clip-path:url(#SVGID_00000035520887113762172250000010583581818698923180_);}
	.st7{fill:#FFFFFF;}
	.st8{fill:#FEFEFF;}
	.st9{clip-path:url(#SVGID_00000002374824911089487240000015865517396986579631_);}
	.st10{clip-path:url(#SVGID_00000047758824473346501360000004331821904169113001_);}
	.st11{clip-path:url(#SVGID_00000084523310493187537180000001716037340496111015_);}
	.st12{fill:#D16146;}
	.st13{clip-path:url(#SVGID_00000142169255825588632420000007789336824701147839_);}
	.st14{clip-path:url(#SVGID_00000152233687145459101580000004412022181826597263_);}
	.st15{clip-path:url(#SVGID_00000102538449351096114500000009443199851991263888_);}
	.st16{clip-path:url(#SVGID_00000148627898700486111430000007276553092075581354_);}
	.st17{clip-path:url(#SVGID_00000064316299710492300580000002465268431620877985_);}
	.st18{clip-path:url(#SVGID_00000025414690146087695240000012439243867442958232_);}
	.st19{clip-path:url(#SVGID_00000048502682562078575510000009048860386523418248_);}
	.st20{clip-path:url(#SVGID_00000021090461909448681700000008550328078232000134_);}
	.st21{clip-path:url(#SVGID_00000163045682229849865030000008794065589265919658_);}
	.st22{clip-path:url(#SVGID_00000106855835940287022630000014213283829028417170_);}
	.st23{fill:#C5EBEB;}
	.st24{clip-path:url(#SVGID_00000002361294596475290450000013532490694663429798_);}
	.st25{fill:#C5EBEB;stroke:#89BB8A;stroke-width:2;stroke-miterlimit:10;}
	.st26{font-family:'OpenSans-SemiBold';}
	.st27{font-size:23.84px;}
	.st28{fill:#636363;}
	.st29{font-size:12px;}
	.st30{font-size:5px;}
	.st31{font-size:8px;}
	.st32{opacity:0.5;}
	.st33{fill:none;stroke:#FFFFFF;stroke-miterlimit:10;}
	.st34{fill:none;stroke:#FFFFFF;stroke-miterlimit:10;stroke-dasharray:0.98,1.95;}
	.st35{fill:none;}
	.st36{fill:#FFFFFF;fill-opacity:0.7;stroke:#FFFFFF;}
	.st37{fill:#5DB77A;}
	.st38{fill:#646363;}
	.st39{font-family:'MyriadPro-Regular';}
	.st40{font-size:20px;}
	.st41{fill:#FFFFFF;stroke:#C0D3E1;stroke-width:7;stroke-miterlimit:10;}
	.st42{fill:none;stroke:#E27A7D;stroke-width:7;stroke-miterlimit:10;}
	.st43{fill:#E07C81;}
	.st44{fill:none;stroke:#636363;stroke-width:2;stroke-miterlimit:10;}
	.st45{fill:none;stroke:#636363;stroke-miterlimit:10;}
	.st46{fill:none;stroke:#636363;stroke-width:2;stroke-linejoin:round;stroke-miterlimit:10;}
	.st47{fill:none;stroke:#636363;stroke-linejoin:round;stroke-miterlimit:10;}
</style>
<g id="Karte">
	<g>
		<defs>
			<rect id="SVGID_1_" x="243" width="1677" height="1080"/>
		</defs>
		<clipPath id="SVGID_00000004536261341807984680000004899531762714591930_">
			<use xlink:href="#SVGID_1_"  style="overflow:visible;"/>
		</clipPath>
		<g style="clip-path:url(#SVGID_00000004536261341807984680000004899531762714591930_);">
			<g>
				<path class="st1" d="M1316.8,898.2c1.2-6.9,4.6-16.2,11.5-18.5s34.6-8.1,38.1-13.8s10.4,1.2,16.2-3.5c5.7-4.3,12.5-6.7,19.6-6.9
					c5.8,0,20.8-3.5,26.5-2.3s13.8,15,17.3,15s9.6-4.6,9.2-7.4s3.1-5.6,5.6-7s4.5-6.6,4.2-9.4c-0.7-3.7-2.7-7-5.6-9.4
					c-3.1-2.4-3.8-9.1-8-9.4s-9.8-5.2-9.8-8.4s0.3-8.3,1.7-9s8.7-0.7,11.8-2.1s3.8-7,3.8-10.4s2.8-8.7-2.1-8.7s-8.7-0.3-8.7-4.9V764
					c0-2.4,3.8-5.2,5.9-7s5.6-2.8,5.2-7.3s-3.1-15-3.5-19.5s1.4-12.2-1.7-13.2s-2.1-5.6-7.3-4.5s-8,1-8-3.5s1.4-45.2,0.7-53.6
					s0.3-15.3-1.7-16.7s-2.1-7.3-7.7-9s-7.3-6.6-10.8-11.1s-7.7-5.2-8-10.4s-0.7-13.6,1.7-13.6s8.7-3.5,8.7-6.3s4.5-6.3,7-6.3
					s8.4,0.7,8.7-2.4s5.9-4.5,5.9-9.4s4.2-13.6,5.9-13.9s7.7-1.7,12.2-1.7s12.5-1.4,15.3-1.4s7.7-1.4,7.7-4.2s0.7-7.7,1-13.9
					s1.4-8,3.1-9.4s3.5-4.2,2.8-9s-0.3-8.4-2.8-11.1s-3.5-7.7-3.5-10.8s2.4-4.2,4.5-7s5.2-8,7.7-8.4s6.3,2.4,6.3,6.3
					s9.4,5.6,11.1,5.6s5.9,4.5,6.6,0.3s0-9.4,2.4-9.7s4.5,6.3,7.3,5.6s6.6,3.5,9.4,3.5s7.3,1,7.7-2.4s1.7-10.4,1.4-12.9
					s0-11.5-3.8-12.2s-5.2-4.2-8.4-5.6s-7-3.8-6.3-7.3s0.3-10.5,0.3-14.3s4.5-10.8,1.7-11.8s-8-3.8-7.7-8s2.4-7.3,4.2-8
					s3.1-3.8,3.5-8s0.7-13.2,0.7-15.7s-3.8-7.3-5.6-8.7s-3.8-6.3-8.7-8.7s-6.6-3.8-9.4-7s-6.6-10.5-10.4-11.5s-6.3-4.5-8.7-5.9
					s-5.6-4.9-4.2-7s4.5-3.8,5.9-5.6s4.9-5.6,4.2-9.4s3.1-10.1-1.4-10.1s-7-1-11.5-1.4s-6.3-1.4-8.7-4.2s-5.6-2.8-9-4.5
					s-7.3-2.4-7.3-5.2s-0.7-26.1-0.7-29.2s6.3-5.2,6.3-7.7s3.8-5.6,1.4-9.1s-1-10.4-4.2-12.2s-4.9,2.4-5.9-1.7s0.7-7.7,2.8-8.7
					s10.4,4.2,11.5-0.4s0.3-10.4-0.3-14.6s-5.2-8-5.9-12.5s1.7-10.1-0.7-11.5s-3.5-7-3.5-10.1s2.1-15,0.3-17.4s-5.9-4.5-7.7-6.3
					c-1.6-1.7-4.2-1.8-5.9-0.4c-1.7,1.4-2.4,5.9-4.2,9.1s-5.2,3.1-5.2,6.3s-1.4,11.5-3.1,12.2s-3.1-1-7.7-0.7s-10.1,1.1-12.9,0
					s-6.6-0.7-6.6-4.2s2.8-9.8,1.7-11.8s-4.2-3.1-5.9-3.1s-4.5-0.7-7,1.7s-3.8,5.9-6.3,5.9s-4.2-1.7-4.9-4.2s-4.9-1.7-5.2-5.2
					s-0.3-9.1,1.7-9.4s7-1.4,7.3-3.1s-0.3-1.4,1.4-4.9s0-7.7,0-10.1s1.1-8.7,0.3-12.2s-1.7-5.9-4.9-5.6s-10.4-4.2-11.8-0.7
					s-0.7,9.7-4.2,9.4s-9,1-9.4-3.1s1-9.4-3.1-8.7c-4.2,0.8-8.5,0.6-12.5-0.7c-4.9-1.4-5.6-2.4-6.6,0.3s1.4,5.9-4.5,6.6
					s-9,1.4-9.4-2.4s-3.1-6.6-1.7-10.4s1.7-9.1-1.7-8s-5.2,5.6-7.7,6.6s-4.5,6.6-7.3,5.2s-3.5-2.4-7.7-4.2s-7.3-0.3-7.3-3.8
					s-0.3-4.9-3.8-4.9s-12.2-1-16-1.4s-9.7,1-9.7,2.8s-2.4,9.4,0.7,9.8s7.7,2.8,8.4,5.6s3.8,9.1,0,11.8s-8.4,2.4-10.4,8
					s0.7,9-3.5,14.6s-9.7,7.3-8.7,10.8s-2.1,6.3-5.9,6.6s-4.2,0.7-6.3,2.8s-4.2,2.8-8.7,2.1s-6.3-2.4-10.4-3.8
					c-3.1-0.9-6-2.1-8.7-3.8c-3.5-2.1-5.2-5.2-5.6-2.4s0.3,11.1-1,13.2s0,9.8-2.4,11.1s-5.2,2.4-8.7,1.4s-6.3,0.4-8-1.4
					s-1-5.9-3.1-8.7s-1.7-6.3-5.9-7s-6.3-2.8-6.6,0.7s1.4,7.3,2.1,12.9s-1,12.2-1.7,14.6s0,4.2-1.4,9.8s-1.7,9.1-7.7,8.4
					s-8.3,0-10.8,2.8s-1.4,6.3-5.6,6.3s-10.1,1.4-10.4-1.7s-2.4-11.1,0-11.8s5.2-1.4,5.2-4.9s0.3-10.8,1.4-10.8s1-2.8,2.8-5.2
					s5.2-5.2,4.9-9s3.1-5.2-2.4-7.7s-9.4-2.4-11.5-4.2s-5.2-6.6-8.3-7.6s-5.2-3.1-8.3-6.3s-2.1-7-8-9.4s-4.2-7-7.7-4.9
					s-3.5,8-3.5,10.1s-2.1,9.4,2.1,10.4s5.9,4.2,7.3,8s-0.3,8.4-4.5,7c-3.2-1.2-6.8-0.5-9.4,1.8c-2.1,1.7-8-1.1-8.7-3.8
					s-1.7-11.8-5.6-13.6s-3.8-1.4-7.7-3.8s-5.9-5.2-9.4-5.9s-5.2-6.3-8.3-5.9s-3.5,7.3-3.1,9.7s-0.3,18.8-0.7,25.8
					s1.4,17.8,1.4,22.3s-0.7,12.5,2.8,13.6s8.7,5.2,10.8,5.6s1.7,11.8,1,25.4c-0.7,13.6-2.1,34.8-1.8,41.4s0.7,11.1-3.5,12.9
					s-3.8,5.6-9.7,8s-9.4-0.4-10.4,3.1s-0.7,8.7,0,13.9s-0.3,14.6-0.3,17.8s-3.5,7.3-7,11.5s-7,7.7-9,12.9s-6.3,12.2-10.1,14.3
					s-9.8,3.1-10.5,6.6s-3.5,5.6-7.7,8c-3.3,1.9-3.4,0.8-6.7,1.3c0.3,1.3,0.6,2.4,0.6,2.4s-7.3,8.7-9.8,10.8s-12.6,8.7-14,10.5
					s-5.9,8.4-5.9,10.1s0.7,32.1,1,33.9s-2.8,3.5-7,3.1s-18.2,1.4-18.2,1.4c-1.1,1.4-2,2.9-2.8,4.5c-0.7,1.8-7,3.5-7.3,4.5
					c-0.6,3.5-0.9,7-0.7,10.5c0.3,2.5-4.9,11.2-7.7,12.2s-8.4,5.2-9.4,7.3s-8.5,17.7-8.5,22.8s-8.8,35.2-12.5,42.5
					s-10.3,27.8-10.3,33s-4.4,28.6-5.9,33.7S856,669,851.5,675.6s-12.5,20.5-16.1,24.9s-8.8,10.3-8.8,13.9s2.2,16.8,6.6,20.5
					s10.3,4.4,11,8.1s2.2,11.7-2.9,13.2s-12.5,9.5-13.9,13.2s-12.5,23.4-14.7,27.8s-10.3,14.7-10.3,17.6s6.6,8.8,11,8.8
					c0,0,10.3,2.9,11,7.3s-3.7,16.1-3.7,16.1s-13.2,2.2-12.5,8.8s4.9,9,5.3,10.5s7.5,4.6,8.8,7.7s6.8,7.3,8.2,7.3s8.6-1.5,8.8-3.3
					s4.4-7.7,7-7.7s9,0.9,10.1,0.9s5.1,4.8,5.3,6.8s1.3,7,1.5,9.5s-2.9,5.9-2.4,8.8s0,9.9,1.1,10.1s9.2,1.8,9.7-0.2s2.2-6.4,5.1-7.3
					s10.1-1.3,11.9,0.7s6,2.4,6.6,4.4s4.8-0.5,5.3,1.8s6.6,3.5,13.4,3.5s18.1-0.4,20.3-1.3s6.8-3.1,7.5-5.3s5.5-8.2,7.5-8.4
					s7.7-3.5,9.5-4.6s4.8-5.5,6.4-6.6s10.6-5.5,12.3-5.5s11.7,7.3,13.9,11s5.1,7.7,6.2,9.7s2.7,3.5,6,4.8s13.2,0.2,17.6-0.2
					c4.4-0.4,15-1.5,17-2.2s6.4-6,7.5-6.8s6.4-4.2,9.2-4.6s9.3-9.2,9-10.8s-10.4-3.5-11.7-5.1s-7-3.3-9.5-3.5s-4.8-2.4-6.2-4.4
					s-4.6-4.2-6-5.1s-1.5-5.1-1.1-6.6s4.4-4.4,5.5-4.8s3.1-4.4,6.2-4.2s14.3,2.4,16.3,0.7s1.1-7.7,0.9-9.2s5.1-3.1,4.8-4.4
					s0.7-7.3,2.4-7.7s6.2-2.2,11-2.2s25.6-0.2,26.9-0.2s6.8,3.3,6.6,4.6s0.4,9.4,0.4,13.1s0,8.4,2.6,8.4s4.8,7.7,5.9,8.1
					s7.7,1.5,11,0s4-5.1,7.3-5.9s14.7,2.2,16.8,1.8s2.2,8.8,6.2,9.2s19.4,1.1,23.8,0.4s13.9,2.9,15.8,5.1s2.9,6.6,5.1,8.8
					s6.2,7,6.2,8.8s1.8,9.5,4.8,11.3s7.3,1.1,9.5,1.1s4-4.8,4.8-7.3s5.9-9.9,8.1-9.2s8.1-0.7,9.5-0.7s9.9,4.8,11,7.7
					s8.4,5.1,10.3,8.1s4.8,4.8,7.7,7.7s4,7.7,7.7,9.9s11.4,7.7,11.4,9.9l0,0c1.7-0.5,3.3-1.3,4.8-2.4
					C1304.2,916.6,1315.7,905.1,1316.8,898.2z"/>
				<path class="st2" d="M808.5,281.7c1.8-2.6,4.4-13.2,7.9-16.7s14.1-7.9,13.2-16.7s3.5-23.8-1.8-28.2s-10.6,0.9-15.9-2.6
					s-7.9-10.6-14-11.5s-8-10.6-8-15.9s1.8-15,4.4-17.6s9.7-11.4,5.3-15s-8.8-11.5-14.1-9.7s-7.9,15.9-12.3,15s-10.6-7.1-13.2-12.3
					s-2.6-16.7-10.6-15s-22,0.9-28.2,0s-16.7,3.5-22-3.5s-8.8-15-16.7-12.3s-12.3,0.9-17.6,7.1c-5.3,6.2-9.7,11.4-11.5,18.5
					s-13.2,17.6-17.6,13.2s-13.2-11.5-15.9-8.8s-11.5,8.8-16.7,13.2s-20.3,10.6-22.9,6.2s-7.9-7-10.6-8.8s-2.6-1.8-8.8-2.6
					c-3.5-0.4-7.1-0.2-10.5,0.5c-0.1,6.2-0.4,13.3-0.2,15.3c0.2,2.9,3.2,7.1,6.6,8.8s4.4,3.2,10,6.1s8.5,4.4,12.7,6.6s12,9.5,12,9.5
					s12.7,7.1,14.7,8.3s6.1,7.3,9.3,7.3s8.1-1.2,8.5,5.9c0.4,4.8,1.1,9.7,2.2,14.4c0.5,2.9-4.9,3.7-6.1,6.6s-2,5.9-1.5,12.4
					s0,10.5,0.5,14.2s1.7,10.2,4.2,11.5s6.8,4.9,6.6,9s-2.2,5.9,3.4,8.3s9.7,3.2,11.4,5.9s12-1.7,12.2-2.5s1.5-5.1,2-7.6
					s4.6-5.4,4.6-8.3s4.4-6.1,6.6-5.6s15.6-0.5,17.1,0s1.7,8.5,3.9,10.5s1.7,6.8,5.6,6.8s9.8-0.2,10.3-3.4s1.7-7.6,4.6-7.8
					s9.3-0.7,8.8,2s3.7,4.9,4.4,6.6s3.4,5.6-0.5,8.5s-0.7,7.1-0.5,7.8s6.8,1.5,11.7,1.7s9.3-3.7,10,2.2s3.4,10.2,4.6,10.5
					s4.9,4.1,8.5,3.4s9,1.5,9.8-1.7s-1-10,0.5-11s3.4,0.5,5.4-2.9s2.4-6.3,4.6-6.3s7.8-0.7,9.5-3.7s4.4-5.1,6.8-4.9
					c2.7,0.2,5.4,0.2,8.1,0.1c-0.2-4.2-0.3-8.1-0.3-9.4C803.2,289.6,806.8,284.3,808.5,281.7z"/>
				<path class="st2" d="M2346.9,486.9c-1.8-2.2-2.2-9.5-6.2-9.5s-3.3-6.6-6.6-7.3s-8.4,1.8-9.5-1.1s-1.8-5.9-3.3-8.4
					s-2.6-8.4-1.1-9.9s7.7,1.1,8.8-1.5s4-8.4,2.2-11.4s-4-4.4-8.4-7.7s-2.9-9.5-8.4-9.5s-8.8,1.5-12.1-0.4s-2.9-8.1-3.3-10.6
					s1.1-24.2-1.1-24.2s-5.1-8.8-8.4-9.5s-6.6,1.8-11.7,1.8s-2.6,5.1-6.6,5.5s-10.3,2.2-14.7,1.8s-2.6-4.8-5.9-4s-8.4,0-8.8-5.1
					s1.5-20.1-1.8-20.1s-2.6-12.8-5.5-13.5s-15.4-3.3-24.2-2.9s-11.7-3.3-18.7-2.9s-7.3-4-11.7-3.3s-12.1,0-12.4-1.5
					s1.5-15.4-1.8-16.5s-6.2-7-7-12.1s-3.7-11.7-7.7-12.5s0.4-8.4-7.3-7.3s-2.9-5.9-15-5.1s-23.8,0-27.8-4.4s-10.6-5.1-12.1-12.5
					s-0.4-11-4.4-15.4s-7.3-4-8.4-7.7s-10.6-7-11.7-9.9c-1.9-4.5-3-9.4-3.3-14.3c-0.7-8.1-1.8-13.2-4.8-13.2s-26.4,0.7-26.4-1.1
					s-1.1-26.8-0.7-28.9s-4.8-5.1-4.8-11s0.4-12.4-2.6-17.6s-2.6-8.8-8.4-11s-2.2-1.1-8.4-7s-11-5.5-9.9-9.2s1.8-7,4.4-8.8
					s8.1-0.7,8.8-4.8s4.4-9.5,0.7-10.3s-14.7,2.9-15.8-1.5s-1.5-10.6-0.4-13.6s8.4-1.5,13.2-2.2s11-1.1,9.9-4s-0.7-7.7,1.8-7.7
					s4.8-5.5,4.8-9.2s-4.4-5.5-7.3-8.1s-8.8-3.3-8.8-7.3s0-12.1-2.2-12.1s-9.2,1.1-11.7-2.9s0.4-7-8.1-9.9s-16.1-5.1-17.2-8.1
					s-11.3-9.9-14.3-12.5s-5.1-7.7-6.6-9.9s-3.3-3.7-7.7-4.4s-8.8-3.7-7.3-5.9s5.9-2.6,4.8-9.2s0-14.7-2.2-16.1s-4-7.7-10.3-9.2
					s-4.8-2.6-8.1-6.6s-6.2-4-7-7.3s-1.8-7.3,0.4-8.1s12.4,1.5,14.3,1.1s2.2-3.7,1.5-8.1c-0.6-3.3-1.5-7.8-0.6-9.6
					c-2.8-1-5.8-1.3-6.3-4c-0.8-4.2-6-9.4-9-10.6s-10.6-4.9-11-7.2c-0.8-3.3-1.8-6.6-3-9.8c-0.9-2.8-3.3-5.6-4.1-7.9
					c-5.4,2.1-11,4.1-14,4.6c-7,1.2-17.6,5.9-19.9-1.2c0,0-12.9-16.4-21.1-14.1s-12.9,8.2-19.9,10.5s-18.8,2.3-22.3,4.7
					c0,0-10.5,10.5-15.2,8.2c0,0-19.9-5.9-19.9-14.1s-7-16.4-14.1-17.6s-18.7-9.4-25.8-4.7s-12.9,15.2-8.2,18.7s12.9,16.4,12.9,16.4
					s-3.5,14.1,0,18.7s11.7,15.2,8.2,18.8s-10.3,5-13.5,4.3s-11.7,2.1-15.7,2.5s-8.2,2.1-11.1,1.1s-3.9-5.4-8.6-7.5
					s-9.7-5.7-9.7-8.9s-7.9-6.4-8.2-8.9s-6.8-3.9-8.6-3.6s-2.9,6.8-6.1,7.5s-1.4,3.6-6.8,3.2s-10,0-12.5,0.7s-2.1,3.9-6.1,5.7
					s-7.2,1.8-10,3.2s-1.8,6.1-5.4,7.5s-1.1,5.7,1.1,6.1s14.7,0.4,19.7,0.7s7.5,3.9,11.1,6.1s-2.8,8.2-1.8,10.4s-7.9,2.2-13.9,1.8
					l-6.1-0.4c0,0-5.4-4.6-6.8-1.4s-0.7,8.9-2.1,11.4s-5.7,3.2-9.3,2.1s-14.4-7.7-14.9-10.7s-6-6.5-7.5-14l-1.5-7.6
					c0,0-1-8.5-4.5-11c0,0-12-3.5-12-7s-5-7.5-8.5-9s-10.5-3-13-3.5s-9-6-13-11s-7.5-13.5-11-15c-1.9-0.9-3.9-1.5-6-2
					c0,0-5.5-0.5-10.5-7s-13.5-13.5-17-16.5c0,0-9.5-10.5-15-11c-4-0.4-11,0.6-15.3,0.4c-0.9,1.7-1.6,3-1.9,3.8
					c-1.9,4.8-14.3,15.2-19,19s-10.5,10.5-15.2,12.4s-17.1,0-20.9,1s-17.1-1-20.9-1s-2.9,17.1-1.9,22.8s-7.6,4.8-13.3,4.8
					s-6.7,7.6-10.5,10.4s-5.7,10.5-8.6,10.5s-15.2,0.9-20,0s-5.7,7.6-6.7,12.4s0,16.2,1,24.7s-4.8,14.3-10.5,15.2
					s-22.9-5.9-22.9-5.9s-13.3,1.9-18.1,1.9s-9.5-5.7-15.2-6.7s-17.1,1.9-19,5.7s-13.3-1-17.1-1.9s-14.3,2.8-18.1,7.6
					s-2.8,16.2,0,21.9s1.9,14.3,0,19s-12.4,15.2-14.3,19s-3.8,14.3-6.7,26.6s8.6,9.5,16.2,17.1s8.6,15.2,9.5,22.8
					s-1.9,12.3-4.8,18.1s-8.6,10.4-10.5,15.2s1,12.3,5.7,15.2s10.4,14.3,13.8,19.7c0.3-2.8,2.1,0.4,5.6,2.4c2.7,1.7,5.6,3,8.7,3.8
					c4.2,1.4,5.9,3.1,10.4,3.8s6.6,0,8.7-2.1s2.4-2.4,6.3-2.8s7-3.1,5.9-6.6s4.5-5.2,8.7-10.8s1.4-9.1,3.5-14.6s6.6-5.2,10.4-8
					s0.7-9,0-11.8s-5.2-5.2-8.4-5.6s-0.7-8-0.7-9.8s5.9-3.1,9.7-2.8s12.5,1.4,16,1.4s3.8,1.4,3.8,4.9s3.1,2.1,7.3,3.8
					s4.9,2.8,7.7,4.2s4.9-4.2,7.3-5.2s4.2-5.6,7.7-6.6s3.1,4.2,1.7,8s1.4,6.6,1.7,10.4s3.5,3.1,9.4,2.4s3.5-3.8,4.5-6.6
					s1.7-1.7,6.6-0.3c4.1,1.2,8.4,1.5,12.5,0.7c4.2-0.7,2.8,4.5,3.1,8.7s5.9,2.8,9.4,3.1s2.8-5.9,4.2-9.4s8.7,1,11.8,0.7
					s4.2,2.1,4.9,5.6s-0.3,9.8-0.3,12.2s1.8,6.6,0,10.1s-1,3.1-1.4,4.9s-5.2,2.8-7.3,3.1s-2.1,5.9-1.7,9.4s4.5,2.8,5.2,5.2
					s2.4,4.2,4.9,4.2s3.8-3.5,6.3-5.9s5.2-1.7,7-1.7s4.9,1,5.9,3.1s-1.7,8.4-1.7,11.8s3.8,3.1,6.6,4.2s8.3,0.4,12.9,0
					s5.9,1.4,7.7,0.7s3.1-9,3.1-12.2s3.5-3.1,5.2-6.3s2.4-7.7,4.2-9.1c1.8-1.5,4.3-1.3,5.9,0.4c1.8,1.7,5.9,3.8,7.7,6.3
					s-0.3,14.3-0.3,17.4s1,8.7,3.5,10.1s0,7,0.7,11.5s5.2,8.4,5.9,12.5s1.4,10.1,0.3,14.6s-9.4-0.7-11.5,0.4s-3.8,4.5-2.8,8.7
					s2.8,0,5.9,1.7s1.7,8.7,4.2,12.2s-1.4,6.6-1.4,9s-6.3,4.5-6.3,7.7s0.7,26.5,0.7,29.2s3.8,3.5,7.3,5.2s6.6,1.7,9,4.5
					s4.2,3.8,8.7,4.2s7,1.4,11.5,1.4s0.7,6.3,1.4,10.1s-2.8,7.7-4.2,9.4s-4.5,3.5-5.9,5.6s1.7,5.6,4.2,7s4.9,4.9,8.7,5.9
					s7.7,8.4,10.4,11.5s4.5,4.5,9.4,7s7,7.3,8.7,8.7s5.6,6.3,5.6,8.7s-0.3,11.5-0.7,15.7s-1.7,7.3-3.5,8s-3.8,3.8-4.2,8s4.9,7,7.7,8
					s-1.7,8-1.7,11.8s0.3,10.8-0.3,14.3s3.1,5.9,6.3,7.3s4.5,4.9,8.4,5.6s3.5,9.7,3.8,12.2s-1,9.4-1.4,12.9s-4.9,2.4-7.7,2.4
					s-6.6-4.2-9.4-3.5s-4.9-5.9-7.3-5.6s-1.8,5.6-2.4,9.7s-4.9-0.3-6.6-0.3s-11.1-1.8-11.1-5.6s-3.8-6.6-6.3-6.3s-5.6,5.6-7.7,8.4
					s-4.5,3.8-4.5,7s1,8,3.5,10.8s2.1,6.3,2.8,11.1s-1,7.7-2.8,9s-2.8,3.1-3.1,9.4s-1,11.1-1,13.9s-4.9,4.2-7.7,4.2
					s-10.8,1.4-15.3,1.4s-10.4,1.4-12.2,1.7s-5.9,9-5.9,13.9s-5.6,6.3-5.9,9.4s-6.3,2.4-8.7,2.4s-7,3.5-7,6.3s-6.3,6.3-8.7,6.3
					s-2.1,8.4-1.7,13.6s4.5,5.9,8,10.4s5.2,9.4,10.8,11.1s5.6,7.7,7.7,9s1.1,8.4,1.7,16.7s-0.7,49.1-0.7,53.6s2.8,4.5,8,3.5
					s4.2,3.5,7.3,4.5s1.4,8.7,1.7,13.2s3.1,15,3.5,19.5s-3.1,5.6-5.2,7.3s-5.9,4.5-5.9,7v18.1c0,4.5,3.8,4.9,8.7,4.9
					s2.1,5.2,2.1,8.7s-0.7,9-3.8,10.4s-10.4,1.4-11.8,2.1s-1.7,5.9-1.7,9s5.6,8,9.8,8.4s4.9,7,8,9.4c2.9,2.4,4.9,5.7,5.6,9.4
					c0.3,2.8-1.7,8-4.2,9.4s-5.9,4.2-5.6,7s-5.8,7.4-9.2,7.4s-11.5-13.8-17.3-15s-20.8,2.3-26.5,2.3c-7.1,0.2-14,2.6-19.6,6.9
					c-5.8,4.6-12.7-2.3-16.2,3.5s-31.2,11.5-38.1,13.8s-10.4,11.5-11.5,18.5s-12.7,18.5-16.2,21.9c-1.4,1.1-3.1,1.9-4.8,2.4
					c0,2.2-0.4,17.6-0.4,20.9s3.7,8.8,5.9,11.7s9.2,2.2,10.6,4s6.6,2.9,9.5,2.2s10.3-5.5,10.6-9.2s7-9.2,9.5-11.4s5.9-8.1,5.9-12.1
					s-1.1-12.8,1.1-13.2s5.1-2.9,6.6-6.6s5.5-8.1,7.7-9.9s8.1-5.9,10.6-6.2s6.6,5.9,8.4,5.9s6.2,4.4,10.3,4.8s6.6,5.5,11,5.5
					s16.1,0.7,18.3,2.9s5.1,0,6.2,2.9s-1.1,20.5,0,22.7s7,4.8,9.9,6.2s3.3,6.2,7.7,6.6s6.6,4,5.9,6.6s-2.2,8.1-3.3,8.4
					s-4,5.9-3.7,11.4s-0.7,11,2.9,12.5s8.4-3.7,10.3,0.4s1.1,11,2.2,13.2s6.6,7,6.6,8.4s4.8,8.4,7.3,8.8s9.2-0.7,11-1.5
					s3.3-8.1,5.5-8.8s5.9-7,8.8-6.6s11-2.9,14.7-3.3s8.4,0.4,9.2-2.6s5.5-5.1,5.1-7.3s-1.5-23.1-2.2-26.4s-3.3-5.9-4-11.3
					s-0.4-21.6-2.2-22s-6.2-0.7-6.6-2.9s-0.7-12.5-0.7-15s1.8-8.1,1.8-8.1s4.4-1.5,5.1-3.3s4-3.7,5.9-5.1s6.2-8.8,8.4-8.1
					s4.4-3.7,6.6-4.4s8.8,0.4,8.8,0.4c-0.2,3.5-0.1,7.1,0.4,10.6c0.7,6.6-3.3,8.4-5.1,10.6s-3.3,8.4-1.8,10.3s3.3,1.1,5.9,2.2
					s7-0.7,6.6,2.9s3.7,3.7,6.2,4.8s8.8,2.6,9.9,0s1.5-6.2,0.7-8.1s0.7-7.3,1.8-7.7s7.3,0,7.3,0s5.1,5.9,8.1,7s7.7,0.7,10.2,2.2
					c3.3,2.1,6.5,4.4,9.5,7c2.6,2.2,5.5,5.1,8.1,4.8s11.3-3.7,11.7-5.5s3.7-6.2,7.3-7s5.9-7.3,9.2-8.1s13.6-0.7,17.9-1.1
					s7.7-0.4,8.4,2.2c0,0,5.9,15,1.8,14.7s-7.7,1.1-7.7,5.1s0.7,9.5-1.8,10.6s-3.3,4.8-2.9,7.7s-1.5,12.5,0,12.5s5.9,3.7,9.5,3.3
					s11.4-1.5,13.9-1.1s4.8-5.1,7-6.2s7-1.8,19.4-1.5s20.5-0.7,20.2,2.2s4,6.2,4.8,7.3s-0.7,5.5,0.7,6.2s10.3-0.7,10.3-2.2
					s3.3-4,7.3-4.4s9.9,0.7,12.5-1.1c2.6-1.7,4.6-4.2,5.9-7c1.8-3.7,7.7-7,8.4-9.9s0.7-7.7,2.6-11s5.5-4.4,6.6-8.1
					s3.3-13.9,5.9-13.2s5.9,5.9,9.2,4.4s11.7-1.5,14.7-1.1s4.8-4.8,4.8-6.6s0.4-8.1,2.9-8.4s4-9.9,5.9-9.9s6.6,1.1,9.9,0.7
					s6.6,4.4,11,4s8.4-5.1,12.8-4.8s35.2-1.1,43.2-1.1s20.5-3.3,22,0.4s7,5.1,8.4,5.1s8.4,4,11.3,4s8.1-2.6,7.3-4.8s2.9-7,2.9-10.3
					s1.1-12.8,0-17.2s2.2-7.7,3.7-9.2s3.3-5.1,5.5-5.9s5.1-2.9,9.5-3.3s11.7,4.4,16.5,4.4s19.8,0.7,22.7,0.7s2.2,5.5,4,7.7
					s6.6,2.6,6.6,5.1s0.4,12.5,5.5,13.5s21.6,0.4,27.5-0.4s12.1-1.1,13.6-2.2s5.5-4.8,8.8-4.4s12.4,0,15.8,0.4s1.8,5.9,4.4,7.7
					s0.4,5.1,3.3,6.6s4.8,2.2,4.4,7s-1.8,22.7,0.7,24.9s4.8,8.1,8.8,8.4s2.9,7.3,6.6,8.1s5.5-1.5,8.1,1.8s5.9,5.5,10.3,5.1
					s14.6-0.4,17.2-0.4s2.6-4.4,5.1-4.4s6.6-2.6,5.5-4.4s-1.8-21.2-2.6-27.1s4.4-6.6,4-10.6s-1.1-7.7,1.5-7.7s7.3-1.5,6.6-4.4
					s1.5-11-1.5-11s-5.1,0.7-8.4-0.7s-5.1-6.2-4-9.9s4-10.6,3.3-12.1s-2.9-7.7-4.8-7.3s-2.9,2.9-5.9,5.9s-7,8-9.5,7
					s-5.9-5.5-7.7-5.1s-4-4-4-5.5s1.1-10.6,0.7-15.4s-1.1-13.6-2.6-15s-0.7-8.1-1.1-11.7s7-2.9,8.1-4s2.9-9.2,5.9-9.2s4-6.2,4-9.2
					s-5.5-5.9-8.4-5.9c-3.9-0.3-7-3.2-7.7-7c-0.7-4.4-1.8-9.5-2.2-11.7s-7.7-3.7-7.3-9.2s-3.3-12.1-7.3-15.8
					c-4.3-4.2-7.8-9-10.6-14.3c-1.5-3.3-1.1-12.8-3.7-14.3s-7.3-0.7-7.3-6.2s-2.6-9.2,0.4-10.6s10.6-1.5,13.2-4.4s7.7-5.1,7.3-10.3
					s-0.7-19,0.7-19.4s35.5-0.4,36.6,0s1.5-11,1.5-15s5.1-2.9,8.8-2.9s36.6-0.4,37-1.5s5.1-2.6,8.8-5.5s6.2-9.2,10.2-9.5
					s8.4-1.8,10.6-5.5s-1.1-8.1,4-7.7s9.2-8.8,13.9-9.5s7.3-5.5,7.3-8.8s-2.2-13.2-2.2-14.7s-4.4-2.6-4.4-7s1.1-11.7-2.9-12.8
					s0-8.1-4-9.9s-4.8-7.7-4.8-10.6s8.8,2.2,11.4-0.4s6.6-9.5,9.2-8.4s7.3,0.4,9.9-2.6s2.2-7,4.8-8.4s7.3-5.1,7.7-8.8
					s8.1-6.6,10.6-6.6s7.3,4.4,7.7,7.7s2.6,7.3,5.5,7.3s7,1.5,12.8,1.5s18-1.8,18-3.3s4.4-2.9,4-9.2S2348.7,489.1,2346.9,486.9z"/>
				<path class="st2" d="M1047.1,130c0.8-4,7.9-10.3,12.7-15.1s4-13.5,3.2-19.1s-8-14.3-11.1-15.9s-7.9-9.5-8.8-15.9
					s-1.6-11.1-1.6-19.1s-2.4-19.9-2.4-26.2s-4.8-16.7-6.3-23s-6.4-11.9-11.9-12.7s-10.3-2.4-11.1-4.8s-13.5-1.6-17.5-1.6
					s-22.2,3.1-24.6,3.1S954.1-12.2,950.9-9s-9.5,8.7-12.7,8.7s-16.7,4-20.7-0.8S912-11.4,908-16.2s-7.9-13.5-6.3-17.5
					s8.8-9.5,14.3-11.9s12.7-7.2,15.9-8s-1.6-9.5-1.6-14.3c0.1-5.6,0.9-11.3,2.4-16.7c1.6-5.6,2.4-11.9,12.7-9.5s7.2,0.8,11.1,0
					s4-11.9,8.8-15.1s13.5-4.8,15.1-8.7s11.1-15.1,5.6-16.7s-7.2-7.1-10.3-8.7c-5.1-2.2-10.4-3.8-15.9-4.8
					c-4.8-0.8-3.2-10.3-4.8-16.7s-10.3-6.4-11.9-9.5s-4-10.3-0.8-14.3s4-6.4,8.7-11.9s3.2-15.9,4-19.1s9.5,3.2,15.1,7.9
					s11.1,1.6,15.9,3.2s3.2-13.5,4-20.7s-2.4-12.7-4.8-19.1s-4.8-16.7-5.6-19.1s-13.6-8.7-16-11.1s-2.4-15.1,0-19.9
					s-8.7-16.7-11.1-16.7s-8.7-7.9-12.7-7.9s-4-13.5-4-15.9s-7.2-11.9-9.5-12.7s-4-12.7-8.7-11.9s-4.8,10.3-4.8,15.1
					s-0.8,20.7-4.8,20.7s-10.3,4-14.3,6.4s-1.6,11.9-1.6,18.3s-1.6,9.5-5.6,13.5s-14.3,5.5-18.3,5.5s-9.5,4.8-14.3,5.6
					s-16.7,6.4-19.9,6.4s-8,8.7-8,11.1s-4,17.5-7.2,18.3s-26.2-2.4-30.2-1.6s-19.1,11.9-22.2,13.5s-12.7,4.8-16.7,9.5
					s-13.5,1.6-16.7,3.2s-10.3,1.6-12.7,9.5s-11.1,7.1-15.9,11.1s-0.8,8.7,0,14.3s-6.4,7.1-9.5,8s-10.3-4.8-12.7-7.1
					s-10.3,4.8-12.7,9.5s-2.3,12.6,2.4,15.8s8.7,10.3,11.1,15.9s1.6,14.3-4,16.7s-17.5,0-23.8,1.6s-11.9-4.8-14.3-5.6
					s-7.2-10.3-11.9-8.7c-5.4,1.6-11,2.7-16.7,3.2c-2.4,0-8.7,11.1-12.7,12.7s-4.8-9.5-6.3-12.7s0-7.9-0.8-10.3s-8.7-4-10.3-0.8
					s2.4,27,0,27.8c-1.7,0.6-7.6-2.2-12.3-4.7c0.3,4.3,0.4,7.2-0.7,8.8c-2,2.7-2.9,5.4-7.1,7.6s-4.6,3.4-10.8,6.3s-6.6,2.7-9.5,7.3
					s0.7,13.7-1,18.1s-1.7,12-3.7,16.4c-2.5,6-3.6,12.4-3.4,18.8c0.2,7.6,1.5,23.9,1.5,33.2s0,16.9,1.7,18.8s3.2,5.1,2.9,9.8
					s2,6.4,4.4,8.8s17.6,15.1,20.8,17.3s4.4,0.5,8.1,3.7s5.6,3.9,9.3,6.8s8.1,3.4,7.1,7.6S589,83.3,589,86.3c-0.1,4-2,7.8-5.1,10.3
					c-3.7,2.7-3.2,5.1-9.3,5.4s-8.3,0.2-9.5,4.4s-2.2,1.7-4.6,6.3s-4.6,4.2-3.4,9.8s0.2,5.9-2,9.3s-2.7,7.8-2.9,9.5s-2,3.2-1.7,9.3
					c0.1,1.9,0,4.6,0,7.4c3.5-0.7,7-0.8,10.5-0.5c6.2,0.9,6.2,0.9,8.8,2.6s7.9,4.4,10.6,8.8s17.6-1.8,22.9-6.2s14.1-10.6,16.7-13.2
					s11.5,4.4,15.9,8.8s15.9-6.2,17.6-13.2s6.2-12.3,11.5-18.5s9.7-4.4,17.6-7.1s11.5,5.3,16.7,12.3c5.3,7,15.9,2.6,22,3.5
					s20.3,1.8,28.2,0s7.9,9.7,10.6,15s8.8,11.4,13.2,12.3s7-13.2,12.3-15s9.7,6.2,14.1,9.7s-2.7,12.3-5.3,15s-4.4,12.3-4.4,17.6
					s1.8,15,7.9,15.9s8.8,7.9,14.1,11.4s10.6-1.8,15.9,2.6s0.9,19.4,1.8,28.2c0.9,8.8-9.6,13.2-13.2,16.8s-6.2,14.1-7.9,16.7
					s-5.3,7.9-5.3,11.5c0,1.3,0.1,5.1,0.3,9.4c0.7,0,1.3-0.1,1.6-0.1c1.5-0.2,9,4.9,11.5,6.1s3.2,2.9,4.2,5.4s2.7,2.4,5.6,2.9
					s4.9,2.2,7.3,5.1c2.1,2.7,4.7,5,7.6,6.8c2.2,1.2,6.1,4.2,7.3,7.1s5.9,3.7,8.8,3.9s18.6-1.5,19.3-1.2s1,5.1,2.7,6.4
					s6.3,1.5,6.6,4.2s3.4,2.4,4.9,6.6s1.7,7.3,2.4,9s-2,5.4,3.9,5.1s18.1-1.5,23.2-1s3.9-4.4,7.6-5.9s5.4-3.2,8.3-1.7
					s-0.7,8.1,4.4,7.8s8.8,0.7,12.5-1.5s1.7-6.1,5.6-5.4s5.9,2.7,7.6,6.8s1.2,10,4.6,12.9s6.8,3.2,9.5,5.1s4.6,3.9,4.6,5.9
					c0.1,1.6,0.4,3.2,0.8,4.7c3.3-0.5,3.4,0.6,6.7-1.3c4.2-2.4,7-4.5,7.7-8s6.6-4.5,10.5-6.6s8-9,10.1-14.3s5.6-8.7,9-12.9
					s7-8.4,7-11.5s1.1-12.5,0.3-17.8s-1-10.5,0-13.9s4.5-0.7,10.4-3.1s5.6-6.3,9.7-8s3.8-6.3,3.5-12.9s1.1-27.8,1.8-41.4
					s1-25.1-1-25.4s-7.3-4.5-10.8-5.6s-2.9-9-2.9-13.6s-1.7-15.3-1.4-22.3s1.1-23.3,0.7-25.8c-0.2-1.7-0.1-5.7,1.1-8
					c-0.6-1.6-1-3.3-1.3-5C1045.5,130,1046.3,134,1047.1,130z"/>
				<path class="st2" d="M989.9-229.1c-0.8,7.1,0.8,22.2-4,20.7s-10.3,1.6-15.9-3.2s-14.3-11.1-15.1-7.9s0.8,13.5-4,19.1
					s-5.6,7.9-8.7,11.9s-0.8,11.1,0.8,14.3s10.3,3.2,11.9,9.5s0,15.9,4.8,16.7c5.5,1,10.8,2.6,15.9,4.8c3.2,1.6,4.8,7.1,10.3,8.7
					s-4,12.7-5.6,16.7s-10.3,5.6-15.1,8.7s-4.8,14.3-8.8,15.1s-0.8,2.4-11.1,0s-11.1,4-12.7,9.5c-1.5,5.4-2.3,11-2.4,16.7
					c0,4.8,4.8,13.5,1.6,14.3S921.5-48,916-45.6s-12.7,7.9-14.3,11.9S904-21,908-16.2s5.6,10.3,9.5,15.1s17.5,0.8,20.7,0.8
					s9.5-5.6,12.7-8.7s14.3-11.1,16.7-11.1s20.7-3.2,24.6-3.2s16.7-0.8,17.5,1.6s5.6,4,11.1,4.8c5.6,0.8,10.3,6.4,11.9,12.7
					s6.3,16.7,6.3,23s2.4,18.3,2.4,26.2s0.8,12.7,1.6,19.1s5.6,14.3,8.8,15.9s10.3,10.3,11.1,15.9s1.6,14.3-3.2,19.1
					s-11.9,11.1-12.7,15.1s-1.6,0,0,10.3c0.3,1.7,0.7,3.4,1.3,5c0.3-0.9,1.1-1.5,2-1.7c3.1-0.4,4.9,5.2,8.3,5.9s5.6,3.5,9.4,5.9
					s3.8,2.1,7.7,3.8s4.9,10.8,5.6,13.6s6.6,5.6,8.7,3.8c2.6-2.3,6.2-2.9,9.4-1.8c4.2,1.4,5.9-3.1,4.5-7s-3.1-7-7.3-8
					s-2.1-8.4-2.1-10.4s0-8,3.5-10.1s1.7,2.4,7.7,4.9s4.9,6.3,8,9.4s5.2,5.2,8.3,6.3s6.3,5.9,8.3,7.6s5.9,1.8,11.5,4.2
					s2.1,3.8,2.4,7.7s-3.1,6.6-4.9,9s-1.8,5.2-2.8,5.2s-1.4,7.3-1.4,10.8s-2.8,4.2-5.2,4.9s-0.3,8.7,0,11.8s6.3,1.7,10.4,1.7
					s3.1-3.5,5.6-6.3s4.9-3.4,10.9-2.6s6.3-2.8,7.7-8.4s0.7-7.3,1.4-9.8s2.4-9,1.7-14.6s-2.4-9.4-2.1-12.9s2.4-1.4,6.6-0.7
					s3.8,4.2,5.9,7s1.4,7,3.1,8.7s4.5,0.4,8,1.4s6.3,0,8.7-1.4s1-9,2.4-11.1s0.7-10.4,1-13.2c-3.3-5.5-9-16.9-13.8-19.7
					s-7.6-10.4-5.7-15.2s7.6-9.5,10.5-15.2s5.7-10.5,4.8-18.1s-1.9-15.2-9.5-22.8s-19-4.8-16.2-17.1s4.8-22.8,6.7-26.6
					s12.4-14.3,14.3-19s2.8-13.3,0-19s-3.8-17.1,0-21.9s14.3-8.5,18.1-7.6s15.2,5.7,17.1,1.9s13.3-6.7,19-5.7s10.5,6.7,15.2,6.7
					s18.1-2,18.1-2s17.1,6.7,22.8,5.7s11.4-6.7,10.5-15.2s-1.9-20-1-24.7s1.9-13.3,6.7-12.4s17.1,0,20,0s4.8-7.6,8.6-10.5
					s4.8-10.4,10.5-10.4s14.3,1,13.3-4.8s-1.9-22.8,1.9-22.8s17.1,1.9,20.9,1s16.2,0.9,20.9-1s10.5-8.6,15.2-12.4s17.1-14.3,19-19
					c0.3-0.7,1-2.1,1.9-3.8c-1.5-0.1-2.7-0.3-3.3-0.9c-2-2-5-7.5-5-13.5s1.5-26.6,1-32.1s-0.5-19-3-19.5s-17.5-1-22.6-1
					s-8-1.5-11.5-6s-7.5-6-8.5-11s-0.5-15-1.5-21s6-13,8-16.5s7.5-7,9.5-10s16-3.5,13.5-7.5s0.5-9-5.5-10s-12,0.5-18-0.5s-9-1-10-5
					s4-9.5,4-12s4.5-8,6.5-9s8.5-8.5,8.5-11.5s6.5-4,9.5-4.5s14.5-1,18-0.5s8-1.5,7-6.5s-0.5-16-2-17s-4-5.5-7.5-7s-7.5-8-10.5-10
					s-3.5-6.5-0.5-6.5s12-1,15.5-0.5s8-6,10.5-6.5s5-6,8.5-6s5.5-4.5,4-8s-1-9.5-7.5-11.5s-7.5-7-12-10.5s-6.5-7.5-12.5-10.5
					s-12-3.5-13.5-8s-1-11-2.5-16.5c-1-3.6,1.2-8.4,3.8-11.6c-5.3-2-5.1-2.2-7.2-4.2c-2.3-2.3-2.9-3.5-5.2-7.5s-8.1-2.9-13.4-1.2
					s-4.7,7-7,9.9s-5.8,1.2-11,1.8s-8.7-3.5-11-8.1s-4.1-7-7.6-8.7s-8.1,7-10.5,9.3s-7.6,8.1-7.6,12.2c0,3.8,2.7,7,6.4,7.5
					c3.5,0.6,8.1,5.2,11.6,8.1s-0.6,7.6-1.7,12.2s-8.7,2.3-15.1,1.2s-7.6-1.7-9.3-7.6s-7.6-4.1-12.2-4.1c-3.7,0.1-7.2-1.7-9.3-4.6
					c-1.8-2.3-2.9-10.5-2.9-16.3s1.2-3.5,7-5.8s9.3-7,12.2-10.5s-3.5-8.7-4.7-11s-3.5-13.4-3.5-19.8s6.4-11.6,12.8-14.5
					s5.8-9.3,11.1-14s2.9-9.9,3.5-16.3s-7-3.5-11.6-4.7s-12.8,2.9-16.3,4.7s-5.2,6.4-8.7,7c-6.4,0.8-12.8,1-19.2,0.6
					c-5.8-0.6-12.8-2.9-15.1-7.6c-1.2-2.5-2.8-4.4-4-6.3c-3,3.3-6,7.2-7.4,8.6c-2.4,2.5-4.4,5.4-5.4,10.8s0.5,16.1,0,18.6
					s-4.4,5.9-6.3,6.8s-3.4,9.3-4.4,10.8s-7.8,3.9-11.2,3.9s-4.4,7.8-3.9,10.8s-4.9,8.3-6.8,9.3s-5.9-0.5-8.3-0.5
					s-14.7-14.2-14.7-19.5s-4.4-9.3-6.8-8.8s-8.3-1.5-11.7-0.5s-9.3,4.9-10.3,7.8s-2,15.1-1.5,18.6s-1,10.7-2.4,13.7
					s-7.8,5.4-12.2,6.8s-11.7-0.5-17.1-1s-20,3.9-23.9,4.9s-8.3,1.5-12.2,2.4s-4.9,8.8-5.9,14.7s-4.9,9.3-2.9,11.2s2.4,5.9,3.9,8.8
					s5.4,1,9.8-1.5s3.9-5.9,8.8-6.8s3.9,1,5.9,5.9s1.5,9.8,2.4,16.6c0.7,5.7-0.1,11.4-2.4,16.6c-1.5,2.9-3.4,11.2-4.4,14.2
					s-6.3,4.4-9.8,4.9s-11.2-0.5-16.1-0.5s-18.1-0.5-19.5-0.5s-6.3,2.4-6.8,5.4s0.5,12.7,0.5,18.6c-0.2,5.7-1.5,11.4-3.9,16.6
					c-2,4.4-2.9,11.7-3.4,15.1s-6.3,10.7-9.3,11.7s-9.8,5.9-12.2,8.3s-14.7,8.8-19.5,10.2c-4.6,1.5-8.9,4-12.4,7.3
					c-3.1,2.8-5.2,9.3-8,15.5s-5.9,8-6.9,9.7s-4.1,14.2-5.2,18s-1.4,12.4-2.4,15.9c-0.6,1.6-1.7,2.9-3.1,4c0.8,3,1.8,6.2,2.8,8.7
					C987.5-241.9,990.7-236.3,989.9-229.1z"/>
			</g>
		</g>
	</g>
</g>
<g id="Karte_rot">
	
		<linearGradient id="SVGID_00000080182585974240555990000008070438987784454573_" gradientUnits="userSpaceOnUse" x1="1176.0765" y1="985.8488" x2="1176.0765" y2="157.5601" gradientTransform="matrix(1 0 0 -1 0 1080)">
		<stop  offset="0" style="stop-color:#FFFFFF;stop-opacity:0"/>
		<stop  offset="0.1" style="stop-color:#FDF9F8;stop-opacity:4.000000e-02"/>
		<stop  offset="0.25" style="stop-color:#F8E7E3;stop-opacity:0.15"/>
		<stop  offset="0.45" style="stop-color:#F0CBC3;stop-opacity:0.33"/>
		<stop  offset="0.67" style="stop-color:#E5A495;stop-opacity:0.57"/>
		<stop  offset="0.92" style="stop-color:#D6735B;stop-opacity:0.89"/>
		<stop  offset="1" style="stop-color:#D16146"/>
	</linearGradient>
	
		<path style="fill:url(#SVGID_00000080182585974240555990000008070438987784454573_);stroke:#FFFFFF;stroke-width:0.25;stroke-miterlimit:10;" d="
		M1316.8,898.2c1.2-6.9,4.6-16.2,11.5-18.5s34.6-8.1,38.1-13.8s10.4,1.2,16.2-3.5c5.7-4.3,12.5-6.7,19.6-6.9
		c5.8,0,20.8-3.5,26.5-2.3s13.8,15,17.3,15s9.6-4.6,9.2-7.4s3.1-5.6,5.6-7s4.5-6.6,4.2-9.4c-0.7-3.7-2.7-7-5.6-9.4
		c-3.1-2.4-3.8-9.1-8-9.4s-9.8-5.2-9.8-8.4s0.3-8.3,1.7-9s8.7-0.7,11.8-2.1s3.8-7,3.8-10.4s2.8-8.7-2.1-8.7s-8.7-0.3-8.7-4.9V764
		c0-2.4,3.8-5.2,5.9-7s5.6-2.8,5.2-7.3s-3.1-15-3.5-19.5s1.4-12.2-1.7-13.2s-2.1-5.6-7.3-4.5s-8,1-8-3.5s1.4-45.2,0.7-53.6
		s0.3-15.3-1.7-16.7s-2.1-7.3-7.7-9s-7.3-6.6-10.8-11.1s-7.7-5.2-8-10.4s-0.7-13.6,1.7-13.6s8.7-3.5,8.7-6.3s4.5-6.3,7-6.3
		s8.4,0.7,8.7-2.4s5.9-4.5,5.9-9.4s4.2-13.6,5.9-13.9s7.7-1.7,12.2-1.7s12.5-1.4,15.3-1.4s7.7-1.4,7.7-4.2s0.7-7.7,1-13.9
		s1.4-8,3.1-9.4s3.5-4.2,2.8-9s-0.3-8.4-2.8-11.1s-3.5-7.7-3.5-10.8s2.4-4.2,4.5-7s5.2-8,7.7-8.4s6.3,2.4,6.3,6.3s9.4,5.6,11.1,5.6
		s5.9,4.5,6.6,0.3s0-9.4,2.4-9.7s4.5,6.3,7.3,5.6s6.6,3.5,9.4,3.5s7.3,1,7.7-2.4s1.7-10.4,1.4-12.9s0-11.5-3.8-12.2
		s-5.2-4.2-8.4-5.6s-7-3.8-6.3-7.3s0.3-10.5,0.3-14.3s4.5-10.8,1.7-11.8s-8-3.8-7.7-8s2.4-7.3,4.2-8s3.1-3.8,3.5-8
		s0.7-13.2,0.7-15.7s-3.8-7.3-5.6-8.7s-3.8-6.3-8.7-8.7s-6.6-3.8-9.4-7s-6.6-10.5-10.4-11.5s-6.3-4.5-8.7-5.9s-5.6-4.9-4.2-7
		s4.5-3.8,5.9-5.6s4.9-5.6,4.2-9.4s3.1-10.1-1.4-10.1s-7-1-11.5-1.4s-6.3-1.4-8.7-4.2s-5.6-2.8-9-4.5s-7.3-2.4-7.3-5.2
		s-0.7-26.1-0.7-29.2s6.3-5.2,6.3-7.7s3.8-5.6,1.4-9.1s-1-10.4-4.2-12.2s-4.9,2.4-5.9-1.7s0.7-7.7,2.8-8.7s10.4,4.2,11.5-0.4
		s0.3-10.4-0.3-14.6s-5.2-8-5.9-12.5s1.7-10.1-0.7-11.5s-3.5-7-3.5-10.1s2.1-15,0.3-17.4s-5.9-4.5-7.7-6.3c-1.6-1.7-4.2-1.8-5.9-0.4
		c-1.7,1.4-2.4,5.9-4.2,9.1s-5.2,3.1-5.2,6.3s-1.4,11.5-3.1,12.2s-3.1-1-7.7-0.7s-10.1,1.1-12.9,0s-6.6-0.7-6.6-4.2
		s2.8-9.8,1.7-11.8s-4.2-3.1-5.9-3.1s-4.5-0.7-7,1.7s-3.8,5.9-6.3,5.9s-4.2-1.7-4.9-4.2s-4.9-1.7-5.2-5.2s-0.3-9.1,1.7-9.4
		s7-1.4,7.3-3.1s-0.3-1.4,1.4-4.9s0-7.7,0-10.1s1.1-8.7,0.3-12.2s-1.7-5.9-4.9-5.6s-10.4-4.2-11.8-0.7s-0.7,9.7-4.2,9.4
		s-9,1-9.4-3.1s1-9.4-3.1-8.7c-4.2,0.8-8.5,0.6-12.5-0.7c-4.9-1.4-5.6-2.4-6.6,0.3s1.4,5.9-4.5,6.6s-9,1.4-9.4-2.4
		s-3.1-6.6-1.7-10.4s1.7-9.1-1.7-8s-5.2,5.6-7.7,6.6s-4.5,6.6-7.3,5.2s-3.5-2.4-7.7-4.2s-7.3-0.3-7.3-3.8s-0.3-4.9-3.8-4.9
		s-12.2-1-16-1.4s-9.7,1-9.7,2.8s-2.4,9.4,0.7,9.8s7.7,2.8,8.4,5.6s3.8,9.1,0,11.8s-8.4,2.4-10.4,8s0.7,9-3.5,14.6
		s-9.7,7.3-8.7,10.8s-2.1,6.3-5.9,6.6s-4.2,0.7-6.3,2.8s-4.2,2.8-8.7,2.1s-6.3-2.4-10.4-3.8c-3.1-0.9-6-2.1-8.7-3.8
		c-3.5-2.1-5.2-5.2-5.6-2.4s0.3,11.1-1,13.2s0,9.8-2.4,11.1s-5.2,2.4-8.7,1.4s-6.3,0.4-8-1.4s-1-5.9-3.1-8.7s-1.7-6.3-5.9-7
		s-6.3-2.8-6.6,0.7s1.4,7.3,2.1,12.9s-1,12.2-1.7,14.6s0,4.2-1.4,9.8s-1.7,9.1-7.7,8.4s-8.3,0-10.8,2.8s-1.4,6.3-5.6,6.3
		s-10.1,1.4-10.4-1.7s-2.4-11.1,0-11.8s5.2-1.4,5.2-4.9s0.3-10.8,1.4-10.8s1-2.8,2.8-5.2s5.2-5.2,4.9-9s3.1-5.2-2.4-7.7
		s-9.4-2.4-11.5-4.2s-5.2-6.6-8.3-7.6s-5.2-3.1-8.3-6.3s-2.1-7-8-9.4s-4.2-7-7.7-4.9s-3.5,8-3.5,10.1s-2.1,9.4,2.1,10.4
		s5.9,4.2,7.3,8s-0.3,8.4-4.5,7c-3.2-1.2-6.8-0.5-9.4,1.8c-2.1,1.7-8-1.1-8.7-3.8s-1.7-11.8-5.6-13.6s-3.8-1.4-7.7-3.8
		s-5.9-5.2-9.4-5.9s-5.2-6.3-8.3-5.9s-3.5,7.3-3.1,9.7s-0.3,18.8-0.7,25.8s1.4,17.8,1.4,22.3s-0.7,12.5,2.8,13.6s8.7,5.2,10.8,5.6
		s1.7,11.8,1,25.4c-0.7,13.6-2.1,34.8-1.8,41.4s0.7,11.1-3.5,12.9s-3.8,5.6-9.7,8s-9.4-0.4-10.4,3.1s-0.7,8.7,0,13.9
		s-0.3,14.6-0.3,17.8s-3.5,7.3-7,11.5s-7,7.7-9,12.9s-6.3,12.2-10.1,14.3s-9.8,3.1-10.5,6.6s-3.5,5.6-7.7,8
		c-3.3,1.9-3.4,0.8-6.7,1.3c0.3,1.3,0.6,2.4,0.6,2.4s-7.3,8.7-9.8,10.8s-12.6,8.7-14,10.5s-5.9,8.4-5.9,10.1s0.7,32.1,1,33.9
		s-2.8,3.5-7,3.1s-18.2,1.4-18.2,1.4c-1.1,1.4-2,2.9-2.8,4.5c-0.7,1.8-7,3.5-7.3,4.5c-0.6,3.5-0.9,7-0.7,10.5
		c0.3,2.5-4.9,11.2-7.7,12.2s-8.4,5.2-9.4,7.3s-8.5,17.7-8.5,22.8s-8.8,35.2-12.5,42.5s-10.3,27.8-10.3,33s-4.4,28.6-5.9,33.7
		S856,669,851.5,675.6s-12.5,20.5-16.1,24.9s-8.8,10.3-8.8,13.9s2.2,16.8,6.6,20.5s10.3,4.4,11,8.1s2.2,11.7-2.9,13.2
		s-12.5,9.5-13.9,13.2s-12.5,23.4-14.7,27.8s-10.3,14.7-10.3,17.6s6.6,8.8,11,8.8c0,0,10.3,2.9,11,7.3s-3.7,16.1-3.7,16.1
		s-13.2,2.2-12.5,8.8s4.9,9,5.3,10.5s7.5,4.6,8.8,7.7s6.8,7.3,8.2,7.3s8.6-1.5,8.8-3.3s4.4-7.7,7-7.7s9,0.9,10.1,0.9
		s5.1,4.8,5.3,6.8s1.3,7,1.5,9.5s-2.9,5.9-2.4,8.8s0,9.9,1.1,10.1s9.2,1.8,9.7-0.2s2.2-6.4,5.1-7.3s10.1-1.3,11.9,0.7s6,2.4,6.6,4.4
		s4.8-0.5,5.3,1.8s6.6,3.5,13.4,3.5s18.1-0.4,20.3-1.3s6.8-3.1,7.5-5.3s5.5-8.2,7.5-8.4s7.7-3.5,9.5-4.6s4.8-5.5,6.4-6.6
		s10.6-5.5,12.3-5.5s11.7,7.3,13.9,11s5.1,7.7,6.2,9.7s2.7,3.5,6,4.8s13.2,0.2,17.6-0.2c4.4-0.4,15-1.5,17-2.2s6.4-6,7.5-6.8
		s6.4-4.2,9.2-4.6s9.3-9.2,9-10.8s-10.4-3.5-11.7-5.1s-7-3.3-9.5-3.5s-4.8-2.4-6.2-4.4s-4.6-4.2-6-5.1s-1.5-5.1-1.1-6.6
		s4.4-4.4,5.5-4.8s3.1-4.4,6.2-4.2s14.3,2.4,16.3,0.7s1.1-7.7,0.9-9.2s5.1-3.1,4.8-4.4s0.7-7.3,2.4-7.7s6.2-2.2,11-2.2
		s25.6-0.2,26.9-0.2s6.8,3.3,6.6,4.6s0.4,9.4,0.4,13.1s0,8.4,2.6,8.4s4.8,7.7,5.9,8.1s7.7,1.5,11,0s4-5.1,7.3-5.9s14.7,2.2,16.8,1.8
		s2.2,8.8,6.2,9.2s19.4,1.1,23.8,0.4s13.9,2.9,15.8,5.1s2.9,6.6,5.1,8.8s6.2,7,6.2,8.8s1.8,9.5,4.8,11.3s7.3,1.1,9.5,1.1
		s4-4.8,4.8-7.3s5.9-9.9,8.1-9.2s8.1-0.7,9.5-0.7s9.9,4.8,11,7.7s8.4,5.1,10.3,8.1s4.8,4.8,7.7,7.7s4,7.7,7.7,9.9s11.4,7.7,11.4,9.9
		l0,0c1.7-0.5,3.3-1.3,4.8-2.4C1304.2,916.6,1315.7,905.1,1316.8,898.2z"/>
</g>
<g id="Stromnetz">
	<g>
		<defs>
			<path id="SVGID_00000102520787121246364130000003088541991618255018_" d="M1316.8,898.2c1.2-6.9,4.6-16.2,11.5-18.5
				s34.6-8.1,38.1-13.8s10.4,1.2,16.2-3.5c5.7-4.3,12.5-6.7,19.6-6.9c5.8,0,20.8-3.5,26.5-2.3s13.8,15,17.3,15s9.6-4.6,9.2-7.4
				s3.1-5.6,5.6-7s4.5-6.6,4.2-9.4c-0.7-3.7-2.7-7-5.6-9.4c-3.1-2.4-3.8-9.1-8-9.4s-9.8-5.2-9.8-8.4s0.3-8.3,1.7-9s8.7-0.7,11.8-2.1
				s3.8-7,3.8-10.4s2.8-8.7-2.1-8.7s-8.7-0.3-8.7-4.9V764c0-2.4,3.8-5.2,5.9-7s5.6-2.8,5.2-7.3s-3.1-15-3.5-19.5s1.4-12.2-1.7-13.2
				s-2.1-5.6-7.3-4.5s-8,1-8-3.5s1.4-45.2,0.7-53.6s0.3-15.3-1.7-16.7s-2.1-7.3-7.7-9s-7.3-6.6-10.8-11.1s-7.7-5.2-8-10.4
				s-0.7-13.6,1.7-13.6s8.7-3.5,8.7-6.3s4.5-6.3,7-6.3s8.4,0.7,8.7-2.4s5.9-4.5,5.9-9.4s4.2-13.6,5.9-13.9s7.7-1.7,12.2-1.7
				s12.5-1.4,15.3-1.4s7.7-1.4,7.7-4.2s0.7-7.7,1-13.9s1.4-8,3.1-9.4s3.5-4.2,2.8-9s-0.3-8.4-2.8-11.1s-3.5-7.7-3.5-10.8
				s2.4-4.2,4.5-7s5.2-8,7.7-8.4s6.3,2.4,6.3,6.3s9.4,5.6,11.1,5.6s5.9,4.5,6.6,0.3s0-9.4,2.4-9.7s4.5,6.3,7.3,5.6s6.6,3.5,9.4,3.5
				s7.3,1,7.7-2.4s1.7-10.4,1.4-12.9s0-11.5-3.8-12.2s-5.2-4.2-8.4-5.6s-7-3.8-6.3-7.3s0.3-10.5,0.3-14.3s4.5-10.8,1.7-11.8
				s-8-3.8-7.7-8s2.4-7.3,4.2-8s3.1-3.8,3.5-8s0.7-13.2,0.7-15.7s-3.8-7.3-5.6-8.7s-3.8-6.3-8.7-8.7s-6.6-3.8-9.4-7
				s-6.6-10.5-10.4-11.5s-6.3-4.5-8.7-5.9s-5.6-4.9-4.2-7s4.5-3.8,5.9-5.6s4.9-5.6,4.2-9.4s3.1-10.1-1.4-10.1s-7-1-11.5-1.4
				s-6.3-1.4-8.7-4.2s-5.6-2.8-9-4.5s-7.3-2.4-7.3-5.2s-0.7-26.1-0.7-29.2s6.3-5.2,6.3-7.7s3.8-5.6,1.4-9.1s-1-10.4-4.2-12.2
				s-4.9,2.4-5.9-1.7s0.7-7.7,2.8-8.7s10.4,4.2,11.5-0.4s0.3-10.4-0.3-14.6s-5.2-8-5.9-12.5s1.7-10.1-0.7-11.5s-3.5-7-3.5-10.1
				s2.1-15,0.3-17.4s-5.9-4.5-7.7-6.3c-1.6-1.7-4.2-1.8-5.9-0.4c-1.7,1.4-2.4,5.9-4.2,9.1s-5.2,3.1-5.2,6.3s-1.4,11.5-3.1,12.2
				s-3.1-1-7.7-0.7s-10.1,1.1-12.9,0s-6.6-0.7-6.6-4.2s2.8-9.8,1.7-11.8s-4.2-3.1-5.9-3.1s-4.5-0.7-7,1.7s-3.8,5.9-6.3,5.9
				s-4.2-1.7-4.9-4.2s-4.9-1.7-5.2-5.2s-0.3-9.1,1.7-9.4s7-1.4,7.3-3.1s-0.3-1.4,1.4-4.9s0-7.7,0-10.1s1.1-8.7,0.3-12.2
				s-1.7-5.9-4.9-5.6s-10.4-4.2-11.8-0.7s-0.7,9.7-4.2,9.4s-9,1-9.4-3.1s1-9.4-3.1-8.7c-4.2,0.8-8.5,0.6-12.5-0.7
				c-4.9-1.4-5.6-2.4-6.6,0.3s1.4,5.9-4.5,6.6s-9,1.4-9.4-2.4s-3.1-6.6-1.7-10.4s1.7-9.1-1.7-8s-5.2,5.6-7.7,6.6s-4.5,6.6-7.3,5.2
				s-3.5-2.4-7.7-4.2s-7.3-0.3-7.3-3.8s-0.3-4.9-3.8-4.9s-12.2-1-16-1.4s-9.7,1-9.7,2.8s-2.4,9.4,0.7,9.8s7.7,2.8,8.4,5.6
				s3.8,9.1,0,11.8s-8.4,2.4-10.4,8s0.7,9-3.5,14.6s-9.7,7.3-8.7,10.8s-2.1,6.3-5.9,6.6s-4.2,0.7-6.3,2.8s-4.2,2.8-8.7,2.1
				s-6.3-2.4-10.4-3.8c-3.1-0.9-6-2.1-8.7-3.8c-3.5-2.1-5.2-5.2-5.6-2.4s0.3,11.1-1,13.2s0,9.8-2.4,11.1s-5.2,2.4-8.7,1.4
				s-6.3,0.4-8-1.4s-1-5.9-3.1-8.7s-1.7-6.3-5.9-7s-6.3-2.8-6.6,0.7s1.4,7.3,2.1,12.9s-1,12.2-1.7,14.6s0,4.2-1.4,9.8
				s-1.7,9.1-7.7,8.4s-8.3,0-10.8,2.8s-1.4,6.3-5.6,6.3s-10.1,1.4-10.4-1.7s-2.4-11.1,0-11.8s5.2-1.4,5.2-4.9s0.3-10.8,1.4-10.8
				s1-2.8,2.8-5.2s5.2-5.2,4.9-9s3.1-5.2-2.4-7.7s-9.4-2.4-11.5-4.2s-5.2-6.6-8.3-7.6s-5.2-3.1-8.3-6.3s-2.1-7-8-9.4s-4.2-7-7.7-4.9
				s-3.5,8-3.5,10.1s-2.1,9.4,2.1,10.4s5.9,4.2,7.3,8s-0.3,8.4-4.5,7c-3.2-1.2-6.8-0.5-9.4,1.8c-2.1,1.7-8-1.1-8.7-3.8
				s-1.7-11.8-5.6-13.6s-3.8-1.4-7.7-3.8s-5.9-5.2-9.4-5.9s-5.2-6.3-8.3-5.9s-3.5,7.3-3.1,9.7s-0.3,18.8-0.7,25.8s1.4,17.8,1.4,22.3
				s-0.7,12.5,2.8,13.6s8.7,5.2,10.8,5.6s1.7,11.8,1,25.4c-0.7,13.6-2.1,34.8-1.8,41.4s0.7,11.1-3.5,12.9s-3.8,5.6-9.7,8
				s-9.4-0.4-10.4,3.1s-0.7,8.7,0,13.9s-0.3,14.6-0.3,17.8s-3.5,7.3-7,11.5s-7,7.7-9,12.9s-6.3,12.2-10.1,14.3s-9.8,3.1-10.5,6.6
				s-3.5,5.6-7.7,8c-3.3,1.9-3.4,0.8-6.7,1.3c0.3,1.3,0.6,2.4,0.6,2.4s-7.3,8.7-9.8,10.8s-12.6,8.7-14,10.5s-5.9,8.4-5.9,10.1
				s0.7,32.1,1,33.9s-2.8,3.5-7,3.1s-18.2,1.4-18.2,1.4c-1.1,1.4-2,2.9-2.8,4.5c-0.7,1.8-7,3.5-7.3,4.5c-0.6,3.5-0.9,7-0.7,10.5
				c0.3,2.5-4.9,11.2-7.7,12.2s-8.4,5.2-9.4,7.3s-8.5,17.7-8.5,22.8s-8.8,35.2-12.5,42.5s-10.3,27.8-10.3,33s-4.4,28.6-5.9,33.7
				S856,669,851.5,675.6s-12.5,20.5-16.1,24.9s-8.8,10.3-8.8,13.9s2.2,16.8,6.6,20.5s10.3,4.4,11,8.1s2.2,11.7-2.9,13.2
				s-12.5,9.5-13.9,13.2s-12.5,23.4-14.7,27.8s-10.3,14.7-10.3,17.6s6.6,8.8,11,8.8c0,0,10.3,2.9,11,7.3s-3.7,16.1-3.7,16.1
				s-13.2,2.2-12.5,8.8s4.9,9,5.3,10.5s7.5,4.6,8.8,7.7s6.8,7.3,8.2,7.3s8.6-1.5,8.8-3.3s4.4-7.7,7-7.7s9,0.9,10.1,0.9
				s5.1,4.8,5.3,6.8s1.3,7,1.5,9.5s-2.9,5.9-2.4,8.8s0,9.9,1.1,10.1s9.2,1.8,9.7-0.2s2.2-6.4,5.1-7.3s10.1-1.3,11.9,0.7
				s6,2.4,6.6,4.4s4.8-0.5,5.3,1.8s6.6,3.5,13.4,3.5s18.1-0.4,20.3-1.3s6.8-3.1,7.5-5.3s5.5-8.2,7.5-8.4s7.7-3.5,9.5-4.6
				s4.8-5.5,6.4-6.6s10.6-5.5,12.3-5.5s11.7,7.3,13.9,11s5.1,7.7,6.2,9.7s2.7,3.5,6,4.8s13.2,0.2,17.6-0.2c4.4-0.4,15-1.5,17-2.2
				s6.4-6,7.5-6.8s6.4-4.2,9.2-4.6s9.3-9.2,9-10.8s-10.4-3.5-11.7-5.1s-7-3.3-9.5-3.5s-4.8-2.4-6.2-4.4s-4.6-4.2-6-5.1
				s-1.5-5.1-1.1-6.6s4.4-4.4,5.5-4.8s3.1-4.4,6.2-4.2s14.3,2.4,16.3,0.7s1.1-7.7,0.9-9.2s5.1-3.1,4.8-4.4s0.7-7.3,2.4-7.7
				s6.2-2.2,11-2.2s25.6-0.2,26.9-0.2s6.8,3.3,6.6,4.6s0.4,9.4,0.4,13.1s0,8.4,2.6,8.4s4.8,7.7,5.9,8.1s7.7,1.5,11,0s4-5.1,7.3-5.9
				s14.7,2.2,16.8,1.8s2.2,8.8,6.2,9.2s19.4,1.1,23.8,0.4s13.9,2.9,15.8,5.1s2.9,6.6,5.1,8.8s6.2,7,6.2,8.8s1.8,9.5,4.8,11.3
				s7.3,1.1,9.5,1.1s4-4.8,4.8-7.3s5.9-9.9,8.1-9.2s8.1-0.7,9.5-0.7s9.9,4.8,11,7.7s8.4,5.1,10.3,8.1s4.8,4.8,7.7,7.7s4,7.7,7.7,9.9
				s11.4,7.7,11.4,9.9l0,0c1.7-0.5,3.3-1.3,4.8-2.4C1304.2,916.6,1315.7,905.1,1316.8,898.2z"/>
		</defs>
		<clipPath id="SVGID_00000101070147768842234840000013141060205139442324_">
			<use xlink:href="#SVGID_00000102520787121246364130000003088541991618255018_"  style="overflow:visible;"/>
		</clipPath>
		<g style="clip-path:url(#SVGID_00000101070147768842234840000013141060205139442324_);">
			<g>
				<path class="st5" d="M1038,901l-37.6-90.9c10.7-12,33.3-37.2,38.6-42.7c6.6-6.8,55.4-41.7,62.5-50.9
					c5.7-7.4,23.4-42.2,31.5-58.7L1170,637l-23.4-47v-44.6l23.4-31v-52.4l31.5-23.3l17.8-73.2v-44.1l96.5-28.6l42.7-10.7l73.7-51.9
					L1460,148l-4.5-74.1l25.9-19.4"/>
				<path class="st5" d="M949,919.5l-76.6-120.3l30.6-94V668L949,547.7l90.2-141.7l44.6-100.4l44.6-29.3L1115,181l-31.2-113.5"/>
				<path class="st5" d="M1402.4,916.5V600.4l-64.6-20.5l-31-70.5v-48.6l-20-20.5h-41.6l-102.7-142.3l-43.1-45.3l6.6-16.8"/>
				<path class="st5" d="M1402.4,659.5l39.9,9l30.6,19.5l8.6,60.2l59.9,67.9l-7.4,28.5"/>
				<path class="st5" d="M1391,222l-3.6,25.5l29,122.5l37,39.5l44,147.5"/>
				<path class="st5" d="M1115,790l54.4-152.5"/>
			</g>
		</g>
	</g>
</g>
<g id="Anlagen">
	<g>
		<defs>
			<rect id="SVGID_00000026130116617382160380000009851324571592155306_" x="1172.9" y="472" width="49" height="39"/>
		</defs>
		<clipPath id="SVGID_00000034070004212020691910000017336906375105713029_">
			<use xlink:href="#SVGID_00000026130116617382160380000009851324571592155306_"  style="overflow:visible;"/>
		</clipPath>
		<g style="clip-path:url(#SVGID_00000034070004212020691910000017336906375105713029_);">
			<g>
				<path class="st7" d="M1200.3,500.6h2.9c5.2,0,10.4,0,15.6,0c1.8,0,2.4-0.8,2.4-2.4s-1.1-1.6-2.2-1.6h-43.2
					c-1.2,0-2.5-0.1-2.4,1.7c0.1,1.7,0.9,2.3,2.6,2.2c5.3-0.1,10.6,0,15.8,0h2.8v7c-1.1,0-2.1,0.1-3.2,0.3c-0.7,0.3-1.1,1.2-1.7,1.9
					c0.6,0.4,1.2,1.1,1.8,1.1c3.8,0.1,7.5,0.1,11.3,0c0.7,0,1.3-0.6,2-1c-0.6-0.7-1.1-1.6-1.8-2c-1-0.3-2-0.4-3-0.3
					C1200.1,505.2,1200.2,503,1200.3,500.6z"/>
				<path class="st7" d="M1189.8,494.6c4.8,0,9.2,0.1,13.7-0.1c0.5,0,1.3-1.1,1.3-1.7c0-2.5-0.2-5-0.5-7.5c-0.2-0.8-0.8-1.4-1.6-1.6
					c-3.5-0.1-7-0.1-10.5,0c-0.7,0.1-1.3,0.6-1.6,1.3C1190.2,488.1,1190.1,491.1,1189.8,494.6z"/>
				<path class="st7" d="M1188.8,483.7c-4.4,0-8.5,0-12.6,0c-0.3,0.1-0.5,0.2-0.7,0.4c-0.2,0.2-0.4,0.4-0.5,0.7
					c-0.8,3.1-1.4,6.3-2.2,9.7h15.1C1188.2,490.9,1188.5,487.5,1188.8,483.7z"/>
				<path class="st7" d="M1221.9,494.6c-0.7-3-1.4-5.7-1.7-8.4c-0.3-2-1.1-2.8-3.1-2.5c-1.4,0.1-2.8,0.1-4.3,0.1h-6.8
					c0.2,3.5,0.4,6.5,0.7,9.5c0,0.5,0.7,1.3,1.1,1.3C1212.3,494.6,1216.9,494.6,1221.9,494.6z"/>
				<path class="st7" d="M1204.1,481.7c-0.2-3-0.3-5.7-0.7-8.4c-0.3-0.6-0.8-1.1-1.5-1.2c-3-0.1-6-0.1-9,0c-0.6,0.1-1.1,0.5-1.4,1
					c-0.3,2.8-0.5,5.6-0.7,8.6L1204.1,481.7z"/>
				<path class="st7" d="M1175.7,481.9h5.7c8.1,0,8.1,0,8.2-8.1c0-1.4-0.4-1.8-1.7-1.8c-2.8,0-5.7-0.1-8.5,0.1
					c-0.4,0.1-0.7,0.2-1,0.4c-0.3,0.2-0.5,0.5-0.7,0.9C1177,476,1176.4,478.7,1175.7,481.9z"/>
				<path class="st7" d="M1219.1,481.7c-0.7-3-1.2-5.8-1.9-8.5c-0.3-0.6-0.9-1-1.6-1.1c-2.8-0.1-5.7-0.1-8.6,0
					c-0.7,0.2-1.3,0.8-1.6,1.5c0,2.7,0.3,5.3,0.4,8.1L1219.1,481.7z"/>
				<path class="st8" d="M1200.3,500.6c-0.1,2.4-0.2,4.5-0.3,6.9c1,0,2,0.1,3,0.3c0.8,0.4,1.2,1.3,1.8,2c-0.7,0.4-1.3,1-2,1
					c-3.8,0.1-7.5,0.1-11.3,0c-0.6,0-1.2-0.7-1.8-1.1c0.5-0.6,1-1.6,1.7-1.9c1-0.3,2.1-0.4,3.2-0.3v-7h-2.8c-5.3,0-10.6,0-15.8,0
					c-1.7,0-2.5-0.5-2.6-2.2c-0.1-1.9,1.2-1.7,2.4-1.7h43.3c1.1,0,2.3-0.1,2.2,1.6s-0.6,2.4-2.4,2.4c-5.2-0.1-10.4,0-15.6,0
					L1200.3,500.6z"/>
				<path class="st8" d="M1189.8,494.6c0.2-3.5,0.4-6.5,0.8-9.6c0.3-0.7,0.9-1.2,1.6-1.3c3.5-0.1,7-0.1,10.5,0c0.6,0,1.5,1,1.6,1.6
					c0.3,2.5,0.5,5,0.5,7.5c0,0.6-0.9,1.7-1.3,1.7C1199.1,494.7,1194.7,494.6,1189.8,494.6z"/>
				<path class="st8" d="M1188.8,483.7c-0.3,3.8-0.6,7.2-0.9,10.8h-15.1c0.8-3.4,1.4-6.5,2.2-9.7c0.1-0.3,0.3-0.5,0.5-0.6
					c0.2-0.2,0.4-0.3,0.7-0.4C1180.3,483.7,1184.4,483.7,1188.8,483.7z"/>
				<path class="st8" d="M1221.9,494.6c-4.9,0-9.5,0-14.1-0.1c-0.4,0-1-0.8-1.1-1.3c-0.3-3-0.4-6-0.7-9.5h6.8c1.4,0.1,2.8,0,4.3-0.1
					c2-0.2,2.8,0.5,3.1,2.5C1220.5,488.9,1221.2,491.5,1221.9,494.6z"/>
				<path class="st8" d="M1204.1,481.7h-13.2c0.2-3,0.4-5.8,0.7-8.6c0.1-0.4,0.9-1,1.4-1c3-0.1,6-0.1,9,0c0.7,0.1,1.2,0.6,1.5,1.2
					C1203.7,476,1203.8,478.8,1204.1,481.7z"/>
				<path class="st8" d="M1175.7,481.9c0.7-3.2,1.3-5.9,2-8.5c0.2-0.3,0.4-0.6,0.7-0.9c0.3-0.2,0.6-0.4,1-0.4c2.8-0.1,5.7,0,8.5-0.1
					c1.3,0,1.7,0.4,1.7,1.8c-0.2,8.1-0.2,8.1-8.2,8.1L1175.7,481.9z"/>
				<path class="st8" d="M1219.1,481.7h-13.2c-0.2-2.7-0.4-5.4-0.5-8.1c0.2-0.7,0.8-1.3,1.6-1.5c2.8-0.1,5.7-0.1,8.5,0
					c0.7,0.1,1.3,0.5,1.6,1.1C1217.9,475.9,1218.4,478.6,1219.1,481.7z"/>
			</g>
		</g>
	</g>
	<g>
		<defs>
			<rect id="SVGID_00000161621006848664750800000012934082534292812176_" x="1307.9" y="344" width="40" height="59"/>
		</defs>
		<clipPath id="SVGID_00000099621053423585670130000004543194271759243394_">
			<use xlink:href="#SVGID_00000161621006848664750800000012934082534292812176_"  style="overflow:visible;"/>
		</clipPath>
		<g style="clip-path:url(#SVGID_00000099621053423585670130000004543194271759243394_);">
			<path class="st8" d="M1327.7,344c5.9,5.1,10.9,11.1,14.7,17.9c2.3,3.6,4,7.6,5.1,11.8c0.7,5.6,0.7,11.6-1.4,16.9
				c-2.1,5-5.8,9.9-11.2,11.4c-7.6,2.7-16.6-0.5-21.9-6.6c-1.2-1.7-2.2-3.6-3-5.6c-0.7-1-0.7-2.2-1.1-3.3c-1.2-3.3-1.3-6.9-0.4-10.2
				c1.3-4.1,2.9-8.2,5.7-11.5c3-3.4,6.5-6.3,9.1-10.1C1325.3,351.4,1327.3,347.9,1327.7,344z M1326.3,370.5
				c-0.9,1.5-1.8,3.5-3.1,4.9c-3.2,3.4-7.2,6.5-8.4,11.2c-0.9,3.5,0.3,7.2,2.3,10.1c3.6,4.3,9.3,6,14.6,4.4c2.5-0.8,4.2-2.9,5.8-4.9
				c2-3.1,2.2-7.1,1.8-10.7c-0.7-3.1-2.5-5.8-4.2-8.5c-1.7-2.5-3.8-4.7-6.1-6.7C1327,368.9,1327,367.4,1326.3,370.5L1326.3,370.5z"
				/>
		</g>
	</g>
	<g>
		<defs>
			<rect id="SVGID_00000058553789024221825730000017003076861727506306_" x="1087.9" y="757" width="40" height="59"/>
		</defs>
		<clipPath id="SVGID_00000065795392602977355960000009227576811015563424_">
			<use xlink:href="#SVGID_00000058553789024221825730000017003076861727506306_"  style="overflow:visible;"/>
		</clipPath>
		<g style="clip-path:url(#SVGID_00000065795392602977355960000009227576811015563424_);">
			<path class="st8" d="M1107.7,757c5.9,5.1,10.9,11.1,14.7,17.9c2.3,3.6,4,7.6,5.1,11.8c0.7,5.6,0.7,11.6-1.4,16.9
				c-2.1,5-5.8,9.9-11.2,11.4c-7.6,2.7-16.6-0.5-21.9-6.6c-1.2-1.7-2.2-3.6-3-5.6c-0.7-1-0.7-2.2-1.1-3.3c-1.2-3.3-1.3-6.9-0.4-10.2
				c1.3-4.1,2.9-8.2,5.7-11.5c3-3.4,6.5-6.3,9.1-10.1C1105.3,764.4,1107.3,760.9,1107.7,757z M1106.3,783.5
				c-0.9,1.5-1.8,3.5-3.1,4.9c-3.2,3.4-7.2,6.5-8.4,11.2c-0.9,3.5,0.3,7.2,2.3,10.1c3.6,4.3,9.3,6,14.6,4.4c2.5-0.8,4.2-2.9,5.8-4.8
				c2-3.2,2.2-7.1,1.8-10.7c-0.7-3.1-2.5-5.8-4.2-8.5c-1.7-2.5-3.8-4.7-6.1-6.7C1107,781.9,1107,780.3,1106.3,783.5L1106.3,783.5z"
				/>
		</g>
	</g>
	<g>
		<defs>
			<rect id="SVGID_00000016777249380078450410000016048283797134896316_" x="1070.9" y="195" width="40" height="59"/>
		</defs>
		<clipPath id="SVGID_00000002381541392950614740000003876321547698266514_">
			<use xlink:href="#SVGID_00000016777249380078450410000016048283797134896316_"  style="overflow:visible;"/>
		</clipPath>
		<g style="clip-path:url(#SVGID_00000002381541392950614740000003876321547698266514_);">
			<path class="st8" d="M1090.7,195c5.9,5.1,10.9,11.1,14.7,17.9c2.3,3.6,4,7.6,5.1,11.8c0.7,5.6,0.7,11.6-1.4,16.9
				c-2.1,5-5.8,9.9-11.2,11.4c-7.6,2.7-16.6-0.5-21.9-6.6c-1.2-1.7-2.2-3.6-3-5.6c-0.7-1-0.7-2.2-1.1-3.3c-1.2-3.3-1.3-6.9-0.4-10.2
				c1.3-4.1,2.9-8.2,5.7-11.5c3-3.4,6.5-6.3,9.1-10.1C1088.3,202.4,1090.3,198.9,1090.7,195z M1089.3,221.5
				c-0.9,1.5-1.8,3.5-3.1,4.9c-3.2,3.4-7.2,6.5-8.4,11.2c-0.9,3.4,0.3,7.2,2.3,10.1c3.6,4.3,9.3,6,14.6,4.4c2.5-0.8,4.2-2.9,5.8-4.9
				c2-3.1,2.2-7.1,1.8-10.7c-0.7-3.1-2.5-5.8-4.2-8.4c-1.7-2.5-3.8-4.7-6.1-6.7C1090,219.9,1090,218.4,1089.3,221.5L1089.3,221.5z"
				/>
		</g>
	</g>
	<g>
		<path class="st12" d="M1392.3,233.6h2.9c5.2,0,10.4-0.1,15.6,0c1.8,0,2.4-0.8,2.4-2.4s-1.1-1.6-2.2-1.6h-43.2
			c-1.2,0-2.5-0.1-2.4,1.7c0.1,1.7,0.9,2.3,2.6,2.2c5.3-0.1,10.6,0,15.8,0h2.8v7c-1.1,0-2.1,0.1-3.2,0.3c-0.7,0.3-1.1,1.2-1.7,1.9
			c0.6,0.4,1.2,1.1,1.8,1.1c3.8,0.1,7.5,0.1,11.3,0c0.7,0,1.3-0.6,2-1c-0.6-0.7-1.1-1.6-1.8-2c-1-0.3-2-0.4-3-0.3
			C1392.1,238.2,1392.2,236.1,1392.3,233.6z"/>
		<path class="st12" d="M1381.8,227.6c4.8,0,9.2,0.1,13.7-0.1c0.5,0,1.3-1.1,1.3-1.7c0-2.5-0.2-5-0.5-7.5c-0.2-0.8-0.8-1.4-1.6-1.6
			c-3.5-0.1-7-0.1-10.5,0c-0.7,0.1-1.3,0.6-1.6,1.3C1382.2,221.1,1382.1,224.1,1381.8,227.6z"/>
		<path class="st12" d="M1380.8,216.7c-4.4,0-8.5,0-12.6,0c-0.3,0.1-0.5,0.2-0.7,0.4c-0.2,0.2-0.4,0.4-0.5,0.7
			c-0.8,3.1-1.4,6.3-2.2,9.7h15.1C1380.2,223.9,1380.5,220.5,1380.8,216.7z"/>
		<path class="st12" d="M1413.9,227.6c-0.7-3.1-1.4-5.7-1.7-8.4c-0.3-2-1.1-2.8-3.1-2.5c-1.4,0.1-2.8,0.1-4.3,0.1h-6.8
			c0.2,3.5,0.4,6.5,0.7,9.5c0,0.5,0.7,1.3,1.1,1.3C1404.3,227.6,1408.9,227.6,1413.9,227.6z"/>
		<path class="st12" d="M1396.1,214.7c-0.2-3-0.3-5.7-0.7-8.4c-0.3-0.6-0.8-1.1-1.5-1.2c-3-0.1-6-0.1-9,0c-0.6,0.1-1.1,0.5-1.4,1
			c-0.3,2.8-0.5,5.6-0.7,8.6L1396.1,214.7z"/>
		<path class="st12" d="M1367.7,214.9h5.7c8.1,0,8.1,0,8.2-8.1c0-1.4-0.4-1.8-1.7-1.8c-2.8,0-5.7-0.1-8.5,0.1
			c-0.4,0.1-0.7,0.2-1,0.4c-0.3,0.2-0.5,0.5-0.7,0.9C1369,209,1368.4,211.7,1367.7,214.9z"/>
		<path class="st12" d="M1411.1,214.7c-0.7-3-1.2-5.8-1.9-8.5c-0.3-0.6-0.9-1-1.6-1.1c-2.8-0.1-5.7-0.1-8.6,0
			c-0.7,0.2-1.3,0.8-1.6,1.5c0,2.7,0.3,5.3,0.4,8.1L1411.1,214.7z"/>
		<path class="st12" d="M1392.3,233.6c-0.1,2.4-0.2,4.5-0.3,6.9c1,0,2,0.1,3,0.3c0.8,0.4,1.2,1.3,1.8,2c-0.7,0.4-1.3,1-2,1
			c-3.8,0.1-7.5,0.1-11.3,0c-0.6,0-1.2-0.7-1.8-1.1c0.5-0.6,1-1.6,1.7-1.9c1-0.3,2.1-0.4,3.2-0.3v-7h-2.8c-5.3,0-10.6-0.1-15.8,0
			c-1.7,0-2.5-0.6-2.6-2.2c-0.1-1.9,1.2-1.7,2.4-1.7h43.3c1.1,0,2.3-0.1,2.2,1.6s-0.6,2.4-2.4,2.4c-5.2-0.1-10.4,0-15.6,0
			L1392.3,233.6z"/>
		<path class="st12" d="M1381.8,227.6c0.2-3.5,0.4-6.6,0.8-9.6c0.3-0.7,0.9-1.2,1.6-1.3c3.5-0.1,7-0.1,10.5,0c0.6,0,1.5,1,1.6,1.6
			c0.3,2.5,0.5,5,0.5,7.5c0,0.6-0.9,1.7-1.3,1.7C1391.1,227.7,1386.7,227.6,1381.8,227.6z"/>
		<path class="st12" d="M1380.8,216.7c-0.3,3.8-0.6,7.2-0.9,10.8h-15.1c0.8-3.4,1.4-6.6,2.2-9.7c0.1-0.3,0.3-0.5,0.5-0.6
			c0.2-0.2,0.4-0.3,0.7-0.4C1372.3,216.7,1376.4,216.7,1380.8,216.7z"/>
		<path class="st12" d="M1413.9,227.6c-4.9,0-9.5,0-14.1-0.1c-0.4,0-1-0.8-1.1-1.3c-0.3-3-0.4-6-0.7-9.5h6.8c1.4,0.1,2.8,0,4.3-0.1
			c2-0.2,2.8,0.5,3.1,2.5C1412.5,221.9,1413.2,224.6,1413.9,227.6z"/>
		<path class="st12" d="M1396.1,214.7h-13.2c0.2-3,0.4-5.8,0.7-8.6c0.1-0.4,0.9-1,1.4-1c3-0.1,6-0.1,9,0c0.7,0.1,1.2,0.6,1.5,1.2
			C1395.7,209,1395.8,211.8,1396.1,214.7z"/>
		<path class="st12" d="M1367.7,214.9c0.7-3.2,1.3-5.9,2-8.5c0.2-0.3,0.4-0.6,0.7-0.9c0.3-0.2,0.6-0.4,1-0.4c2.8-0.1,5.7,0,8.5-0.1
			c1.3,0,1.7,0.4,1.7,1.8c-0.2,8.1-0.2,8.1-8.2,8.1H1367.7z"/>
		<path class="st12" d="M1411.1,214.7h-13.2c-0.2-2.7-0.4-5.4-0.5-8.1c0.2-0.7,0.8-1.3,1.6-1.5c2.8-0.1,5.7-0.1,8.5,0
			c0.7,0.1,1.3,0.5,1.6,1.1C1409.9,208.9,1410.4,211.6,1411.1,214.7z"/>
	</g>
	<g>
		<defs>
			<rect id="SVGID_00000065775417174615643670000016129976567287011775_" x="904.9" y="818" width="59" height="68"/>
		</defs>
		<clipPath id="SVGID_00000135679267444434161260000002063778199404219327_">
			<use xlink:href="#SVGID_00000065775417174615643670000016129976567287011775_"  style="overflow:visible;"/>
		</clipPath>
		<g style="clip-path:url(#SVGID_00000135679267444434161260000002063778199404219327_);">
			<g>
				<path class="st7" d="M930.2,857.6c-0.7,6.8-1.4,13.6-2.1,20.3c-0.1,0.8-0.2,2.2-0.5,2.3c-3.5,1-2.1,3.5-2,5.8H942
					c-0.2-1.8,0.1-4.3-0.6-4.6c-3.3-1.6-2.4-4.6-2.7-7.1c-0.7-5.6-1.2-11.3-1.8-16.7L930.2,857.6z"/>
				<path class="st7" d="M907,870.8l21.7-14.4c-1-3.8-3.4-4.6-6.7-4.8c-3.5-0.3-5.4,1.1-7.3,3.7c-2.7,3.8-5.7,7.4-8.7,10.9
					C904.2,868.2,904.5,869.5,907,870.8z"/>
				<path class="st7" d="M940.9,851.2c-1.9,4.6-1.7,4.5,0.3,8.1c1.7,3,3.9,4,7.2,3.8c4.2-0.2,8.4,0.2,12.5,0c1,0,1.9-1,2.9-1.5
					c-0.6-0.9-1.1-2.2-2-2.5C955,856.4,948,853.9,940.9,851.2z"/>
				<path class="st7" d="M930.3,844.2c6.6-1.1,9.3-6.6,6.5-12.1c-1.8-3.4-3.4-6.8-5.3-10.1c-0.9-1.5-0.8-4.9-3.9-3.9
					s-0.9,3.5-0.7,5.2C927.8,830.3,929.1,837.1,930.3,844.2z"/>
				<path class="st7" d="M938.8,850.7c0-2.1-1.4-4-3.3-4.8c-2-0.8-4.2-0.3-5.7,1.3c-2,2.1-1.9,5.5,0.2,7.5c0.2,0.2,0.5,0.4,0.8,0.6
					c2.1,1.3,4.9,1,6.5-0.9C938.3,853.4,938.8,852.1,938.8,850.7z"/>
				<path class="st8" d="M930.2,857.6h6.7c0.6,5.4,1.1,11.1,1.8,16.7c0.3,2.5-0.6,5.5,2.7,7.1c0.7,0.3,0.4,2.8,0.6,4.6h-16.5
					c-0.1-2.3-1.4-4.8,2-5.8c0.4-0.1,0.5-1.5,0.5-2.3C928.8,871.2,929.5,864.4,930.2,857.6z"/>
				<path class="st8" d="M907,870.8c-2.4-1.3-2.7-2.6-1-4.6c3-3.5,6-7.2,8.7-10.9c1.9-2.6,3.8-4,7.3-3.7c3.3,0.3,5.6,1,6.7,4.8
					L907,870.8z"/>
				<path class="st8" d="M940.9,851.2c7.1,2.7,14.1,5.2,21,8c0.8,0.3,1.3,1.7,2,2.5c-1,0.5-1.9,1.5-2.9,1.5
					c-4.2,0.1-8.4-0.2-12.5-0.1c-3.2,0.1-5.5-0.8-7.2-3.8C939.2,855.7,939,855.8,940.9,851.2z"/>
				<path class="st8" d="M930.3,844.2c-1.2-7.1-2.5-13.9-3.5-20.8c-0.2-1.7-2.3-4.2,0.7-5.2s3,2.3,3.9,3.9c2,3.2,3.6,6.7,5.3,10.1
					C939.6,837.6,936.9,843.1,930.3,844.2z"/>
				<path class="st8" d="M938.8,850.7c0,2.1-1.3,4.1-3.2,4.9c-2,0.8-4.2,0.4-5.7-1.1c-1.5-1.5-1.9-3.8-1.1-5.8
					c0.8-2,2.7-3.3,4.8-3.2c1.4,0,2.7,0.6,3.7,1.6C938.3,848,938.8,849.3,938.8,850.7z"/>
			</g>
		</g>
	</g>
	<g>
		<defs>
			<rect id="SVGID_00000102520891754381475190000014631410694137099187_" x="1037.9" y="756" width="49" height="39"/>
		</defs>
		<clipPath id="SVGID_00000063621666111176886010000017156826693954412982_">
			<use xlink:href="#SVGID_00000102520891754381475190000014631410694137099187_"  style="overflow:visible;"/>
		</clipPath>
		<g style="clip-path:url(#SVGID_00000063621666111176886010000017156826693954412982_);">
			<g>
				<path class="st7" d="M1065.3,784.7h2.9c5.2,0,10.4,0,15.6,0c1.8,0,2.4-0.8,2.4-2.4s-1.1-1.6-2.2-1.6h-43.2
					c-1.2,0-2.5-0.1-2.4,1.7c0.1,1.7,0.9,2.3,2.6,2.2c5.3-0.1,10.6,0,15.8,0h2.8v7c-1.1,0-2.1,0.1-3.2,0.3c-0.7,0.3-1.1,1.2-1.7,1.9
					c0.6,0.4,1.2,1.1,1.8,1.1c3.8,0.1,7.5,0.1,11.3,0c0.7,0,1.3-0.7,2-1c-0.6-0.7-1.1-1.6-1.8-2c-1-0.3-2-0.4-3-0.3
					C1065.1,789.2,1065.2,787,1065.3,784.7z"/>
				<path class="st7" d="M1054.8,778.6c4.8,0,9.2,0.1,13.7-0.1c0.5,0,1.3-1.1,1.3-1.7c0-2.5-0.2-5-0.5-7.5c-0.2-0.8-0.8-1.4-1.6-1.6
					c-3.5-0.2-7-0.1-10.5,0c-0.7,0.1-1.3,0.6-1.6,1.3C1055.2,772.1,1055.1,775.2,1054.8,778.6z"/>
				<path class="st7" d="M1053.8,767.7c-4.4,0-8.5,0-12.6,0c-0.3,0.1-0.5,0.2-0.7,0.3c-0.2,0.2-0.4,0.4-0.5,0.7
					c-0.8,3.1-1.4,6.3-2.2,9.7h15.1C1053.2,774.9,1053.5,771.5,1053.8,767.7z"/>
				<path class="st7" d="M1086.9,778.6c-0.7-3-1.4-5.7-1.7-8.4c-0.3-2-1.1-2.8-3.1-2.5c-1.4,0.1-2.8,0.1-4.3,0.1h-6.8
					c0.2,3.5,0.4,6.5,0.7,9.5c0,0.5,0.7,1.3,1.1,1.3C1077.3,778.6,1081.9,778.6,1086.9,778.6z"/>
				<path class="st7" d="M1069.1,765.7c-0.2-3-0.3-5.7-0.7-8.4c-0.3-0.6-0.8-1.1-1.5-1.2c-3-0.1-6-0.1-9,0c-0.6,0.1-1.1,0.5-1.4,1
					c-0.3,2.8-0.5,5.6-0.7,8.6L1069.1,765.7z"/>
				<path class="st7" d="M1040.7,765.9h5.7c8.1,0,8.1,0,8.2-8.1c0-1.3-0.4-1.8-1.7-1.8c-2.8,0-5.7-0.1-8.5,0.1
					c-0.4,0.1-0.7,0.2-1,0.4c-0.3,0.2-0.5,0.5-0.7,0.9C1042,760,1041.4,762.7,1040.7,765.9z"/>
				<path class="st7" d="M1084.1,765.7c-0.7-3-1.2-5.8-1.9-8.5c-0.3-0.6-0.9-1-1.6-1.1c-2.8-0.1-5.7-0.1-8.6,0
					c-0.7,0.2-1.3,0.8-1.6,1.5c0,2.7,0.3,5.3,0.4,8.1L1084.1,765.7z"/>
				<path class="st8" d="M1065.3,784.7c-0.1,2.4-0.2,4.5-0.3,6.9c1,0,2,0.1,3,0.3c0.8,0.4,1.2,1.3,1.8,2c-0.7,0.3-1.3,1-2,1
					c-3.8,0.1-7.5,0.1-11.3,0c-0.6,0-1.2-0.7-1.8-1.1c0.5-0.7,1-1.6,1.7-1.9c1-0.3,2.1-0.4,3.2-0.3v-7h-2.8c-5.3,0-10.6,0-15.8,0
					c-1.7,0-2.5-0.5-2.6-2.2c-0.1-1.8,1.2-1.7,2.4-1.7h43.3c1.1,0,2.3-0.2,2.2,1.6s-0.6,2.4-2.4,2.4c-5.2-0.1-10.4,0-15.6,0
					L1065.3,784.7z"/>
				<path class="st8" d="M1054.8,778.6c0.2-3.5,0.4-6.5,0.8-9.6c0.3-0.7,0.9-1.2,1.6-1.3c3.5-0.1,7-0.1,10.5,0c0.6,0,1.5,1,1.6,1.6
					c0.3,2.5,0.5,5,0.5,7.5c0,0.6-0.9,1.7-1.3,1.7C1064.1,778.7,1059.7,778.6,1054.8,778.6z"/>
				<path class="st8" d="M1053.8,767.7c-0.3,3.8-0.6,7.2-0.9,10.8h-15.1c0.8-3.4,1.4-6.5,2.2-9.7c0.1-0.3,0.3-0.5,0.5-0.7
					c0.2-0.2,0.4-0.3,0.7-0.4C1045.3,767.7,1049.4,767.7,1053.8,767.7z"/>
				<path class="st8" d="M1086.9,778.6c-4.9,0-9.5,0-14.1-0.1c-0.4,0-1-0.8-1.1-1.3c-0.3-3-0.4-6-0.7-9.5h6.8c1.4,0.1,2.8,0,4.3-0.1
					c2-0.2,2.8,0.5,3.1,2.5C1085.5,772.9,1086.2,775.5,1086.9,778.6z"/>
				<path class="st8" d="M1069.1,765.7h-13.2c0.2-3,0.4-5.8,0.7-8.6c0.1-0.4,0.9-1,1.4-1c3-0.1,6-0.1,9,0c0.7,0.1,1.2,0.6,1.5,1.2
					C1068.7,760,1068.8,762.8,1069.1,765.7z"/>
				<path class="st8" d="M1040.7,765.9c0.7-3.2,1.3-5.9,2-8.5c0.2-0.3,0.4-0.6,0.7-0.9c0.3-0.2,0.6-0.4,1-0.4c2.8-0.1,5.7,0,8.5-0.1
					c1.3,0,1.7,0.4,1.7,1.8c-0.2,8.1-0.2,8.1-8.2,8.1H1040.7z"/>
				<path class="st8" d="M1084.1,765.7h-13.2c-0.2-2.7-0.4-5.4-0.5-8.1c0.2-0.7,0.8-1.3,1.6-1.5c2.8-0.1,5.7-0.1,8.5,0
					c0.7,0.1,1.3,0.5,1.6,1.1C1082.9,759.9,1083.4,762.7,1084.1,765.7z"/>
			</g>
		</g>
	</g>
	<g>
		<defs>
			<rect id="SVGID_00000165913971962734297570000003075533643434922418_" x="1394.9" y="407" width="49" height="39"/>
		</defs>
		<clipPath id="SVGID_00000175299192454320878080000016658760410541782413_">
			<use xlink:href="#SVGID_00000165913971962734297570000003075533643434922418_"  style="overflow:visible;"/>
		</clipPath>
		<g style="clip-path:url(#SVGID_00000175299192454320878080000016658760410541782413_);">
			<g>
				<path class="st7" d="M1422.3,435.6h2.9c5.2,0,10.4,0,15.6,0c1.8,0,2.4-0.8,2.4-2.4s-1.1-1.6-2.2-1.6h-43.2
					c-1.2,0-2.5-0.1-2.4,1.7c0.1,1.7,0.9,2.3,2.6,2.2c5.3-0.1,10.6,0,15.8,0h2.8v7c-1.1,0-2.1,0.1-3.2,0.3c-0.7,0.3-1.1,1.2-1.7,1.9
					c0.6,0.4,1.2,1.1,1.8,1.1c3.8,0.1,7.5,0.1,11.3,0c0.7,0,1.3-0.6,2-1c-0.6-0.7-1.1-1.6-1.8-2c-1-0.3-2-0.4-3-0.3
					C1422.1,440.2,1422.2,438,1422.3,435.6z"/>
				<path class="st7" d="M1411.8,429.6c4.8,0,9.2,0.1,13.7-0.1c0.5,0,1.3-1.1,1.3-1.7c0-2.5-0.2-5-0.5-7.5c-0.2-0.8-0.8-1.4-1.6-1.6
					c-3.5-0.1-7-0.1-10.5,0c-0.7,0.1-1.3,0.6-1.6,1.3C1412.2,423.1,1412.1,426.1,1411.8,429.6z"/>
				<path class="st7" d="M1410.8,418.7c-4.4,0-8.5,0-12.6,0c-0.3,0.1-0.5,0.2-0.7,0.4c-0.2,0.2-0.4,0.4-0.5,0.7
					c-0.8,3.1-1.4,6.3-2.2,9.7h15.1C1410.2,425.9,1410.5,422.5,1410.8,418.7z"/>
				<path class="st7" d="M1443.9,429.6c-0.7-3-1.4-5.7-1.7-8.4c-0.3-2-1.1-2.8-3.1-2.5c-1.4,0.1-2.8,0.1-4.3,0.1h-6.8
					c0.2,3.5,0.4,6.5,0.7,9.5c0,0.5,0.7,1.3,1.1,1.3C1434.3,429.6,1438.9,429.6,1443.9,429.6z"/>
				<path class="st7" d="M1426.1,416.7c-0.2-3-0.3-5.7-0.7-8.4c-0.3-0.6-0.8-1.1-1.5-1.2c-3-0.1-6-0.1-9,0c-0.6,0.1-1.1,0.5-1.4,1
					c-0.3,2.8-0.5,5.6-0.7,8.6L1426.1,416.7z"/>
				<path class="st7" d="M1397.7,416.9h5.7c8.1,0,8.1,0,8.2-8.1c0-1.4-0.4-1.8-1.7-1.8c-2.8,0-5.7-0.1-8.5,0.1
					c-0.4,0.1-0.7,0.2-1,0.4c-0.3,0.2-0.5,0.5-0.7,0.9C1399,411,1398.4,413.7,1397.7,416.9z"/>
				<path class="st7" d="M1441.1,416.7c-0.7-3-1.2-5.8-1.9-8.5c-0.3-0.6-0.9-1-1.6-1.1c-2.8-0.1-5.7-0.1-8.6,0
					c-0.7,0.2-1.3,0.8-1.6,1.5c0,2.7,0.3,5.3,0.4,8.1L1441.1,416.7z"/>
				<path class="st8" d="M1422.3,435.6c-0.1,2.4-0.2,4.5-0.3,6.9c1,0,2,0.1,3,0.3c0.8,0.4,1.2,1.3,1.8,2c-0.7,0.4-1.3,1-2,1
					c-3.8,0.1-7.5,0.1-11.3,0c-0.6,0-1.2-0.7-1.8-1.1c0.5-0.6,1-1.6,1.7-1.9c1-0.3,2.1-0.4,3.2-0.3v-7h-2.8c-5.3,0-10.6,0-15.8,0
					c-1.7,0-2.5-0.5-2.6-2.2c-0.1-1.9,1.2-1.7,2.4-1.7h43.3c1.1,0,2.3-0.1,2.2,1.6s-0.6,2.4-2.4,2.4c-5.2-0.1-10.4,0-15.6,0
					L1422.3,435.6z"/>
				<path class="st8" d="M1411.8,429.6c0.2-3.5,0.4-6.5,0.8-9.6c0.3-0.7,0.9-1.2,1.6-1.3c3.5-0.1,7-0.1,10.5,0c0.6,0,1.5,1,1.6,1.6
					c0.3,2.5,0.5,5,0.5,7.5c0,0.6-0.9,1.7-1.3,1.7C1421.1,429.7,1416.7,429.6,1411.8,429.6z"/>
				<path class="st8" d="M1410.8,418.7c-0.3,3.8-0.6,7.2-0.9,10.8h-15.1c0.8-3.4,1.4-6.5,2.2-9.7c0.1-0.3,0.3-0.5,0.5-0.6
					c0.2-0.2,0.4-0.3,0.7-0.4C1402.3,418.7,1406.4,418.7,1410.8,418.7z"/>
				<path class="st8" d="M1443.9,429.6c-4.9,0-9.5,0-14.1-0.1c-0.4,0-1-0.8-1.1-1.3c-0.3-3-0.4-6-0.7-9.5h6.8c1.4,0.1,2.8,0,4.3-0.1
					c2-0.2,2.8,0.5,3.1,2.5C1442.5,423.9,1443.2,426.5,1443.9,429.6z"/>
				<path class="st8" d="M1426.1,416.7h-13.2c0.2-3,0.4-5.8,0.7-8.6c0.1-0.4,0.9-1,1.4-1c3-0.1,6-0.1,9,0c0.7,0.1,1.2,0.6,1.5,1.2
					C1425.7,411,1425.8,413.8,1426.1,416.7z"/>
				<path class="st8" d="M1397.7,416.9c0.7-3.2,1.3-5.9,2-8.5c0.2-0.3,0.4-0.6,0.7-0.9c0.3-0.2,0.6-0.4,1-0.4c2.8-0.1,5.7,0,8.5-0.1
					c1.3,0,1.7,0.4,1.7,1.8c-0.2,8.1-0.2,8.1-8.2,8.1L1397.7,416.9z"/>
				<path class="st8" d="M1441.1,416.7h-13.2c-0.2-2.7-0.4-5.4-0.5-8.1c0.2-0.7,0.8-1.3,1.6-1.5c2.8-0.1,5.7-0.1,8.5,0
					c0.7,0.1,1.3,0.5,1.6,1.1C1439.9,410.9,1440.4,413.6,1441.1,416.7z"/>
			</g>
		</g>
	</g>
	<g>
		<defs>
			<rect id="SVGID_00000016772190951559200280000014783706277802137996_" x="1416.9" y="536" width="49" height="39"/>
		</defs>
		<clipPath id="SVGID_00000065793630870390926370000008853784955353675652_">
			<use xlink:href="#SVGID_00000016772190951559200280000014783706277802137996_"  style="overflow:visible;"/>
		</clipPath>
		<g style="clip-path:url(#SVGID_00000065793630870390926370000008853784955353675652_);">
			<g>
				<path class="st7" d="M1444.3,564.7h2.9c5.2,0,10.4,0,15.6,0c1.8,0,2.4-0.8,2.4-2.4s-1.1-1.6-2.2-1.6h-43.2
					c-1.2,0-2.5-0.1-2.4,1.7c0.1,1.7,0.9,2.3,2.6,2.2c5.3-0.1,10.6,0,15.8,0h2.8v7c-1.1,0-2.1,0.1-3.2,0.3c-0.7,0.3-1.1,1.2-1.7,1.9
					c0.6,0.4,1.2,1.1,1.8,1.1c3.8,0.1,7.5,0.1,11.3,0c0.7,0,1.3-0.7,2-1c-0.6-0.7-1.1-1.6-1.8-2c-1-0.3-2-0.4-3-0.3
					C1444.1,569.2,1444.2,567,1444.3,564.7z"/>
				<path class="st7" d="M1433.8,558.6c4.8,0,9.2,0.1,13.7-0.1c0.5,0,1.3-1.1,1.3-1.7c0-2.5-0.2-5-0.5-7.5c-0.2-0.8-0.8-1.4-1.6-1.6
					c-3.5-0.2-7-0.1-10.5,0c-0.7,0.1-1.3,0.6-1.6,1.3C1434.2,552.1,1434.1,555.2,1433.8,558.6z"/>
				<path class="st7" d="M1432.8,547.7c-4.4,0-8.5,0-12.6,0c-0.3,0.1-0.5,0.2-0.7,0.3c-0.2,0.2-0.4,0.4-0.5,0.7
					c-0.8,3.1-1.4,6.3-2.2,9.7h15.1C1432.2,554.9,1432.5,551.5,1432.8,547.7z"/>
				<path class="st7" d="M1465.9,558.6c-0.7-3-1.4-5.7-1.7-8.4c-0.3-2-1.1-2.8-3.1-2.5c-1.4,0.1-2.8,0.1-4.3,0.1h-6.8
					c0.2,3.5,0.4,6.5,0.7,9.5c0,0.5,0.7,1.3,1.1,1.3C1456.3,558.6,1460.9,558.6,1465.9,558.6z"/>
				<path class="st7" d="M1448.1,545.7c-0.2-3-0.3-5.7-0.7-8.4c-0.3-0.6-0.8-1.1-1.5-1.2c-3-0.1-6-0.1-9,0c-0.6,0.1-1.1,0.5-1.4,1
					c-0.3,2.8-0.5,5.6-0.7,8.6L1448.1,545.7z"/>
				<path class="st7" d="M1419.7,545.9h5.7c8.1,0,8.1,0,8.2-8.1c0-1.3-0.4-1.8-1.7-1.8c-2.8,0-5.7-0.1-8.5,0.1
					c-0.4,0.1-0.7,0.2-1,0.4c-0.3,0.2-0.5,0.5-0.7,0.9C1421,540,1420.4,542.7,1419.7,545.9z"/>
				<path class="st7" d="M1463.1,545.7c-0.7-3-1.2-5.8-1.9-8.5c-0.3-0.6-0.9-1-1.6-1.1c-2.8-0.1-5.7-0.1-8.6,0
					c-0.7,0.2-1.3,0.8-1.6,1.5c0,2.7,0.3,5.3,0.4,8.1L1463.1,545.7z"/>
				<path class="st8" d="M1444.3,564.7c-0.1,2.4-0.2,4.5-0.3,6.9c1,0,2,0.1,3,0.3c0.8,0.4,1.2,1.3,1.8,2c-0.7,0.3-1.3,1-2,1
					c-3.8,0.1-7.5,0.1-11.3,0c-0.6,0-1.2-0.7-1.8-1.1c0.5-0.7,1-1.6,1.7-1.9c1-0.3,2.1-0.4,3.2-0.3v-7h-2.8c-5.3,0-10.6,0-15.8,0
					c-1.7,0-2.5-0.5-2.6-2.2c-0.1-1.8,1.2-1.7,2.4-1.7h43.3c1.1,0,2.3-0.2,2.2,1.6s-0.6,2.4-2.4,2.4c-5.2-0.1-10.4,0-15.6,0
					L1444.3,564.7z"/>
				<path class="st8" d="M1433.8,558.6c0.2-3.5,0.4-6.5,0.8-9.6c0.3-0.7,0.9-1.2,1.6-1.3c3.5-0.1,7-0.1,10.5,0c0.6,0,1.5,1,1.6,1.6
					c0.3,2.5,0.5,5,0.5,7.5c0,0.6-0.9,1.7-1.3,1.7C1443.1,558.7,1438.7,558.6,1433.8,558.6z"/>
				<path class="st8" d="M1432.8,547.7c-0.3,3.8-0.6,7.2-0.9,10.8h-15.1c0.8-3.4,1.4-6.5,2.2-9.7c0.1-0.3,0.3-0.5,0.5-0.7
					c0.2-0.2,0.4-0.3,0.7-0.4C1424.3,547.7,1428.4,547.7,1432.8,547.7z"/>
				<path class="st8" d="M1465.9,558.6c-4.9,0-9.5,0-14.1-0.1c-0.4,0-1-0.8-1.1-1.3c-0.3-3-0.4-6-0.7-9.5h6.8c1.4,0.1,2.8,0,4.3-0.1
					c2-0.2,2.8,0.5,3.1,2.5C1464.5,552.9,1465.2,555.5,1465.9,558.6z"/>
				<path class="st8" d="M1448.1,545.7h-13.2c0.2-3,0.4-5.8,0.7-8.6c0.1-0.4,0.9-1,1.4-1c3-0.1,6-0.1,9,0c0.7,0.1,1.2,0.6,1.5,1.2
					C1447.7,540,1447.8,542.8,1448.1,545.7z"/>
				<path class="st8" d="M1419.7,545.9c0.7-3.2,1.3-5.9,2-8.5c0.2-0.3,0.4-0.6,0.7-0.9c0.3-0.2,0.6-0.4,1-0.4c2.8-0.1,5.7,0,8.5-0.1
					c1.3,0,1.7,0.4,1.7,1.8c-0.2,8.1-0.2,8.1-8.2,8.1H1419.7z"/>
				<path class="st8" d="M1463.1,545.7h-13.2c-0.2-2.7-0.4-5.4-0.5-8.1c0.2-0.7,0.8-1.3,1.6-1.5c2.8-0.1,5.7-0.1,8.5,0
					c0.7,0.1,1.3,0.5,1.6,1.1C1461.9,539.9,1462.4,542.7,1463.1,545.7z"/>
			</g>
		</g>
	</g>
	<g>
		<defs>
			<rect id="SVGID_00000158708213659576265870000014805636153081586847_" x="1418.9" y="713" width="40" height="59"/>
		</defs>
		<clipPath id="SVGID_00000163763608470988749970000011266858640617024160_">
			<use xlink:href="#SVGID_00000158708213659576265870000014805636153081586847_"  style="overflow:visible;"/>
		</clipPath>
		<g style="clip-path:url(#SVGID_00000163763608470988749970000011266858640617024160_);">
			<path class="st8" d="M1438.7,713c5.9,5.1,10.9,11.1,14.7,17.9c2.3,3.6,4,7.6,5.1,11.8c0.7,5.6,0.7,11.6-1.4,16.9
				c-2.1,5-5.8,9.9-11.2,11.4c-7.6,2.7-16.6-0.5-21.9-6.6c-1.2-1.7-2.2-3.6-3-5.6c-0.7-1-0.7-2.2-1.1-3.3c-1.2-3.3-1.3-6.9-0.4-10.2
				c1.3-4.1,2.9-8.2,5.7-11.5c3-3.4,6.5-6.3,9.1-10.1C1436.3,720.4,1438.3,716.9,1438.7,713z M1437.3,739.5
				c-0.9,1.5-1.8,3.5-3.1,4.9c-3.2,3.4-7.2,6.5-8.4,11.2c-0.9,3.5,0.3,7.2,2.3,10.1c3.6,4.3,9.3,6,14.6,4.4c2.5-0.8,4.2-2.9,5.8-4.8
				c2-3.2,2.2-7.1,1.8-10.7c-0.7-3.1-2.5-5.8-4.2-8.5c-1.7-2.5-3.8-4.7-6.1-6.7C1438,737.9,1438,736.3,1437.3,739.5L1437.3,739.5z"
				/>
		</g>
	</g>
	<g>
		<path class="st12" d="M1129.3,290.6h2.9c5.2,0,10.4,0,15.6,0c1.8,0,2.4-0.8,2.4-2.4s-1.1-1.6-2.2-1.6h-43.2
			c-1.2,0-2.5-0.1-2.4,1.7c0.1,1.7,0.9,2.3,2.6,2.2c5.3-0.1,10.6,0,15.8,0h2.8v7c-1.1,0-2.1,0.1-3.2,0.3c-0.7,0.3-1.1,1.2-1.7,1.9
			c0.6,0.4,1.2,1.1,1.8,1.1c3.8,0.1,7.5,0.1,11.3,0c0.7,0,1.3-0.6,2-1c-0.6-0.7-1.1-1.6-1.8-2c-1-0.3-2-0.4-3-0.3
			C1129.1,295.2,1129.2,293,1129.3,290.6z"/>
		<path class="st12" d="M1118.8,284.6c4.8,0,9.2,0.1,13.7-0.1c0.5,0,1.3-1.1,1.3-1.7c0-2.5-0.2-5-0.5-7.5c-0.2-0.8-0.8-1.4-1.6-1.6
			c-3.5-0.1-7-0.1-10.5,0c-0.7,0.1-1.3,0.6-1.6,1.3C1119.2,278.1,1119.1,281.1,1118.8,284.6z"/>
		<path class="st12" d="M1117.8,273.7c-4.4,0-8.5,0-12.6,0c-0.3,0.1-0.5,0.2-0.7,0.4c-0.2,0.2-0.4,0.4-0.5,0.7
			c-0.8,3.1-1.4,6.3-2.2,9.7h15.1C1117.2,280.9,1117.5,277.5,1117.8,273.7z"/>
		<path class="st12" d="M1150.9,284.6c-0.7-3-1.4-5.7-1.7-8.4c-0.3-2-1.1-2.8-3.1-2.5c-1.4,0.1-2.8,0.1-4.3,0.1h-6.8
			c0.2,3.5,0.4,6.5,0.7,9.5c0,0.5,0.7,1.3,1.1,1.3C1141.3,284.6,1145.9,284.6,1150.9,284.6z"/>
		<path class="st12" d="M1133.1,271.7c-0.2-3-0.3-5.7-0.7-8.4c-0.3-0.6-0.8-1.1-1.5-1.2c-3-0.1-6-0.1-9,0c-0.6,0.1-1.1,0.5-1.4,1
			c-0.3,2.8-0.5,5.6-0.7,8.6L1133.1,271.7z"/>
		<path class="st12" d="M1104.7,271.9h5.7c8.1,0,8.1,0,8.2-8.1c0-1.4-0.4-1.8-1.7-1.8c-2.8,0-5.7-0.1-8.5,0.1
			c-0.4,0.1-0.7,0.2-1,0.4c-0.3,0.2-0.5,0.5-0.7,0.9C1106,266,1105.4,268.7,1104.7,271.9z"/>
		<path class="st12" d="M1148.1,271.7c-0.7-3-1.2-5.8-1.9-8.5c-0.3-0.6-0.9-1-1.6-1.1c-2.8-0.1-5.7-0.1-8.6,0
			c-0.7,0.2-1.3,0.8-1.6,1.5c0,2.7,0.3,5.3,0.4,8.1L1148.1,271.7z"/>
		<path class="st12" d="M1129.3,290.6c-0.1,2.4-0.2,4.5-0.3,6.9c1,0,2,0.1,3,0.3c0.8,0.4,1.2,1.3,1.8,2c-0.7,0.4-1.3,1-2,1
			c-3.8,0.1-7.5,0.1-11.3,0c-0.6,0-1.2-0.7-1.8-1.1c0.5-0.6,1-1.6,1.7-1.9c1-0.3,2.1-0.4,3.2-0.3v-7h-2.8c-5.3,0-10.6,0-15.8,0
			c-1.7,0-2.5-0.5-2.6-2.2c-0.1-1.9,1.2-1.7,2.4-1.7h43.3c1.1,0,2.3-0.1,2.2,1.6s-0.6,2.4-2.4,2.4c-5.2-0.1-10.4,0-15.6,0
			L1129.3,290.6z"/>
		<path class="st12" d="M1118.8,284.6c0.2-3.5,0.4-6.5,0.8-9.6c0.3-0.7,0.9-1.2,1.6-1.3c3.5-0.1,7-0.1,10.5,0c0.6,0,1.5,1,1.6,1.6
			c0.3,2.5,0.5,5,0.5,7.5c0,0.6-0.9,1.7-1.3,1.7C1128.1,284.7,1123.7,284.6,1118.8,284.6z"/>
		<path class="st12" d="M1117.8,273.7c-0.3,3.8-0.6,7.2-0.9,10.8h-15.1c0.8-3.4,1.4-6.5,2.2-9.7c0.1-0.3,0.3-0.5,0.5-0.6
			c0.2-0.2,0.4-0.3,0.7-0.4C1109.3,273.7,1113.4,273.7,1117.8,273.7z"/>
		<path class="st12" d="M1150.9,284.6c-4.9,0-9.5,0-14.1-0.1c-0.4,0-1-0.8-1.1-1.3c-0.3-3-0.4-6-0.7-9.5h6.8c1.4,0.1,2.8,0,4.3-0.1
			c2-0.2,2.8,0.5,3.1,2.5C1149.5,278.9,1150.2,281.5,1150.9,284.6z"/>
		<path class="st12" d="M1133.1,271.7h-13.2c0.2-3,0.4-5.8,0.7-8.6c0.1-0.4,0.9-1,1.4-1c3-0.1,6-0.1,9,0c0.7,0.1,1.2,0.6,1.5,1.2
			C1132.7,266,1132.8,268.8,1133.1,271.7z"/>
		<path class="st12" d="M1104.7,271.9c0.7-3.2,1.3-5.9,2-8.5c0.2-0.3,0.4-0.6,0.7-0.9c0.3-0.2,0.6-0.4,1-0.4c2.8-0.1,5.7,0,8.5-0.1
			c1.3,0,1.7,0.4,1.7,1.8c-0.2,8.1-0.2,8.1-8.2,8.1L1104.7,271.9z"/>
		<path class="st12" d="M1148.1,271.7h-13.2c-0.2-2.7-0.4-5.4-0.5-8.1c0.2-0.7,0.8-1.3,1.6-1.5c2.8-0.1,5.7-0.1,8.5,0
			c0.7,0.1,1.3,0.5,1.6,1.1C1146.9,265.9,1147.4,268.6,1148.1,271.7z"/>
	</g>
	<g>
		<path class="st12" d="M1068.3,290.6h2.9c5.2,0,10.4,0,15.6,0c1.8,0,2.4-0.8,2.4-2.4s-1.1-1.6-2.2-1.6h-43.2
			c-1.2,0-2.5-0.1-2.4,1.7c0.1,1.7,0.9,2.3,2.6,2.2c5.3-0.1,10.6,0,15.8,0h2.8v7c-1.1,0-2.1,0.1-3.2,0.3c-0.7,0.3-1.1,1.2-1.7,1.9
			c0.6,0.4,1.2,1.1,1.8,1.1c3.8,0.1,7.5,0.1,11.3,0c0.7,0,1.3-0.6,2-1c-0.6-0.7-1.1-1.6-1.8-2c-1-0.3-2-0.4-3-0.3
			C1068.1,295.2,1068.2,293,1068.3,290.6z"/>
		<path class="st12" d="M1057.8,284.6c4.8,0,9.2,0.1,13.7-0.1c0.5,0,1.3-1.1,1.3-1.7c0-2.5-0.2-5-0.5-7.5c-0.2-0.8-0.8-1.4-1.6-1.6
			c-3.5-0.1-7-0.1-10.5,0c-0.7,0.1-1.3,0.6-1.6,1.3C1058.2,278.1,1058.1,281.1,1057.8,284.6z"/>
		<path class="st12" d="M1056.8,273.7c-4.4,0-8.5,0-12.6,0c-0.3,0.1-0.5,0.2-0.7,0.4c-0.2,0.2-0.4,0.4-0.5,0.7
			c-0.8,3.1-1.4,6.3-2.2,9.7h15.1C1056.2,280.9,1056.5,277.5,1056.8,273.7z"/>
		<path class="st12" d="M1089.9,284.6c-0.7-3-1.4-5.7-1.7-8.4c-0.3-2-1.1-2.8-3.1-2.5c-1.4,0.1-2.8,0.1-4.3,0.1h-6.8
			c0.2,3.5,0.4,6.5,0.7,9.5c0,0.5,0.7,1.3,1.1,1.3C1080.3,284.6,1084.9,284.6,1089.9,284.6z"/>
		<path class="st12" d="M1072.1,271.7c-0.2-3-0.3-5.7-0.7-8.4c-0.3-0.6-0.8-1.1-1.5-1.2c-3-0.1-6-0.1-9,0c-0.6,0.1-1.1,0.5-1.4,1
			c-0.3,2.8-0.5,5.6-0.7,8.6L1072.1,271.7z"/>
		<path class="st12" d="M1043.7,271.9h5.7c8.1,0,8.1,0,8.2-8.1c0-1.4-0.4-1.8-1.7-1.8c-2.8,0-5.7-0.1-8.5,0.1
			c-0.4,0.1-0.7,0.2-1,0.4c-0.3,0.2-0.5,0.5-0.7,0.9C1045,266,1044.4,268.7,1043.7,271.9z"/>
		<path class="st12" d="M1087.1,271.7c-0.7-3-1.2-5.8-1.9-8.5c-0.3-0.6-0.9-1-1.6-1.1c-2.8-0.1-5.7-0.1-8.6,0
			c-0.7,0.2-1.3,0.8-1.6,1.5c0,2.7,0.3,5.3,0.4,8.1L1087.1,271.7z"/>
		<path class="st12" d="M1068.3,290.6c-0.1,2.4-0.2,4.5-0.3,6.9c1,0,2,0.1,3,0.3c0.8,0.4,1.2,1.3,1.8,2c-0.7,0.4-1.3,1-2,1
			c-3.8,0.1-7.5,0.1-11.3,0c-0.6,0-1.2-0.7-1.8-1.1c0.5-0.6,1-1.6,1.7-1.9c1-0.3,2.1-0.4,3.2-0.3v-7h-2.8c-5.3,0-10.6,0-15.8,0
			c-1.7,0-2.5-0.5-2.6-2.2c-0.1-1.9,1.2-1.7,2.4-1.7h43.3c1.1,0,2.3-0.1,2.2,1.6s-0.6,2.4-2.4,2.4c-5.2-0.1-10.4,0-15.6,0
			L1068.3,290.6z"/>
		<path class="st12" d="M1057.8,284.6c0.2-3.5,0.4-6.5,0.8-9.6c0.3-0.7,0.9-1.2,1.6-1.3c3.5-0.1,7-0.1,10.5,0c0.6,0,1.5,1,1.6,1.6
			c0.3,2.5,0.5,5,0.5,7.5c0,0.6-0.9,1.7-1.3,1.7C1067.1,284.7,1062.7,284.6,1057.8,284.6z"/>
		<path class="st12" d="M1056.8,273.7c-0.3,3.8-0.6,7.2-0.9,10.8h-15.1c0.8-3.4,1.4-6.5,2.2-9.7c0.1-0.3,0.3-0.5,0.5-0.6
			c0.2-0.2,0.4-0.3,0.7-0.4C1048.3,273.7,1052.4,273.7,1056.8,273.7z"/>
		<path class="st12" d="M1089.9,284.6c-4.9,0-9.5,0-14.1-0.1c-0.4,0-1-0.8-1.1-1.3c-0.3-3-0.4-6-0.7-9.5h6.8c1.4,0.1,2.8,0,4.3-0.1
			c2-0.2,2.8,0.5,3.1,2.5C1088.5,278.9,1089.2,281.5,1089.9,284.6z"/>
		<path class="st12" d="M1072.1,271.7h-13.2c0.2-3,0.4-5.8,0.7-8.6c0.1-0.4,0.9-1,1.4-1c3-0.1,6-0.1,9,0c0.7,0.1,1.2,0.6,1.5,1.2
			C1071.7,266,1071.8,268.8,1072.1,271.7z"/>
		<path class="st12" d="M1043.7,271.9c0.7-3.2,1.3-5.9,2-8.5c0.2-0.3,0.4-0.6,0.7-0.9c0.3-0.2,0.6-0.4,1-0.4c2.8-0.1,5.7,0,8.5-0.1
			c1.3,0,1.7,0.4,1.7,1.8c-0.2,8.1-0.2,8.1-8.2,8.1L1043.7,271.9z"/>
		<path class="st12" d="M1087.1,271.7h-13.2c-0.2-2.7-0.4-5.4-0.5-8.1c0.2-0.7,0.8-1.3,1.6-1.5c2.8-0.1,5.7-0.1,8.5,0
			c0.7,0.1,1.3,0.5,1.6,1.1C1085.9,265.9,1086.4,268.6,1087.1,271.7z"/>
	</g>
	<g>
		<defs>
			<rect id="SVGID_00000005256397161579710950000006451329417587732645_" x="1320.9" y="130" width="59" height="68"/>
		</defs>
		<clipPath id="SVGID_00000182491572078684389770000009983909252042151093_">
			<use xlink:href="#SVGID_00000005256397161579710950000006451329417587732645_"  style="overflow:visible;"/>
		</clipPath>
		<g style="clip-path:url(#SVGID_00000182491572078684389770000009983909252042151093_);">
			<g>
				<path class="st7" d="M1346.2,169.6c-0.7,6.8-1.4,13.6-2.1,20.3c-0.1,0.8-0.2,2.2-0.6,2.3c-3.5,1-2.1,3.5-2,5.8h16.5
					c-0.2-1.8,0.1-4.3-0.6-4.6c-3.3-1.6-2.4-4.6-2.7-7.1c-0.7-5.6-1.2-11.3-1.8-16.7L1346.2,169.6z"/>
				<path class="st7" d="M1323,182.8l21.7-14.4c-1-3.8-3.4-4.6-6.7-4.8c-3.5-0.3-5.4,1.1-7.3,3.7c-2.7,3.8-5.7,7.4-8.7,10.9
					C1320.2,180.2,1320.5,181.5,1323,182.8z"/>
				<path class="st7" d="M1356.9,163.2c-1.9,4.6-1.7,4.5,0.3,8.1c1.7,3,3.9,3.9,7.2,3.8c4.2-0.2,8.4,0.2,12.6,0.1c1,0,1.9-1,2.9-1.5
					c-0.6-0.9-1.1-2.2-1.9-2.6C1371,168.4,1364.1,165.9,1356.9,163.2z"/>
				<path class="st7" d="M1346.3,156.2c6.6-1.1,9.3-6.6,6.5-12.1c-1.8-3.4-3.4-6.8-5.3-10.1c-0.9-1.6-0.8-4.9-3.9-3.9
					s-0.9,3.5-0.7,5.2C1343.8,142.3,1345.1,149.1,1346.3,156.2z"/>
				<path class="st7" d="M1354.8,162.7c0-2.1-1.4-4-3.3-4.8c-2-0.8-4.2-0.3-5.7,1.3c-2,2.1-1.9,5.5,0.2,7.5c0.2,0.2,0.5,0.4,0.8,0.6
					c2.1,1.3,4.9,1,6.5-0.9C1354.3,165.4,1354.8,164.1,1354.8,162.7z"/>
				<path class="st8" d="M1346.2,169.6h6.7c0.6,5.4,1.1,11.1,1.8,16.7c0.3,2.5-0.6,5.5,2.7,7.1c0.7,0.3,0.4,2.9,0.6,4.6h-16.5
					c-0.1-2.3-1.4-4.8,2-5.8c0.4-0.1,0.5-1.5,0.6-2.3C1344.8,183.1,1345.5,176.4,1346.2,169.6z"/>
				<path class="st8" d="M1323,182.8c-2.4-1.3-2.7-2.6-1-4.6c3-3.5,6-7.2,8.7-10.9c1.9-2.6,3.8-4,7.3-3.7c3.3,0.3,5.6,1,6.7,4.8
					L1323,182.8z"/>
				<path class="st8" d="M1356.9,163.2c7.1,2.7,14.1,5.2,21,7.9c0.8,0.3,1.3,1.7,1.9,2.6c-1,0.5-1.9,1.5-2.9,1.5
					c-4.2,0.1-8.4-0.2-12.6-0.1c-3.2,0.1-5.5-0.8-7.2-3.8C1355.2,167.6,1355.1,167.8,1356.9,163.2z"/>
				<path class="st8" d="M1346.3,156.2c-1.2-7.1-2.5-13.9-3.5-20.8c-0.2-1.7-2.3-4.2,0.7-5.2s3,2.3,3.9,3.9c2,3.2,3.6,6.7,5.3,10.1
					C1355.6,149.6,1352.9,155.1,1346.3,156.2z"/>
				<path class="st8" d="M1354.8,162.7c0,2.1-1.3,4.1-3.2,4.9c-2,0.8-4.2,0.4-5.7-1.1c-1.5-1.5-1.9-3.8-1.1-5.8
					c0.8-2,2.7-3.3,4.8-3.2c1.4,0,2.7,0.6,3.7,1.6C1354.3,160,1354.8,161.3,1354.8,162.7z"/>
			</g>
		</g>
	</g>
	<g>
		<defs>
			<rect id="SVGID_00000173133516001509978120000015145395761477446834_" x="1478.9" y="370" width="59" height="68"/>
		</defs>
		<clipPath id="SVGID_00000069383381776015321510000001286107313113969059_">
			<use xlink:href="#SVGID_00000173133516001509978120000015145395761477446834_"  style="overflow:visible;"/>
		</clipPath>
		<g style="clip-path:url(#SVGID_00000069383381776015321510000001286107313113969059_);">
			<g>
				<path class="st7" d="M1504.2,409.6c-0.7,6.8-1.4,13.6-2.1,20.3c-0.1,0.8-0.2,2.2-0.6,2.3c-3.5,1-2.1,3.5-2,5.8h16.5
					c-0.2-1.8,0.1-4.3-0.6-4.6c-3.3-1.6-2.4-4.6-2.7-7.1c-0.7-5.6-1.2-11.3-1.8-16.7L1504.2,409.6z"/>
				<path class="st7" d="M1481,422.8l21.7-14.4c-1-3.8-3.4-4.6-6.7-4.8c-3.5-0.3-5.4,1.1-7.3,3.7c-2.7,3.8-5.7,7.4-8.7,10.9
					C1478.2,420.2,1478.5,421.5,1481,422.8z"/>
				<path class="st7" d="M1514.9,403.2c-1.9,4.6-1.7,4.5,0.3,8.1c1.7,3,3.9,4,7.2,3.8c4.2-0.2,8.4,0.2,12.6,0c1,0,1.9-1,2.9-1.5
					c-0.6-0.9-1.1-2.2-1.9-2.5C1529,408.4,1522.1,405.9,1514.9,403.2z"/>
				<path class="st7" d="M1504.3,396.2c6.6-1.1,9.3-6.6,6.5-12.1c-1.8-3.4-3.4-6.8-5.3-10.1c-0.9-1.5-0.8-4.9-3.9-3.9
					s-0.9,3.5-0.7,5.2C1501.8,382.3,1503.1,389.1,1504.3,396.2z"/>
				<path class="st7" d="M1512.8,402.7c0-2.1-1.4-4-3.3-4.8c-2-0.8-4.2-0.3-5.7,1.3c-2,2.1-1.9,5.5,0.2,7.5c0.2,0.2,0.5,0.4,0.8,0.6
					c2.1,1.3,4.9,1,6.5-0.9C1512.3,405.4,1512.8,404.1,1512.8,402.7z"/>
				<path class="st8" d="M1504.2,409.6h6.7c0.6,5.4,1.1,11.1,1.8,16.7c0.3,2.5-0.6,5.5,2.7,7.1c0.7,0.3,0.4,2.9,0.6,4.6h-16.5
					c-0.1-2.3-1.4-4.8,2-5.8c0.4-0.1,0.5-1.5,0.6-2.3C1502.8,423.1,1503.5,416.4,1504.2,409.6z"/>
				<path class="st8" d="M1481,422.8c-2.4-1.3-2.7-2.6-1-4.6c3-3.5,6-7.2,8.7-10.9c1.9-2.6,3.8-4,7.3-3.7c3.3,0.3,5.6,1,6.7,4.8
					L1481,422.8z"/>
				<path class="st8" d="M1514.9,403.2c7.1,2.7,14.1,5.2,21,8c0.8,0.3,1.3,1.7,1.9,2.5c-1,0.5-1.9,1.5-2.9,1.5
					c-4.2,0.1-8.4-0.2-12.6-0.1c-3.2,0.1-5.5-0.8-7.2-3.8C1513.2,407.6,1513.1,407.8,1514.9,403.2z"/>
				<path class="st8" d="M1504.3,396.2c-1.2-7.1-2.5-13.9-3.5-20.8c-0.2-1.7-2.3-4.2,0.7-5.2s3,2.3,3.9,3.9c2,3.2,3.6,6.7,5.3,10.1
					C1513.6,389.6,1510.9,395.1,1504.3,396.2z"/>
				<path class="st8" d="M1512.8,402.7c0,2.1-1.3,4.1-3.2,4.9c-2,0.8-4.2,0.4-5.7-1.1c-1.5-1.5-1.9-3.8-1.1-5.8
					c0.8-2,2.7-3.3,4.8-3.2c1.4,0,2.7,0.6,3.7,1.6C1512.3,400,1512.8,401.3,1512.8,402.7z"/>
			</g>
		</g>
	</g>
	<g>
		<defs>
			<rect id="SVGID_00000005237956800098222690000001829261334316565419_" x="1357.9" y="330" width="59" height="68"/>
		</defs>
		<clipPath id="SVGID_00000106135910906915573480000008799363454180437921_">
			<use xlink:href="#SVGID_00000005237956800098222690000001829261334316565419_"  style="overflow:visible;"/>
		</clipPath>
		<g style="clip-path:url(#SVGID_00000106135910906915573480000008799363454180437921_);">
			<g>
				<path class="st7" d="M1383.2,369.6c-0.7,6.8-1.4,13.6-2.1,20.3c-0.1,0.8-0.2,2.2-0.6,2.3c-3.5,1-2.1,3.5-2,5.8h16.5
					c-0.2-1.8,0.1-4.3-0.6-4.6c-3.3-1.6-2.4-4.6-2.7-7.1c-0.7-5.6-1.2-11.3-1.8-16.7L1383.2,369.6z"/>
				<path class="st7" d="M1360,382.8l21.7-14.4c-1-3.8-3.4-4.6-6.7-4.8c-3.5-0.3-5.4,1.1-7.3,3.7c-2.7,3.8-5.7,7.4-8.7,10.9
					C1357.2,380.2,1357.5,381.5,1360,382.8z"/>
				<path class="st7" d="M1393.9,363.2c-1.9,4.6-1.7,4.5,0.3,8.1c1.7,3,3.9,4,7.2,3.8c4.2-0.2,8.4,0.2,12.6,0c1,0,1.9-1,2.9-1.5
					c-0.6-0.9-1.1-2.2-1.9-2.5C1408,368.4,1401.1,365.9,1393.9,363.2z"/>
				<path class="st7" d="M1383.3,356.2c6.6-1.1,9.3-6.6,6.5-12.1c-1.8-3.4-3.4-6.8-5.3-10.1c-0.9-1.5-0.8-4.9-3.9-3.9
					s-0.9,3.5-0.7,5.2C1380.8,342.3,1382.1,349.1,1383.3,356.2z"/>
				<path class="st7" d="M1391.8,362.7c0-2.1-1.4-4-3.3-4.8c-2-0.8-4.2-0.3-5.7,1.3c-2,2.1-1.9,5.5,0.2,7.5c0.2,0.2,0.5,0.4,0.8,0.6
					c2.1,1.3,4.9,1,6.5-0.9C1391.3,365.4,1391.8,364.1,1391.8,362.7z"/>
				<path class="st8" d="M1383.2,369.6h6.7c0.6,5.4,1.1,11.1,1.8,16.7c0.3,2.5-0.6,5.5,2.7,7.1c0.7,0.3,0.4,2.9,0.6,4.6h-16.5
					c-0.1-2.3-1.4-4.8,2-5.8c0.4-0.1,0.5-1.5,0.6-2.3C1381.8,383.1,1382.5,376.4,1383.2,369.6z"/>
				<path class="st8" d="M1360,382.8c-2.4-1.3-2.7-2.6-1-4.6c3-3.5,6-7.2,8.7-10.9c1.9-2.6,3.8-4,7.3-3.7c3.3,0.3,5.6,1,6.7,4.8
					L1360,382.8z"/>
				<path class="st8" d="M1393.9,363.2c7.1,2.7,14.1,5.2,21,8c0.8,0.3,1.3,1.7,1.9,2.5c-1,0.5-1.9,1.5-2.9,1.5
					c-4.2,0.1-8.4-0.2-12.6-0.1c-3.2,0.1-5.5-0.8-7.2-3.8C1392.2,367.6,1392.1,367.8,1393.9,363.2z"/>
				<path class="st8" d="M1383.3,356.2c-1.2-7.1-2.5-13.9-3.5-20.8c-0.2-1.7-2.3-4.2,0.7-5.2s3,2.3,3.9,3.9c2,3.2,3.6,6.7,5.3,10.1
					C1392.6,349.6,1389.9,355.1,1383.3,356.2z"/>
				<path class="st8" d="M1391.8,362.7c0,2.1-1.3,4.1-3.2,4.9c-2,0.8-4.2,0.4-5.7-1.1c-1.5-1.5-1.9-3.8-1.1-5.8
					c0.8-2,2.7-3.3,4.8-3.2c1.4,0,2.7,0.6,3.7,1.6C1391.3,360,1391.8,361.3,1391.8,362.7z"/>
			</g>
		</g>
	</g>
	<g>
		<defs>
			<rect id="SVGID_00000053508968461107366040000003176468845976416687_" x="1342.9" y="474" width="40" height="59"/>
		</defs>
		<clipPath id="SVGID_00000134937506937216631320000009606929991999003290_">
			<use xlink:href="#SVGID_00000053508968461107366040000003176468845976416687_"  style="overflow:visible;"/>
		</clipPath>
		<g style="clip-path:url(#SVGID_00000134937506937216631320000009606929991999003290_);">
			<path class="st8" d="M1362.7,474c5.9,5.1,10.9,11.1,14.7,17.9c2.3,3.6,4,7.6,5.1,11.8c0.7,5.6,0.7,11.6-1.4,16.9
				c-2.1,5-5.8,9.9-11.2,11.4c-7.6,2.7-16.6-0.5-21.9-6.6c-1.2-1.7-2.2-3.6-3-5.6c-0.7-1-0.7-2.2-1.1-3.3c-1.2-3.3-1.3-6.9-0.4-10.2
				c1.3-4.1,2.9-8.2,5.7-11.5c3-3.4,6.5-6.3,9.1-10.1C1360.3,481.4,1362.3,477.9,1362.7,474z M1361.3,500.5
				c-0.9,1.5-1.8,3.5-3.1,4.9c-3.2,3.4-7.2,6.5-8.4,11.2c-0.9,3.5,0.3,7.2,2.3,10.1c3.6,4.3,9.3,6,14.6,4.4c2.5-0.8,4.2-2.9,5.8-4.8
				c2-3.2,2.2-7.1,1.8-10.7c-0.7-3.1-2.5-5.8-4.2-8.5c-1.7-2.5-3.8-4.7-6.1-6.7C1362,498.9,1362,497.4,1361.3,500.5L1361.3,500.5z"
				/>
		</g>
	</g>
</g>
<g id="Wetter">
	<g>
		<defs>
			<rect id="SVGID_00000141450502647082951520000013876889874288572303_" x="1418.3" y="76.9" width="189.5" height="86.8"/>
		</defs>
		<clipPath id="SVGID_00000083064959434825267580000010954637940418836407_">
			<use xlink:href="#SVGID_00000141450502647082951520000013876889874288572303_"  style="overflow:visible;"/>
		</clipPath>
		<g style="clip-path:url(#SVGID_00000083064959434825267580000010954637940418836407_);">
			<path class="st23" d="M1602.9,163.7c7.6-13.4,6.3-30.1-3.3-42.2c-4.7-5.9-11-10.4-18.2-12.7c-7.2-2.4-15-2.6-22.3-0.7
				c-3.7-9.8-10.5-18.1-19.3-23.7c-18.3-11.5-42-9.6-58.2,4.7c-7.8,6.9-13.2,16.2-15.2,26.5c-11.5-2.8-23.8-0.3-33.2,7
				c-4.6,3.6-8.4,8.2-11,13.4c-4.2,8.6-5.1,18.5-2.3,27.7L1602.9,163.7z"/>
		</g>
	</g>
	<g>
		<defs>
			<rect id="SVGID_00000083783777605700566140000000662529888429481907_" x="1521.3" y="107.9" width="189.5" height="86.8"/>
		</defs>
		<clipPath id="SVGID_00000044174890992599225080000015443583441647128757_">
			<use xlink:href="#SVGID_00000083783777605700566140000000662529888429481907_"  style="overflow:visible;"/>
		</clipPath>
		<g style="clip-path:url(#SVGID_00000044174890992599225080000015443583441647128757_);">
			<path class="st25" d="M1705.9,194.7c7.6-13.4,6.3-30.1-3.3-42.2c-4.7-5.9-11-10.4-18.2-12.7c-7.2-2.4-15-2.6-22.3-0.7
				c-3.7-9.8-10.5-18.1-19.3-23.7c-18.3-11.5-42-9.6-58.2,4.7c-7.8,6.9-13.2,16.2-15.2,26.5c-11.5-2.8-23.8-0.3-33.2,7
				c-4.6,3.6-8.4,8.2-11,13.4c-4.2,8.6-5.1,18.5-2.3,27.7L1705.9,194.7z"/>
		</g>
	</g>
	<text transform="matrix(1 0 0 1 1197.53 742.81)" class="st7 st26 st27">Stromdefizit</text>
</g>
<g id="Watt">
	<rect x="1419" y="204" class="st28" width="41" height="41"/>
	<text transform="matrix(1 0 0 1 1422.78 238.04)" class="st7 st26 st29">0.0</text>
	<text transform="matrix(1 0 0 1 1439.79 238.04)" class="st7 st26 st30"> </text>
	<text transform="matrix(1 0 0 1 1441.0901 238.04)" class="st7 st26 st31">MW</text>
	<g class="st32">
		<g>
			<line class="st33" x1="1419" y1="215" x2="1419.5" y2="215"/>
			<line class="st34" x1="1421.4" y1="215" x2="1458.5" y2="215"/>
			<line class="st33" x1="1459.5" y1="215" x2="1460" y2="215"/>
		</g>
	</g>
	<rect x="1156" y="260.8" class="st28" width="41" height="41"/>
	<text transform="matrix(1 0 0 1 1159.76 294.81)" class="st7 st26 st29">0.0</text>
	<text transform="matrix(1 0 0 1 1176.77 294.81)" class="st7 st26 st30"> </text>
	<text transform="matrix(1 0 0 1 1178.0701 294.81)" class="st7 st26 st31">MW</text>
	<g class="st32">
		<g>
			<line class="st33" x1="1156" y1="271.8" x2="1156.5" y2="271.8"/>
			<line class="st34" x1="1158.4" y1="271.8" x2="1195.5" y2="271.8"/>
			<line class="st33" x1="1196.5" y1="271.8" x2="1197" y2="271.8"/>
		</g>
	</g>
	<rect x="989" y="260.8" class="st28" width="41" height="41"/>
	<text transform="matrix(1 0 0 1 992.76 294.81)" class="st7 st26 st29">0.0</text>
	<text transform="matrix(1 0 0 1 1009.77 294.81)" class="st7 st26 st30"> </text>
	<text transform="matrix(1 0 0 1 1011.07 294.81)" class="st7 st26 st31">MW</text>
	<g class="st32">
		<g>
			<line class="st33" x1="989" y1="271.8" x2="989.5" y2="271.8"/>
			<line class="st34" x1="991.4" y1="271.8" x2="1028.5" y2="271.8"/>
			<line class="st33" x1="1029.5" y1="271.8" x2="1030" y2="271.8"/>
		</g>
	</g>
</g>
<text transform="matrix(1 0 0 1 2133.4956 1030.4012)" class="st39 st29">Dare registriert die niedrigere Einspeisung und den hheren Bedarf im Sden und prft, mit welchen Manahmen am effizientesten geholfen werden kann.</text>
<text transform="matrix(1 0 0 1 2133.4961 1020.3574)" class="st39 st29">Dare registriert die niedrigere Einspeisung und den hheren Bedarf im Sden und prft, mit welchen Manahmen am effizientesten geholfen werden kann.</text>
<rect x="899.7" y="324.1" class="st35" width="6.9" height="2.3"/>
<path class="st36" d="M1578.7,416.7h293c5.2,0,9.5,4.3,9.5,9.5v364c0,5.2-4.3,9.5-9.5,9.5h-293c-5.2,0-9.5-4.3-9.5-9.5v-364
	C1569.2,421,1573.4,416.7,1578.7,416.7z"/>
<g>
	<path class="st7" d="M1667.7,350.2h115c5.5,0,10,4.5,10,10v115c0,5.5-4.5,10-10,10h-115c-5.5,0-10-4.5-10-10v-115
		C1657.7,354.7,1662.2,350.2,1667.7,350.2z"/>
</g>
<path class="st37" d="M1698.7,425.7l-24.6,15.3v5.9l24.6-15.4l24.6,15.4v-5.9L1698.7,425.7z"/>
<path class="st37" d="M1752.7,410.4l24.5-15.3v-5.9l-24.5,15.4l-24.6-15.4v5.9L1752.7,410.4z"/>
<path class="st38" d="M1696.3,402.8c0,4.4-1.2,7.9-3.8,10.3c-2.6,2.3-6.3,3.6-11.1,3.6h-7.8v-27.3h8.6c4.4,0,7.9,1.2,10.3,3.6
	C1695.1,395.3,1696.3,398.6,1696.3,402.8z M1690.4,402.9c0-5.9-2.6-8.7-7.8-8.7h-3.1v17.7h2.5
	C1687.6,411.9,1690.4,408.9,1690.4,402.9z"/>
<path class="st38" d="M1718,416.7l-2-6.5h-10l-2,6.5h-6.3l9.6-27.4h7l9.7,27.4H1718z M1714.7,405.3c-1.8-5.9-2.8-9.2-3.1-10
	c-0.2-0.7-0.4-1.4-0.5-1.8c-0.4,1.6-1.6,5.5-3.6,11.8H1714.7z"/>
<path class="st38" d="M1737.3,436.4v10.5h-5.8v-27.3h8c3.7,0,6.4,0.6,8.2,2c1.7,1.4,2.7,3.4,2.7,6.2c0,1.6-0.5,3.1-1.4,4.3
	c-0.9,1.2-2.1,2.2-3.7,3c4.1,6.2,6.8,10.1,8,11.9h-6.4l-6.5-10.5H1737.3z M1737.3,432.2h1.8c1.8,0,3.2-0.2,4.1-0.9
	c0.9-0.6,1.4-1.6,1.4-2.8c0-1.4-0.5-2.2-1.4-2.7c-0.9-0.5-2.2-0.9-4.2-0.9h-1.7V432.2L1737.3,432.2z"/>
<path class="st38" d="M1774.6,446.8h-16.5v-27.3h16.5v4.8h-10.7v6h10v4.8h-10v7h10.7V446.8z"/>
<rect x="1588.4" y="521" class="st35" width="273.6" height="235"/>
<text transform="matrix(1 0 0 1 1595.6224 535.1747)"><tspan x="0" y="0" class="st28 st39 st40">DA/RE registriert die niedrigere </tspan><tspan x="4.5" y="25" class="st28 st39 st40">Einspeisung und den hheren </tspan><tspan x="17.2" y="50" class="st28 st39 st40">Bedarf im Sden und prft, </tspan><tspan x="7.6" y="75" class="st28 st39 st40">mit welchen Manahmen am </tspan><tspan x="-0.5" y="100" class="st28 st39 st40">effizientesten geholfen werden </tspan><tspan x="106.9" y="125" class="st28 st39 st40">kann.</tspan></text>
<g>
	<circle class="st41" cx="1728.2" cy="733.1" r="41.2"/>
	<path class="st42" d="M1728.5,691.9c22.7,0,41.2,18.4,41.2,41.2s-18.4,41.2-41.2,41.2c-13.5,0-25.5-6.5-33-16.6"/>
	<circle class="st43" cx="1728.2" cy="691.9" r="10.7"/>
	<polygon class="st7" points="1727,684.9 1730.7,684.9 1728.8,691.2 1731.9,691.2 1727.8,698.9 1727.8,693.6 1724.4,693.6 	"/>
	<g>
		<line class="st44" x1="1712.6" y1="758.6" x2="1744.7" y2="758.6"/>
		<line class="st44" x1="1717" y1="758.6" x2="1724.1" y2="717.6"/>
		<line class="st44" x1="1739.8" y1="758.6" x2="1732.7" y2="717.6"/>
		<line class="st44" x1="1722.4" y1="727.4" x2="1734.1" y2="727.4"/>
		<line class="st44" x1="1720.5" y1="740.1" x2="1736.7" y2="740.1"/>
		<line class="st45" x1="1720.5" y1="741" x2="1739.8" y2="757.7"/>
		<line class="st45" x1="1736.3" y1="741" x2="1718" y2="758"/>
		<line class="st45" x1="1722.4" y1="728.2" x2="1736.3" y2="739.3"/>
		<line class="st45" x1="1721.4" y1="739.6" x2="1733.7" y2="728.2"/>
		<line class="st45" x1="1724.1" y1="718.7" x2="1733.1" y2="726.8"/>
		<line class="st45" x1="1723.3" y1="726.8" x2="1731.9" y2="718.2"/>
		<polyline class="st46" points="1714.8,722.1 1714.8,717.1 1741.5,717.1 1741.5,722.1 		"/>
		<line class="st47" x1="1713" y1="719.6" x2="1716.7" y2="719.6"/>
		<line class="st47" x1="1713" y1="721.1" x2="1716.7" y2="721.1"/>
		<line class="st47" x1="1739.7" y1="719.6" x2="1743.3" y2="719.6"/>
		<line class="st47" x1="1739.7" y1="721.1" x2="1743.3" y2="721.1"/>
		<polyline class="st47" points="1718,716.6 1721.4,712.1 1735.6,712.1 1738.7,716.6 		"/>
		<line class="st47" x1="1724.8" y1="716.6" x2="1725.3" y2="712.1"/>
		<line class="st47" x1="1730.9" y1="712.1" x2="1731.5" y2="716.3"/>
		<path class="st47" d="M1704.6,728.2c0,0,6.6,0.9,10.2-4.6"/>
		<path class="st47" d="M1751.7,728.2c0,0-6.6,0.9-10.2-4.6"/>
	</g>
</g>
</svg>
