<svg width="265" height="599" viewBox="0 0 265 599" fill="none" xmlns="http://www.w3.org/2000/svg">
<rect x="100" y="4" width="35" height="96" transform="rotate(90 100 4)" fill="#5FAD8C" stroke="#636363" stroke-width="7"/>
<rect x="100" y="39" width="34" height="96" transform="rotate(90 100 39)" fill="#92B3B3" fill-opacity="0.83" stroke="#636363" stroke-width="7"/>
<rect x="100" y="73" width="35" height="96" transform="rotate(90 100 73)" fill="#92B3B3" fill-opacity="0.83" stroke="#636363" stroke-width="7"/>
<rect x="100" y="108" width="35" height="96" transform="rotate(90 100 108)" fill="#92B3B3" fill-opacity="0.83" stroke="#636363" stroke-width="7"/>
<rect x="100" y="143" width="35" height="96" transform="rotate(90 100 143)" fill="#92B3B3" fill-opacity="0.83" stroke="#636363" stroke-width="7"/>
<rect x="100" y="178" width="34" height="96" transform="rotate(90 100 178)" fill="#8EB0CF" fill-opacity="0.75" stroke="#636363" stroke-width="7"/>
<rect x="100" y="212" width="35" height="96" transform="rotate(90 100 212)" fill="#8EB0CF" fill-opacity="0.75" stroke="#636363" stroke-width="7"/>
<rect x="100" y="247" width="35" height="96" transform="rotate(90 100 247)" fill="#8EB0CF" fill-opacity="0.75" stroke="#636363" stroke-width="7"/>
<rect x="100" y="282" width="35" height="96" transform="rotate(90 100 282)" fill="#CACC62" stroke="#636363" stroke-width="7"/>
<rect x="100" y="317" width="34" height="96" transform="rotate(90 100 317)" fill="#CACC62" stroke="#636363" stroke-width="7"/>
<rect x="100" y="351" width="35" height="96" transform="rotate(90 100 351)" fill="#CACC62" stroke="#636363" stroke-width="7"/>
<rect x="100" y="386" width="35" height="96" transform="rotate(90 100 386)" fill="#CACC62" stroke="#636363" stroke-width="7"/>
<rect x="100" y="421" width="35" height="96" transform="rotate(90 100 421)" fill="#CACC62" stroke="#636363" stroke-width="7"/>
<rect x="100" y="456" width="34" height="96" transform="rotate(90 100 456)" fill="#CACC62" stroke="#636363" stroke-width="7"/>
<rect x="100" y="490" width="35" height="96" transform="rotate(90 100 490)" fill="#DFC08B" stroke="#636363" stroke-width="7"/>
<rect x="100" y="525" width="35" height="96" transform="rotate(90 100 525)" fill="#DFC08B" stroke="#636363" stroke-width="7"/>
<rect x="100" y="560" width="35" height="96" transform="rotate(90 100 560)" fill="#DFC08B" stroke="#636363" stroke-width="7"/>
<path d="M129.914 33H126.293V23.0859L126.328 21.457L126.387 19.6758C125.785 20.2773 125.367 20.6719 125.133 20.8594L123.164 22.4414L121.418 20.2617L126.938 15.8672H129.914V33ZM146.578 23.1797C146.578 26.5547 145.867 29.0742 144.445 30.7383C143.023 32.4023 140.871 33.2344 137.988 33.2344C136.973 33.2344 136.203 33.1797 135.68 33.0703V30.1641C136.336 30.3281 137.023 30.4102 137.742 30.4102C138.953 30.4102 139.949 30.2344 140.73 29.8828C141.512 29.5234 142.109 28.9648 142.523 28.207C142.938 27.4414 143.176 26.3906 143.238 25.0547H143.098C142.645 25.7891 142.121 26.3047 141.527 26.6016C140.934 26.8984 140.191 27.0469 139.301 27.0469C137.809 27.0469 136.633 26.5703 135.773 25.6172C134.914 24.6562 134.484 23.3242 134.484 21.6211C134.484 19.7852 135.004 18.3359 136.043 17.2734C137.09 16.2031 138.512 15.668 140.309 15.668C141.574 15.668 142.68 15.9648 143.625 16.5586C144.578 17.1523 145.309 18.0156 145.816 19.1484C146.324 20.2734 146.578 21.6172 146.578 23.1797ZM140.379 18.5742C139.629 18.5742 139.043 18.832 138.621 19.3477C138.199 19.8633 137.988 20.6055 137.988 21.5742C137.988 22.4023 138.18 23.0586 138.562 23.543C138.945 24.0273 139.527 24.2695 140.309 24.2695C141.043 24.2695 141.672 24.0312 142.195 23.5547C142.719 23.0703 142.98 22.5156 142.98 21.8906C142.98 20.9609 142.734 20.1758 142.242 19.5352C141.758 18.8945 141.137 18.5742 140.379 18.5742ZM150.082 33L156.516 18.9375H148.066V15.8906H160.359V18.1641L153.879 33H150.082ZM171.047 33H167.426V23.0859L167.461 21.457L167.52 19.6758C166.918 20.2773 166.5 20.6719 166.266 20.8594L164.297 22.4414L162.551 20.2617L168.07 15.8672H171.047V33Z" fill="white"/>
<path d="M129.914 117H126.293V107.086L126.328 105.457L126.387 103.676C125.785 104.277 125.367 104.672 125.133 104.859L123.164 106.441L121.418 104.262L126.938 99.8672H129.914V117ZM146.578 107.18C146.578 110.555 145.867 113.074 144.445 114.738C143.023 116.402 140.871 117.234 137.988 117.234C136.973 117.234 136.203 117.18 135.68 117.07V114.164C136.336 114.328 137.023 114.41 137.742 114.41C138.953 114.41 139.949 114.234 140.73 113.883C141.512 113.523 142.109 112.965 142.523 112.207C142.938 111.441 143.176 110.391 143.238 109.055H143.098C142.645 109.789 142.121 110.305 141.527 110.602C140.934 110.898 140.191 111.047 139.301 111.047C137.809 111.047 136.633 110.57 135.773 109.617C134.914 108.656 134.484 107.324 134.484 105.621C134.484 103.785 135.004 102.336 136.043 101.273C137.09 100.203 138.512 99.668 140.309 99.668C141.574 99.668 142.68 99.9648 143.625 100.559C144.578 101.152 145.309 102.016 145.816 103.148C146.324 104.273 146.578 105.617 146.578 107.18ZM140.379 102.574C139.629 102.574 139.043 102.832 138.621 103.348C138.199 103.863 137.988 104.605 137.988 105.574C137.988 106.402 138.18 107.059 138.562 107.543C138.945 108.027 139.527 108.27 140.309 108.27C141.043 108.27 141.672 108.031 142.195 107.555C142.719 107.07 142.98 106.516 142.98 105.891C142.98 104.961 142.734 104.176 142.242 103.535C141.758 102.895 141.137 102.574 140.379 102.574ZM154.289 99.6445C155.93 99.6445 157.25 100.02 158.25 100.77C159.258 101.512 159.762 102.516 159.762 103.781C159.762 104.656 159.52 105.438 159.035 106.125C158.551 106.805 157.77 107.414 156.691 107.953C157.973 108.641 158.891 109.359 159.445 110.109C160.008 110.852 160.289 111.668 160.289 112.559C160.289 113.965 159.738 115.098 158.637 115.957C157.535 116.809 156.086 117.234 154.289 117.234C152.414 117.234 150.941 116.836 149.871 116.039C148.801 115.242 148.266 114.113 148.266 112.652C148.266 111.676 148.523 110.809 149.039 110.051C149.562 109.293 150.398 108.625 151.547 108.047C150.57 107.43 149.867 106.77 149.438 106.066C149.008 105.363 148.793 104.594 148.793 103.758C148.793 102.531 149.301 101.539 150.316 100.781C151.332 100.023 152.656 99.6445 154.289 99.6445ZM151.617 112.441C151.617 113.113 151.852 113.637 152.32 114.012C152.789 114.387 153.43 114.574 154.242 114.574C155.141 114.574 155.812 114.383 156.258 114C156.703 113.609 156.926 113.098 156.926 112.465C156.926 111.941 156.703 111.453 156.258 111C155.82 110.539 155.105 110.051 154.113 109.535C152.449 110.301 151.617 111.27 151.617 112.441ZM154.266 102.293C153.648 102.293 153.148 102.453 152.766 102.773C152.391 103.086 152.203 103.508 152.203 104.039C152.203 104.508 152.352 104.93 152.648 105.305C152.953 105.672 153.5 106.051 154.289 106.441C155.055 106.082 155.59 105.715 155.895 105.34C156.199 104.965 156.352 104.531 156.352 104.039C156.352 103.5 156.156 103.074 155.766 102.762C155.375 102.449 154.875 102.293 154.266 102.293ZM173.977 108.434C173.977 111.426 173.484 113.641 172.5 115.078C171.523 116.516 170.016 117.234 167.977 117.234C166 117.234 164.508 116.492 163.5 115.008C162.5 113.523 162 111.332 162 108.434C162 105.41 162.488 103.184 163.465 101.754C164.441 100.316 165.945 99.5977 167.977 99.5977C169.953 99.5977 171.445 100.348 172.453 101.848C173.469 103.348 173.977 105.543 173.977 108.434ZM165.598 108.434C165.598 110.535 165.777 112.043 166.137 112.957C166.504 113.863 167.117 114.316 167.977 114.316C168.82 114.316 169.43 113.855 169.805 112.934C170.18 112.012 170.367 110.512 170.367 108.434C170.367 106.332 170.176 104.824 169.793 103.91C169.418 102.988 168.812 102.527 167.977 102.527C167.125 102.527 166.516 102.988 166.148 103.91C165.781 104.824 165.598 106.332 165.598 108.434Z" fill="white"/>
<path d="M129.914 398H126.293V388.086L126.328 386.457L126.387 384.676C125.785 385.277 125.367 385.672 125.133 385.859L123.164 387.441L121.418 385.262L126.938 380.867H129.914V398ZM146.578 388.18C146.578 391.555 145.867 394.074 144.445 395.738C143.023 397.402 140.871 398.234 137.988 398.234C136.973 398.234 136.203 398.18 135.68 398.07V395.164C136.336 395.328 137.023 395.41 137.742 395.41C138.953 395.41 139.949 395.234 140.73 394.883C141.512 394.523 142.109 393.965 142.523 393.207C142.938 392.441 143.176 391.391 143.238 390.055H143.098C142.645 390.789 142.121 391.305 141.527 391.602C140.934 391.898 140.191 392.047 139.301 392.047C137.809 392.047 136.633 391.57 135.773 390.617C134.914 389.656 134.484 388.324 134.484 386.621C134.484 384.785 135.004 383.336 136.043 382.273C137.09 381.203 138.512 380.668 140.309 380.668C141.574 380.668 142.68 380.965 143.625 381.559C144.578 382.152 145.309 383.016 145.816 384.148C146.324 385.273 146.578 386.617 146.578 388.18ZM140.379 383.574C139.629 383.574 139.043 383.832 138.621 384.348C138.199 384.863 137.988 385.605 137.988 386.574C137.988 387.402 138.18 388.059 138.562 388.543C138.945 389.027 139.527 389.27 140.309 389.27C141.043 389.27 141.672 389.031 142.195 388.555C142.719 388.07 142.98 387.516 142.98 386.891C142.98 385.961 142.734 385.176 142.242 384.535C141.758 383.895 141.137 383.574 140.379 383.574ZM160.289 388.18C160.289 391.555 159.578 394.074 158.156 395.738C156.734 397.402 154.582 398.234 151.699 398.234C150.684 398.234 149.914 398.18 149.391 398.07V395.164C150.047 395.328 150.734 395.41 151.453 395.41C152.664 395.41 153.66 395.234 154.441 394.883C155.223 394.523 155.82 393.965 156.234 393.207C156.648 392.441 156.887 391.391 156.949 390.055H156.809C156.355 390.789 155.832 391.305 155.238 391.602C154.645 391.898 153.902 392.047 153.012 392.047C151.52 392.047 150.344 391.57 149.484 390.617C148.625 389.656 148.195 388.324 148.195 386.621C148.195 384.785 148.715 383.336 149.754 382.273C150.801 381.203 152.223 380.668 154.02 380.668C155.285 380.668 156.391 380.965 157.336 381.559C158.289 382.152 159.02 383.016 159.527 384.148C160.035 385.273 160.289 386.617 160.289 388.18ZM154.09 383.574C153.34 383.574 152.754 383.832 152.332 384.348C151.91 384.863 151.699 385.605 151.699 386.574C151.699 387.402 151.891 388.059 152.273 388.543C152.656 389.027 153.238 389.27 154.02 389.27C154.754 389.27 155.383 389.031 155.906 388.555C156.43 388.07 156.691 387.516 156.691 386.891C156.691 385.961 156.445 385.176 155.953 384.535C155.469 383.895 154.848 383.574 154.09 383.574ZM173.977 389.434C173.977 392.426 173.484 394.641 172.5 396.078C171.523 397.516 170.016 398.234 167.977 398.234C166 398.234 164.508 397.492 163.5 396.008C162.5 394.523 162 392.332 162 389.434C162 386.41 162.488 384.184 163.465 382.754C164.441 381.316 165.945 380.598 167.977 380.598C169.953 380.598 171.445 381.348 172.453 382.848C173.469 384.348 173.977 386.543 173.977 389.434ZM165.598 389.434C165.598 391.535 165.777 393.043 166.137 393.957C166.504 394.863 167.117 395.316 167.977 395.316C168.82 395.316 169.43 394.855 169.805 393.934C170.18 393.012 170.367 391.512 170.367 389.434C170.367 387.332 170.176 385.824 169.793 384.91C169.418 383.988 168.812 383.527 167.977 383.527C167.125 383.527 166.516 383.988 166.148 384.91C165.781 385.824 165.598 387.332 165.598 389.434Z" fill="white"/>
<path d="M129.914 242H126.293V232.086L126.328 230.457L126.387 228.676C125.785 229.277 125.367 229.672 125.133 229.859L123.164 231.441L121.418 229.262L126.938 224.867H129.914V242ZM146.578 232.18C146.578 235.555 145.867 238.074 144.445 239.738C143.023 241.402 140.871 242.234 137.988 242.234C136.973 242.234 136.203 242.18 135.68 242.07V239.164C136.336 239.328 137.023 239.41 137.742 239.41C138.953 239.41 139.949 239.234 140.73 238.883C141.512 238.523 142.109 237.965 142.523 237.207C142.938 236.441 143.176 235.391 143.238 234.055H143.098C142.645 234.789 142.121 235.305 141.527 235.602C140.934 235.898 140.191 236.047 139.301 236.047C137.809 236.047 136.633 235.57 135.773 234.617C134.914 233.656 134.484 232.324 134.484 230.621C134.484 228.785 135.004 227.336 136.043 226.273C137.09 225.203 138.512 224.668 140.309 224.668C141.574 224.668 142.68 224.965 143.625 225.559C144.578 226.152 145.309 227.016 145.816 228.148C146.324 229.273 146.578 230.617 146.578 232.18ZM140.379 227.574C139.629 227.574 139.043 227.832 138.621 228.348C138.199 228.863 137.988 229.605 137.988 230.574C137.988 231.402 138.18 232.059 138.562 232.543C138.945 233.027 139.527 233.27 140.309 233.27C141.043 233.27 141.672 233.031 142.195 232.555C142.719 232.07 142.98 231.516 142.98 230.891C142.98 229.961 142.734 229.176 142.242 228.535C141.758 227.895 141.137 227.574 140.379 227.574ZM154.289 224.645C155.93 224.645 157.25 225.02 158.25 225.77C159.258 226.512 159.762 227.516 159.762 228.781C159.762 229.656 159.52 230.438 159.035 231.125C158.551 231.805 157.77 232.414 156.691 232.953C157.973 233.641 158.891 234.359 159.445 235.109C160.008 235.852 160.289 236.668 160.289 237.559C160.289 238.965 159.738 240.098 158.637 240.957C157.535 241.809 156.086 242.234 154.289 242.234C152.414 242.234 150.941 241.836 149.871 241.039C148.801 240.242 148.266 239.113 148.266 237.652C148.266 236.676 148.523 235.809 149.039 235.051C149.562 234.293 150.398 233.625 151.547 233.047C150.57 232.43 149.867 231.77 149.438 231.066C149.008 230.363 148.793 229.594 148.793 228.758C148.793 227.531 149.301 226.539 150.316 225.781C151.332 225.023 152.656 224.645 154.289 224.645ZM151.617 237.441C151.617 238.113 151.852 238.637 152.32 239.012C152.789 239.387 153.43 239.574 154.242 239.574C155.141 239.574 155.812 239.383 156.258 239C156.703 238.609 156.926 238.098 156.926 237.465C156.926 236.941 156.703 236.453 156.258 236C155.82 235.539 155.105 235.051 154.113 234.535C152.449 235.301 151.617 236.27 151.617 237.441ZM154.266 227.293C153.648 227.293 153.148 227.453 152.766 227.773C152.391 228.086 152.203 228.508 152.203 229.039C152.203 229.508 152.352 229.93 152.648 230.305C152.953 230.672 153.5 231.051 154.289 231.441C155.055 231.082 155.59 230.715 155.895 230.34C156.199 229.965 156.352 229.531 156.352 229.039C156.352 228.5 156.156 228.074 155.766 227.762C155.375 227.449 154.875 227.293 154.266 227.293ZM168.328 231.055C169.984 231.055 171.301 231.52 172.277 232.449C173.262 233.379 173.754 234.652 173.754 236.27C173.754 238.184 173.164 239.656 171.984 240.688C170.805 241.719 169.117 242.234 166.922 242.234C165.016 242.234 163.477 241.926 162.305 241.309V238.18C162.922 238.508 163.641 238.777 164.461 238.988C165.281 239.191 166.059 239.293 166.793 239.293C169.004 239.293 170.109 238.387 170.109 236.574C170.109 234.848 168.965 233.984 166.676 233.984C166.262 233.984 165.805 234.027 165.305 234.113C164.805 234.191 164.398 234.277 164.086 234.371L162.645 233.598L163.289 224.867H172.582V227.938H166.465L166.148 231.301L166.559 231.219C167.035 231.109 167.625 231.055 168.328 231.055Z" fill="white"/>
<path d="M129.914 572H126.293V562.086L126.328 560.457L126.387 558.676C125.785 559.277 125.367 559.672 125.133 559.859L123.164 561.441L121.418 559.262L126.938 554.867H129.914V572ZM146.578 562.18C146.578 565.555 145.867 568.074 144.445 569.738C143.023 571.402 140.871 572.234 137.988 572.234C136.973 572.234 136.203 572.18 135.68 572.07V569.164C136.336 569.328 137.023 569.41 137.742 569.41C138.953 569.41 139.949 569.234 140.73 568.883C141.512 568.523 142.109 567.965 142.523 567.207C142.938 566.441 143.176 565.391 143.238 564.055H143.098C142.645 564.789 142.121 565.305 141.527 565.602C140.934 565.898 140.191 566.047 139.301 566.047C137.809 566.047 136.633 565.57 135.773 564.617C134.914 563.656 134.484 562.324 134.484 560.621C134.484 558.785 135.004 557.336 136.043 556.273C137.09 555.203 138.512 554.668 140.309 554.668C141.574 554.668 142.68 554.965 143.625 555.559C144.578 556.152 145.309 557.016 145.816 558.148C146.324 559.273 146.578 560.617 146.578 562.18ZM140.379 557.574C139.629 557.574 139.043 557.832 138.621 558.348C138.199 558.863 137.988 559.605 137.988 560.574C137.988 561.402 138.18 562.059 138.562 562.543C138.945 563.027 139.527 563.27 140.309 563.27C141.043 563.27 141.672 563.031 142.195 562.555C142.719 562.07 142.98 561.516 142.98 560.891C142.98 559.961 142.734 559.176 142.242 558.535C141.758 557.895 141.137 557.574 140.379 557.574ZM160.289 562.18C160.289 565.555 159.578 568.074 158.156 569.738C156.734 571.402 154.582 572.234 151.699 572.234C150.684 572.234 149.914 572.18 149.391 572.07V569.164C150.047 569.328 150.734 569.41 151.453 569.41C152.664 569.41 153.66 569.234 154.441 568.883C155.223 568.523 155.82 567.965 156.234 567.207C156.648 566.441 156.887 565.391 156.949 564.055H156.809C156.355 564.789 155.832 565.305 155.238 565.602C154.645 565.898 153.902 566.047 153.012 566.047C151.52 566.047 150.344 565.57 149.484 564.617C148.625 563.656 148.195 562.324 148.195 560.621C148.195 558.785 148.715 557.336 149.754 556.273C150.801 555.203 152.223 554.668 154.02 554.668C155.285 554.668 156.391 554.965 157.336 555.559C158.289 556.152 159.02 557.016 159.527 558.148C160.035 559.273 160.289 560.617 160.289 562.18ZM154.09 557.574C153.34 557.574 152.754 557.832 152.332 558.348C151.91 558.863 151.699 559.605 151.699 560.574C151.699 561.402 151.891 562.059 152.273 562.543C152.656 563.027 153.238 563.27 154.02 563.27C154.754 563.27 155.383 563.031 155.906 562.555C156.43 562.07 156.691 561.516 156.691 560.891C156.691 559.961 156.445 559.176 155.953 558.535C155.469 557.895 154.848 557.574 154.09 557.574ZM168.328 561.055C169.984 561.055 171.301 561.52 172.277 562.449C173.262 563.379 173.754 564.652 173.754 566.27C173.754 568.184 173.164 569.656 171.984 570.688C170.805 571.719 169.117 572.234 166.922 572.234C165.016 572.234 163.477 571.926 162.305 571.309V568.18C162.922 568.508 163.641 568.777 164.461 568.988C165.281 569.191 166.059 569.293 166.793 569.293C169.004 569.293 170.109 568.387 170.109 566.574C170.109 564.848 168.965 563.984 166.676 563.984C166.262 563.984 165.805 564.027 165.305 564.113C164.805 564.191 164.398 564.277 164.086 564.371L162.645 563.598L163.289 554.867H172.582V557.938H166.465L166.148 561.301L166.559 561.219C167.035 561.109 167.625 561.055 168.328 561.055Z" fill="white"/>
</svg>
